<?xml version="1.0" encoding="utf-8" standalone="no"?>
<!DOCTYPE svg PUBLIC "-//W3C//DTD SVG 1.1//EN"
  "http://www.w3.org/Graphics/SVG/1.1/DTD/svg11.dtd">
<!-- Created with matplotlib (https://matplotlib.org/) -->
<svg height="288pt" version="1.1" viewBox="0 0 864 288" width="864pt" xmlns="http://www.w3.org/2000/svg" xmlns:xlink="http://www.w3.org/1999/xlink">
 <defs>
  <style type="text/css">
*{stroke-linecap:butt;stroke-linejoin:round;white-space:pre;}
  </style>
 </defs>
 <g id="figure_1">
  <g id="patch_1">
   <path d="M 0 288 
L 864 288 
L 864 0 
L 0 0 
z
" style="fill:#ffffff;"/>
  </g>
  <g id="axes_1">
   <g id="patch_2">
    <path d="M 48.2875 261.2 
L 423.276136 261.2 
L 423.276136 26.7 
L 48.2875 26.7 
z
" style="fill:#ffffff;"/>
   </g>
   <g id="matplotlib.axis_1">
    <g id="xtick_1">
     <g id="line2d_1">
      <path clip-path="url(#pef2a12ee9b)" d="M 48.2875 261.2 
L 48.2875 26.7 
" style="fill:none;stroke:#b0b0b0;stroke-linecap:square;stroke-width:0.8;"/>
     </g>
     <g id="line2d_2">
      <defs>
       <path d="M 0 0 
L 0 3.5 
" id="m2d27faf8c6" style="stroke:#000000;stroke-width:0.8;"/>
      </defs>
      <g>
       <use style="stroke:#000000;stroke-width:0.8;" x="48.2875" xlink:href="#m2d27faf8c6" y="261.2"/>
      </g>
     </g>
     <g id="text_1">
      <!-- 0 -->
      <defs>
       <path d="M 31.78125 66.40625 
Q 24.171875 66.40625 20.328125 58.90625 
Q 16.5 51.421875 16.5 36.375 
Q 16.5 21.390625 20.328125 13.890625 
Q 24.171875 6.390625 31.78125 6.390625 
Q 39.453125 6.390625 43.28125 13.890625 
Q 47.125 21.390625 47.125 36.375 
Q 47.125 51.421875 43.28125 58.90625 
Q 39.453125 66.40625 31.78125 66.40625 
z
M 31.78125 74.21875 
Q 44.046875 74.21875 50.515625 64.515625 
Q 56.984375 54.828125 56.984375 36.375 
Q 56.984375 17.96875 50.515625 8.265625 
Q 44.046875 -1.421875 31.78125 -1.421875 
Q 19.53125 -1.421875 13.0625 8.265625 
Q 6.59375 17.96875 6.59375 36.375 
Q 6.59375 54.828125 13.0625 64.515625 
Q 19.53125 74.21875 31.78125 74.21875 
z
" id="DejaVuSans-48"/>
      </defs>
      <g transform="translate(45.10625 275.798437)scale(0.1 -0.1)">
       <use xlink:href="#DejaVuSans-48"/>
      </g>
     </g>
    </g>
    <g id="xtick_2">
     <g id="line2d_3">
      <path clip-path="url(#pef2a12ee9b)" d="M 121.527468 261.2 
L 121.527468 26.7 
" style="fill:none;stroke:#b0b0b0;stroke-linecap:square;stroke-width:0.8;"/>
     </g>
     <g id="line2d_4">
      <g>
       <use style="stroke:#000000;stroke-width:0.8;" x="121.527468" xlink:href="#m2d27faf8c6" y="261.2"/>
      </g>
     </g>
     <g id="text_2">
      <!-- 200 -->
      <defs>
       <path d="M 19.1875 8.296875 
L 53.609375 8.296875 
L 53.609375 0 
L 7.328125 0 
L 7.328125 8.296875 
Q 12.9375 14.109375 22.625 23.890625 
Q 32.328125 33.6875 34.8125 36.53125 
Q 39.546875 41.84375 41.421875 45.53125 
Q 43.3125 49.21875 43.3125 52.78125 
Q 43.3125 58.59375 39.234375 62.25 
Q 35.15625 65.921875 28.609375 65.921875 
Q 23.96875 65.921875 18.8125 64.3125 
Q 13.671875 62.703125 7.8125 59.421875 
L 7.8125 69.390625 
Q 13.765625 71.78125 18.9375 73 
Q 24.125 74.21875 28.421875 74.21875 
Q 39.75 74.21875 46.484375 68.546875 
Q 53.21875 62.890625 53.21875 53.421875 
Q 53.21875 48.921875 51.53125 44.890625 
Q 49.859375 40.875 45.40625 35.40625 
Q 44.1875 33.984375 37.640625 27.21875 
Q 31.109375 20.453125 19.1875 8.296875 
z
" id="DejaVuSans-50"/>
      </defs>
      <g transform="translate(111.983718 275.798437)scale(0.1 -0.1)">
       <use xlink:href="#DejaVuSans-50"/>
       <use x="63.623047" xlink:href="#DejaVuSans-48"/>
       <use x="127.246094" xlink:href="#DejaVuSans-48"/>
      </g>
     </g>
    </g>
    <g id="xtick_3">
     <g id="line2d_5">
      <path clip-path="url(#pef2a12ee9b)" d="M 194.767436 261.2 
L 194.767436 26.7 
" style="fill:none;stroke:#b0b0b0;stroke-linecap:square;stroke-width:0.8;"/>
     </g>
     <g id="line2d_6">
      <g>
       <use style="stroke:#000000;stroke-width:0.8;" x="194.767436" xlink:href="#m2d27faf8c6" y="261.2"/>
      </g>
     </g>
     <g id="text_3">
      <!-- 400 -->
      <defs>
       <path d="M 37.796875 64.3125 
L 12.890625 25.390625 
L 37.796875 25.390625 
z
M 35.203125 72.90625 
L 47.609375 72.90625 
L 47.609375 25.390625 
L 58.015625 25.390625 
L 58.015625 17.1875 
L 47.609375 17.1875 
L 47.609375 0 
L 37.796875 0 
L 37.796875 17.1875 
L 4.890625 17.1875 
L 4.890625 26.703125 
z
" id="DejaVuSans-52"/>
      </defs>
      <g transform="translate(185.223686 275.798437)scale(0.1 -0.1)">
       <use xlink:href="#DejaVuSans-52"/>
       <use x="63.623047" xlink:href="#DejaVuSans-48"/>
       <use x="127.246094" xlink:href="#DejaVuSans-48"/>
      </g>
     </g>
    </g>
    <g id="xtick_4">
     <g id="line2d_7">
      <path clip-path="url(#pef2a12ee9b)" d="M 268.007404 261.2 
L 268.007404 26.7 
" style="fill:none;stroke:#b0b0b0;stroke-linecap:square;stroke-width:0.8;"/>
     </g>
     <g id="line2d_8">
      <g>
       <use style="stroke:#000000;stroke-width:0.8;" x="268.007404" xlink:href="#m2d27faf8c6" y="261.2"/>
      </g>
     </g>
     <g id="text_4">
      <!-- 600 -->
      <defs>
       <path d="M 33.015625 40.375 
Q 26.375 40.375 22.484375 35.828125 
Q 18.609375 31.296875 18.609375 23.390625 
Q 18.609375 15.53125 22.484375 10.953125 
Q 26.375 6.390625 33.015625 6.390625 
Q 39.65625 6.390625 43.53125 10.953125 
Q 47.40625 15.53125 47.40625 23.390625 
Q 47.40625 31.296875 43.53125 35.828125 
Q 39.65625 40.375 33.015625 40.375 
z
M 52.59375 71.296875 
L 52.59375 62.3125 
Q 48.875 64.0625 45.09375 64.984375 
Q 41.3125 65.921875 37.59375 65.921875 
Q 27.828125 65.921875 22.671875 59.328125 
Q 17.53125 52.734375 16.796875 39.40625 
Q 19.671875 43.65625 24.015625 45.921875 
Q 28.375 48.1875 33.59375 48.1875 
Q 44.578125 48.1875 50.953125 41.515625 
Q 57.328125 34.859375 57.328125 23.390625 
Q 57.328125 12.15625 50.6875 5.359375 
Q 44.046875 -1.421875 33.015625 -1.421875 
Q 20.359375 -1.421875 13.671875 8.265625 
Q 6.984375 17.96875 6.984375 36.375 
Q 6.984375 53.65625 15.1875 63.9375 
Q 23.390625 74.21875 37.203125 74.21875 
Q 40.921875 74.21875 44.703125 73.484375 
Q 48.484375 72.75 52.59375 71.296875 
z
" id="DejaVuSans-54"/>
      </defs>
      <g transform="translate(258.463654 275.798437)scale(0.1 -0.1)">
       <use xlink:href="#DejaVuSans-54"/>
       <use x="63.623047" xlink:href="#DejaVuSans-48"/>
       <use x="127.246094" xlink:href="#DejaVuSans-48"/>
      </g>
     </g>
    </g>
    <g id="xtick_5">
     <g id="line2d_9">
      <path clip-path="url(#pef2a12ee9b)" d="M 341.247372 261.2 
L 341.247372 26.7 
" style="fill:none;stroke:#b0b0b0;stroke-linecap:square;stroke-width:0.8;"/>
     </g>
     <g id="line2d_10">
      <g>
       <use style="stroke:#000000;stroke-width:0.8;" x="341.247372" xlink:href="#m2d27faf8c6" y="261.2"/>
      </g>
     </g>
     <g id="text_5">
      <!-- 800 -->
      <defs>
       <path d="M 31.78125 34.625 
Q 24.75 34.625 20.71875 30.859375 
Q 16.703125 27.09375 16.703125 20.515625 
Q 16.703125 13.921875 20.71875 10.15625 
Q 24.75 6.390625 31.78125 6.390625 
Q 38.8125 6.390625 42.859375 10.171875 
Q 46.921875 13.96875 46.921875 20.515625 
Q 46.921875 27.09375 42.890625 30.859375 
Q 38.875 34.625 31.78125 34.625 
z
M 21.921875 38.8125 
Q 15.578125 40.375 12.03125 44.71875 
Q 8.5 49.078125 8.5 55.328125 
Q 8.5 64.0625 14.71875 69.140625 
Q 20.953125 74.21875 31.78125 74.21875 
Q 42.671875 74.21875 48.875 69.140625 
Q 55.078125 64.0625 55.078125 55.328125 
Q 55.078125 49.078125 51.53125 44.71875 
Q 48 40.375 41.703125 38.8125 
Q 48.828125 37.15625 52.796875 32.3125 
Q 56.78125 27.484375 56.78125 20.515625 
Q 56.78125 9.90625 50.3125 4.234375 
Q 43.84375 -1.421875 31.78125 -1.421875 
Q 19.734375 -1.421875 13.25 4.234375 
Q 6.78125 9.90625 6.78125 20.515625 
Q 6.78125 27.484375 10.78125 32.3125 
Q 14.796875 37.15625 21.921875 38.8125 
z
M 18.3125 54.390625 
Q 18.3125 48.734375 21.84375 45.5625 
Q 25.390625 42.390625 31.78125 42.390625 
Q 38.140625 42.390625 41.71875 45.5625 
Q 45.3125 48.734375 45.3125 54.390625 
Q 45.3125 60.0625 41.71875 63.234375 
Q 38.140625 66.40625 31.78125 66.40625 
Q 25.390625 66.40625 21.84375 63.234375 
Q 18.3125 60.0625 18.3125 54.390625 
z
" id="DejaVuSans-56"/>
      </defs>
      <g transform="translate(331.703622 275.798437)scale(0.1 -0.1)">
       <use xlink:href="#DejaVuSans-56"/>
       <use x="63.623047" xlink:href="#DejaVuSans-48"/>
       <use x="127.246094" xlink:href="#DejaVuSans-48"/>
      </g>
     </g>
    </g>
    <g id="xtick_6">
     <g id="line2d_11">
      <path clip-path="url(#pef2a12ee9b)" d="M 414.48734 261.2 
L 414.48734 26.7 
" style="fill:none;stroke:#b0b0b0;stroke-linecap:square;stroke-width:0.8;"/>
     </g>
     <g id="line2d_12">
      <g>
       <use style="stroke:#000000;stroke-width:0.8;" x="414.48734" xlink:href="#m2d27faf8c6" y="261.2"/>
      </g>
     </g>
     <g id="text_6">
      <!-- 1000 -->
      <defs>
       <path d="M 12.40625 8.296875 
L 28.515625 8.296875 
L 28.515625 63.921875 
L 10.984375 60.40625 
L 10.984375 69.390625 
L 28.421875 72.90625 
L 38.28125 72.90625 
L 38.28125 8.296875 
L 54.390625 8.296875 
L 54.390625 0 
L 12.40625 0 
z
" id="DejaVuSans-49"/>
      </defs>
      <g transform="translate(401.76234 275.798437)scale(0.1 -0.1)">
       <use xlink:href="#DejaVuSans-49"/>
       <use x="63.623047" xlink:href="#DejaVuSans-48"/>
       <use x="127.246094" xlink:href="#DejaVuSans-48"/>
       <use x="190.869141" xlink:href="#DejaVuSans-48"/>
      </g>
     </g>
    </g>
   </g>
   <g id="matplotlib.axis_2">
    <g id="ytick_1">
     <g id="line2d_13">
      <path clip-path="url(#pef2a12ee9b)" d="M 48.2875 250.540909 
L 423.276136 250.540909 
" style="fill:none;stroke:#b0b0b0;stroke-linecap:square;stroke-width:0.8;"/>
     </g>
     <g id="line2d_14">
      <defs>
       <path d="M 0 0 
L -3.5 0 
" id="me4a8082733" style="stroke:#000000;stroke-width:0.8;"/>
      </defs>
      <g>
       <use style="stroke:#000000;stroke-width:0.8;" x="48.2875" xlink:href="#me4a8082733" y="250.540909"/>
      </g>
     </g>
     <g id="text_7">
      <!-- −1.00 -->
      <defs>
       <path d="M 10.59375 35.5 
L 73.1875 35.5 
L 73.1875 27.203125 
L 10.59375 27.203125 
z
" id="DejaVuSans-8722"/>
       <path d="M 10.6875 12.40625 
L 21 12.40625 
L 21 0 
L 10.6875 0 
z
" id="DejaVuSans-46"/>
      </defs>
      <g transform="translate(10.642187 254.340128)scale(0.1 -0.1)">
       <use xlink:href="#DejaVuSans-8722"/>
       <use x="83.789062" xlink:href="#DejaVuSans-49"/>
       <use x="147.412109" xlink:href="#DejaVuSans-46"/>
       <use x="179.199219" xlink:href="#DejaVuSans-48"/>
       <use x="242.822266" xlink:href="#DejaVuSans-48"/>
      </g>
     </g>
    </g>
    <g id="ytick_2">
     <g id="line2d_15">
      <path clip-path="url(#pef2a12ee9b)" d="M 48.2875 223.893182 
L 423.276136 223.893182 
" style="fill:none;stroke:#b0b0b0;stroke-linecap:square;stroke-width:0.8;"/>
     </g>
     <g id="line2d_16">
      <g>
       <use style="stroke:#000000;stroke-width:0.8;" x="48.2875" xlink:href="#me4a8082733" y="223.893182"/>
      </g>
     </g>
     <g id="text_8">
      <!-- −0.75 -->
      <defs>
       <path d="M 8.203125 72.90625 
L 55.078125 72.90625 
L 55.078125 68.703125 
L 28.609375 0 
L 18.3125 0 
L 43.21875 64.59375 
L 8.203125 64.59375 
z
" id="DejaVuSans-55"/>
       <path d="M 10.796875 72.90625 
L 49.515625 72.90625 
L 49.515625 64.59375 
L 19.828125 64.59375 
L 19.828125 46.734375 
Q 21.96875 47.46875 24.109375 47.828125 
Q 26.265625 48.1875 28.421875 48.1875 
Q 40.625 48.1875 47.75 41.5 
Q 54.890625 34.8125 54.890625 23.390625 
Q 54.890625 11.625 47.5625 5.09375 
Q 40.234375 -1.421875 26.90625 -1.421875 
Q 22.3125 -1.421875 17.546875 -0.640625 
Q 12.796875 0.140625 7.71875 1.703125 
L 7.71875 11.625 
Q 12.109375 9.234375 16.796875 8.0625 
Q 21.484375 6.890625 26.703125 6.890625 
Q 35.15625 6.890625 40.078125 11.328125 
Q 45.015625 15.765625 45.015625 23.390625 
Q 45.015625 31 40.078125 35.4375 
Q 35.15625 39.890625 26.703125 39.890625 
Q 22.75 39.890625 18.8125 39.015625 
Q 14.890625 38.140625 10.796875 36.28125 
z
" id="DejaVuSans-53"/>
      </defs>
      <g transform="translate(10.642187 227.692401)scale(0.1 -0.1)">
       <use xlink:href="#DejaVuSans-8722"/>
       <use x="83.789062" xlink:href="#DejaVuSans-48"/>
       <use x="147.412109" xlink:href="#DejaVuSans-46"/>
       <use x="179.199219" xlink:href="#DejaVuSans-55"/>
       <use x="242.822266" xlink:href="#DejaVuSans-53"/>
      </g>
     </g>
    </g>
    <g id="ytick_3">
     <g id="line2d_17">
      <path clip-path="url(#pef2a12ee9b)" d="M 48.2875 197.245455 
L 423.276136 197.245455 
" style="fill:none;stroke:#b0b0b0;stroke-linecap:square;stroke-width:0.8;"/>
     </g>
     <g id="line2d_18">
      <g>
       <use style="stroke:#000000;stroke-width:0.8;" x="48.2875" xlink:href="#me4a8082733" y="197.245455"/>
      </g>
     </g>
     <g id="text_9">
      <!-- −0.50 -->
      <g transform="translate(10.642187 201.044673)scale(0.1 -0.1)">
       <use xlink:href="#DejaVuSans-8722"/>
       <use x="83.789062" xlink:href="#DejaVuSans-48"/>
       <use x="147.412109" xlink:href="#DejaVuSans-46"/>
       <use x="179.199219" xlink:href="#DejaVuSans-53"/>
       <use x="242.822266" xlink:href="#DejaVuSans-48"/>
      </g>
     </g>
    </g>
    <g id="ytick_4">
     <g id="line2d_19">
      <path clip-path="url(#pef2a12ee9b)" d="M 48.2875 170.597727 
L 423.276136 170.597727 
" style="fill:none;stroke:#b0b0b0;stroke-linecap:square;stroke-width:0.8;"/>
     </g>
     <g id="line2d_20">
      <g>
       <use style="stroke:#000000;stroke-width:0.8;" x="48.2875" xlink:href="#me4a8082733" y="170.597727"/>
      </g>
     </g>
     <g id="text_10">
      <!-- −0.25 -->
      <g transform="translate(10.642187 174.396946)scale(0.1 -0.1)">
       <use xlink:href="#DejaVuSans-8722"/>
       <use x="83.789062" xlink:href="#DejaVuSans-48"/>
       <use x="147.412109" xlink:href="#DejaVuSans-46"/>
       <use x="179.199219" xlink:href="#DejaVuSans-50"/>
       <use x="242.822266" xlink:href="#DejaVuSans-53"/>
      </g>
     </g>
    </g>
    <g id="ytick_5">
     <g id="line2d_21">
      <path clip-path="url(#pef2a12ee9b)" d="M 48.2875 143.95 
L 423.276136 143.95 
" style="fill:none;stroke:#b0b0b0;stroke-linecap:square;stroke-width:0.8;"/>
     </g>
     <g id="line2d_22">
      <g>
       <use style="stroke:#000000;stroke-width:0.8;" x="48.2875" xlink:href="#me4a8082733" y="143.95"/>
      </g>
     </g>
     <g id="text_11">
      <!-- 0.00 -->
      <g transform="translate(19.021875 147.749219)scale(0.1 -0.1)">
       <use xlink:href="#DejaVuSans-48"/>
       <use x="63.623047" xlink:href="#DejaVuSans-46"/>
       <use x="95.410156" xlink:href="#DejaVuSans-48"/>
       <use x="159.033203" xlink:href="#DejaVuSans-48"/>
      </g>
     </g>
    </g>
    <g id="ytick_6">
     <g id="line2d_23">
      <path clip-path="url(#pef2a12ee9b)" d="M 48.2875 117.302273 
L 423.276136 117.302273 
" style="fill:none;stroke:#b0b0b0;stroke-linecap:square;stroke-width:0.8;"/>
     </g>
     <g id="line2d_24">
      <g>
       <use style="stroke:#000000;stroke-width:0.8;" x="48.2875" xlink:href="#me4a8082733" y="117.302273"/>
      </g>
     </g>
     <g id="text_12">
      <!-- 0.25 -->
      <g transform="translate(19.021875 121.101491)scale(0.1 -0.1)">
       <use xlink:href="#DejaVuSans-48"/>
       <use x="63.623047" xlink:href="#DejaVuSans-46"/>
       <use x="95.410156" xlink:href="#DejaVuSans-50"/>
       <use x="159.033203" xlink:href="#DejaVuSans-53"/>
      </g>
     </g>
    </g>
    <g id="ytick_7">
     <g id="line2d_25">
      <path clip-path="url(#pef2a12ee9b)" d="M 48.2875 90.654545 
L 423.276136 90.654545 
" style="fill:none;stroke:#b0b0b0;stroke-linecap:square;stroke-width:0.8;"/>
     </g>
     <g id="line2d_26">
      <g>
       <use style="stroke:#000000;stroke-width:0.8;" x="48.2875" xlink:href="#me4a8082733" y="90.654545"/>
      </g>
     </g>
     <g id="text_13">
      <!-- 0.50 -->
      <g transform="translate(19.021875 94.453764)scale(0.1 -0.1)">
       <use xlink:href="#DejaVuSans-48"/>
       <use x="63.623047" xlink:href="#DejaVuSans-46"/>
       <use x="95.410156" xlink:href="#DejaVuSans-53"/>
       <use x="159.033203" xlink:href="#DejaVuSans-48"/>
      </g>
     </g>
    </g>
    <g id="ytick_8">
     <g id="line2d_27">
      <path clip-path="url(#pef2a12ee9b)" d="M 48.2875 64.006818 
L 423.276136 64.006818 
" style="fill:none;stroke:#b0b0b0;stroke-linecap:square;stroke-width:0.8;"/>
     </g>
     <g id="line2d_28">
      <g>
       <use style="stroke:#000000;stroke-width:0.8;" x="48.2875" xlink:href="#me4a8082733" y="64.006818"/>
      </g>
     </g>
     <g id="text_14">
      <!-- 0.75 -->
      <g transform="translate(19.021875 67.806037)scale(0.1 -0.1)">
       <use xlink:href="#DejaVuSans-48"/>
       <use x="63.623047" xlink:href="#DejaVuSans-46"/>
       <use x="95.410156" xlink:href="#DejaVuSans-55"/>
       <use x="159.033203" xlink:href="#DejaVuSans-53"/>
      </g>
     </g>
    </g>
    <g id="ytick_9">
     <g id="line2d_29">
      <path clip-path="url(#pef2a12ee9b)" d="M 48.2875 37.359091 
L 423.276136 37.359091 
" style="fill:none;stroke:#b0b0b0;stroke-linecap:square;stroke-width:0.8;"/>
     </g>
     <g id="line2d_30">
      <g>
       <use style="stroke:#000000;stroke-width:0.8;" x="48.2875" xlink:href="#me4a8082733" y="37.359091"/>
      </g>
     </g>
     <g id="text_15">
      <!-- 1.00 -->
      <g transform="translate(19.021875 41.15831)scale(0.1 -0.1)">
       <use xlink:href="#DejaVuSans-49"/>
       <use x="63.623047" xlink:href="#DejaVuSans-46"/>
       <use x="95.410156" xlink:href="#DejaVuSans-48"/>
       <use x="159.033203" xlink:href="#DejaVuSans-48"/>
      </g>
     </g>
    </g>
   </g>
   <g id="line2d_31">
    <path clip-path="url(#pef2a12ee9b)" d="M 48.2875 37.359091 
L 57.808696 37.465091 
L 61.470694 37.748521 
L 64.034093 38.151262 
L 66.231292 38.693718 
L 68.428491 39.474978 
L 70.25949 40.351674 
L 72.09049 41.47365 
L 73.921489 42.881012 
L 75.752488 44.615779 
L 77.583487 46.721364 
L 79.414486 49.241929 
L 81.245486 52.221625 
L 83.076485 55.703692 
L 84.907484 59.729407 
L 86.738483 64.336894 
L 88.569482 69.559777 
L 90.400482 75.425689 
L 92.231481 81.954651 
L 94.42868 90.678886 
L 96.625879 100.369515 
L 98.823078 110.995515 
L 101.386477 124.487976 
L 104.316076 141.14427 
L 108.344274 165.516755 
L 114.569671 203.314795 
L 117.13307 217.469081 
L 118.964069 226.564027 
L 120.795068 234.541393 
L 122.259868 239.9554 
L 123.358467 243.370658 
L 124.457067 246.176977 
L 125.555666 248.326291 
L 126.288066 249.371682 
L 127.020466 250.092329 
L 127.752865 250.47648 
L 128.485265 250.513299 
L 129.217665 250.192963 
L 129.950064 249.50678 
L 130.682464 248.447288 
L 131.414864 247.008366 
L 132.147263 245.185339 
L 133.245863 241.724217 
L 134.344462 237.388741 
L 135.443062 232.184518 
L 136.907861 223.922198 
L 138.372661 214.209194 
L 140.20366 200.183563 
L 142.034659 184.324488 
L 144.231858 163.391359 
L 148.260056 122.266255 
L 151.189655 93.102928 
L 153.020654 76.569031 
L 154.485454 64.839336 
L 155.950253 54.810606 
L 157.048853 48.598608 
L 158.147452 43.647 
L 158.879852 41.101145 
L 159.612251 39.193544 
L 160.344651 37.94951 
L 160.710851 37.5832 
L 161.077051 37.390511 
L 161.443251 37.373472 
L 161.80945 37.533827 
L 162.17565 37.873029 
L 162.90805 39.092279 
L 163.64045 41.036689 
L 164.372849 43.706521 
L 165.105249 47.096606 
L 166.203849 53.507028 
L 167.302448 61.451482 
L 168.401048 70.839132 
L 169.865847 85.38763 
L 171.696846 106.304459 
L 174.260245 139.000617 
L 178.654643 195.776946 
L 180.485642 216.160141 
L 181.950442 229.769318 
L 183.049041 238.007672 
L 184.147641 244.312329 
L 184.88004 247.348165 
L 185.61244 249.396457 
L 185.97864 250.038592 
L 186.34484 250.420986 
L 186.71104 250.540609 
L 187.077239 250.395063 
L 187.443439 249.982608 
L 187.809639 249.302171 
L 188.542039 247.136519 
L 189.274438 243.903496 
L 190.006838 239.620022 
L 191.105438 231.291191 
L 192.204037 220.812936 
L 193.302637 208.391394 
L 194.767436 189.269274 
L 196.598435 162.360311 
L 201.725233 84.866068 
L 203.190032 66.766601 
L 204.288632 55.558189 
L 205.387231 46.787896 
L 206.119631 42.449525 
L 206.852031 39.405895 
L 207.218231 38.388395 
L 207.58443 37.715063 
L 207.95063 37.390515 
L 208.31683 37.41824 
L 208.68303 37.800573 
L 209.04923 38.538669 
L 209.41543 39.632479 
L 210.147829 42.88091 
L 210.880229 47.520775 
L 211.612629 53.506944 
L 212.711228 64.862585 
L 213.809828 78.793811 
L 215.274627 100.677503 
L 217.471826 138.129529 
L 220.767625 194.994536 
L 222.232424 216.531661 
L 223.331024 229.881705 
L 224.429623 240.237606 
L 225.162023 245.259774 
L 225.894422 248.655399 
L 226.260622 249.718453 
L 226.626822 250.348403 
L 226.993022 250.539961 
L 227.359222 250.289624 
L 227.725422 249.595719 
L 228.091622 248.458432 
L 228.824021 244.863912 
L 229.556421 239.545552 
L 230.288821 232.573425 
L 231.38742 219.241845 
L 232.48602 202.882258 
L 233.950819 177.406064 
L 236.880418 120.671719 
L 238.711417 87.186169 
L 240.176216 64.783017 
L 241.274816 51.748997 
L 242.007215 45.213983 
L 242.739615 40.579285 
L 243.105815 39.011257 
L 243.472015 37.957703 
L 243.838215 37.426751 
L 244.204415 37.42399 
L 244.570614 37.952403 
L 244.936814 39.012323 
L 245.303014 40.60139 
L 246.035414 45.343968 
L 246.767813 52.106962 
L 247.500213 60.774161 
L 248.598813 76.988991 
L 250.063612 103.477534 
L 252.260811 149.186672 
L 254.45801 194.351125 
L 255.922809 219.722495 
L 257.021409 234.54114 
L 257.753809 241.946652 
L 258.486208 247.145129 
L 258.852408 248.870176 
L 259.218608 249.993969 
L 259.584808 250.506865 
L 259.951008 250.4027 
L 260.317207 249.678871 
L 260.683407 248.336392 
L 261.049607 246.379934 
L 261.782007 240.66212 
L 262.514407 232.635984 
L 263.246806 222.469317 
L 264.345406 203.706087 
L 265.810205 173.678759 
L 270.204603 77.973953 
L 271.303203 59.932802 
L 272.035602 50.504838 
L 272.768002 43.474606 
L 273.500402 39.049741 
L 273.866602 37.861447 
L 274.232801 37.372353 
L 274.599001 37.589112 
L 274.965201 38.513714 
L 275.331401 40.143421 
L 276.063801 45.483361 
L 276.7962 53.491891 
L 277.5286 63.977432 
L 278.627199 83.757813 
L 280.091999 115.825325 
L 284.120197 209.283326 
L 285.218797 228.449566 
L 285.951196 238.274103 
L 286.683596 245.364105 
L 287.049796 247.807143 
L 287.415996 249.485057 
L 287.782195 250.381855 
L 288.148395 250.487261 
L 288.514595 249.796855 
L 288.880795 248.31217 
L 289.246995 246.040744 
L 289.979395 239.197832 
L 290.711794 229.447613 
L 291.444194 217.061275 
L 292.542793 194.339858 
L 294.007593 158.748657 
L 296.937191 86.136749 
L 298.035791 64.388886 
L 298.768191 52.961056 
L 299.50059 44.461292 
L 300.23299 39.193662 
L 300.59919 37.839209 
L 300.96539 37.359929 
L 301.33159 37.763611 
L 301.697789 39.050734 
L 302.063989 41.214393 
L 302.796389 48.106739 
L 303.528789 58.238638 
L 304.261188 71.295388 
L 305.359788 95.422705 
L 307.190787 143.112288 
L 309.387986 200.051254 
L 310.486586 223.116715 
L 311.218985 235.128852 
L 311.951385 243.90555 
L 312.683785 249.103287 
L 313.049984 250.286631 
L 313.416184 250.503815 
L 313.782384 249.748845 
L 314.148584 248.024608 
L 314.514784 245.342925 
L 315.247184 237.198981 
L 315.979583 225.587373 
L 317.078183 202.583466 
L 318.542982 164.497384 
L 321.472581 84.708653 
L 322.57118 61.443285 
L 323.30358 49.783703 
L 324.03598 41.78523 
L 324.40218 39.272462 
L 324.768379 37.792415 
L 325.134579 37.363892 
L 325.500779 37.995337 
L 325.866979 39.68465 
L 326.233179 42.419116 
L 326.965578 50.919846 
L 327.697978 63.187276 
L 328.796578 87.590284 
L 330.261377 127.835999 
L 332.824776 200.814514 
L 333.923375 225.482043 
L 334.655775 237.80804 
L 335.388175 246.176705 
L 335.754375 248.748918 
L 336.120574 250.200216 
L 336.486774 250.510701 
L 336.852974 249.672673 
L 337.219174 247.690818 
L 337.585374 244.582271 
L 338.317773 235.115272 
L 339.050173 221.651383 
L 340.148773 195.230241 
L 341.613572 152.486558 
L 343.810771 87.657724 
L 344.909371 62.038742 
L 345.64177 49.420545 
L 346.37417 41.101397 
L 346.74037 38.691676 
L 347.10657 37.495956 
L 347.472769 37.532567 
L 347.838969 38.805609 
L 348.205169 41.304788 
L 348.571369 45.005408 
L 349.303769 55.841354 
L 350.036168 70.838435 
L 351.134768 99.606112 
L 352.965767 156.52196 
L 354.430566 200.42722 
L 355.529166 226.776213 
L 356.261566 239.501251 
L 356.993965 247.562919 
L 357.360165 249.700822 
L 357.726365 250.530168 
L 358.092565 250.036 
L 358.458765 248.219781 
L 358.824964 245.099512 
L 359.557364 235.100776 
L 360.289764 220.505979 
L 361.388363 191.59269 
L 363.219363 133.055673 
L 364.684162 87.568309 
L 365.782761 60.455166 
L 366.515161 47.590495 
L 367.247561 39.748364 
L 367.613761 37.861509 
L 367.97996 37.376358 
L 368.34616 38.304165 
L 368.71236 40.637441 
L 369.07856 44.34991 
L 369.81096 55.71481 
L 370.543359 71.826727 
L 371.641959 103.008826 
L 375.303957 218.726119 
L 376.036357 234.410772 
L 376.768757 245.100923 
L 377.134956 248.364374 
L 377.501156 250.166236 
L 377.867356 250.476286 
L 378.233556 249.285179 
L 378.599756 246.604749 
L 378.965956 242.468002 
L 379.698355 230.061317 
L 380.430755 212.733571 
L 381.529355 179.675241 
L 384.825153 71.740741 
L 385.557553 55.008474 
L 386.289953 43.474872 
L 386.656152 39.894156 
L 387.022352 37.855405 
L 387.388552 37.393978 
L 387.754752 38.52187 
L 388.120952 41.227353 
L 388.487152 45.474978 
L 389.219551 58.338702 
L 389.951951 76.377252 
L 391.05055 110.753471 
L 393.980149 210.608066 
L 394.712549 229.075252 
L 395.444949 242.296903 
L 395.811148 246.658703 
L 396.177348 249.415717 
L 396.543548 250.51958 
L 396.909748 249.947706 
L 397.275948 247.703837 
L 397.642148 243.818176 
L 398.374547 231.37247 
L 399.106947 213.360207 
L 400.205546 178.420361 
L 403.135145 76.151422 
L 403.867545 57.534728 
L 404.599945 44.52989 
L 404.966144 40.425299 
L 405.332344 38.02511 
L 405.698544 37.374268 
L 406.064744 38.488932 
L 406.430944 41.356006 
L 406.797144 45.933145 
L 407.529543 59.905466 
L 408.261943 79.513126 
L 409.360542 116.605291 
L 411.923941 208.8427 
L 412.656341 228.551759 
L 413.388741 242.493671 
L 413.754941 246.973719 
L 414.12114 249.673223 
L 414.48734 250.539966 
L 414.85354 249.553376 
L 415.21974 246.725102 
L 415.58594 242.09904 
L 416.318339 227.786538 
L 417.050739 207.577342 
L 418.149339 169.332356 
L 420.712737 75.631952 
L 421.445137 56.364753 
L 422.177537 43.362784 
L 422.543737 39.535707 
L 422.909937 37.60191 
L 423.276136 37.602147 
L 423.642336 39.542074 
L 423.642336 39.542074 
" style="fill:none;stroke:#1f77b4;stroke-linecap:square;stroke-width:1.5;"/>
   </g>
   <g id="line2d_32">
    <path clip-path="url(#pef2a12ee9b)" d="M 48.2875 143.95 
L 49.752299 143.837478 
L 51.217099 143.499914 
L 52.681898 142.937318 
L 54.146697 142.149735 
L 55.611497 141.137279 
L 57.442496 139.555859 
L 59.273495 137.624363 
L 61.104494 135.344419 
L 62.935494 132.718698 
L 65.132693 129.117273 
L 67.329892 125.034515 
L 69.527091 120.48603 
L 72.09049 114.620501 
L 74.653888 108.199574 
L 77.583487 100.266889 
L 81.245486 89.658866 
L 92.231481 57.242454 
L 94.42868 51.625516 
L 96.259679 47.446141 
L 98.090678 43.838732 
L 99.555478 41.440829 
L 100.654077 39.966007 
L 101.752677 38.796576 
L 102.851276 37.957657 
L 103.949876 37.474054 
L 104.682275 37.361055 
L 105.414675 37.42376 
L 106.147075 37.668965 
L 106.879474 38.103225 
L 107.611874 38.732821 
L 108.710474 40.056409 
L 109.809073 41.851368 
L 110.907673 44.134058 
L 112.006272 46.918309 
L 113.104872 50.215054 
L 114.569671 55.420666 
L 116.03447 61.558538 
L 117.49927 68.623572 
L 119.330269 78.727264 
L 121.161268 90.17407 
L 123.358467 105.51623 
L 125.921866 125.25595 
L 129.217665 152.555501 
L 134.344462 195.241555 
L 136.541661 211.836506 
L 138.372661 224.107767 
L 139.83746 232.592669 
L 141.302259 239.66014 
L 142.400859 243.908256 
L 143.499458 247.166338 
L 144.231858 248.752936 
L 144.964258 249.848904 
L 145.696657 250.437398 
L 146.062857 250.53668 
L 146.429057 250.503795 
L 146.795257 250.337294 
L 147.527657 249.598483 
L 148.260056 248.312048 
L 148.992456 246.472697 
L 149.724856 244.078214 
L 150.823455 239.448792 
L 151.922055 233.591352 
L 153.020654 226.54193 
L 154.485454 215.386159 
L 155.950253 202.394763 
L 157.781252 183.95325 
L 159.978451 159.416355 
L 166.570048 83.746898 
L 168.034848 69.615343 
L 169.499647 57.533909 
L 170.598247 50.091562 
L 171.696846 44.228211 
L 172.429246 41.271091 
L 173.161646 39.120242 
L 173.894045 37.807682 
L 174.260245 37.474061 
L 174.626445 37.359143 
L 174.992645 37.465082 
L 175.358845 37.793579 
L 175.725044 38.34587 
L 176.457444 40.12439 
L 177.189844 42.800803 
L 177.922243 46.36716 
L 179.020843 53.347344 
L 180.119442 62.200131 
L 181.218042 72.790853 
L 182.682841 89.302003 
L 184.513841 113.00807 
L 187.443439 154.845321 
L 190.373038 195.776911 
L 191.837837 213.721078 
L 193.302637 228.85541 
L 194.401236 237.90489 
L 195.133636 242.686092 
L 195.866036 246.383593 
L 196.598435 248.938963 
L 196.964635 249.773329 
L 197.330835 250.30572 
L 197.697035 250.532353 
L 198.063235 250.450309 
L 198.429434 250.057555 
L 198.795634 249.352963 
L 199.528034 247.008417 
L 200.260434 243.426469 
L 200.992833 238.632372 
L 202.091433 229.262202 
L 203.190032 217.46425 
L 204.654832 198.453084 
L 206.485831 170.667585 
L 212.345028 77.29103 
L 213.443628 63.621115 
L 214.542227 52.423027 
L 215.274627 46.537922 
L 216.007027 42.039217 
L 216.739426 39.011236 
L 217.105626 38.069647 
L 217.471826 37.518125 
L 217.838026 37.361271 
L 218.204226 37.602241 
L 218.570426 38.242709 
L 218.936626 39.282839 
L 219.669025 42.555066 
L 220.401425 47.389308 
L 221.133825 53.730924 
L 222.232424 65.88897 
L 223.331024 80.883655 
L 224.795823 104.435908 
L 226.993022 144.399687 
L 229.922621 197.245097 
L 231.38742 219.400381 
L 232.48602 232.767852 
L 233.218419 239.798874 
L 233.950819 245.154317 
L 234.683219 248.718078 
L 235.049419 249.800033 
L 235.415618 250.404434 
L 235.781818 250.525713 
L 236.148018 250.160473 
L 236.514218 249.307541 
L 236.880418 247.967996 
L 237.612817 243.844811 
L 238.345217 237.84538 
L 239.077617 230.060775 
L 240.176216 215.32374 
L 241.274816 197.434549 
L 242.739615 169.952252 
L 247.134013 83.422577 
L 248.232613 66.057385 
L 249.331212 52.232638 
L 250.063612 45.341677 
L 250.796012 40.511032 
L 251.162211 38.909269 
L 251.528411 37.86622 
L 251.894611 37.39052 
L 252.260811 37.487804 
L 252.627011 38.16064 
L 252.993211 39.408475 
L 253.359411 41.227599 
L 254.09181 46.548989 
L 254.82421 54.031705 
L 255.55661 63.532771 
L 256.655209 81.138934 
L 258.120008 109.533827 
L 263.246806 216.035634 
L 264.345406 232.215689 
L 265.077805 240.426728 
L 265.810205 246.311237 
L 266.176405 248.326186 
L 266.542605 249.700897 
L 266.908805 250.423623 
L 267.275004 250.486586 
L 267.641204 249.886077 
L 268.007404 248.622523 
L 268.373604 246.700534 
L 269.106004 240.920703 
L 269.838403 232.667204 
L 270.570803 222.126025 
L 271.669403 202.583232 
L 273.134202 171.293744 
L 277.1624 80.313266 
L 278.261 61.269734 
L 278.993399 51.290275 
L 279.725799 43.838952 
L 280.458199 39.147166 
L 280.824399 37.888399 
L 281.190598 37.372464 
L 281.556798 37.606511 
L 281.922998 38.592422 
L 282.289198 40.326744 
L 283.021598 45.999953 
L 283.753997 54.491436 
L 284.486397 65.582969 
L 285.584996 86.425314 
L 287.049796 119.964258 
L 290.711794 207.603594 
L 291.810394 227.619729 
L 292.542793 237.87808 
L 293.275193 245.259662 
L 293.641393 247.788111 
L 294.007593 249.508617 
L 294.373793 250.404062 
L 294.739992 250.463709 
L 295.106192 249.683354 
L 295.472392 248.065431 
L 295.838592 245.61906 
L 296.570992 238.310795 
L 297.303391 227.96373 
L 298.401991 207.441111 
L 299.50059 182.207273 
L 303.894988 72.975077 
L 304.993588 53.938143 
L 305.725988 44.961732 
L 306.458387 39.362338 
L 306.824587 37.903217 
L 307.190787 37.362383 
L 307.556987 37.748449 
L 307.923187 39.061977 
L 308.289387 41.29539 
L 309.021786 48.450889 
L 309.754186 58.992921 
L 310.486586 72.575964 
L 311.585185 97.620613 
L 313.416184 146.761842 
L 315.247184 195.585738 
L 316.345783 220.033197 
L 317.078183 232.965384 
L 317.810582 242.598178 
L 318.542982 248.541715 
L 318.909182 250.044645 
L 319.275382 250.540851 
L 319.641582 250.021513 
L 320.007781 248.487484 
L 320.373981 245.949368 
L 321.106381 237.951913 
L 321.838781 226.306314 
L 322.57118 211.435287 
L 323.66978 184.325264 
L 328.064178 66.616871 
L 328.796578 53.477881 
L 329.528977 43.994492 
L 329.895177 40.760266 
L 330.261377 38.584157 
L 330.627577 37.492763 
L 330.993777 37.501606 
L 331.359976 38.614876 
L 331.726176 40.825275 
L 332.092376 44.113998 
L 332.824776 53.794307 
L 333.557176 67.2817 
L 334.655775 93.429804 
L 336.120574 135.434512 
L 338.317773 199.181468 
L 339.416373 224.647104 
L 340.148773 237.394951 
L 340.881172 246.050331 
L 341.247372 248.706287 
L 341.613572 250.198525 
L 341.979772 250.506013 
L 342.345972 249.620871 
L 342.712172 247.54858 
L 343.078371 244.308035 
L 343.810771 234.464096 
L 344.543171 220.501002 
L 345.64177 193.202452 
L 347.10657 149.349857 
L 348.937569 93.847101 
L 350.036168 66.385054 
L 350.768568 52.423437 
L 351.500968 42.765794 
L 351.867168 39.712934 
L 352.233367 37.903249 
L 352.599567 37.362942 
L 352.965767 38.103093 
L 353.331967 40.119401 
L 353.698167 43.392103 
L 354.430566 53.551186 
L 355.162966 68.12191 
L 356.261566 96.710395 
L 358.092565 154.312552 
L 359.557364 199.205389 
L 360.655964 226.242403 
L 361.388363 239.30091 
L 362.120763 247.549689 
L 362.486963 249.718349 
L 362.853163 250.534425 
L 363.219363 249.98271 
L 363.585562 248.065534 
L 363.951762 244.802882 
L 364.684162 234.408426 
L 365.416562 219.302151 
L 366.515161 189.518274 
L 368.34616 129.787396 
L 369.81096 84.148887 
L 370.909559 57.633484 
L 371.641959 45.535356 
L 372.008159 41.441179 
L 372.374359 38.736417 
L 372.740558 37.462655 
L 373.106758 37.642145 
L 373.472958 39.277342 
L 373.839158 42.350719 
L 374.571558 52.642768 
L 375.303957 67.988471 
L 376.402557 98.629749 
L 378.233556 160.263244 
L 379.698355 206.77088 
L 380.430755 225.377527 
L 381.163155 239.376159 
L 381.895554 247.933694 
L 382.261754 249.993884 
L 382.627954 250.52156 
L 382.994154 249.50403 
L 383.360354 246.951019 
L 383.726554 242.894696 
L 384.458953 230.51089 
L 385.191353 213.039341 
L 386.289953 179.536102 
L 389.585751 70.431931 
L 390.318151 53.836924 
L 391.05055 42.660255 
L 391.41675 39.340807 
L 391.78295 37.615843 
L 392.14915 37.516875 
L 392.51535 39.050613 
L 392.88155 42.198682 
L 393.247749 46.917713 
L 393.980149 60.773536 
L 394.712549 79.799292 
L 395.811148 115.444839 
L 398.374547 204.93306 
L 399.106947 224.844036 
L 399.839347 239.647121 
L 400.205546 244.813354 
L 400.571746 248.364334 
L 400.937946 250.237842 
L 401.304146 250.398423 
L 401.670346 248.838151 
L 402.036546 245.576965 
L 402.402745 240.66254 
L 403.135145 226.199466 
L 403.867545 206.352105 
L 404.966144 169.33224 
L 407.529543 78.389813 
L 408.261943 59.04116 
L 408.994343 45.342102 
L 409.360542 40.926271 
L 409.726742 38.248397 
L 410.092942 37.359149 
L 410.459142 38.279056 
L 410.825342 40.997946 
L 411.191542 45.474901 
L 411.923941 59.38902 
L 412.656341 79.110473 
L 413.754941 116.605252 
L 416.318339 209.775958 
L 417.050739 229.467152 
L 417.783139 243.186363 
L 418.149339 247.474673 
L 418.515538 249.930197 
L 418.881738 250.503837 
L 419.247938 249.179799 
L 419.614138 245.976106 
L 419.980338 240.944511 
L 420.712737 225.768496 
L 421.445137 204.699045 
L 422.543737 165.380754 
L 423.642336 122.488246 
L 423.642336 122.488246 
" style="fill:none;stroke:#ff7f0e;stroke-linecap:square;stroke-width:1.5;"/>
   </g>
   <g id="line2d_33">
    <path clip-path="url(#pef2a12ee9b)" d="M 48.2875 143.95 
L 422.909937 37.359091 
L 422.909937 37.359091 
" style="fill:none;stroke:#2ca02c;stroke-dasharray:9.25,4;stroke-dashoffset:0;stroke-width:2.5;"/>
   </g>
   <g id="patch_3">
    <path d="M 48.2875 261.2 
L 48.2875 26.7 
" style="fill:none;stroke:#000000;stroke-linecap:square;stroke-linejoin:miter;stroke-width:0.8;"/>
   </g>
   <g id="patch_4">
    <path d="M 423.276136 261.2 
L 423.276136 26.7 
" style="fill:none;stroke:#000000;stroke-linecap:square;stroke-linejoin:miter;stroke-width:0.8;"/>
   </g>
   <g id="patch_5">
    <path d="M 48.2875 261.2 
L 423.276136 261.2 
" style="fill:none;stroke:#000000;stroke-linecap:square;stroke-linejoin:miter;stroke-width:0.8;"/>
   </g>
   <g id="patch_6">
    <path d="M 48.2875 26.7 
L 423.276136 26.7 
" style="fill:none;stroke:#000000;stroke-linecap:square;stroke-linejoin:miter;stroke-width:0.8;"/>
   </g>
   <g id="text_16">
    <!-- Chirp -->
    <defs>
     <path d="M 64.40625 67.28125 
L 64.40625 56.890625 
Q 59.421875 61.53125 53.78125 63.8125 
Q 48.140625 66.109375 41.796875 66.109375 
Q 29.296875 66.109375 22.65625 58.46875 
Q 16.015625 50.828125 16.015625 36.375 
Q 16.015625 21.96875 22.65625 14.328125 
Q 29.296875 6.6875 41.796875 6.6875 
Q 48.140625 6.6875 53.78125 8.984375 
Q 59.421875 11.28125 64.40625 15.921875 
L 64.40625 5.609375 
Q 59.234375 2.09375 53.4375 0.328125 
Q 47.65625 -1.421875 41.21875 -1.421875 
Q 24.65625 -1.421875 15.125 8.703125 
Q 5.609375 18.84375 5.609375 36.375 
Q 5.609375 53.953125 15.125 64.078125 
Q 24.65625 74.21875 41.21875 74.21875 
Q 47.75 74.21875 53.53125 72.484375 
Q 59.328125 70.75 64.40625 67.28125 
z
" id="DejaVuSans-67"/>
     <path d="M 54.890625 33.015625 
L 54.890625 0 
L 45.90625 0 
L 45.90625 32.71875 
Q 45.90625 40.484375 42.875 44.328125 
Q 39.84375 48.1875 33.796875 48.1875 
Q 26.515625 48.1875 22.3125 43.546875 
Q 18.109375 38.921875 18.109375 30.90625 
L 18.109375 0 
L 9.078125 0 
L 9.078125 75.984375 
L 18.109375 75.984375 
L 18.109375 46.1875 
Q 21.34375 51.125 25.703125 53.5625 
Q 30.078125 56 35.796875 56 
Q 45.21875 56 50.046875 50.171875 
Q 54.890625 44.34375 54.890625 33.015625 
z
" id="DejaVuSans-104"/>
     <path d="M 9.421875 54.6875 
L 18.40625 54.6875 
L 18.40625 0 
L 9.421875 0 
z
M 9.421875 75.984375 
L 18.40625 75.984375 
L 18.40625 64.59375 
L 9.421875 64.59375 
z
" id="DejaVuSans-105"/>
     <path d="M 41.109375 46.296875 
Q 39.59375 47.171875 37.8125 47.578125 
Q 36.03125 48 33.890625 48 
Q 26.265625 48 22.1875 43.046875 
Q 18.109375 38.09375 18.109375 28.8125 
L 18.109375 0 
L 9.078125 0 
L 9.078125 54.6875 
L 18.109375 54.6875 
L 18.109375 46.1875 
Q 20.953125 51.171875 25.484375 53.578125 
Q 30.03125 56 36.53125 56 
Q 37.453125 56 38.578125 55.875 
Q 39.703125 55.765625 41.0625 55.515625 
z
" id="DejaVuSans-114"/>
     <path d="M 18.109375 8.203125 
L 18.109375 -20.796875 
L 9.078125 -20.796875 
L 9.078125 54.6875 
L 18.109375 54.6875 
L 18.109375 46.390625 
Q 20.953125 51.265625 25.265625 53.625 
Q 29.59375 56 35.59375 56 
Q 45.5625 56 51.78125 48.09375 
Q 58.015625 40.1875 58.015625 27.296875 
Q 58.015625 14.40625 51.78125 6.484375 
Q 45.5625 -1.421875 35.59375 -1.421875 
Q 29.59375 -1.421875 25.265625 0.953125 
Q 20.953125 3.328125 18.109375 8.203125 
z
M 48.6875 27.296875 
Q 48.6875 37.203125 44.609375 42.84375 
Q 40.53125 48.484375 33.40625 48.484375 
Q 26.265625 48.484375 22.1875 42.84375 
Q 18.109375 37.203125 18.109375 27.296875 
Q 18.109375 17.390625 22.1875 11.75 
Q 26.265625 6.109375 33.40625 6.109375 
Q 40.53125 6.109375 44.609375 11.75 
Q 48.6875 17.390625 48.6875 27.296875 
z
" id="DejaVuSans-112"/>
    </defs>
    <g transform="translate(219.847131 20.7)scale(0.12 -0.12)">
     <use xlink:href="#DejaVuSans-67"/>
     <use x="69.824219" xlink:href="#DejaVuSans-104"/>
     <use x="133.203125" xlink:href="#DejaVuSans-105"/>
     <use x="160.986328" xlink:href="#DejaVuSans-114"/>
     <use x="202.099609" xlink:href="#DejaVuSans-112"/>
    </g>
   </g>
  </g>
  <g id="axes_2">
   <g id="patch_7">
    <path d="M 465.555114 261.2 
L 840.54375 261.2 
L 840.54375 26.7 
L 465.555114 26.7 
z
" style="fill:#ffffff;"/>
   </g>
   <g id="matplotlib.axis_3">
    <g id="xtick_7">
     <g id="line2d_34">
      <path clip-path="url(#p9b30c16b20)" d="M 485.440875 261.2 
L 485.440875 26.7 
" style="fill:none;stroke:#b0b0b0;stroke-linecap:square;stroke-width:0.8;"/>
     </g>
     <g id="line2d_35">
      <g>
       <use style="stroke:#000000;stroke-width:0.8;" x="485.440875" xlink:href="#m2d27faf8c6" y="261.2"/>
      </g>
     </g>
     <g id="text_17">
      <!-- 950 -->
      <defs>
       <path d="M 10.984375 1.515625 
L 10.984375 10.5 
Q 14.703125 8.734375 18.5 7.8125 
Q 22.3125 6.890625 25.984375 6.890625 
Q 35.75 6.890625 40.890625 13.453125 
Q 46.046875 20.015625 46.78125 33.40625 
Q 43.953125 29.203125 39.59375 26.953125 
Q 35.25 24.703125 29.984375 24.703125 
Q 19.046875 24.703125 12.671875 31.3125 
Q 6.296875 37.9375 6.296875 49.421875 
Q 6.296875 60.640625 12.9375 67.421875 
Q 19.578125 74.21875 30.609375 74.21875 
Q 43.265625 74.21875 49.921875 64.515625 
Q 56.59375 54.828125 56.59375 36.375 
Q 56.59375 19.140625 48.40625 8.859375 
Q 40.234375 -1.421875 26.421875 -1.421875 
Q 22.703125 -1.421875 18.890625 -0.6875 
Q 15.09375 0.046875 10.984375 1.515625 
z
M 30.609375 32.421875 
Q 37.25 32.421875 41.125 36.953125 
Q 45.015625 41.5 45.015625 49.421875 
Q 45.015625 57.28125 41.125 61.84375 
Q 37.25 66.40625 30.609375 66.40625 
Q 23.96875 66.40625 20.09375 61.84375 
Q 16.21875 57.28125 16.21875 49.421875 
Q 16.21875 41.5 20.09375 36.953125 
Q 23.96875 32.421875 30.609375 32.421875 
z
" id="DejaVuSans-57"/>
      </defs>
      <g transform="translate(475.897125 275.798437)scale(0.1 -0.1)">
       <use xlink:href="#DejaVuSans-57"/>
       <use x="63.623047" xlink:href="#DejaVuSans-53"/>
       <use x="127.246094" xlink:href="#DejaVuSans-48"/>
      </g>
     </g>
    </g>
    <g id="xtick_8">
     <g id="line2d_36">
      <path clip-path="url(#p9b30c16b20)" d="M 556.46145 261.2 
L 556.46145 26.7 
" style="fill:none;stroke:#b0b0b0;stroke-linecap:square;stroke-width:0.8;"/>
     </g>
     <g id="line2d_37">
      <g>
       <use style="stroke:#000000;stroke-width:0.8;" x="556.46145" xlink:href="#m2d27faf8c6" y="261.2"/>
      </g>
     </g>
     <g id="text_18">
      <!-- 1000 -->
      <g transform="translate(543.73645 275.798437)scale(0.1 -0.1)">
       <use xlink:href="#DejaVuSans-49"/>
       <use x="63.623047" xlink:href="#DejaVuSans-48"/>
       <use x="127.246094" xlink:href="#DejaVuSans-48"/>
       <use x="190.869141" xlink:href="#DejaVuSans-48"/>
      </g>
     </g>
    </g>
    <g id="xtick_9">
     <g id="line2d_38">
      <path clip-path="url(#p9b30c16b20)" d="M 627.482025 261.2 
L 627.482025 26.7 
" style="fill:none;stroke:#b0b0b0;stroke-linecap:square;stroke-width:0.8;"/>
     </g>
     <g id="line2d_39">
      <g>
       <use style="stroke:#000000;stroke-width:0.8;" x="627.482025" xlink:href="#m2d27faf8c6" y="261.2"/>
      </g>
     </g>
     <g id="text_19">
      <!-- 1050 -->
      <g transform="translate(614.757025 275.798437)scale(0.1 -0.1)">
       <use xlink:href="#DejaVuSans-49"/>
       <use x="63.623047" xlink:href="#DejaVuSans-48"/>
       <use x="127.246094" xlink:href="#DejaVuSans-53"/>
       <use x="190.869141" xlink:href="#DejaVuSans-48"/>
      </g>
     </g>
    </g>
    <g id="xtick_10">
     <g id="line2d_40">
      <path clip-path="url(#p9b30c16b20)" d="M 698.5026 261.2 
L 698.5026 26.7 
" style="fill:none;stroke:#b0b0b0;stroke-linecap:square;stroke-width:0.8;"/>
     </g>
     <g id="line2d_41">
      <g>
       <use style="stroke:#000000;stroke-width:0.8;" x="698.5026" xlink:href="#m2d27faf8c6" y="261.2"/>
      </g>
     </g>
     <g id="text_20">
      <!-- 1100 -->
      <g transform="translate(685.7776 275.798437)scale(0.1 -0.1)">
       <use xlink:href="#DejaVuSans-49"/>
       <use x="63.623047" xlink:href="#DejaVuSans-49"/>
       <use x="127.246094" xlink:href="#DejaVuSans-48"/>
       <use x="190.869141" xlink:href="#DejaVuSans-48"/>
      </g>
     </g>
    </g>
    <g id="xtick_11">
     <g id="line2d_42">
      <path clip-path="url(#p9b30c16b20)" d="M 769.523175 261.2 
L 769.523175 26.7 
" style="fill:none;stroke:#b0b0b0;stroke-linecap:square;stroke-width:0.8;"/>
     </g>
     <g id="line2d_43">
      <g>
       <use style="stroke:#000000;stroke-width:0.8;" x="769.523175" xlink:href="#m2d27faf8c6" y="261.2"/>
      </g>
     </g>
     <g id="text_21">
      <!-- 1150 -->
      <g transform="translate(756.798175 275.798437)scale(0.1 -0.1)">
       <use xlink:href="#DejaVuSans-49"/>
       <use x="63.623047" xlink:href="#DejaVuSans-49"/>
       <use x="127.246094" xlink:href="#DejaVuSans-53"/>
       <use x="190.869141" xlink:href="#DejaVuSans-48"/>
      </g>
     </g>
    </g>
    <g id="xtick_12">
     <g id="line2d_44">
      <path clip-path="url(#p9b30c16b20)" d="M 840.54375 261.2 
L 840.54375 26.7 
" style="fill:none;stroke:#b0b0b0;stroke-linecap:square;stroke-width:0.8;"/>
     </g>
     <g id="line2d_45">
      <g>
       <use style="stroke:#000000;stroke-width:0.8;" x="840.54375" xlink:href="#m2d27faf8c6" y="261.2"/>
      </g>
     </g>
     <g id="text_22">
      <!-- 1200 -->
      <g transform="translate(827.81875 275.798437)scale(0.1 -0.1)">
       <use xlink:href="#DejaVuSans-49"/>
       <use x="63.623047" xlink:href="#DejaVuSans-50"/>
       <use x="127.246094" xlink:href="#DejaVuSans-48"/>
       <use x="190.869141" xlink:href="#DejaVuSans-48"/>
      </g>
     </g>
    </g>
   </g>
   <g id="matplotlib.axis_4">
    <g id="ytick_10">
     <g id="line2d_46">
      <path clip-path="url(#p9b30c16b20)" d="M 465.555114 250.596485 
L 840.54375 250.596485 
" style="fill:none;stroke:#b0b0b0;stroke-linecap:square;stroke-width:0.8;"/>
     </g>
     <g id="line2d_47">
      <g>
       <use style="stroke:#000000;stroke-width:0.8;" x="465.555114" xlink:href="#me4a8082733" y="250.596485"/>
      </g>
     </g>
     <g id="text_23">
      <!-- 0 -->
      <g transform="translate(452.192614 254.395704)scale(0.1 -0.1)">
       <use xlink:href="#DejaVuSans-48"/>
      </g>
     </g>
    </g>
    <g id="ytick_11">
     <g id="line2d_48">
      <path clip-path="url(#p9b30c16b20)" d="M 465.555114 209.509119 
L 840.54375 209.509119 
" style="fill:none;stroke:#b0b0b0;stroke-linecap:square;stroke-width:0.8;"/>
     </g>
     <g id="line2d_49">
      <g>
       <use style="stroke:#000000;stroke-width:0.8;" x="465.555114" xlink:href="#me4a8082733" y="209.509119"/>
      </g>
     </g>
     <g id="text_24">
      <!-- 50 -->
      <g transform="translate(445.830114 213.308338)scale(0.1 -0.1)">
       <use xlink:href="#DejaVuSans-53"/>
       <use x="63.623047" xlink:href="#DejaVuSans-48"/>
      </g>
     </g>
    </g>
    <g id="ytick_12">
     <g id="line2d_50">
      <path clip-path="url(#p9b30c16b20)" d="M 465.555114 168.421754 
L 840.54375 168.421754 
" style="fill:none;stroke:#b0b0b0;stroke-linecap:square;stroke-width:0.8;"/>
     </g>
     <g id="line2d_51">
      <g>
       <use style="stroke:#000000;stroke-width:0.8;" x="465.555114" xlink:href="#me4a8082733" y="168.421754"/>
      </g>
     </g>
     <g id="text_25">
      <!-- 100 -->
      <g transform="translate(439.467614 172.220973)scale(0.1 -0.1)">
       <use xlink:href="#DejaVuSans-49"/>
       <use x="63.623047" xlink:href="#DejaVuSans-48"/>
       <use x="127.246094" xlink:href="#DejaVuSans-48"/>
      </g>
     </g>
    </g>
    <g id="ytick_13">
     <g id="line2d_52">
      <path clip-path="url(#p9b30c16b20)" d="M 465.555114 127.334389 
L 840.54375 127.334389 
" style="fill:none;stroke:#b0b0b0;stroke-linecap:square;stroke-width:0.8;"/>
     </g>
     <g id="line2d_53">
      <g>
       <use style="stroke:#000000;stroke-width:0.8;" x="465.555114" xlink:href="#me4a8082733" y="127.334389"/>
      </g>
     </g>
     <g id="text_26">
      <!-- 150 -->
      <g transform="translate(439.467614 131.133607)scale(0.1 -0.1)">
       <use xlink:href="#DejaVuSans-49"/>
       <use x="63.623047" xlink:href="#DejaVuSans-53"/>
       <use x="127.246094" xlink:href="#DejaVuSans-48"/>
      </g>
     </g>
    </g>
    <g id="ytick_14">
     <g id="line2d_54">
      <path clip-path="url(#p9b30c16b20)" d="M 465.555114 86.247023 
L 840.54375 86.247023 
" style="fill:none;stroke:#b0b0b0;stroke-linecap:square;stroke-width:0.8;"/>
     </g>
     <g id="line2d_55">
      <g>
       <use style="stroke:#000000;stroke-width:0.8;" x="465.555114" xlink:href="#me4a8082733" y="86.247023"/>
      </g>
     </g>
     <g id="text_27">
      <!-- 200 -->
      <g transform="translate(439.467614 90.046242)scale(0.1 -0.1)">
       <use xlink:href="#DejaVuSans-50"/>
       <use x="63.623047" xlink:href="#DejaVuSans-48"/>
       <use x="127.246094" xlink:href="#DejaVuSans-48"/>
      </g>
     </g>
    </g>
    <g id="ytick_15">
     <g id="line2d_56">
      <path clip-path="url(#p9b30c16b20)" d="M 465.555114 45.159658 
L 840.54375 45.159658 
" style="fill:none;stroke:#b0b0b0;stroke-linecap:square;stroke-width:0.8;"/>
     </g>
     <g id="line2d_57">
      <g>
       <use style="stroke:#000000;stroke-width:0.8;" x="465.555114" xlink:href="#me4a8082733" y="45.159658"/>
      </g>
     </g>
     <g id="text_28">
      <!-- 250 -->
      <g transform="translate(439.467614 48.958877)scale(0.1 -0.1)">
       <use xlink:href="#DejaVuSans-50"/>
       <use x="63.623047" xlink:href="#DejaVuSans-53"/>
       <use x="127.246094" xlink:href="#DejaVuSans-48"/>
      </g>
     </g>
    </g>
   </g>
   <g id="line2d_58">
    <path clip-path="url(#p9b30c16b20)" d="M 464.134702 249.07978 
L 486.861286 248.569831 
L 503.906224 247.981114 
L 516.689928 247.335661 
L 526.632808 246.63396 
L 535.155277 245.812141 
L 542.257335 244.887498 
L 547.938981 243.911025 
L 552.200215 242.978701 
L 556.46145 241.803698 
L 559.302273 240.837134 
L 562.143096 239.673984 
L 564.983919 238.251483 
L 567.824742 236.478717 
L 569.245153 235.421092 
L 570.665565 234.220463 
L 572.085976 232.848624 
L 573.506388 231.270363 
L 574.926799 229.441527 
L 576.347211 227.306596 
L 577.767622 224.795704 
L 579.188034 221.821097 
L 580.608445 218.273137 
L 582.028857 214.016186 
L 583.449268 208.885021 
L 584.86968 202.683008 
L 586.290091 195.183965 
L 587.710503 186.140673 
L 589.130914 175.304086 
L 590.551326 162.458427 
L 591.971737 147.477958 
L 593.392149 130.410428 
L 596.232972 91.763683 
L 597.653383 72.23579 
L 599.073795 54.937548 
L 600.494206 42.383582 
L 601.914618 37.359091 
L 603.335029 42.161092 
L 604.755441 57.13168 
L 606.175852 78.198654 
L 607.596264 94.266658 
L 609.016675 91.702192 
L 611.857498 53.543333 
L 613.27791 53.215155 
L 614.698321 72.380387 
L 616.118733 89.434759 
L 617.539144 78.283042 
L 618.959556 57.013259 
L 620.379967 59.815084 
L 621.800379 82.664076 
L 623.22079 81.196189 
L 624.641202 58.5314 
L 626.061613 64.622978 
L 627.482025 85.616299 
L 628.902436 68.600809 
L 630.322848 59.185638 
L 631.743259 82.762402 
L 634.584082 60.060369 
L 636.004494 83.746987 
L 637.424905 65.324304 
L 638.845317 67.064355 
L 640.265728 81.654297 
L 641.68614 58.726505 
L 643.106551 81.782095 
L 644.526963 64.433383 
L 645.947374 72.901036 
L 647.367786 72.757453 
L 648.788197 66.142253 
L 650.208609 77.677232 
L 651.62902 63.319286 
L 653.049432 79.094478 
L 654.469843 63.319286 
L 655.890255 77.677232 
L 657.310666 66.142253 
L 658.731078 72.757453 
L 660.151489 72.901036 
L 661.571901 64.433383 
L 662.992312 81.782095 
L 664.412724 58.726505 
L 665.833135 81.654297 
L 667.253547 67.064355 
L 668.673958 65.324305 
L 670.09437 83.746986 
L 671.514781 60.060368 
L 674.355604 82.762401 
L 675.776016 59.185637 
L 677.196427 68.600809 
L 678.616839 85.616299 
L 680.03725 64.622977 
L 681.457662 58.531401 
L 682.878073 81.19619 
L 684.298485 82.664075 
L 685.718896 59.815083 
L 687.139308 57.01326 
L 688.559719 78.283044 
L 689.980131 89.434759 
L 691.400542 72.380385 
L 692.820954 53.215155 
L 694.241365 53.543334 
L 697.082188 91.702193 
L 698.5026 94.266657 
L 699.923011 78.198652 
L 701.343423 57.131678 
L 702.763834 42.161091 
L 704.184246 37.359091 
L 705.604657 42.383582 
L 707.025069 54.93755 
L 708.44548 72.235792 
L 712.706715 130.410431 
L 714.127126 147.47796 
L 715.547538 162.458429 
L 716.967949 175.304087 
L 718.388361 186.140674 
L 719.808772 195.183966 
L 721.229184 202.683009 
L 722.649595 208.885022 
L 724.070007 214.016186 
L 725.490418 218.273138 
L 726.91083 221.821097 
L 728.331241 224.795705 
L 729.751653 227.306596 
L 731.172064 229.441527 
L 732.592476 231.270364 
L 734.012887 232.848625 
L 735.433299 234.220463 
L 738.274122 236.478717 
L 741.114945 238.251483 
L 743.955768 239.673984 
L 746.796591 240.837134 
L 749.637414 241.803698 
L 753.898648 242.978701 
L 758.159883 243.911025 
L 763.841529 244.887498 
L 769.523175 245.647921 
L 776.625232 246.387472 
L 785.147701 247.061745 
L 796.510993 247.722153 
L 810.715108 248.305253 
L 829.180458 248.821925 
L 841.964162 249.07978 
L 841.964162 249.07978 
" style="fill:none;stroke:#1f77b4;stroke-linecap:square;stroke-width:1.5;"/>
   </g>
   <g id="patch_8">
    <path d="M 465.555114 261.2 
L 465.555114 26.7 
" style="fill:none;stroke:#000000;stroke-linecap:square;stroke-linejoin:miter;stroke-width:0.8;"/>
   </g>
   <g id="patch_9">
    <path d="M 840.54375 261.2 
L 840.54375 26.7 
" style="fill:none;stroke:#000000;stroke-linecap:square;stroke-linejoin:miter;stroke-width:0.8;"/>
   </g>
   <g id="patch_10">
    <path d="M 465.555114 261.2 
L 840.54375 261.2 
" style="fill:none;stroke:#000000;stroke-linecap:square;stroke-linejoin:miter;stroke-width:0.8;"/>
   </g>
   <g id="patch_11">
    <path d="M 465.555114 26.7 
L 840.54375 26.7 
" style="fill:none;stroke:#000000;stroke-linecap:square;stroke-linejoin:miter;stroke-width:0.8;"/>
   </g>
   <g id="text_29">
    <!-- Spectrum -->
    <defs>
     <path d="M 53.515625 70.515625 
L 53.515625 60.890625 
Q 47.90625 63.578125 42.921875 64.890625 
Q 37.9375 66.21875 33.296875 66.21875 
Q 25.25 66.21875 20.875 63.09375 
Q 16.5 59.96875 16.5 54.203125 
Q 16.5 49.359375 19.40625 46.890625 
Q 22.3125 44.4375 30.421875 42.921875 
L 36.375 41.703125 
Q 47.40625 39.59375 52.65625 34.296875 
Q 57.90625 29 57.90625 20.125 
Q 57.90625 9.515625 50.796875 4.046875 
Q 43.703125 -1.421875 29.984375 -1.421875 
Q 24.8125 -1.421875 18.96875 -0.25 
Q 13.140625 0.921875 6.890625 3.21875 
L 6.890625 13.375 
Q 12.890625 10.015625 18.65625 8.296875 
Q 24.421875 6.59375 29.984375 6.59375 
Q 38.421875 6.59375 43.015625 9.90625 
Q 47.609375 13.234375 47.609375 19.390625 
Q 47.609375 24.75 44.3125 27.78125 
Q 41.015625 30.8125 33.5 32.328125 
L 27.484375 33.5 
Q 16.453125 35.6875 11.515625 40.375 
Q 6.59375 45.0625 6.59375 53.421875 
Q 6.59375 63.09375 13.40625 68.65625 
Q 20.21875 74.21875 32.171875 74.21875 
Q 37.3125 74.21875 42.625 73.28125 
Q 47.953125 72.359375 53.515625 70.515625 
z
" id="DejaVuSans-83"/>
     <path d="M 56.203125 29.59375 
L 56.203125 25.203125 
L 14.890625 25.203125 
Q 15.484375 15.921875 20.484375 11.0625 
Q 25.484375 6.203125 34.421875 6.203125 
Q 39.59375 6.203125 44.453125 7.46875 
Q 49.3125 8.734375 54.109375 11.28125 
L 54.109375 2.78125 
Q 49.265625 0.734375 44.1875 -0.34375 
Q 39.109375 -1.421875 33.890625 -1.421875 
Q 20.796875 -1.421875 13.15625 6.1875 
Q 5.515625 13.8125 5.515625 26.8125 
Q 5.515625 40.234375 12.765625 48.109375 
Q 20.015625 56 32.328125 56 
Q 43.359375 56 49.78125 48.890625 
Q 56.203125 41.796875 56.203125 29.59375 
z
M 47.21875 32.234375 
Q 47.125 39.59375 43.09375 43.984375 
Q 39.0625 48.390625 32.421875 48.390625 
Q 24.90625 48.390625 20.390625 44.140625 
Q 15.875 39.890625 15.1875 32.171875 
z
" id="DejaVuSans-101"/>
     <path d="M 48.78125 52.59375 
L 48.78125 44.1875 
Q 44.96875 46.296875 41.140625 47.34375 
Q 37.3125 48.390625 33.40625 48.390625 
Q 24.65625 48.390625 19.8125 42.84375 
Q 14.984375 37.3125 14.984375 27.296875 
Q 14.984375 17.28125 19.8125 11.734375 
Q 24.65625 6.203125 33.40625 6.203125 
Q 37.3125 6.203125 41.140625 7.25 
Q 44.96875 8.296875 48.78125 10.40625 
L 48.78125 2.09375 
Q 45.015625 0.34375 40.984375 -0.53125 
Q 36.96875 -1.421875 32.421875 -1.421875 
Q 20.0625 -1.421875 12.78125 6.34375 
Q 5.515625 14.109375 5.515625 27.296875 
Q 5.515625 40.671875 12.859375 48.328125 
Q 20.21875 56 33.015625 56 
Q 37.15625 56 41.109375 55.140625 
Q 45.0625 54.296875 48.78125 52.59375 
z
" id="DejaVuSans-99"/>
     <path d="M 18.3125 70.21875 
L 18.3125 54.6875 
L 36.8125 54.6875 
L 36.8125 47.703125 
L 18.3125 47.703125 
L 18.3125 18.015625 
Q 18.3125 11.328125 20.140625 9.421875 
Q 21.96875 7.515625 27.59375 7.515625 
L 36.8125 7.515625 
L 36.8125 0 
L 27.59375 0 
Q 17.1875 0 13.234375 3.875 
Q 9.28125 7.765625 9.28125 18.015625 
L 9.28125 47.703125 
L 2.6875 47.703125 
L 2.6875 54.6875 
L 9.28125 54.6875 
L 9.28125 70.21875 
z
" id="DejaVuSans-116"/>
     <path d="M 8.5 21.578125 
L 8.5 54.6875 
L 17.484375 54.6875 
L 17.484375 21.921875 
Q 17.484375 14.15625 20.5 10.265625 
Q 23.53125 6.390625 29.59375 6.390625 
Q 36.859375 6.390625 41.078125 11.03125 
Q 45.3125 15.671875 45.3125 23.6875 
L 45.3125 54.6875 
L 54.296875 54.6875 
L 54.296875 0 
L 45.3125 0 
L 45.3125 8.40625 
Q 42.046875 3.421875 37.71875 1 
Q 33.40625 -1.421875 27.6875 -1.421875 
Q 18.265625 -1.421875 13.375 4.4375 
Q 8.5 10.296875 8.5 21.578125 
z
M 31.109375 56 
z
" id="DejaVuSans-117"/>
     <path d="M 52 44.1875 
Q 55.375 50.25 60.0625 53.125 
Q 64.75 56 71.09375 56 
Q 79.640625 56 84.28125 50.015625 
Q 88.921875 44.046875 88.921875 33.015625 
L 88.921875 0 
L 79.890625 0 
L 79.890625 32.71875 
Q 79.890625 40.578125 77.09375 44.375 
Q 74.3125 48.1875 68.609375 48.1875 
Q 61.625 48.1875 57.5625 43.546875 
Q 53.515625 38.921875 53.515625 30.90625 
L 53.515625 0 
L 44.484375 0 
L 44.484375 32.71875 
Q 44.484375 40.625 41.703125 44.40625 
Q 38.921875 48.1875 33.109375 48.1875 
Q 26.21875 48.1875 22.15625 43.53125 
Q 18.109375 38.875 18.109375 30.90625 
L 18.109375 0 
L 9.078125 0 
L 9.078125 54.6875 
L 18.109375 54.6875 
L 18.109375 46.1875 
Q 21.1875 51.21875 25.484375 53.609375 
Q 29.78125 56 35.6875 56 
Q 41.65625 56 45.828125 52.96875 
Q 50 49.953125 52 44.1875 
z
" id="DejaVuSans-109"/>
    </defs>
    <g transform="translate(623.974744 20.7)scale(0.12 -0.12)">
     <use xlink:href="#DejaVuSans-83"/>
     <use x="63.476562" xlink:href="#DejaVuSans-112"/>
     <use x="126.953125" xlink:href="#DejaVuSans-101"/>
     <use x="188.476562" xlink:href="#DejaVuSans-99"/>
     <use x="243.457031" xlink:href="#DejaVuSans-116"/>
     <use x="282.666016" xlink:href="#DejaVuSans-114"/>
     <use x="323.779297" xlink:href="#DejaVuSans-117"/>
     <use x="387.158203" xlink:href="#DejaVuSans-109"/>
    </g>
   </g>
  </g>
 </g>
 <defs>
  <clipPath id="pef2a12ee9b">
   <rect height="234.5" width="374.988636" x="48.2875" y="26.7"/>
  </clipPath>
  <clipPath id="p9b30c16b20">
   <rect height="234.5" width="374.988636" x="465.555114" y="26.7"/>
  </clipPath>
 </defs>
</svg>
