<?xml version="1.0" encoding="utf-8" standalone="no"?>
<!DOCTYPE svg PUBLIC "-//W3C//DTD SVG 1.1//EN"
  "http://www.w3.org/Graphics/SVG/1.1/DTD/svg11.dtd">
<!-- Created with matplotlib (https://matplotlib.org/) -->
<svg height="432pt" version="1.1" viewBox="0 0 864 432" width="864pt" xmlns="http://www.w3.org/2000/svg" xmlns:xlink="http://www.w3.org/1999/xlink">
 <defs>
  <style type="text/css">
*{stroke-linecap:butt;stroke-linejoin:round;white-space:pre;}
  </style>
 </defs>
 <g id="figure_1">
  <g id="patch_1">
   <path d="M 0 432 
L 864 432 
L 864 0 
L 0 0 
z
" style="fill:#ffffff;"/>
  </g>
  <g id="axes_1">
   <g id="patch_2">
    <path d="M 41.875 194.6 
L 853.2 194.6 
L 853.2 26.7 
L 41.875 26.7 
z
" style="fill:#ffffff;"/>
   </g>
   <g id="matplotlib.axis_1">
    <g id="xtick_1">
     <g id="line2d_1">
      <path clip-path="url(#p980eac7f04)" d="M 41.875 194.6 
L 41.875 26.7 
" style="fill:none;stroke:#b0b0b0;stroke-linecap:square;stroke-width:0.8;"/>
     </g>
     <g id="line2d_2">
      <defs>
       <path d="M 0 0 
L 0 3.5 
" id="m57c99c66cf" style="stroke:#000000;stroke-width:0.8;"/>
      </defs>
      <g>
       <use style="stroke:#000000;stroke-width:0.8;" x="41.875" xlink:href="#m57c99c66cf" y="194.6"/>
      </g>
     </g>
     <g id="text_1">
      <!-- 0 -->
      <defs>
       <path d="M 31.78125 66.40625 
Q 24.171875 66.40625 20.328125 58.90625 
Q 16.5 51.421875 16.5 36.375 
Q 16.5 21.390625 20.328125 13.890625 
Q 24.171875 6.390625 31.78125 6.390625 
Q 39.453125 6.390625 43.28125 13.890625 
Q 47.125 21.390625 47.125 36.375 
Q 47.125 51.421875 43.28125 58.90625 
Q 39.453125 66.40625 31.78125 66.40625 
z
M 31.78125 74.21875 
Q 44.046875 74.21875 50.515625 64.515625 
Q 56.984375 54.828125 56.984375 36.375 
Q 56.984375 17.96875 50.515625 8.265625 
Q 44.046875 -1.421875 31.78125 -1.421875 
Q 19.53125 -1.421875 13.0625 8.265625 
Q 6.59375 17.96875 6.59375 36.375 
Q 6.59375 54.828125 13.0625 64.515625 
Q 19.53125 74.21875 31.78125 74.21875 
z
" id="DejaVuSans-48"/>
      </defs>
      <g transform="translate(38.69375 209.198438)scale(0.1 -0.1)">
       <use xlink:href="#DejaVuSans-48"/>
      </g>
     </g>
    </g>
    <g id="xtick_2">
     <g id="line2d_3">
      <path clip-path="url(#p980eac7f04)" d="M 143.315985 194.6 
L 143.315985 26.7 
" style="fill:none;stroke:#b0b0b0;stroke-linecap:square;stroke-width:0.8;"/>
     </g>
     <g id="line2d_4">
      <g>
       <use style="stroke:#000000;stroke-width:0.8;" x="143.315985" xlink:href="#m57c99c66cf" y="194.6"/>
      </g>
     </g>
     <g id="text_2">
      <!-- 500 -->
      <defs>
       <path d="M 10.796875 72.90625 
L 49.515625 72.90625 
L 49.515625 64.59375 
L 19.828125 64.59375 
L 19.828125 46.734375 
Q 21.96875 47.46875 24.109375 47.828125 
Q 26.265625 48.1875 28.421875 48.1875 
Q 40.625 48.1875 47.75 41.5 
Q 54.890625 34.8125 54.890625 23.390625 
Q 54.890625 11.625 47.5625 5.09375 
Q 40.234375 -1.421875 26.90625 -1.421875 
Q 22.3125 -1.421875 17.546875 -0.640625 
Q 12.796875 0.140625 7.71875 1.703125 
L 7.71875 11.625 
Q 12.109375 9.234375 16.796875 8.0625 
Q 21.484375 6.890625 26.703125 6.890625 
Q 35.15625 6.890625 40.078125 11.328125 
Q 45.015625 15.765625 45.015625 23.390625 
Q 45.015625 31 40.078125 35.4375 
Q 35.15625 39.890625 26.703125 39.890625 
Q 22.75 39.890625 18.8125 39.015625 
Q 14.890625 38.140625 10.796875 36.28125 
z
" id="DejaVuSans-53"/>
      </defs>
      <g transform="translate(133.772235 209.198438)scale(0.1 -0.1)">
       <use xlink:href="#DejaVuSans-53"/>
       <use x="63.623047" xlink:href="#DejaVuSans-48"/>
       <use x="127.246094" xlink:href="#DejaVuSans-48"/>
      </g>
     </g>
    </g>
    <g id="xtick_3">
     <g id="line2d_5">
      <path clip-path="url(#p980eac7f04)" d="M 244.75697 194.6 
L 244.75697 26.7 
" style="fill:none;stroke:#b0b0b0;stroke-linecap:square;stroke-width:0.8;"/>
     </g>
     <g id="line2d_6">
      <g>
       <use style="stroke:#000000;stroke-width:0.8;" x="244.75697" xlink:href="#m57c99c66cf" y="194.6"/>
      </g>
     </g>
     <g id="text_3">
      <!-- 1000 -->
      <defs>
       <path d="M 12.40625 8.296875 
L 28.515625 8.296875 
L 28.515625 63.921875 
L 10.984375 60.40625 
L 10.984375 69.390625 
L 28.421875 72.90625 
L 38.28125 72.90625 
L 38.28125 8.296875 
L 54.390625 8.296875 
L 54.390625 0 
L 12.40625 0 
z
" id="DejaVuSans-49"/>
      </defs>
      <g transform="translate(232.03197 209.198438)scale(0.1 -0.1)">
       <use xlink:href="#DejaVuSans-49"/>
       <use x="63.623047" xlink:href="#DejaVuSans-48"/>
       <use x="127.246094" xlink:href="#DejaVuSans-48"/>
       <use x="190.869141" xlink:href="#DejaVuSans-48"/>
      </g>
     </g>
    </g>
    <g id="xtick_4">
     <g id="line2d_7">
      <path clip-path="url(#p980eac7f04)" d="M 346.197956 194.6 
L 346.197956 26.7 
" style="fill:none;stroke:#b0b0b0;stroke-linecap:square;stroke-width:0.8;"/>
     </g>
     <g id="line2d_8">
      <g>
       <use style="stroke:#000000;stroke-width:0.8;" x="346.197956" xlink:href="#m57c99c66cf" y="194.6"/>
      </g>
     </g>
     <g id="text_4">
      <!-- 1500 -->
      <g transform="translate(333.472956 209.198438)scale(0.1 -0.1)">
       <use xlink:href="#DejaVuSans-49"/>
       <use x="63.623047" xlink:href="#DejaVuSans-53"/>
       <use x="127.246094" xlink:href="#DejaVuSans-48"/>
       <use x="190.869141" xlink:href="#DejaVuSans-48"/>
      </g>
     </g>
    </g>
    <g id="xtick_5">
     <g id="line2d_9">
      <path clip-path="url(#p980eac7f04)" d="M 447.638941 194.6 
L 447.638941 26.7 
" style="fill:none;stroke:#b0b0b0;stroke-linecap:square;stroke-width:0.8;"/>
     </g>
     <g id="line2d_10">
      <g>
       <use style="stroke:#000000;stroke-width:0.8;" x="447.638941" xlink:href="#m57c99c66cf" y="194.6"/>
      </g>
     </g>
     <g id="text_5">
      <!-- 2000 -->
      <defs>
       <path d="M 19.1875 8.296875 
L 53.609375 8.296875 
L 53.609375 0 
L 7.328125 0 
L 7.328125 8.296875 
Q 12.9375 14.109375 22.625 23.890625 
Q 32.328125 33.6875 34.8125 36.53125 
Q 39.546875 41.84375 41.421875 45.53125 
Q 43.3125 49.21875 43.3125 52.78125 
Q 43.3125 58.59375 39.234375 62.25 
Q 35.15625 65.921875 28.609375 65.921875 
Q 23.96875 65.921875 18.8125 64.3125 
Q 13.671875 62.703125 7.8125 59.421875 
L 7.8125 69.390625 
Q 13.765625 71.78125 18.9375 73 
Q 24.125 74.21875 28.421875 74.21875 
Q 39.75 74.21875 46.484375 68.546875 
Q 53.21875 62.890625 53.21875 53.421875 
Q 53.21875 48.921875 51.53125 44.890625 
Q 49.859375 40.875 45.40625 35.40625 
Q 44.1875 33.984375 37.640625 27.21875 
Q 31.109375 20.453125 19.1875 8.296875 
z
" id="DejaVuSans-50"/>
      </defs>
      <g transform="translate(434.913941 209.198438)scale(0.1 -0.1)">
       <use xlink:href="#DejaVuSans-50"/>
       <use x="63.623047" xlink:href="#DejaVuSans-48"/>
       <use x="127.246094" xlink:href="#DejaVuSans-48"/>
       <use x="190.869141" xlink:href="#DejaVuSans-48"/>
      </g>
     </g>
    </g>
    <g id="xtick_6">
     <g id="line2d_11">
      <path clip-path="url(#p980eac7f04)" d="M 549.079926 194.6 
L 549.079926 26.7 
" style="fill:none;stroke:#b0b0b0;stroke-linecap:square;stroke-width:0.8;"/>
     </g>
     <g id="line2d_12">
      <g>
       <use style="stroke:#000000;stroke-width:0.8;" x="549.079926" xlink:href="#m57c99c66cf" y="194.6"/>
      </g>
     </g>
     <g id="text_6">
      <!-- 2500 -->
      <g transform="translate(536.354926 209.198438)scale(0.1 -0.1)">
       <use xlink:href="#DejaVuSans-50"/>
       <use x="63.623047" xlink:href="#DejaVuSans-53"/>
       <use x="127.246094" xlink:href="#DejaVuSans-48"/>
       <use x="190.869141" xlink:href="#DejaVuSans-48"/>
      </g>
     </g>
    </g>
    <g id="xtick_7">
     <g id="line2d_13">
      <path clip-path="url(#p980eac7f04)" d="M 650.520911 194.6 
L 650.520911 26.7 
" style="fill:none;stroke:#b0b0b0;stroke-linecap:square;stroke-width:0.8;"/>
     </g>
     <g id="line2d_14">
      <g>
       <use style="stroke:#000000;stroke-width:0.8;" x="650.520911" xlink:href="#m57c99c66cf" y="194.6"/>
      </g>
     </g>
     <g id="text_7">
      <!-- 3000 -->
      <defs>
       <path d="M 40.578125 39.3125 
Q 47.65625 37.796875 51.625 33 
Q 55.609375 28.21875 55.609375 21.1875 
Q 55.609375 10.40625 48.1875 4.484375 
Q 40.765625 -1.421875 27.09375 -1.421875 
Q 22.515625 -1.421875 17.65625 -0.515625 
Q 12.796875 0.390625 7.625 2.203125 
L 7.625 11.71875 
Q 11.71875 9.328125 16.59375 8.109375 
Q 21.484375 6.890625 26.8125 6.890625 
Q 36.078125 6.890625 40.9375 10.546875 
Q 45.796875 14.203125 45.796875 21.1875 
Q 45.796875 27.640625 41.28125 31.265625 
Q 36.765625 34.90625 28.71875 34.90625 
L 20.21875 34.90625 
L 20.21875 43.015625 
L 29.109375 43.015625 
Q 36.375 43.015625 40.234375 45.921875 
Q 44.09375 48.828125 44.09375 54.296875 
Q 44.09375 59.90625 40.109375 62.90625 
Q 36.140625 65.921875 28.71875 65.921875 
Q 24.65625 65.921875 20.015625 65.03125 
Q 15.375 64.15625 9.8125 62.3125 
L 9.8125 71.09375 
Q 15.4375 72.65625 20.34375 73.4375 
Q 25.25 74.21875 29.59375 74.21875 
Q 40.828125 74.21875 47.359375 69.109375 
Q 53.90625 64.015625 53.90625 55.328125 
Q 53.90625 49.265625 50.4375 45.09375 
Q 46.96875 40.921875 40.578125 39.3125 
z
" id="DejaVuSans-51"/>
      </defs>
      <g transform="translate(637.795911 209.198438)scale(0.1 -0.1)">
       <use xlink:href="#DejaVuSans-51"/>
       <use x="63.623047" xlink:href="#DejaVuSans-48"/>
       <use x="127.246094" xlink:href="#DejaVuSans-48"/>
       <use x="190.869141" xlink:href="#DejaVuSans-48"/>
      </g>
     </g>
    </g>
    <g id="xtick_8">
     <g id="line2d_15">
      <path clip-path="url(#p980eac7f04)" d="M 751.961897 194.6 
L 751.961897 26.7 
" style="fill:none;stroke:#b0b0b0;stroke-linecap:square;stroke-width:0.8;"/>
     </g>
     <g id="line2d_16">
      <g>
       <use style="stroke:#000000;stroke-width:0.8;" x="751.961897" xlink:href="#m57c99c66cf" y="194.6"/>
      </g>
     </g>
     <g id="text_8">
      <!-- 3500 -->
      <g transform="translate(739.236897 209.198438)scale(0.1 -0.1)">
       <use xlink:href="#DejaVuSans-51"/>
       <use x="63.623047" xlink:href="#DejaVuSans-53"/>
       <use x="127.246094" xlink:href="#DejaVuSans-48"/>
       <use x="190.869141" xlink:href="#DejaVuSans-48"/>
      </g>
     </g>
    </g>
   </g>
   <g id="matplotlib.axis_2">
    <g id="ytick_1">
     <g id="line2d_17">
      <path clip-path="url(#p980eac7f04)" d="M 41.875 186.968182 
L 853.2 186.968182 
" style="fill:none;stroke:#b0b0b0;stroke-linecap:square;stroke-width:0.8;"/>
     </g>
     <g id="line2d_18">
      <defs>
       <path d="M 0 0 
L -3.5 0 
" id="me22a074018" style="stroke:#000000;stroke-width:0.8;"/>
      </defs>
      <g>
       <use style="stroke:#000000;stroke-width:0.8;" x="41.875" xlink:href="#me22a074018" y="186.968182"/>
      </g>
     </g>
     <g id="text_9">
      <!-- 0.0 -->
      <defs>
       <path d="M 10.6875 12.40625 
L 21 12.40625 
L 21 0 
L 10.6875 0 
z
" id="DejaVuSans-46"/>
      </defs>
      <g transform="translate(18.971875 190.767401)scale(0.1 -0.1)">
       <use xlink:href="#DejaVuSans-48"/>
       <use x="63.623047" xlink:href="#DejaVuSans-46"/>
       <use x="95.410156" xlink:href="#DejaVuSans-48"/>
      </g>
     </g>
    </g>
    <g id="ytick_2">
     <g id="line2d_19">
      <path clip-path="url(#p980eac7f04)" d="M 41.875 156.440909 
L 853.2 156.440909 
" style="fill:none;stroke:#b0b0b0;stroke-linecap:square;stroke-width:0.8;"/>
     </g>
     <g id="line2d_20">
      <g>
       <use style="stroke:#000000;stroke-width:0.8;" x="41.875" xlink:href="#me22a074018" y="156.440909"/>
      </g>
     </g>
     <g id="text_10">
      <!-- 0.2 -->
      <g transform="translate(18.971875 160.240128)scale(0.1 -0.1)">
       <use xlink:href="#DejaVuSans-48"/>
       <use x="63.623047" xlink:href="#DejaVuSans-46"/>
       <use x="95.410156" xlink:href="#DejaVuSans-50"/>
      </g>
     </g>
    </g>
    <g id="ytick_3">
     <g id="line2d_21">
      <path clip-path="url(#p980eac7f04)" d="M 41.875 125.913636 
L 853.2 125.913636 
" style="fill:none;stroke:#b0b0b0;stroke-linecap:square;stroke-width:0.8;"/>
     </g>
     <g id="line2d_22">
      <g>
       <use style="stroke:#000000;stroke-width:0.8;" x="41.875" xlink:href="#me22a074018" y="125.913636"/>
      </g>
     </g>
     <g id="text_11">
      <!-- 0.4 -->
      <defs>
       <path d="M 37.796875 64.3125 
L 12.890625 25.390625 
L 37.796875 25.390625 
z
M 35.203125 72.90625 
L 47.609375 72.90625 
L 47.609375 25.390625 
L 58.015625 25.390625 
L 58.015625 17.1875 
L 47.609375 17.1875 
L 47.609375 0 
L 37.796875 0 
L 37.796875 17.1875 
L 4.890625 17.1875 
L 4.890625 26.703125 
z
" id="DejaVuSans-52"/>
      </defs>
      <g transform="translate(18.971875 129.712855)scale(0.1 -0.1)">
       <use xlink:href="#DejaVuSans-48"/>
       <use x="63.623047" xlink:href="#DejaVuSans-46"/>
       <use x="95.410156" xlink:href="#DejaVuSans-52"/>
      </g>
     </g>
    </g>
    <g id="ytick_4">
     <g id="line2d_23">
      <path clip-path="url(#p980eac7f04)" d="M 41.875 95.386364 
L 853.2 95.386364 
" style="fill:none;stroke:#b0b0b0;stroke-linecap:square;stroke-width:0.8;"/>
     </g>
     <g id="line2d_24">
      <g>
       <use style="stroke:#000000;stroke-width:0.8;" x="41.875" xlink:href="#me22a074018" y="95.386364"/>
      </g>
     </g>
     <g id="text_12">
      <!-- 0.6 -->
      <defs>
       <path d="M 33.015625 40.375 
Q 26.375 40.375 22.484375 35.828125 
Q 18.609375 31.296875 18.609375 23.390625 
Q 18.609375 15.53125 22.484375 10.953125 
Q 26.375 6.390625 33.015625 6.390625 
Q 39.65625 6.390625 43.53125 10.953125 
Q 47.40625 15.53125 47.40625 23.390625 
Q 47.40625 31.296875 43.53125 35.828125 
Q 39.65625 40.375 33.015625 40.375 
z
M 52.59375 71.296875 
L 52.59375 62.3125 
Q 48.875 64.0625 45.09375 64.984375 
Q 41.3125 65.921875 37.59375 65.921875 
Q 27.828125 65.921875 22.671875 59.328125 
Q 17.53125 52.734375 16.796875 39.40625 
Q 19.671875 43.65625 24.015625 45.921875 
Q 28.375 48.1875 33.59375 48.1875 
Q 44.578125 48.1875 50.953125 41.515625 
Q 57.328125 34.859375 57.328125 23.390625 
Q 57.328125 12.15625 50.6875 5.359375 
Q 44.046875 -1.421875 33.015625 -1.421875 
Q 20.359375 -1.421875 13.671875 8.265625 
Q 6.984375 17.96875 6.984375 36.375 
Q 6.984375 53.65625 15.1875 63.9375 
Q 23.390625 74.21875 37.203125 74.21875 
Q 40.921875 74.21875 44.703125 73.484375 
Q 48.484375 72.75 52.59375 71.296875 
z
" id="DejaVuSans-54"/>
      </defs>
      <g transform="translate(18.971875 99.185582)scale(0.1 -0.1)">
       <use xlink:href="#DejaVuSans-48"/>
       <use x="63.623047" xlink:href="#DejaVuSans-46"/>
       <use x="95.410156" xlink:href="#DejaVuSans-54"/>
      </g>
     </g>
    </g>
    <g id="ytick_5">
     <g id="line2d_25">
      <path clip-path="url(#p980eac7f04)" d="M 41.875 64.859091 
L 853.2 64.859091 
" style="fill:none;stroke:#b0b0b0;stroke-linecap:square;stroke-width:0.8;"/>
     </g>
     <g id="line2d_26">
      <g>
       <use style="stroke:#000000;stroke-width:0.8;" x="41.875" xlink:href="#me22a074018" y="64.859091"/>
      </g>
     </g>
     <g id="text_13">
      <!-- 0.8 -->
      <defs>
       <path d="M 31.78125 34.625 
Q 24.75 34.625 20.71875 30.859375 
Q 16.703125 27.09375 16.703125 20.515625 
Q 16.703125 13.921875 20.71875 10.15625 
Q 24.75 6.390625 31.78125 6.390625 
Q 38.8125 6.390625 42.859375 10.171875 
Q 46.921875 13.96875 46.921875 20.515625 
Q 46.921875 27.09375 42.890625 30.859375 
Q 38.875 34.625 31.78125 34.625 
z
M 21.921875 38.8125 
Q 15.578125 40.375 12.03125 44.71875 
Q 8.5 49.078125 8.5 55.328125 
Q 8.5 64.0625 14.71875 69.140625 
Q 20.953125 74.21875 31.78125 74.21875 
Q 42.671875 74.21875 48.875 69.140625 
Q 55.078125 64.0625 55.078125 55.328125 
Q 55.078125 49.078125 51.53125 44.71875 
Q 48 40.375 41.703125 38.8125 
Q 48.828125 37.15625 52.796875 32.3125 
Q 56.78125 27.484375 56.78125 20.515625 
Q 56.78125 9.90625 50.3125 4.234375 
Q 43.84375 -1.421875 31.78125 -1.421875 
Q 19.734375 -1.421875 13.25 4.234375 
Q 6.78125 9.90625 6.78125 20.515625 
Q 6.78125 27.484375 10.78125 32.3125 
Q 14.796875 37.15625 21.921875 38.8125 
z
M 18.3125 54.390625 
Q 18.3125 48.734375 21.84375 45.5625 
Q 25.390625 42.390625 31.78125 42.390625 
Q 38.140625 42.390625 41.71875 45.5625 
Q 45.3125 48.734375 45.3125 54.390625 
Q 45.3125 60.0625 41.71875 63.234375 
Q 38.140625 66.40625 31.78125 66.40625 
Q 25.390625 66.40625 21.84375 63.234375 
Q 18.3125 60.0625 18.3125 54.390625 
z
" id="DejaVuSans-56"/>
      </defs>
      <g transform="translate(18.971875 68.65831)scale(0.1 -0.1)">
       <use xlink:href="#DejaVuSans-48"/>
       <use x="63.623047" xlink:href="#DejaVuSans-46"/>
       <use x="95.410156" xlink:href="#DejaVuSans-56"/>
      </g>
     </g>
    </g>
    <g id="ytick_6">
     <g id="line2d_27">
      <path clip-path="url(#p980eac7f04)" d="M 41.875 34.331818 
L 853.2 34.331818 
" style="fill:none;stroke:#b0b0b0;stroke-linecap:square;stroke-width:0.8;"/>
     </g>
     <g id="line2d_28">
      <g>
       <use style="stroke:#000000;stroke-width:0.8;" x="41.875" xlink:href="#me22a074018" y="34.331818"/>
      </g>
     </g>
     <g id="text_14">
      <!-- 1.0 -->
      <g transform="translate(18.971875 38.131037)scale(0.1 -0.1)">
       <use xlink:href="#DejaVuSans-49"/>
       <use x="63.623047" xlink:href="#DejaVuSans-46"/>
       <use x="95.410156" xlink:href="#DejaVuSans-48"/>
      </g>
     </g>
    </g>
   </g>
   <g id="line2d_29">
    <path clip-path="url(#p980eac7f04)" d="M 41.875 34.331818 
L 122.824906 34.331818 
L 123.027788 186.968182 
L 203.977694 186.968182 
L 204.180576 34.331818 
L 406.859665 34.331818 
L 407.062547 186.968182 
L 488.012453 186.968182 
L 488.215335 34.331818 
L 528.588847 34.331818 
L 528.791729 186.968182 
L 569.165241 186.968182 
L 569.368123 34.331818 
L 650.31803 34.331818 
L 650.520911 186.968182 
L 731.470818 186.968182 
L 731.6737 34.331818 
L 772.047212 34.331818 
L 772.250094 186.968182 
L 853.2 186.968182 
L 853.2 186.968182 
" style="fill:none;stroke:#1f77b4;stroke-linecap:square;stroke-width:2;"/>
   </g>
   <g id="patch_3">
    <path d="M 41.875 194.6 
L 41.875 26.7 
" style="fill:none;stroke:#000000;stroke-linecap:square;stroke-linejoin:miter;stroke-width:0.8;"/>
   </g>
   <g id="patch_4">
    <path d="M 853.2 194.6 
L 853.2 26.7 
" style="fill:none;stroke:#000000;stroke-linecap:square;stroke-linejoin:miter;stroke-width:0.8;"/>
   </g>
   <g id="patch_5">
    <path d="M 41.875 194.6 
L 853.2 194.6 
" style="fill:none;stroke:#000000;stroke-linecap:square;stroke-linejoin:miter;stroke-width:0.8;"/>
   </g>
   <g id="patch_6">
    <path d="M 41.875 26.7 
L 853.2 26.7 
" style="fill:none;stroke:#000000;stroke-linecap:square;stroke-linejoin:miter;stroke-width:0.8;"/>
   </g>
   <g id="text_15">
    <!-- Digital signal -->
    <defs>
     <path d="M 19.671875 64.796875 
L 19.671875 8.109375 
L 31.59375 8.109375 
Q 46.6875 8.109375 53.6875 14.9375 
Q 60.6875 21.78125 60.6875 36.53125 
Q 60.6875 51.171875 53.6875 57.984375 
Q 46.6875 64.796875 31.59375 64.796875 
z
M 9.8125 72.90625 
L 30.078125 72.90625 
Q 51.265625 72.90625 61.171875 64.09375 
Q 71.09375 55.28125 71.09375 36.53125 
Q 71.09375 17.671875 61.125 8.828125 
Q 51.171875 0 30.078125 0 
L 9.8125 0 
z
" id="DejaVuSans-68"/>
     <path d="M 9.421875 54.6875 
L 18.40625 54.6875 
L 18.40625 0 
L 9.421875 0 
z
M 9.421875 75.984375 
L 18.40625 75.984375 
L 18.40625 64.59375 
L 9.421875 64.59375 
z
" id="DejaVuSans-105"/>
     <path d="M 45.40625 27.984375 
Q 45.40625 37.75 41.375 43.109375 
Q 37.359375 48.484375 30.078125 48.484375 
Q 22.859375 48.484375 18.828125 43.109375 
Q 14.796875 37.75 14.796875 27.984375 
Q 14.796875 18.265625 18.828125 12.890625 
Q 22.859375 7.515625 30.078125 7.515625 
Q 37.359375 7.515625 41.375 12.890625 
Q 45.40625 18.265625 45.40625 27.984375 
z
M 54.390625 6.78125 
Q 54.390625 -7.171875 48.1875 -13.984375 
Q 42 -20.796875 29.203125 -20.796875 
Q 24.46875 -20.796875 20.265625 -20.09375 
Q 16.0625 -19.390625 12.109375 -17.921875 
L 12.109375 -9.1875 
Q 16.0625 -11.328125 19.921875 -12.34375 
Q 23.78125 -13.375 27.78125 -13.375 
Q 36.625 -13.375 41.015625 -8.765625 
Q 45.40625 -4.15625 45.40625 5.171875 
L 45.40625 9.625 
Q 42.625 4.78125 38.28125 2.390625 
Q 33.9375 0 27.875 0 
Q 17.828125 0 11.671875 7.65625 
Q 5.515625 15.328125 5.515625 27.984375 
Q 5.515625 40.671875 11.671875 48.328125 
Q 17.828125 56 27.875 56 
Q 33.9375 56 38.28125 53.609375 
Q 42.625 51.21875 45.40625 46.390625 
L 45.40625 54.6875 
L 54.390625 54.6875 
z
" id="DejaVuSans-103"/>
     <path d="M 18.3125 70.21875 
L 18.3125 54.6875 
L 36.8125 54.6875 
L 36.8125 47.703125 
L 18.3125 47.703125 
L 18.3125 18.015625 
Q 18.3125 11.328125 20.140625 9.421875 
Q 21.96875 7.515625 27.59375 7.515625 
L 36.8125 7.515625 
L 36.8125 0 
L 27.59375 0 
Q 17.1875 0 13.234375 3.875 
Q 9.28125 7.765625 9.28125 18.015625 
L 9.28125 47.703125 
L 2.6875 47.703125 
L 2.6875 54.6875 
L 9.28125 54.6875 
L 9.28125 70.21875 
z
" id="DejaVuSans-116"/>
     <path d="M 34.28125 27.484375 
Q 23.390625 27.484375 19.1875 25 
Q 14.984375 22.515625 14.984375 16.5 
Q 14.984375 11.71875 18.140625 8.90625 
Q 21.296875 6.109375 26.703125 6.109375 
Q 34.1875 6.109375 38.703125 11.40625 
Q 43.21875 16.703125 43.21875 25.484375 
L 43.21875 27.484375 
z
M 52.203125 31.203125 
L 52.203125 0 
L 43.21875 0 
L 43.21875 8.296875 
Q 40.140625 3.328125 35.546875 0.953125 
Q 30.953125 -1.421875 24.3125 -1.421875 
Q 15.921875 -1.421875 10.953125 3.296875 
Q 6 8.015625 6 15.921875 
Q 6 25.140625 12.171875 29.828125 
Q 18.359375 34.515625 30.609375 34.515625 
L 43.21875 34.515625 
L 43.21875 35.40625 
Q 43.21875 41.609375 39.140625 45 
Q 35.0625 48.390625 27.6875 48.390625 
Q 23 48.390625 18.546875 47.265625 
Q 14.109375 46.140625 10.015625 43.890625 
L 10.015625 52.203125 
Q 14.9375 54.109375 19.578125 55.046875 
Q 24.21875 56 28.609375 56 
Q 40.484375 56 46.34375 49.84375 
Q 52.203125 43.703125 52.203125 31.203125 
z
" id="DejaVuSans-97"/>
     <path d="M 9.421875 75.984375 
L 18.40625 75.984375 
L 18.40625 0 
L 9.421875 0 
z
" id="DejaVuSans-108"/>
     <path id="DejaVuSans-32"/>
     <path d="M 44.28125 53.078125 
L 44.28125 44.578125 
Q 40.484375 46.53125 36.375 47.5 
Q 32.28125 48.484375 27.875 48.484375 
Q 21.1875 48.484375 17.84375 46.4375 
Q 14.5 44.390625 14.5 40.28125 
Q 14.5 37.15625 16.890625 35.375 
Q 19.28125 33.59375 26.515625 31.984375 
L 29.59375 31.296875 
Q 39.15625 29.25 43.1875 25.515625 
Q 47.21875 21.78125 47.21875 15.09375 
Q 47.21875 7.46875 41.1875 3.015625 
Q 35.15625 -1.421875 24.609375 -1.421875 
Q 20.21875 -1.421875 15.453125 -0.5625 
Q 10.6875 0.296875 5.421875 2 
L 5.421875 11.28125 
Q 10.40625 8.6875 15.234375 7.390625 
Q 20.0625 6.109375 24.8125 6.109375 
Q 31.15625 6.109375 34.5625 8.28125 
Q 37.984375 10.453125 37.984375 14.40625 
Q 37.984375 18.0625 35.515625 20.015625 
Q 33.0625 21.96875 24.703125 23.78125 
L 21.578125 24.515625 
Q 13.234375 26.265625 9.515625 29.90625 
Q 5.8125 33.546875 5.8125 39.890625 
Q 5.8125 47.609375 11.28125 51.796875 
Q 16.75 56 26.8125 56 
Q 31.78125 56 36.171875 55.265625 
Q 40.578125 54.546875 44.28125 53.078125 
z
" id="DejaVuSans-115"/>
     <path d="M 54.890625 33.015625 
L 54.890625 0 
L 45.90625 0 
L 45.90625 32.71875 
Q 45.90625 40.484375 42.875 44.328125 
Q 39.84375 48.1875 33.796875 48.1875 
Q 26.515625 48.1875 22.3125 43.546875 
Q 18.109375 38.921875 18.109375 30.90625 
L 18.109375 0 
L 9.078125 0 
L 9.078125 54.6875 
L 18.109375 54.6875 
L 18.109375 46.1875 
Q 21.34375 51.125 25.703125 53.5625 
Q 30.078125 56 35.796875 56 
Q 45.21875 56 50.046875 50.171875 
Q 54.890625 44.34375 54.890625 33.015625 
z
" id="DejaVuSans-110"/>
    </defs>
    <g transform="translate(408.424062 20.7)scale(0.12 -0.12)">
     <use xlink:href="#DejaVuSans-68"/>
     <use x="77.001953" xlink:href="#DejaVuSans-105"/>
     <use x="104.785156" xlink:href="#DejaVuSans-103"/>
     <use x="168.261719" xlink:href="#DejaVuSans-105"/>
     <use x="196.044922" xlink:href="#DejaVuSans-116"/>
     <use x="235.253906" xlink:href="#DejaVuSans-97"/>
     <use x="296.533203" xlink:href="#DejaVuSans-108"/>
     <use x="324.316406" xlink:href="#DejaVuSans-32"/>
     <use x="356.103516" xlink:href="#DejaVuSans-115"/>
     <use x="408.203125" xlink:href="#DejaVuSans-105"/>
     <use x="435.986328" xlink:href="#DejaVuSans-103"/>
     <use x="499.462891" xlink:href="#DejaVuSans-110"/>
     <use x="562.841797" xlink:href="#DejaVuSans-97"/>
     <use x="624.121094" xlink:href="#DejaVuSans-108"/>
    </g>
   </g>
  </g>
  <g id="axes_2">
   <g id="patch_7">
    <path d="M 41.875 405.2 
L 853.2 405.2 
L 853.2 237.3 
L 41.875 237.3 
z
" style="fill:#ffffff;"/>
   </g>
   <g id="matplotlib.axis_3">
    <g id="xtick_9">
     <g id="line2d_30">
      <path clip-path="url(#p157e107643)" d="M 41.875 405.2 
L 41.875 237.3 
" style="fill:none;stroke:#b0b0b0;stroke-linecap:square;stroke-width:0.8;"/>
     </g>
     <g id="line2d_31">
      <g>
       <use style="stroke:#000000;stroke-width:0.8;" x="41.875" xlink:href="#m57c99c66cf" y="405.2"/>
      </g>
     </g>
     <g id="text_16">
      <!-- 0 -->
      <g transform="translate(38.69375 419.798438)scale(0.1 -0.1)">
       <use xlink:href="#DejaVuSans-48"/>
      </g>
     </g>
    </g>
    <g id="xtick_10">
     <g id="line2d_32">
      <path clip-path="url(#p157e107643)" d="M 143.315985 405.2 
L 143.315985 237.3 
" style="fill:none;stroke:#b0b0b0;stroke-linecap:square;stroke-width:0.8;"/>
     </g>
     <g id="line2d_33">
      <g>
       <use style="stroke:#000000;stroke-width:0.8;" x="143.315985" xlink:href="#m57c99c66cf" y="405.2"/>
      </g>
     </g>
     <g id="text_17">
      <!-- 500 -->
      <g transform="translate(133.772235 419.798438)scale(0.1 -0.1)">
       <use xlink:href="#DejaVuSans-53"/>
       <use x="63.623047" xlink:href="#DejaVuSans-48"/>
       <use x="127.246094" xlink:href="#DejaVuSans-48"/>
      </g>
     </g>
    </g>
    <g id="xtick_11">
     <g id="line2d_34">
      <path clip-path="url(#p157e107643)" d="M 244.75697 405.2 
L 244.75697 237.3 
" style="fill:none;stroke:#b0b0b0;stroke-linecap:square;stroke-width:0.8;"/>
     </g>
     <g id="line2d_35">
      <g>
       <use style="stroke:#000000;stroke-width:0.8;" x="244.75697" xlink:href="#m57c99c66cf" y="405.2"/>
      </g>
     </g>
     <g id="text_18">
      <!-- 1000 -->
      <g transform="translate(232.03197 419.798438)scale(0.1 -0.1)">
       <use xlink:href="#DejaVuSans-49"/>
       <use x="63.623047" xlink:href="#DejaVuSans-48"/>
       <use x="127.246094" xlink:href="#DejaVuSans-48"/>
       <use x="190.869141" xlink:href="#DejaVuSans-48"/>
      </g>
     </g>
    </g>
    <g id="xtick_12">
     <g id="line2d_36">
      <path clip-path="url(#p157e107643)" d="M 346.197956 405.2 
L 346.197956 237.3 
" style="fill:none;stroke:#b0b0b0;stroke-linecap:square;stroke-width:0.8;"/>
     </g>
     <g id="line2d_37">
      <g>
       <use style="stroke:#000000;stroke-width:0.8;" x="346.197956" xlink:href="#m57c99c66cf" y="405.2"/>
      </g>
     </g>
     <g id="text_19">
      <!-- 1500 -->
      <g transform="translate(333.472956 419.798438)scale(0.1 -0.1)">
       <use xlink:href="#DejaVuSans-49"/>
       <use x="63.623047" xlink:href="#DejaVuSans-53"/>
       <use x="127.246094" xlink:href="#DejaVuSans-48"/>
       <use x="190.869141" xlink:href="#DejaVuSans-48"/>
      </g>
     </g>
    </g>
    <g id="xtick_13">
     <g id="line2d_38">
      <path clip-path="url(#p157e107643)" d="M 447.638941 405.2 
L 447.638941 237.3 
" style="fill:none;stroke:#b0b0b0;stroke-linecap:square;stroke-width:0.8;"/>
     </g>
     <g id="line2d_39">
      <g>
       <use style="stroke:#000000;stroke-width:0.8;" x="447.638941" xlink:href="#m57c99c66cf" y="405.2"/>
      </g>
     </g>
     <g id="text_20">
      <!-- 2000 -->
      <g transform="translate(434.913941 419.798438)scale(0.1 -0.1)">
       <use xlink:href="#DejaVuSans-50"/>
       <use x="63.623047" xlink:href="#DejaVuSans-48"/>
       <use x="127.246094" xlink:href="#DejaVuSans-48"/>
       <use x="190.869141" xlink:href="#DejaVuSans-48"/>
      </g>
     </g>
    </g>
    <g id="xtick_14">
     <g id="line2d_40">
      <path clip-path="url(#p157e107643)" d="M 549.079926 405.2 
L 549.079926 237.3 
" style="fill:none;stroke:#b0b0b0;stroke-linecap:square;stroke-width:0.8;"/>
     </g>
     <g id="line2d_41">
      <g>
       <use style="stroke:#000000;stroke-width:0.8;" x="549.079926" xlink:href="#m57c99c66cf" y="405.2"/>
      </g>
     </g>
     <g id="text_21">
      <!-- 2500 -->
      <g transform="translate(536.354926 419.798438)scale(0.1 -0.1)">
       <use xlink:href="#DejaVuSans-50"/>
       <use x="63.623047" xlink:href="#DejaVuSans-53"/>
       <use x="127.246094" xlink:href="#DejaVuSans-48"/>
       <use x="190.869141" xlink:href="#DejaVuSans-48"/>
      </g>
     </g>
    </g>
    <g id="xtick_15">
     <g id="line2d_42">
      <path clip-path="url(#p157e107643)" d="M 650.520911 405.2 
L 650.520911 237.3 
" style="fill:none;stroke:#b0b0b0;stroke-linecap:square;stroke-width:0.8;"/>
     </g>
     <g id="line2d_43">
      <g>
       <use style="stroke:#000000;stroke-width:0.8;" x="650.520911" xlink:href="#m57c99c66cf" y="405.2"/>
      </g>
     </g>
     <g id="text_22">
      <!-- 3000 -->
      <g transform="translate(637.795911 419.798438)scale(0.1 -0.1)">
       <use xlink:href="#DejaVuSans-51"/>
       <use x="63.623047" xlink:href="#DejaVuSans-48"/>
       <use x="127.246094" xlink:href="#DejaVuSans-48"/>
       <use x="190.869141" xlink:href="#DejaVuSans-48"/>
      </g>
     </g>
    </g>
    <g id="xtick_16">
     <g id="line2d_44">
      <path clip-path="url(#p157e107643)" d="M 751.961897 405.2 
L 751.961897 237.3 
" style="fill:none;stroke:#b0b0b0;stroke-linecap:square;stroke-width:0.8;"/>
     </g>
     <g id="line2d_45">
      <g>
       <use style="stroke:#000000;stroke-width:0.8;" x="751.961897" xlink:href="#m57c99c66cf" y="405.2"/>
      </g>
     </g>
     <g id="text_23">
      <!-- 3500 -->
      <g transform="translate(739.236897 419.798438)scale(0.1 -0.1)">
       <use xlink:href="#DejaVuSans-51"/>
       <use x="63.623047" xlink:href="#DejaVuSans-53"/>
       <use x="127.246094" xlink:href="#DejaVuSans-48"/>
       <use x="190.869141" xlink:href="#DejaVuSans-48"/>
      </g>
     </g>
    </g>
   </g>
   <g id="matplotlib.axis_4">
    <g id="ytick_7">
     <g id="line2d_46">
      <path clip-path="url(#p157e107643)" d="M 41.875 397.568188 
L 853.2 397.568188 
" style="fill:none;stroke:#b0b0b0;stroke-linecap:square;stroke-width:0.8;"/>
     </g>
     <g id="line2d_47">
      <g>
       <use style="stroke:#000000;stroke-width:0.8;" x="41.875" xlink:href="#me22a074018" y="397.568188"/>
      </g>
     </g>
     <g id="text_24">
      <!-- −1.0 -->
      <defs>
       <path d="M 10.59375 35.5 
L 73.1875 35.5 
L 73.1875 27.203125 
L 10.59375 27.203125 
z
" id="DejaVuSans-8722"/>
      </defs>
      <g transform="translate(10.592187 401.367406)scale(0.1 -0.1)">
       <use xlink:href="#DejaVuSans-8722"/>
       <use x="83.789062" xlink:href="#DejaVuSans-49"/>
       <use x="147.412109" xlink:href="#DejaVuSans-46"/>
       <use x="179.199219" xlink:href="#DejaVuSans-48"/>
      </g>
     </g>
    </g>
    <g id="ytick_8">
     <g id="line2d_48">
      <path clip-path="url(#p157e107643)" d="M 41.875 359.409095 
L 853.2 359.409095 
" style="fill:none;stroke:#b0b0b0;stroke-linecap:square;stroke-width:0.8;"/>
     </g>
     <g id="line2d_49">
      <g>
       <use style="stroke:#000000;stroke-width:0.8;" x="41.875" xlink:href="#me22a074018" y="359.409095"/>
      </g>
     </g>
     <g id="text_25">
      <!-- −0.5 -->
      <g transform="translate(10.592187 363.208314)scale(0.1 -0.1)">
       <use xlink:href="#DejaVuSans-8722"/>
       <use x="83.789062" xlink:href="#DejaVuSans-48"/>
       <use x="147.412109" xlink:href="#DejaVuSans-46"/>
       <use x="179.199219" xlink:href="#DejaVuSans-53"/>
      </g>
     </g>
    </g>
    <g id="ytick_9">
     <g id="line2d_50">
      <path clip-path="url(#p157e107643)" d="M 41.875 321.250003 
L 853.2 321.250003 
" style="fill:none;stroke:#b0b0b0;stroke-linecap:square;stroke-width:0.8;"/>
     </g>
     <g id="line2d_51">
      <g>
       <use style="stroke:#000000;stroke-width:0.8;" x="41.875" xlink:href="#me22a074018" y="321.250003"/>
      </g>
     </g>
     <g id="text_26">
      <!-- 0.0 -->
      <g transform="translate(18.971875 325.049222)scale(0.1 -0.1)">
       <use xlink:href="#DejaVuSans-48"/>
       <use x="63.623047" xlink:href="#DejaVuSans-46"/>
       <use x="95.410156" xlink:href="#DejaVuSans-48"/>
      </g>
     </g>
    </g>
    <g id="ytick_10">
     <g id="line2d_52">
      <path clip-path="url(#p157e107643)" d="M 41.875 283.090911 
L 853.2 283.090911 
" style="fill:none;stroke:#b0b0b0;stroke-linecap:square;stroke-width:0.8;"/>
     </g>
     <g id="line2d_53">
      <g>
       <use style="stroke:#000000;stroke-width:0.8;" x="41.875" xlink:href="#me22a074018" y="283.090911"/>
      </g>
     </g>
     <g id="text_27">
      <!-- 0.5 -->
      <g transform="translate(18.971875 286.890129)scale(0.1 -0.1)">
       <use xlink:href="#DejaVuSans-48"/>
       <use x="63.623047" xlink:href="#DejaVuSans-46"/>
       <use x="95.410156" xlink:href="#DejaVuSans-53"/>
      </g>
     </g>
    </g>
    <g id="ytick_11">
     <g id="line2d_54">
      <path clip-path="url(#p157e107643)" d="M 41.875 244.931818 
L 853.2 244.931818 
" style="fill:none;stroke:#b0b0b0;stroke-linecap:square;stroke-width:0.8;"/>
     </g>
     <g id="line2d_55">
      <g>
       <use style="stroke:#000000;stroke-width:0.8;" x="41.875" xlink:href="#me22a074018" y="244.931818"/>
      </g>
     </g>
     <g id="text_28">
      <!-- 1.0 -->
      <g transform="translate(18.971875 248.731037)scale(0.1 -0.1)">
       <use xlink:href="#DejaVuSans-49"/>
       <use x="63.623047" xlink:href="#DejaVuSans-46"/>
       <use x="95.410156" xlink:href="#DejaVuSans-48"/>
      </g>
     </g>
    </g>
   </g>
   <g id="line2d_56">
    <path clip-path="url(#p157e107643)" d="M 41.875 244.931818 
L 122.824906 244.931818 
L 123.027788 321.250003 
L 203.977694 321.250003 
L 204.180576 244.931818 
L 406.859665 244.931818 
L 407.062547 321.250003 
L 488.012453 321.250003 
L 488.215335 244.931818 
L 528.588847 244.931818 
L 528.791729 321.250003 
L 569.165241 321.250003 
L 569.368123 244.931818 
L 650.31803 244.931818 
L 650.520911 321.250003 
L 731.470818 321.250003 
L 731.6737 244.931818 
L 772.047212 244.931818 
L 772.250094 321.250003 
L 853.2 321.250003 
L 853.2 321.250003 
" style="fill:none;stroke:#1f77b4;stroke-dasharray:7.4,3.2;stroke-dashoffset:0;stroke-width:2;"/>
   </g>
   <g id="line2d_57">
    <path clip-path="url(#p157e107643)" d="M 41.875 321.250003 
L 43.498056 276.381599 
L 44.309584 259.496724 
L 44.91823 250.732593 
L 45.323993 247.034551 
L 45.729757 245.164853 
L 45.932639 244.931824 
L 46.135521 245.169558 
L 46.338403 245.876587 
L 46.744167 248.67822 
L 47.149931 253.267704 
L 47.758577 263.245439 
L 48.570105 281.416043 
L 49.787397 315.320425 
L 51.613335 366.166892 
L 52.424862 383.038492 
L 53.033508 391.790318 
L 53.439272 395.479408 
L 53.845036 397.339812 
L 54.047918 397.568135 
L 54.2508 397.325696 
L 54.453682 396.613991 
L 54.859446 393.803209 
L 55.26521 389.205035 
L 55.873856 379.215585 
L 56.685384 361.03281 
L 57.902676 327.119805 
L 59.728613 276.284656 
L 60.540141 259.426342 
L 61.148787 250.686825 
L 61.554551 247.006689 
L 61.960315 245.155583 
L 62.163197 244.931965 
L 62.366079 245.179109 
L 62.568961 245.895489 
L 62.974725 248.715418 
L 63.380489 253.32228 
L 63.989135 263.323438 
L 64.800663 281.518374 
L 66.017954 315.43998 
L 67.843892 366.26378 
L 68.65542 383.108798 
L 69.264066 391.835999 
L 69.66983 395.507179 
L 70.075594 397.348987 
L 70.278476 397.567899 
L 70.481358 397.316051 
L 70.68424 396.594995 
L 71.090004 393.765922 
L 71.495768 389.150374 
L 72.104414 379.137515 
L 72.915941 360.930431 
L 74.133233 327.000243 
L 75.959171 276.187824 
L 76.770699 259.356112 
L 77.379345 250.641231 
L 77.785109 246.979011 
L 78.190873 245.146501 
L 78.393755 244.932295 
L 78.596637 245.188848 
L 78.799519 245.914578 
L 79.205283 248.752795 
L 79.611047 253.377025 
L 80.219692 263.40158 
L 81.03122 281.620802 
L 82.248512 315.55955 
L 84.07445 366.360556 
L 84.885978 383.178952 
L 85.494624 391.881506 
L 85.900388 395.534766 
L 86.306152 397.357975 
L 86.509034 397.567475 
L 86.711915 397.306218 
L 86.914797 396.575814 
L 87.320561 393.728456 
L 87.726325 389.095546 
L 88.334971 379.059301 
L 89.146499 360.827953 
L 90.363791 326.880666 
L 92.189729 276.091103 
L 93.001257 259.286035 
L 93.609902 250.595812 
L 94.015666 246.951515 
L 94.42143 245.137608 
L 94.624312 244.932813 
L 94.827194 245.198775 
L 95.030076 245.933852 
L 95.43584 248.79035 
L 95.841604 253.431936 
L 96.45025 263.479865 
L 97.261778 281.723328 
L 98.47907 315.679133 
L 100.305008 366.457221 
L 101.116535 383.248952 
L 101.725181 391.926838 
L 102.130945 395.562169 
L 102.536709 397.366775 
L 102.739591 397.566863 
L 102.942473 397.296197 
L 103.145355 396.556447 
L 103.551119 393.690811 
L 103.956883 389.040551 
L 104.565529 378.980945 
L 105.377057 360.725379 
L 106.594349 326.761076 
L 108.420286 275.994494 
L 109.231814 259.216111 
L 109.84046 250.550567 
L 110.246224 246.924204 
L 110.651988 245.128902 
L 110.85487 244.93352 
L 111.057752 245.208889 
L 111.260634 245.953312 
L 111.666398 248.828085 
L 112.072162 253.487016 
L 112.680808 263.558292 
L 113.492336 281.825951 
L 114.709627 315.79873 
L 116.535565 366.553774 
L 117.347093 383.3188 
L 117.955739 391.971996 
L 118.361503 395.589389 
L 118.767267 397.375387 
L 118.970149 397.566062 
L 119.173031 397.285989 
L 119.375913 396.536894 
L 119.781677 393.652987 
L 120.187441 388.985388 
L 120.796087 378.902446 
L 121.607614 360.622706 
L 123.23067 319.931055 
L 127.694074 294.154863 
L 130.331539 280.246379 
L 132.360359 270.679669 
L 134.186297 263.128709 
L 135.809352 257.386606 
L 137.229526 253.186154 
L 138.446818 250.238744 
L 139.461228 248.263347 
L 140.475638 246.738161 
L 141.287166 245.848583 
L 142.098693 245.256728 
L 142.910221 244.964933 
L 143.518867 244.94374 
L 144.127513 245.092051 
L 144.939041 245.552847 
L 145.750569 246.312535 
L 146.562097 247.368115 
L 147.576507 249.097227 
L 148.590916 251.271408 
L 149.808208 254.448844 
L 151.228382 258.90335 
L 152.648556 264.111261 
L 154.271612 270.904576 
L 156.097549 279.490743 
L 158.329251 291.098393 
L 161.169599 307.122585 
L 169.690641 356.065902 
L 171.922343 367.226504 
L 173.748281 375.352716 
L 175.371337 381.673895 
L 176.79151 386.425891 
L 178.211684 390.390293 
L 179.428976 393.124908 
L 180.443386 394.917036 
L 181.457796 396.254756 
L 182.269324 396.992116 
L 183.080851 397.430407 
L 183.892379 397.567899 
L 184.501025 397.473247 
L 185.312553 397.083749 
L 186.124081 396.39482 
L 186.935609 395.409181 
L 187.950019 393.765922 
L 188.964429 391.675355 
L 190.18172 388.594573 
L 191.399012 384.915738 
L 192.819186 379.911757 
L 194.442242 373.328835 
L 196.26818 364.94652 
L 198.499881 353.535155 
L 201.340229 337.668271 
L 203.977694 322.20926 
L 204.180576 320.050949 
L 205.803632 275.417193 
L 206.61516 258.799789 
L 207.223806 250.282766 
L 207.62957 246.764188 
L 208.035334 245.080613 
L 208.238216 244.941715 
L 208.441098 245.273518 
L 208.64398 246.073975 
L 209.049744 249.058243 
L 209.455508 253.820999 
L 210.064154 264.031841 
L 210.875681 282.443727 
L 212.092973 316.516586 
L 213.716029 362.203047 
L 214.527557 380.103063 
L 215.136203 389.821539 
L 215.744849 395.748854 
L 216.150613 397.423111 
L 216.353495 397.557302 
L 216.556377 397.220797 
L 216.759259 396.415673 
L 217.165023 393.422293 
L 217.570786 388.650904 
L 218.179432 378.428472 
L 218.99096 360.004641 
L 220.208252 325.923579 
L 221.831308 280.246379 
L 222.642836 262.358791 
L 223.251482 252.652169 
L 223.860128 246.738161 
L 224.265891 245.073223 
L 224.468773 244.94374 
L 224.671655 245.284946 
L 224.874537 246.094736 
L 225.280301 249.097227 
L 225.686065 253.877246 
L 226.294711 264.111261 
L 227.106239 282.547027 
L 228.323531 316.636271 
L 229.946587 362.304181 
L 230.758115 380.179331 
L 231.36676 389.874093 
L 231.772524 394.254157 
L 232.178288 396.83572 
L 232.38117 397.430407 
L 232.584052 397.555182 
L 232.786934 397.209276 
L 232.989816 396.39482 
L 233.39558 393.38322 
L 233.801344 388.594573 
L 234.40999 378.348982 
L 235.221518 359.901294 
L 236.43881 325.803888 
L 238.061865 280.145296 
L 238.873393 262.282596 
L 239.482039 252.5997 
L 239.887803 248.228395 
L 240.293567 245.656023 
L 240.496449 245.066021 
L 240.699331 244.945954 
L 240.902213 245.296562 
L 241.105095 246.115682 
L 241.510859 249.136389 
L 241.916623 253.93366 
L 242.525269 264.190823 
L 243.336797 282.650422 
L 244.554089 316.755968 
L 246.177144 362.405213 
L 246.988672 380.255453 
L 247.597318 389.926477 
L 248.003082 394.289019 
L 248.408846 396.8522 
L 248.611728 397.437515 
L 248.81461 397.552875 
L 249.017492 397.197566 
L 249.423256 395.086602 
L 249.82902 391.156629 
L 250.437666 382.074502 
L 251.249194 364.848156 
L 252.263603 337.551148 
L 254.495305 275.130067 
L 255.306833 258.593707 
L 255.915479 250.151228 
L 256.321243 246.686661 
L 256.727007 245.059007 
L 256.929889 244.948356 
L 257.132771 245.308365 
L 257.538535 247.428591 
L 257.944299 251.367453 
L 258.552944 260.461735 
L 259.364472 277.701072 
L 260.378882 305.007434 
L 262.610584 367.417694 
L 263.422112 383.940511 
L 264.030758 392.370547 
L 264.436522 395.826105 
L 264.842286 397.444435 
L 265.045168 397.550379 
L 265.24805 397.185669 
L 265.653813 395.056182 
L 266.059577 391.108434 
L 266.668223 382.002001 
L 267.479751 364.749684 
L 268.494161 337.433985 
L 270.725863 275.034585 
L 271.537391 258.525322 
L 272.146037 250.107734 
L 272.5518 246.661187 
L 272.957564 245.052181 
L 273.160446 244.950946 
L 273.363328 245.320355 
L 273.769092 247.459102 
L 274.174856 251.415733 
L 274.783502 260.534311 
L 275.59503 277.799598 
L 276.60944 305.124617 
L 278.841142 367.513118 
L 279.652669 384.008819 
L 280.261315 392.413954 
L 280.667079 395.851487 
L 281.072843 397.451167 
L 281.275725 397.547694 
L 281.478607 397.173585 
L 281.884371 395.025579 
L 282.290135 391.060067 
L 282.898781 381.929351 
L 283.710309 364.651105 
L 284.724719 337.316782 
L 286.95642 274.939218 
L 287.767948 258.457092 
L 288.376594 250.064414 
L 288.782358 246.635897 
L 289.188122 245.045543 
L 289.391004 244.953725 
L 289.593886 245.332533 
L 289.99965 247.489796 
L 290.405414 251.464187 
L 291.01406 260.607037 
L 291.825588 277.89823 
L 292.839997 305.24184 
L 295.071699 367.608429 
L 295.883227 384.076971 
L 296.491873 392.457185 
L 296.897637 395.876685 
L 297.303401 397.457711 
L 297.506283 397.544821 
L 297.709165 397.161313 
L 298.114929 394.994795 
L 298.520693 391.011528 
L 299.129339 381.85655 
L 299.940866 364.552419 
L 300.955276 337.199539 
L 303.186978 274.843965 
L 303.998506 258.389017 
L 304.607152 250.021271 
L 305.012916 246.610791 
L 305.41868 245.039094 
L 305.621562 244.956692 
L 305.824444 245.344899 
L 306.230208 247.520672 
L 306.635971 251.512812 
L 307.244617 260.679912 
L 308.056145 277.99697 
L 309.070555 305.359103 
L 311.302257 367.703624 
L 312.113785 384.144969 
L 312.722431 392.500241 
L 313.128195 395.901699 
L 313.533958 397.464066 
L 313.73684 397.54176 
L 313.939722 397.148854 
L 314.345486 394.963828 
L 314.75125 390.962816 
L 315.359896 381.7836 
L 316.171424 364.453626 
L 317.185834 337.082257 
L 319.417536 274.748827 
L 320.229064 258.321097 
L 320.837709 249.978303 
L 321.243473 246.58587 
L 321.649237 245.032832 
L 321.852119 244.959847 
L 322.055001 245.357451 
L 322.460765 247.55173 
L 322.866529 251.56161 
L 323.475175 260.752937 
L 324.286703 278.095817 
L 325.301113 305.476405 
L 327.532814 367.798705 
L 328.344342 384.212811 
L 328.952988 392.54312 
L 329.358752 395.926528 
L 329.764516 397.470234 
L 329.967398 397.53851 
L 330.17028 397.136208 
L 330.576044 394.932679 
L 330.981808 390.913932 
L 331.590454 381.710501 
L 332.401982 364.354726 
L 333.416392 336.964936 
L 335.648093 274.653803 
L 336.459621 258.253332 
L 337.068267 249.935512 
L 337.474031 246.561132 
L 337.879795 245.026759 
L 338.082677 244.963191 
L 338.285559 245.370191 
L 338.691323 247.582969 
L 339.097087 251.61058 
L 339.705733 260.826111 
L 340.517261 278.19477 
L 341.53167 305.593745 
L 343.763372 367.893671 
L 344.5749 384.280498 
L 345.183546 392.585824 
L 345.58931 395.951173 
L 345.995074 397.476213 
L 346.197956 397.535073 
L 346.400838 397.123374 
L 346.806602 394.901348 
L 347.212366 390.864877 
L 347.821012 381.637252 
L 348.632539 364.25572 
L 349.646949 336.847576 
L 351.878651 274.558895 
L 352.690179 258.185723 
L 353.298825 249.892896 
L 353.704589 246.53658 
L 354.110353 245.020874 
L 354.313235 244.966723 
L 354.516117 245.383119 
L 354.92188 247.614391 
L 355.327644 251.659721 
L 355.93629 260.899434 
L 356.747818 278.293829 
L 357.762228 305.711125 
L 359.99393 367.988522 
L 360.805458 384.348029 
L 361.414104 392.628352 
L 361.819867 395.975634 
L 362.225631 397.482004 
L 362.428513 397.531446 
L 362.631395 397.110353 
L 363.037159 394.869836 
L 363.442923 390.815649 
L 364.051569 381.563854 
L 364.863097 364.156607 
L 365.877507 336.730177 
L 368.109209 274.464101 
L 368.920736 258.11827 
L 369.529382 249.850457 
L 369.935146 246.512211 
L 370.34091 245.015177 
L 370.543792 244.970443 
L 370.746674 245.396234 
L 371.152438 247.645994 
L 371.558202 251.709035 
L 372.166848 260.972906 
L 372.978376 278.392995 
L 373.992786 305.828542 
L 376.224487 368.083258 
L 377.036015 384.415404 
L 377.644661 392.670703 
L 378.050425 395.99991 
L 378.456189 397.487607 
L 378.659071 397.527632 
L 378.861953 397.097145 
L 379.267717 394.838142 
L 379.673481 390.76625 
L 380.282127 381.490308 
L 381.093655 364.057389 
L 382.108065 336.612741 
L 384.339766 274.369423 
L 385.151294 258.050972 
L 385.75994 249.808193 
L 386.165704 246.488027 
L 386.571468 245.009668 
L 386.77435 244.974352 
L 386.977232 245.409536 
L 387.382996 247.67778 
L 387.78876 251.75852 
L 388.397406 261.046527 
L 389.208933 278.492266 
L 390.223343 305.945998 
L 392.455045 368.177878 
L 393.266573 384.482624 
L 393.875219 392.712878 
L 394.280983 396.024001 
L 394.686747 397.493022 
L 394.889629 397.523629 
L 395.092511 397.083749 
L 395.498275 394.806266 
L 395.904039 390.716679 
L 396.512684 381.416612 
L 397.324212 363.958065 
L 398.338622 336.495266 
L 400.570324 274.274861 
L 401.381852 257.983831 
L 401.990498 249.766107 
L 402.396262 246.464028 
L 402.802026 245.004347 
L 403.004907 244.978449 
L 403.207789 245.423025 
L 403.613553 247.709746 
L 404.019317 251.808177 
L 404.627963 261.120297 
L 405.439491 278.591643 
L 406.453901 306.063491 
L 407.062547 321.789595 
L 411.728832 348.737077 
L 414.163416 361.594133 
L 416.192236 371.233964 
L 418.018173 378.863144 
L 419.641229 384.683345 
L 421.061403 388.957744 
L 422.278695 391.971996 
L 423.495986 394.358201 
L 424.510396 395.851487 
L 425.321924 396.715138 
L 426.133452 397.280814 
L 426.94498 397.546281 
L 427.553626 397.547694 
L 428.365154 397.285989 
L 429.176682 396.724054 
L 429.98821 395.864109 
L 430.799737 394.709549 
L 431.814147 392.859101 
L 432.828557 390.566938 
L 434.045849 387.253374 
L 435.466023 382.649087 
L 437.089079 376.48219 
L 438.915016 368.508134 
L 440.943836 358.549189 
L 443.37842 345.40878 
L 446.827413 325.444749 
L 452.305226 293.707006 
L 454.73981 280.854993 
L 456.76863 271.220751 
L 458.594567 263.59756 
L 460.217623 257.783344 
L 461.637797 253.514618 
L 462.855089 250.505496 
L 464.072381 248.124622 
L 465.08679 246.635897 
L 465.898318 245.775952 
L 466.709846 245.214017 
L 467.521374 244.952312 
L 468.13002 244.953725 
L 468.941548 245.219192 
L 469.753076 245.784868 
L 470.564604 246.648519 
L 471.376132 247.806735 
L 472.390541 249.661662 
L 473.404951 251.958175 
L 474.622243 255.276753 
L 476.042417 259.886547 
L 477.665473 266.059208 
L 479.49141 274.038964 
L 481.52023 284.003135 
L 483.954814 297.148105 
L 487.606689 318.312926 
L 488.012453 320.710411 
L 488.215335 324.54651 
L 489.635509 363.908363 
L 490.447037 381.379709 
L 491.055683 390.691829 
L 491.461447 394.79026 
L 491.867211 397.076981 
L 492.070093 397.521557 
L 492.272974 397.495659 
L 492.475856 396.999445 
L 492.88162 394.6112 
L 493.287384 390.415656 
L 493.89603 380.971327 
L 494.707558 363.359915 
L 495.92485 329.865142 
L 497.750788 278.541941 
L 498.562316 261.083394 
L 499.170961 251.783327 
L 499.576725 247.69374 
L 499.982489 245.416257 
L 500.185371 244.976377 
L 500.388253 245.006984 
L 500.591135 245.50789 
L 500.996899 247.905356 
L 501.402663 252.109713 
L 502.011309 261.566026 
L 502.822837 279.190106 
L 504.040129 312.694438 
L 505.866067 364.00774 
L 506.677594 381.453478 
L 507.28624 390.741486 
L 507.692004 394.822226 
L 508.097768 397.09047 
L 508.30065 397.525654 
L 508.503532 397.490338 
L 508.706414 396.98474 
L 509.112178 394.578054 
L 509.517942 390.364888 
L 510.126588 380.896596 
L 510.938116 363.259858 
L 512.155408 329.745988 
L 513.981345 278.442617 
L 514.792873 261.009698 
L 515.401519 251.733756 
L 515.807283 247.661864 
L 516.213047 245.402861 
L 516.415929 244.972374 
L 516.618811 245.012399 
L 516.821693 245.522689 
L 517.227457 247.938592 
L 517.633221 252.160567 
L 518.241867 261.640831 
L 519.053395 279.290215 
L 520.270686 312.813603 
L 522.096624 364.107011 
L 522.908152 381.527099 
L 523.516798 390.790971 
L 523.922562 394.854011 
L 524.328326 397.103772 
L 524.531208 397.529563 
L 524.73409 397.484829 
L 524.936972 396.969848 
L 525.342736 394.544728 
L 525.7485 390.313948 
L 526.357146 380.821717 
L 527.168673 363.159698 
L 528.385965 329.626812 
L 528.791729 320.530552 
L 533.458015 293.595211 
L 535.892598 280.753306 
L 537.921418 271.13026 
L 539.747356 263.519061 
L 541.370411 257.716828 
L 542.790585 253.459455 
L 544.007877 250.4606 
L 545.022287 248.440807 
L 546.036697 246.87013 
L 546.848225 245.943559 
L 547.659752 245.314336 
L 548.47128 244.984947 
L 549.079926 244.935498 
L 549.688572 245.055571 
L 550.5001 245.478853 
L 551.311628 246.20132 
L 552.123156 247.220117 
L 553.137566 248.90409 
L 554.151975 251.034323 
L 555.369267 254.160975 
L 556.586559 257.883412 
L 558.006733 262.934877 
L 559.629789 269.566907 
L 561.455726 277.99697 
L 563.687428 289.454589 
L 566.527776 305.359103 
L 569.165241 320.830319 
L 569.571005 331.114923 
L 570.788297 364.404189 
L 571.599825 381.747069 
L 572.208471 390.938396 
L 572.614235 394.948276 
L 573.019999 397.142555 
L 573.222881 397.540159 
L 573.425763 397.467174 
L 573.628645 396.924049 
L 574.034409 394.443664 
L 574.440173 390.160108 
L 575.048818 380.5962 
L 575.860346 362.858596 
L 577.077638 329.269163 
L 578.903576 278.04638 
L 579.715104 260.716406 
L 580.32375 251.53719 
L 580.729514 247.536178 
L 581.135278 245.351152 
L 581.33816 244.958246 
L 581.541042 245.035939 
L 581.743923 245.583753 
L 582.149687 248.073344 
L 582.555451 252.365687 
L 583.164097 261.94152 
L 583.975625 279.691683 
L 585.192917 313.290469 
L 587.018855 364.503036 
L 587.830383 381.820094 
L 588.439029 390.987194 
L 588.844792 394.979334 
L 589.250556 397.155107 
L 589.453438 397.543314 
L 589.65632 397.460912 
L 589.859202 396.90841 
L 590.264966 394.409614 
L 590.67073 390.108487 
L 591.279376 380.520734 
L 592.090904 362.758023 
L 593.308196 329.149907 
L 595.134134 277.947587 
L 595.945661 260.643456 
L 596.554307 251.488478 
L 596.960071 247.505211 
L 597.365835 245.338692 
L 597.568717 244.955185 
L 597.771599 245.042295 
L 597.974481 245.599486 
L 598.380245 248.107484 
L 598.786009 252.417393 
L 599.394655 262.017059 
L 600.206183 279.792307 
L 601.423475 313.409735 
L 603.249412 364.601775 
L 604.06094 381.892969 
L 604.669586 391.035819 
L 605.07535 395.01021 
L 605.481114 397.167473 
L 605.683996 397.546281 
L 605.886878 397.454463 
L 606.08976 396.892583 
L 606.495524 394.375384 
L 606.901288 390.056697 
L 607.509934 380.445122 
L 608.321462 362.657348 
L 609.538753 329.030631 
L 611.364691 277.848901 
L 612.176219 260.570655 
L 612.784865 251.439939 
L 613.190629 247.474426 
L 613.596393 245.326421 
L 613.799275 244.952312 
L 614.002157 245.048839 
L 614.205039 245.615406 
L 614.610803 248.141805 
L 615.016567 252.469268 
L 615.625213 262.092744 
L 616.43674 279.893034 
L 617.654032 313.52902 
L 619.47997 364.700408 
L 620.291498 381.965695 
L 620.900144 391.084272 
L 621.305908 395.040903 
L 621.711672 397.179651 
L 621.914554 397.54906 
L 622.117436 397.447825 
L 622.320318 396.87657 
L 622.726082 394.340973 
L 623.131845 390.004736 
L 623.740491 380.369364 
L 624.552019 362.55657 
L 625.769311 328.911336 
L 627.595249 277.750322 
L 628.406777 260.498005 
L 629.015423 251.391571 
L 629.421187 247.443824 
L 629.82695 245.314336 
L 630.029832 244.949627 
L 630.232714 245.055571 
L 630.435596 245.631513 
L 630.84136 248.176306 
L 631.247124 252.521314 
L 631.85577 262.168575 
L 632.667298 279.993862 
L 633.88459 313.648325 
L 635.710528 364.798934 
L 636.522056 382.03827 
L 637.130701 391.132553 
L 637.536465 395.071415 
L 637.942229 397.191641 
L 638.145111 397.55165 
L 638.347993 397.440999 
L 638.550875 396.86037 
L 638.956639 394.306382 
L 639.362403 389.952606 
L 639.971049 380.29346 
L 640.782577 362.455691 
L 641.999869 328.792022 
L 643.825806 277.65185 
L 644.637334 260.425504 
L 645.24598 251.343377 
L 645.651744 247.413403 
L 646.057508 245.30244 
L 646.26039 244.947131 
L 646.463272 245.06249 
L 646.666154 245.647806 
L 647.071918 248.210987 
L 647.477682 252.573529 
L 648.086328 262.244552 
L 648.897856 280.094793 
L 650.115148 313.767648 
L 650.31803 319.751221 
L 650.723793 323.348169 
L 655.187197 349.07236 
L 657.62178 361.899042 
L 659.6506 371.505249 
L 661.476538 379.098426 
L 663.099594 384.882657 
L 664.519767 389.122981 
L 665.737059 392.106422 
L 666.751469 394.112909 
L 667.765879 395.669949 
L 668.577407 396.585428 
L 669.388935 397.203444 
L 670.200463 397.521557 
L 670.809109 397.56253 
L 671.417754 397.433985 
L 672.229282 396.999445 
L 673.04081 396.265808 
L 673.852338 395.235969 
L 674.866748 393.538443 
L 675.881158 391.395011 
L 677.09845 388.253104 
L 678.315741 384.516175 
L 679.735915 379.448937 
L 681.358971 372.800611 
L 683.184909 364.354726 
L 685.41661 352.881816 
L 688.256958 336.964936 
L 697.386647 284.685354 
L 699.618348 273.709932 
L 701.444286 265.770178 
L 703.067342 259.637946 
L 704.487516 255.066767 
L 705.704807 251.783327 
L 706.922099 249.116786 
L 707.936509 247.383165 
L 708.950919 246.105186 
L 709.762447 245.416257 
L 710.573975 245.026759 
L 711.385503 244.93823 
L 711.994149 245.069598 
L 712.805676 245.50789 
L 713.617204 246.24525 
L 714.428732 247.278768 
L 715.443142 248.98081 
L 716.457552 251.128638 
L 717.674844 254.275627 
L 718.892136 258.017382 
L 720.312309 263.089871 
L 721.935365 269.743621 
L 723.761303 278.19477 
L 725.993005 289.672763 
L 728.833352 305.593745 
L 731.470818 321.070138 
L 733.905401 382.470567 
L 734.514047 391.418612 
L 734.919811 395.250655 
L 735.325575 397.259647 
L 735.528457 397.563236 
L 735.731339 397.396094 
L 735.934221 396.759252 
L 736.339985 394.095051 
L 736.745749 389.636268 
L 737.354395 379.834982 
L 738.165923 361.848286 
L 739.383215 328.075757 
L 741.209152 277.063288 
L 742.02068 259.993659 
L 742.629326 251.057837 
L 743.03509 247.234711 
L 743.440854 245.234997 
L 743.643736 244.93611 
L 743.846618 245.107959 
L 744.0495 245.749484 
L 744.455264 248.422858 
L 744.861028 252.890374 
L 745.469674 262.703466 
L 746.281202 280.702501 
L 747.498493 314.483966 
L 749.324431 365.485588 
L 750.135959 382.542088 
L 750.744605 391.465683 
L 751.150369 395.279889 
L 751.556133 397.270324 
L 751.759015 397.564508 
L 751.961897 397.387952 
L 752.164779 396.741746 
L 752.570543 394.059199 
L 752.976307 389.582953 
L 753.584952 379.758061 
L 754.39648 361.7467 
L 755.613772 327.956319 
L 757.43971 276.965575 
L 758.251238 259.922214 
L 758.859884 251.010853 
L 759.265648 247.205568 
L 759.671412 245.224413 
L 759.874294 244.934933 
L 760.077176 245.116195 
L 760.280058 245.767082 
L 760.685821 248.4588 
L 761.091585 252.943773 
L 761.700231 262.780459 
L 762.511759 280.804137 
L 763.729051 314.603412 
L 765.554989 365.583247 
L 766.366517 382.613458 
L 766.975163 391.51258 
L 767.380926 395.308941 
L 767.78669 397.280814 
L 767.989572 397.565591 
L 768.192454 397.379622 
L 768.395336 396.724054 
L 768.8011 394.023168 
L 769.206864 389.52947 
L 769.81551 379.680996 
L 770.627038 361.645013 
L 771.84433 327.836864 
L 772.047212 321.849548 
L 772.452976 318.972046 
L 776.916379 293.260236 
L 779.350963 280.448848 
L 781.379782 270.859533 
L 783.20572 263.284421 
L 784.828776 257.518223 
L 786.24895 253.294971 
L 787.466242 250.326962 
L 788.480651 248.333791 
L 789.495061 246.790398 
L 790.306589 245.886015 
L 791.118117 245.279209 
L 791.929645 244.972374 
L 792.538291 244.939878 
L 793.146937 245.076895 
L 793.958465 245.522689 
L 794.769992 246.267493 
L 795.58152 247.308368 
L 796.59593 249.019437 
L 797.61034 251.176055 
L 798.827632 254.333201 
L 800.247806 258.765345 
L 801.667979 263.952562 
L 803.291035 270.724589 
L 805.116973 279.290215 
L 807.348675 290.878232 
L 810.189022 306.886979 
L 818.710065 355.852319 
L 820.941767 367.034859 
L 822.767704 375.183304 
L 824.39076 381.527099 
L 825.810934 386.300798 
L 827.231108 390.288415 
L 828.4484 393.043919 
L 829.462809 394.854011 
L 830.477219 396.210084 
L 831.288747 396.962331 
L 832.100275 397.415627 
L 832.911803 397.568182 
L 833.520449 397.484829 
L 834.331977 397.110353 
L 835.143505 396.436341 
L 835.955033 395.465454 
L 836.969442 393.840317 
L 837.983852 391.767413 
L 839.201144 388.707068 
L 840.418436 385.04767 
L 841.83861 380.064874 
L 843.461665 373.503884 
L 845.287603 365.142925 
L 847.519305 353.7523 
L 850.359652 337.902395 
L 853.2 321.250003 
L 853.2 321.250003 
" style="fill:none;stroke:#ff7f0e;stroke-linecap:square;stroke-width:2;"/>
   </g>
   <g id="patch_8">
    <path d="M 41.875 405.2 
L 41.875 237.3 
" style="fill:none;stroke:#000000;stroke-linecap:square;stroke-linejoin:miter;stroke-width:0.8;"/>
   </g>
   <g id="patch_9">
    <path d="M 853.2 405.2 
L 853.2 237.3 
" style="fill:none;stroke:#000000;stroke-linecap:square;stroke-linejoin:miter;stroke-width:0.8;"/>
   </g>
   <g id="patch_10">
    <path d="M 41.875 405.2 
L 853.2 405.2 
" style="fill:none;stroke:#000000;stroke-linecap:square;stroke-linejoin:miter;stroke-width:0.8;"/>
   </g>
   <g id="patch_11">
    <path d="M 41.875 237.3 
L 853.2 237.3 
" style="fill:none;stroke:#000000;stroke-linecap:square;stroke-linejoin:miter;stroke-width:0.8;"/>
   </g>
   <g id="text_29">
    <!-- FSK-signal -->
    <defs>
     <path d="M 9.8125 72.90625 
L 51.703125 72.90625 
L 51.703125 64.59375 
L 19.671875 64.59375 
L 19.671875 43.109375 
L 48.578125 43.109375 
L 48.578125 34.8125 
L 19.671875 34.8125 
L 19.671875 0 
L 9.8125 0 
z
" id="DejaVuSans-70"/>
     <path d="M 53.515625 70.515625 
L 53.515625 60.890625 
Q 47.90625 63.578125 42.921875 64.890625 
Q 37.9375 66.21875 33.296875 66.21875 
Q 25.25 66.21875 20.875 63.09375 
Q 16.5 59.96875 16.5 54.203125 
Q 16.5 49.359375 19.40625 46.890625 
Q 22.3125 44.4375 30.421875 42.921875 
L 36.375 41.703125 
Q 47.40625 39.59375 52.65625 34.296875 
Q 57.90625 29 57.90625 20.125 
Q 57.90625 9.515625 50.796875 4.046875 
Q 43.703125 -1.421875 29.984375 -1.421875 
Q 24.8125 -1.421875 18.96875 -0.25 
Q 13.140625 0.921875 6.890625 3.21875 
L 6.890625 13.375 
Q 12.890625 10.015625 18.65625 8.296875 
Q 24.421875 6.59375 29.984375 6.59375 
Q 38.421875 6.59375 43.015625 9.90625 
Q 47.609375 13.234375 47.609375 19.390625 
Q 47.609375 24.75 44.3125 27.78125 
Q 41.015625 30.8125 33.5 32.328125 
L 27.484375 33.5 
Q 16.453125 35.6875 11.515625 40.375 
Q 6.59375 45.0625 6.59375 53.421875 
Q 6.59375 63.09375 13.40625 68.65625 
Q 20.21875 74.21875 32.171875 74.21875 
Q 37.3125 74.21875 42.625 73.28125 
Q 47.953125 72.359375 53.515625 70.515625 
z
" id="DejaVuSans-83"/>
     <path d="M 9.8125 72.90625 
L 19.671875 72.90625 
L 19.671875 42.09375 
L 52.390625 72.90625 
L 65.09375 72.90625 
L 28.90625 38.921875 
L 67.671875 0 
L 54.6875 0 
L 19.671875 35.109375 
L 19.671875 0 
L 9.8125 0 
z
" id="DejaVuSans-75"/>
     <path d="M 4.890625 31.390625 
L 31.203125 31.390625 
L 31.203125 23.390625 
L 4.890625 23.390625 
z
" id="DejaVuSans-45"/>
    </defs>
    <g transform="translate(416.440625 231.3)scale(0.12 -0.12)">
     <use xlink:href="#DejaVuSans-70"/>
     <use x="57.503906" xlink:href="#DejaVuSans-83"/>
     <use x="120.980469" xlink:href="#DejaVuSans-75"/>
     <use x="186.400391" xlink:href="#DejaVuSans-45"/>
     <use x="222.484375" xlink:href="#DejaVuSans-115"/>
     <use x="274.583984" xlink:href="#DejaVuSans-105"/>
     <use x="302.367188" xlink:href="#DejaVuSans-103"/>
     <use x="365.84375" xlink:href="#DejaVuSans-110"/>
     <use x="429.222656" xlink:href="#DejaVuSans-97"/>
     <use x="490.501953" xlink:href="#DejaVuSans-108"/>
    </g>
   </g>
  </g>
 </g>
 <defs>
  <clipPath id="p980eac7f04">
   <rect height="167.9" width="811.325" x="41.875" y="26.7"/>
  </clipPath>
  <clipPath id="p157e107643">
   <rect height="167.9" width="811.325" x="41.875" y="237.3"/>
  </clipPath>
 </defs>
</svg>
