<?xml version="1.0" encoding="utf-8"?>
<!-- Generator: Adobe Illustrator 23.0.3, SVG Export Plug-In . SVG Version: 6.00 Build 0)  -->
<svg version="1.1" id="Слой_1" xmlns="http://www.w3.org/2000/svg" xmlns:xlink="http://www.w3.org/1999/xlink" x="0px" y="0px"
	 viewBox="0 0 352.56 146.78" style="enable-background:new 0 0 352.56 146.78;" xml:space="preserve">
<style type="text/css">
	.st0{fill:none;stroke:#EBEBED;stroke-miterlimit:10;}
	.st1{fill:#FFFFFF;stroke:#000000;stroke-width:2;stroke-miterlimit:10;}
	.st2{fill:none;stroke:#000000;stroke-miterlimit:10;}
	.st3{fill:#FFFFFF;}
</style>
<g>
	<rect x="265.66" y="49.73" class="st0" width="11.92" height="7.74"/>
	<rect x="241.82" y="49.73" class="st0" width="11.92" height="7.74"/>
	<rect x="229.9" y="49.73" class="st0" width="11.92" height="7.74"/>
	<rect x="217.98" y="49.73" class="st0" width="11.92" height="7.74"/>
	<rect x="265.66" y="57.47" class="st0" width="11.92" height="7.74"/>
	<rect x="253.74" y="49.73" class="st0" width="11.92" height="7.74"/>
	<rect x="301.42" y="57.47" class="st0" width="11.92" height="7.74"/>
	<rect x="313.34" y="57.47" class="st0" width="11.92" height="7.74"/>
	<rect x="206.06" y="49.73" class="st0" width="11.92" height="7.74"/>
	<rect x="289.5" y="57.47" class="st0" width="11.92" height="7.74"/>
	<rect x="325.26" y="57.47" class="st0" width="11.92" height="7.74"/>
	<rect x="277.58" y="57.47" class="st0" width="11.92" height="7.74"/>
	<rect x="337.18" y="57.47" class="st0" width="11.92" height="7.74"/>
	<rect x="194.14" y="41.99" class="st0" width="11.92" height="7.74"/>
	<rect x="349.1" y="49.73" class="st0" width="3.46" height="7.74"/>
	<rect x="337.18" y="49.73" class="st0" width="11.92" height="7.74"/>
	<rect x="337.18" y="103.9" class="st0" width="11.92" height="7.74"/>
	<rect x="349.1" y="103.9" class="st0" width="3.46" height="7.74"/>
	<rect x="325.26" y="103.9" class="st0" width="11.92" height="7.74"/>
	<rect x="325.26" y="49.73" class="st0" width="11.92" height="7.74"/>
	<rect x="277.58" y="49.73" class="st0" width="11.92" height="7.74"/>
	<rect x="206.06" y="111.64" class="st0" width="11.92" height="7.74"/>
	<rect x="289.5" y="49.73" class="st0" width="11.92" height="7.74"/>
	<rect x="301.42" y="49.73" class="st0" width="11.92" height="7.74"/>
	<rect x="217.98" y="111.64" class="st0" width="11.92" height="7.74"/>
	<rect x="241.82" y="111.64" class="st0" width="11.92" height="7.74"/>
	<rect x="313.34" y="103.9" class="st0" width="11.92" height="7.74"/>
	<rect x="265.66" y="111.64" class="st0" width="11.92" height="7.74"/>
	<rect x="229.9" y="111.64" class="st0" width="11.92" height="7.74"/>
	<rect x="277.58" y="41.99" class="st0" width="11.92" height="7.74"/>
	<rect x="253.74" y="111.64" class="st0" width="11.92" height="7.74"/>
	<rect x="301.42" y="103.9" class="st0" width="11.92" height="7.74"/>
	<rect x="277.58" y="111.64" class="st0" width="11.92" height="7.74"/>
	<rect x="301.42" y="111.64" class="st0" width="11.92" height="7.74"/>
	<rect x="289.5" y="111.64" class="st0" width="11.92" height="7.74"/>
	<rect x="313.34" y="49.73" class="st0" width="11.92" height="7.74"/>
	<rect x="98.79" y="41.99" class="st0" width="11.92" height="7.74"/>
	<rect x="110.71" y="41.99" class="st0" width="11.92" height="7.74"/>
	<rect x="146.46" y="41.99" class="st0" width="11.92" height="7.74"/>
	<rect x="134.55" y="41.99" class="st0" width="11.92" height="7.74"/>
	<rect x="86.87" y="41.99" class="st0" width="11.92" height="7.74"/>
	<rect x="122.63" y="41.99" class="st0" width="11.92" height="7.74"/>
	<rect x="51.11" y="49.73" class="st0" width="11.92" height="7.74"/>
	<rect x="74.95" y="41.99" class="st0" width="11.92" height="7.74"/>
	<rect x="63.03" y="49.73" class="st0" width="11.92" height="7.74"/>
	<rect x="63.03" y="41.99" class="st0" width="11.92" height="7.74"/>
	<rect x="229.9" y="41.99" class="st0" width="11.92" height="7.74"/>
	<rect x="217.98" y="41.99" class="st0" width="11.92" height="7.74"/>
	<rect x="241.82" y="41.99" class="st0" width="11.92" height="7.74"/>
	<rect x="265.66" y="41.99" class="st0" width="11.92" height="7.74"/>
	<rect x="158.38" y="41.99" class="st0" width="11.92" height="7.74"/>
	<rect x="253.74" y="41.99" class="st0" width="11.92" height="7.74"/>
	<rect x="182.22" y="41.99" class="st0" width="11.92" height="7.74"/>
	<rect x="206.06" y="41.99" class="st0" width="11.92" height="7.74"/>
	<rect x="170.3" y="41.99" class="st0" width="11.92" height="7.74"/>
	<rect x="349.1" y="57.47" class="st0" width="3.46" height="7.74"/>
	<rect x="98.79" y="111.64" class="st0" width="11.92" height="7.74"/>
	<rect x="39.19" y="57.47" class="st0" width="11.92" height="7.74"/>
	<rect x="27.27" y="57.47" class="st0" width="11.92" height="7.74"/>
	<rect x="51.11" y="57.47" class="st0" width="11.92" height="7.74"/>
	<rect y="80.68" class="st0" width="3.43" height="7.74"/>
	<rect x="15.35" y="57.47" class="st0" width="11.92" height="7.74"/>
	<rect y="65.21" class="st0" width="3.43" height="7.74"/>
	<rect y="72.95" class="st0" width="3.43" height="7.74"/>
	<rect x="74.95" y="57.47" class="st0" width="11.92" height="7.74"/>
	<rect x="3.43" y="57.47" class="st0" width="11.92" height="7.74"/>
	<rect y="57.47" class="st0" width="3.43" height="7.74"/>
	<rect x="63.03" y="57.47" class="st0" width="11.92" height="7.74"/>
	<rect x="158.38" y="49.73" class="st0" width="11.92" height="7.74"/>
	<rect x="74.95" y="49.73" class="st0" width="11.92" height="7.74"/>
	<rect x="194.14" y="111.64" class="st0" width="11.92" height="7.74"/>
	<rect x="170.3" y="49.73" class="st0" width="11.92" height="7.74"/>
	<rect x="182.22" y="49.73" class="st0" width="11.92" height="7.74"/>
	<rect x="134.55" y="49.73" class="st0" width="11.92" height="7.74"/>
	<rect x="98.79" y="49.73" class="st0" width="11.92" height="7.74"/>
	<rect x="86.87" y="49.73" class="st0" width="11.92" height="7.74"/>
	<rect x="122.63" y="49.73" class="st0" width="11.92" height="7.74"/>
	<rect x="110.71" y="49.73" class="st0" width="11.92" height="7.74"/>
	<rect x="146.46" y="49.73" class="st0" width="11.92" height="7.74"/>
	<rect x="74.95" y="111.64" class="st0" width="11.92" height="7.74"/>
	<rect x="134.55" y="111.64" class="st0" width="11.92" height="7.74"/>
	<rect x="122.63" y="111.64" class="st0" width="11.92" height="7.74"/>
	<rect x="86.87" y="111.64" class="st0" width="11.92" height="7.74"/>
	<rect x="194.14" y="49.73" class="st0" width="11.92" height="7.74"/>
	<rect x="110.71" y="111.64" class="st0" width="11.92" height="7.74"/>
	<rect x="146.46" y="111.64" class="st0" width="11.92" height="7.74"/>
	<rect x="170.3" y="111.64" class="st0" width="11.92" height="7.74"/>
	<rect x="182.22" y="111.64" class="st0" width="11.92" height="7.74"/>
	<rect x="158.38" y="111.64" class="st0" width="11.92" height="7.74"/>
	<rect y="88.42" class="st0" width="3.43" height="7.74"/>
	<rect y="103.9" class="st0" width="3.43" height="7.74"/>
	<rect x="3.43" y="103.9" class="st0" width="11.92" height="7.74"/>
	<rect y="96.16" class="st0" width="3.43" height="7.74"/>
	<rect x="15.35" y="103.9" class="st0" width="11.92" height="7.74"/>
	<rect x="39.19" y="111.64" class="st0" width="11.92" height="7.74"/>
	<rect x="27.27" y="103.9" class="st0" width="11.92" height="7.74"/>
	<rect x="63.03" y="111.64" class="st0" width="11.92" height="7.74"/>
	<rect x="51.11" y="111.64" class="st0" width="11.92" height="7.74"/>
	<rect x="39.19" y="103.9" class="st0" width="11.92" height="7.74"/>
	<rect x="217.98" y="57.47" class="st0" width="11.92" height="7.74"/>
	<rect x="265.66" y="72.95" class="st0" width="11.92" height="7.74"/>
	<rect x="325.26" y="72.95" class="st0" width="11.92" height="7.74"/>
	<rect x="277.58" y="72.95" class="st0" width="11.92" height="7.74"/>
	<rect x="301.42" y="72.95" class="st0" width="11.92" height="7.74"/>
	<rect x="313.34" y="72.95" class="st0" width="11.92" height="7.74"/>
	<rect x="349.1" y="96.16" class="st0" width="3.46" height="7.74"/>
	<rect x="217.98" y="65.21" class="st0" width="11.92" height="7.74"/>
	<rect x="229.9" y="65.21" class="st0" width="11.92" height="7.74"/>
	<rect x="241.82" y="72.95" class="st0" width="11.92" height="7.74"/>
	<rect x="241.82" y="65.21" class="st0" width="11.92" height="7.74"/>
	<rect x="253.74" y="72.95" class="st0" width="11.92" height="7.74"/>
	<rect x="277.58" y="80.68" class="st0" width="11.92" height="7.74"/>
	<rect x="301.42" y="80.68" class="st0" width="11.92" height="7.74"/>
	<rect x="63.03" y="88.42" class="st0" width="11.92" height="7.74"/>
	<rect x="289.5" y="80.68" class="st0" width="11.92" height="7.74"/>
	<rect x="265.66" y="80.68" class="st0" width="11.92" height="7.74"/>
	<rect x="265.66" y="88.42" class="st0" width="11.92" height="7.74"/>
	<rect x="337.18" y="72.95" class="st0" width="11.92" height="7.74"/>
	<rect x="313.34" y="80.68" class="st0" width="11.92" height="7.74"/>
	<rect x="349.1" y="80.68" class="st0" width="3.46" height="7.74"/>
	<rect x="349.1" y="72.95" class="st0" width="3.46" height="7.74"/>
	<rect x="337.18" y="80.68" class="st0" width="11.92" height="7.74"/>
	<rect x="325.26" y="80.68" class="st0" width="11.92" height="7.74"/>
	<rect x="158.38" y="65.21" class="st0" width="11.92" height="7.74"/>
	<rect x="74.95" y="72.95" class="st0" width="11.92" height="7.74"/>
	<rect x="39.19" y="72.95" class="st0" width="11.92" height="7.74"/>
	<rect x="63.03" y="72.95" class="st0" width="11.92" height="7.74"/>
	<rect x="51.11" y="72.95" class="st0" width="11.92" height="7.74"/>
	<rect x="15.35" y="72.95" class="st0" width="11.92" height="7.74"/>
	<rect x="27.27" y="72.95" class="st0" width="11.92" height="7.74"/>
	<rect x="39.19" y="88.42" class="st0" width="11.92" height="7.74"/>
	<rect x="194.14" y="65.21" class="st0" width="11.92" height="7.74"/>
	<rect x="15.35" y="88.42" class="st0" width="11.92" height="7.74"/>
	<rect x="27.27" y="88.42" class="st0" width="11.92" height="7.74"/>
	<rect x="15.35" y="80.68" class="st0" width="11.92" height="7.74"/>
	<rect x="51.11" y="88.42" class="st0" width="11.92" height="7.74"/>
	<rect x="146.46" y="65.21" class="st0" width="11.92" height="7.74"/>
	<rect x="134.55" y="65.21" class="st0" width="11.92" height="7.74"/>
	<rect x="253.74" y="88.42" class="st0" width="11.92" height="7.74"/>
	<rect x="86.87" y="72.95" class="st0" width="11.92" height="7.74"/>
	<rect x="182.22" y="65.21" class="st0" width="11.92" height="7.74"/>
	<rect x="170.3" y="65.21" class="st0" width="11.92" height="7.74"/>
	<rect x="98.79" y="72.95" class="st0" width="11.92" height="7.74"/>
	<rect x="98.79" y="65.21" class="st0" width="11.92" height="7.74"/>
	<rect x="122.63" y="65.21" class="st0" width="11.92" height="7.74"/>
	<rect x="110.71" y="65.21" class="st0" width="11.92" height="7.74"/>
	<rect x="206.06" y="65.21" class="st0" width="11.92" height="7.74"/>
	<rect x="229.9" y="72.95" class="st0" width="11.92" height="7.74"/>
	<rect x="229.9" y="80.68" class="st0" width="11.92" height="7.74"/>
	<rect x="182.22" y="80.68" class="st0" width="11.92" height="7.74"/>
	<rect x="206.06" y="80.68" class="st0" width="11.92" height="7.74"/>
	<rect x="194.14" y="80.68" class="st0" width="11.92" height="7.74"/>
	<rect x="217.98" y="80.68" class="st0" width="11.92" height="7.74"/>
	<rect x="182.22" y="72.95" class="st0" width="11.92" height="7.74"/>
	<rect x="217.98" y="72.95" class="st0" width="11.92" height="7.74"/>
	<rect x="170.3" y="72.95" class="st0" width="11.92" height="7.74"/>
	<rect x="194.14" y="72.95" class="st0" width="11.92" height="7.74"/>
	<rect x="206.06" y="72.95" class="st0" width="11.92" height="7.74"/>
	<rect x="63.03" y="80.68" class="st0" width="11.92" height="7.74"/>
	<rect x="158.38" y="72.95" class="st0" width="11.92" height="7.74"/>
	<rect x="51.11" y="80.68" class="st0" width="11.92" height="7.74"/>
	<rect x="39.19" y="80.68" class="st0" width="11.92" height="7.74"/>
	<rect x="170.3" y="80.68" class="st0" width="11.92" height="7.74"/>
	<rect x="253.74" y="80.68" class="st0" width="11.92" height="7.74"/>
	<rect x="27.27" y="80.68" class="st0" width="11.92" height="7.74"/>
	<rect x="158.38" y="80.68" class="st0" width="11.92" height="7.74"/>
	<rect x="146.46" y="80.68" class="st0" width="11.92" height="7.74"/>
	<rect x="134.55" y="80.68" class="st0" width="11.92" height="7.74"/>
	<rect x="122.63" y="80.68" class="st0" width="11.92" height="7.74"/>
	<rect x="241.82" y="80.68" class="st0" width="11.92" height="7.74"/>
	<rect x="170.3" y="88.42" class="st0" width="11.92" height="7.74"/>
	<rect x="146.46" y="88.42" class="st0" width="11.92" height="7.74"/>
	<rect x="158.38" y="88.42" class="st0" width="11.92" height="7.74"/>
	<rect x="146.46" y="72.95" class="st0" width="11.92" height="7.74"/>
	<rect x="110.71" y="88.42" class="st0" width="11.92" height="7.74"/>
	<rect x="122.63" y="88.42" class="st0" width="11.92" height="7.74"/>
	<rect x="241.82" y="88.42" class="st0" width="11.92" height="7.74"/>
	<rect x="217.98" y="88.42" class="st0" width="11.92" height="7.74"/>
	<rect x="229.9" y="88.42" class="st0" width="11.92" height="7.74"/>
	<rect x="182.22" y="88.42" class="st0" width="11.92" height="7.74"/>
	<rect x="194.14" y="88.42" class="st0" width="11.92" height="7.74"/>
	<rect x="206.06" y="88.42" class="st0" width="11.92" height="7.74"/>
	<rect x="134.55" y="88.42" class="st0" width="11.92" height="7.74"/>
	<rect x="110.71" y="80.68" class="st0" width="11.92" height="7.74"/>
	<rect x="98.79" y="80.68" class="st0" width="11.92" height="7.74"/>
	<rect x="110.71" y="72.95" class="st0" width="11.92" height="7.74"/>
	<rect x="122.63" y="72.95" class="st0" width="11.92" height="7.74"/>
	<rect x="134.55" y="72.95" class="st0" width="11.92" height="7.74"/>
	<rect x="86.87" y="88.42" class="st0" width="11.92" height="7.74"/>
	<rect x="86.87" y="80.68" class="st0" width="11.92" height="7.74"/>
	<rect x="74.95" y="88.42" class="st0" width="11.92" height="7.74"/>
	<rect x="98.79" y="88.42" class="st0" width="11.92" height="7.74"/>
	<rect x="74.95" y="80.68" class="st0" width="11.92" height="7.74"/>
	<rect x="289.5" y="72.95" class="st0" width="11.92" height="7.74"/>
	<rect x="3.43" y="96.16" class="st0" width="11.92" height="7.74"/>
	<rect x="86.87" y="103.9" class="st0" width="11.92" height="7.74"/>
	<rect x="122.63" y="57.47" class="st0" width="11.92" height="7.74"/>
	<rect x="3.43" y="80.68" class="st0" width="11.92" height="7.74"/>
	<rect x="3.43" y="72.95" class="st0" width="11.92" height="7.74"/>
	<rect x="27.27" y="96.16" class="st0" width="11.92" height="7.74"/>
	<rect x="63.03" y="103.9" class="st0" width="11.92" height="7.74"/>
	<rect x="74.95" y="103.9" class="st0" width="11.92" height="7.74"/>
	<rect x="39.19" y="96.16" class="st0" width="11.92" height="7.74"/>
	<rect x="51.11" y="96.16" class="st0" width="11.92" height="7.74"/>
	<rect x="51.11" y="103.9" class="st0" width="11.92" height="7.74"/>
	<rect x="15.35" y="96.16" class="st0" width="11.92" height="7.74"/>
	<rect x="86.87" y="65.21" class="st0" width="11.92" height="7.74"/>
	<rect x="86.87" y="57.47" class="st0" width="11.92" height="7.74"/>
	<rect x="74.95" y="65.21" class="st0" width="11.92" height="7.74"/>
	<rect x="98.79" y="57.47" class="st0" width="11.92" height="7.74"/>
	<rect x="110.71" y="57.47" class="st0" width="11.92" height="7.74"/>
	<rect x="39.19" y="65.21" class="st0" width="11.92" height="7.74"/>
	<rect x="15.35" y="65.21" class="st0" width="11.92" height="7.74"/>
	<rect x="27.27" y="65.21" class="st0" width="11.92" height="7.74"/>
	<rect x="3.43" y="65.21" class="st0" width="11.92" height="7.74"/>
	<rect x="51.11" y="65.21" class="st0" width="11.92" height="7.74"/>
	<rect x="63.03" y="65.21" class="st0" width="11.92" height="7.74"/>
	<rect x="3.43" y="88.42" class="st0" width="11.92" height="7.74"/>
	<rect x="277.58" y="103.9" class="st0" width="11.92" height="7.74"/>
	<rect x="289.5" y="103.9" class="st0" width="11.92" height="7.74"/>
	<rect x="265.66" y="103.9" class="st0" width="11.92" height="7.74"/>
	<rect x="229.9" y="103.9" class="st0" width="11.92" height="7.74"/>
	<rect x="98.79" y="103.9" class="st0" width="11.92" height="7.74"/>
	<rect x="253.74" y="103.9" class="st0" width="11.92" height="7.74"/>
	<rect x="337.18" y="96.16" class="st0" width="11.92" height="7.74"/>
	<rect x="289.5" y="96.16" class="st0" width="11.92" height="7.74"/>
	<rect x="325.26" y="96.16" class="st0" width="11.92" height="7.74"/>
	<rect x="313.34" y="96.16" class="st0" width="11.92" height="7.74"/>
	<rect x="301.42" y="96.16" class="st0" width="11.92" height="7.74"/>
	<rect x="241.82" y="103.9" class="st0" width="11.92" height="7.74"/>
	<rect x="146.46" y="103.9" class="st0" width="11.92" height="7.74"/>
	<rect x="158.38" y="103.9" class="st0" width="11.92" height="7.74"/>
	<rect x="134.55" y="103.9" class="st0" width="11.92" height="7.74"/>
	<rect x="110.71" y="103.9" class="st0" width="11.92" height="7.74"/>
	<rect x="122.63" y="103.9" class="st0" width="11.92" height="7.74"/>
	<rect x="217.98" y="103.9" class="st0" width="11.92" height="7.74"/>
	<rect x="194.14" y="103.9" class="st0" width="11.92" height="7.74"/>
	<rect x="206.06" y="103.9" class="st0" width="11.92" height="7.74"/>
	<rect x="170.3" y="103.9" class="st0" width="11.92" height="7.74"/>
	<rect x="182.22" y="103.9" class="st0" width="11.92" height="7.74"/>
	<rect x="158.38" y="57.47" class="st0" width="11.92" height="7.74"/>
	<rect x="229.9" y="96.16" class="st0" width="11.92" height="7.74"/>
	<rect x="253.74" y="96.16" class="st0" width="11.92" height="7.74"/>
	<rect x="241.82" y="96.16" class="st0" width="11.92" height="7.74"/>
	<rect x="217.98" y="96.16" class="st0" width="11.92" height="7.74"/>
	<rect x="206.06" y="96.16" class="st0" width="11.92" height="7.74"/>
	<rect x="194.14" y="96.16" class="st0" width="11.92" height="7.74"/>
	<rect x="301.42" y="88.42" class="st0" width="11.92" height="7.74"/>
	<rect x="265.66" y="96.16" class="st0" width="11.92" height="7.74"/>
	<rect x="289.5" y="88.42" class="st0" width="11.92" height="7.74"/>
	<rect x="277.58" y="88.42" class="st0" width="11.92" height="7.74"/>
	<rect x="277.58" y="96.16" class="st0" width="11.92" height="7.74"/>
	<rect x="170.3" y="96.16" class="st0" width="11.92" height="7.74"/>
	<rect x="110.71" y="96.16" class="st0" width="11.92" height="7.74"/>
	<rect x="98.79" y="96.16" class="st0" width="11.92" height="7.74"/>
	<rect x="74.95" y="96.16" class="st0" width="11.92" height="7.74"/>
	<rect x="86.87" y="96.16" class="st0" width="11.92" height="7.74"/>
	<rect x="122.63" y="96.16" class="st0" width="11.92" height="7.74"/>
	<rect x="146.46" y="96.16" class="st0" width="11.92" height="7.74"/>
	<rect x="134.55" y="96.16" class="st0" width="11.92" height="7.74"/>
	<rect x="313.34" y="88.42" class="st0" width="11.92" height="7.74"/>
	<rect x="158.38" y="96.16" class="st0" width="11.92" height="7.74"/>
	<rect x="182.22" y="96.16" class="st0" width="11.92" height="7.74"/>
	<rect x="241.82" y="57.47" class="st0" width="11.92" height="7.74"/>
	<rect x="39.19" y="49.73" class="st0" width="11.92" height="7.74"/>
	<rect x="206.06" y="57.47" class="st0" width="11.92" height="7.74"/>
	<rect x="229.9" y="57.47" class="st0" width="11.92" height="7.74"/>
	<rect x="325.26" y="88.42" class="st0" width="11.92" height="7.74"/>
	<rect x="134.55" y="57.47" class="st0" width="11.92" height="7.74"/>
	<rect x="182.22" y="57.47" class="st0" width="11.92" height="7.74"/>
	<rect x="63.03" y="96.16" class="st0" width="11.92" height="7.74"/>
	<rect x="146.46" y="57.47" class="st0" width="11.92" height="7.74"/>
	<rect x="253.74" y="65.21" class="st0" width="11.92" height="7.74"/>
	<rect x="194.14" y="57.47" class="st0" width="11.92" height="7.74"/>
	<rect x="170.3" y="57.47" class="st0" width="11.92" height="7.74"/>
	<rect x="253.74" y="57.47" class="st0" width="11.92" height="7.74"/>
	<rect x="325.26" y="65.21" class="st0" width="11.92" height="7.74"/>
	<rect x="265.66" y="65.21" class="st0" width="11.92" height="7.74"/>
	<rect x="349.1" y="65.21" class="st0" width="3.46" height="7.74"/>
	<rect x="337.18" y="88.42" class="st0" width="11.92" height="7.74"/>
	<rect x="349.1" y="88.42" class="st0" width="3.46" height="7.74"/>
	<rect x="337.18" y="65.21" class="st0" width="11.92" height="7.74"/>
	<rect x="313.34" y="65.21" class="st0" width="11.92" height="7.74"/>
	<rect x="289.5" y="65.21" class="st0" width="11.92" height="7.74"/>
	<rect x="277.58" y="65.21" class="st0" width="11.92" height="7.74"/>
	<rect x="301.42" y="65.21" class="st0" width="11.92" height="7.74"/>
	<rect x="277.58" y="3.3" class="st0" width="11.92" height="7.74"/>
	<rect x="229.9" class="st0" width="11.92" height="3.3"/>
	<rect x="217.98" class="st0" width="11.92" height="3.3"/>
	<rect x="39.19" y="18.77" class="st0" width="11.92" height="7.74"/>
	<rect x="158.38" y="142.59" class="st0" width="11.92" height="3.3"/>
	<rect x="194.14" class="st0" width="11.92" height="3.3"/>
	<rect x="253.74" class="st0" width="11.92" height="3.3"/>
	<rect x="301.42" class="st0" width="11.92" height="3.3"/>
	<rect x="289.5" class="st0" width="11.92" height="3.3"/>
	<rect x="277.58" class="st0" width="11.92" height="3.3"/>
	<rect x="265.66" class="st0" width="11.92" height="3.3"/>
	<rect x="182.22" class="st0" width="11.92" height="3.3"/>
	<rect x="27.27" y="26.51" class="st0" width="11.92" height="7.74"/>
	<rect x="3.43" y="26.51" class="st0" width="11.92" height="7.74"/>
	<rect x="15.35" y="26.51" class="st0" width="11.92" height="7.74"/>
	<rect x="170.3" class="st0" width="11.92" height="3.3"/>
	<rect x="27.27" y="18.77" class="st0" width="11.92" height="7.74"/>
	<rect y="26.51" class="st0" width="3.43" height="7.74"/>
	<rect x="146.46" class="st0" width="11.92" height="3.3"/>
	<rect x="158.38" class="st0" width="11.92" height="3.3"/>
	<rect x="134.55" class="st0" width="11.92" height="3.3"/>
	<rect x="241.82" class="st0" width="11.92" height="3.3"/>
	<rect x="74.95" y="142.59" class="st0" width="11.92" height="3.3"/>
	<rect x="39.19" y="142.59" class="st0" width="11.92" height="3.3"/>
	<rect x="63.03" y="142.59" class="st0" width="11.92" height="3.3"/>
	<rect x="98.79" y="142.59" class="st0" width="11.92" height="3.3"/>
	<rect x="51.11" y="142.59" class="st0" width="11.92" height="3.3"/>
	<rect x="86.87" y="142.59" class="st0" width="11.92" height="3.3"/>
	<rect x="134.55" y="142.59" class="st0" width="11.92" height="3.3"/>
	<rect x="146.46" y="142.59" class="st0" width="11.92" height="3.3"/>
	<rect x="110.71" y="142.59" class="st0" width="11.92" height="3.3"/>
	<rect x="122.63" y="142.59" class="st0" width="11.92" height="3.3"/>
	<rect y="134.85" class="st0" width="3.43" height="7.74"/>
	<rect x="349.1" y="3.3" class="st0" width="3.46" height="7.74"/>
	<rect x="337.18" class="st0" width="11.92" height="3.3"/>
	<rect x="349.1" class="st0" width="3.46" height="3.3"/>
	<rect x="27.27" y="142.59" class="st0" width="11.92" height="3.3"/>
	<rect x="325.26" class="st0" width="11.92" height="3.3"/>
	<rect x="313.34" class="st0" width="11.92" height="3.3"/>
	<rect x="15.35" y="142.59" class="st0" width="11.92" height="3.3"/>
	<rect x="3.43" y="142.59" class="st0" width="11.92" height="3.3"/>
	<rect y="142.59" class="st0" width="3.43" height="3.3"/>
	<rect x="206.06" class="st0" width="11.92" height="3.3"/>
	<rect x="122.63" class="st0" width="11.92" height="3.3"/>
	<rect x="110.71" class="st0" width="11.92" height="3.3"/>
	<rect x="98.79" class="st0" width="11.92" height="3.3"/>
	<rect x="86.87" class="st0" width="11.92" height="3.3"/>
	<rect x="27.27" y="49.73" class="st0" width="11.92" height="7.74"/>
	<rect x="349.1" y="26.51" class="st0" width="3.46" height="7.74"/>
	<rect x="337.18" y="26.51" class="st0" width="11.92" height="7.74"/>
	<rect x="313.34" y="18.77" class="st0" width="11.92" height="7.74"/>
	<rect x="313.34" y="26.51" class="st0" width="11.92" height="7.74"/>
	<rect x="325.26" y="26.51" class="st0" width="11.92" height="7.74"/>
	<rect class="st0" width="3.43" height="3.3"/>
	<rect y="3.3" class="st0" width="3.43" height="7.74"/>
	<rect x="3.43" class="st0" width="11.92" height="3.3"/>
	<rect x="301.42" y="18.77" class="st0" width="11.92" height="7.74"/>
	<rect x="349.1" y="127.12" class="st0" width="3.46" height="7.74"/>
	<rect x="51.11" class="st0" width="11.92" height="3.3"/>
	<rect x="39.19" class="st0" width="11.92" height="3.3"/>
	<rect x="15.35" class="st0" width="11.92" height="3.3"/>
	<rect x="63.03" class="st0" width="11.92" height="3.3"/>
	<rect x="27.27" class="st0" width="11.92" height="3.3"/>
	<rect x="122.63" y="18.77" class="st0" width="11.92" height="7.74"/>
	<rect x="134.55" y="18.77" class="st0" width="11.92" height="7.74"/>
	<rect x="110.71" y="18.77" class="st0" width="11.92" height="7.74"/>
	<rect x="51.11" y="18.77" class="st0" width="11.92" height="7.74"/>
	<rect x="146.46" y="18.77" class="st0" width="11.92" height="7.74"/>
	<rect x="158.38" y="18.77" class="st0" width="11.92" height="7.74"/>
	<rect x="74.95" y="18.77" class="st0" width="11.92" height="7.74"/>
	<rect x="63.03" y="18.77" class="st0" width="11.92" height="7.74"/>
	<rect x="98.79" y="18.77" class="st0" width="11.92" height="7.74"/>
	<rect x="170.3" y="18.77" class="st0" width="11.92" height="7.74"/>
	<rect x="86.87" y="18.77" class="st0" width="11.92" height="7.74"/>
	<rect x="289.5" y="18.77" class="st0" width="11.92" height="7.74"/>
	<rect x="253.74" y="18.77" class="st0" width="11.92" height="7.74"/>
	<rect x="182.22" y="18.77" class="st0" width="11.92" height="7.74"/>
	<rect x="265.66" y="18.77" class="st0" width="11.92" height="7.74"/>
	<rect x="277.58" y="18.77" class="st0" width="11.92" height="7.74"/>
	<rect x="241.82" y="18.77" class="st0" width="11.92" height="7.74"/>
	<rect x="206.06" y="18.77" class="st0" width="11.92" height="7.74"/>
	<rect x="229.9" y="18.77" class="st0" width="11.92" height="7.74"/>
	<rect x="194.14" y="18.77" class="st0" width="11.92" height="7.74"/>
	<rect x="217.98" y="18.77" class="st0" width="11.92" height="7.74"/>
	<rect x="170.3" y="142.59" class="st0" width="11.92" height="3.3"/>
	<rect x="39.19" y="3.3" class="st0" width="11.92" height="7.74"/>
	<rect x="27.27" y="3.3" class="st0" width="11.92" height="7.74"/>
	<rect x="110.71" y="3.3" class="st0" width="11.92" height="7.74"/>
	<rect x="51.11" y="3.3" class="st0" width="11.92" height="7.74"/>
	<rect x="3.43" y="3.3" class="st0" width="11.92" height="7.74"/>
	<rect x="98.79" y="3.3" class="st0" width="11.92" height="7.74"/>
	<rect x="3.43" y="11.04" class="st0" width="11.92" height="7.74"/>
	<rect x="86.87" y="3.3" class="st0" width="11.92" height="7.74"/>
	<rect x="74.95" y="3.3" class="st0" width="11.92" height="7.74"/>
	<rect x="63.03" y="3.3" class="st0" width="11.92" height="7.74"/>
	<rect x="15.35" y="3.3" class="st0" width="11.92" height="7.74"/>
	<rect y="11.04" class="st0" width="3.43" height="7.74"/>
	<rect x="51.11" y="11.04" class="st0" width="11.92" height="7.74"/>
	<rect x="63.03" y="11.04" class="st0" width="11.92" height="7.74"/>
	<rect x="27.27" y="11.04" class="st0" width="11.92" height="7.74"/>
	<rect x="39.19" y="11.04" class="st0" width="11.92" height="7.74"/>
	<rect y="18.77" class="st0" width="3.43" height="7.74"/>
	<rect x="3.43" y="18.77" class="st0" width="11.92" height="7.74"/>
	<rect x="15.35" y="18.77" class="st0" width="11.92" height="7.74"/>
	<rect x="15.35" y="11.04" class="st0" width="11.92" height="7.74"/>
	<rect x="146.46" y="3.3" class="st0" width="11.92" height="7.74"/>
	<rect x="289.5" y="3.3" class="st0" width="11.92" height="7.74"/>
	<rect x="349.1" y="11.04" class="st0" width="3.46" height="7.74"/>
	<rect x="301.42" y="3.3" class="st0" width="11.92" height="7.74"/>
	<rect x="265.66" y="3.3" class="st0" width="11.92" height="7.74"/>
	<rect x="241.82" y="3.3" class="st0" width="11.92" height="7.74"/>
	<rect x="253.74" y="3.3" class="st0" width="11.92" height="7.74"/>
	<rect x="337.18" y="11.04" class="st0" width="11.92" height="7.74"/>
	<rect x="325.26" y="3.3" class="st0" width="11.92" height="7.74"/>
	<rect x="313.34" y="3.3" class="st0" width="11.92" height="7.74"/>
	<rect x="337.18" y="3.3" class="st0" width="11.92" height="7.74"/>
	<rect x="74.95" y="11.04" class="st0" width="11.92" height="7.74"/>
	<rect x="337.18" y="127.12" class="st0" width="11.92" height="7.74"/>
	<rect x="122.63" y="3.3" class="st0" width="11.92" height="7.74"/>
	<rect x="158.38" y="3.3" class="st0" width="11.92" height="7.74"/>
	<rect x="134.55" y="3.3" class="st0" width="11.92" height="7.74"/>
	<rect x="229.9" y="3.3" class="st0" width="11.92" height="7.74"/>
	<rect x="217.98" y="3.3" class="st0" width="11.92" height="7.74"/>
	<rect x="182.22" y="3.3" class="st0" width="11.92" height="7.74"/>
	<rect x="206.06" y="3.3" class="st0" width="11.92" height="7.74"/>
	<rect x="194.14" y="3.3" class="st0" width="11.92" height="7.74"/>
	<rect x="170.3" y="3.3" class="st0" width="11.92" height="7.74"/>
	<rect x="289.5" y="142.59" class="st0" width="11.92" height="3.3"/>
	<rect x="349.1" y="142.59" class="st0" width="3.46" height="3.3"/>
	<rect x="337.18" y="142.59" class="st0" width="11.92" height="3.3"/>
	<rect x="301.42" y="142.59" class="st0" width="11.92" height="3.3"/>
	<rect x="313.34" y="142.59" class="st0" width="11.92" height="3.3"/>
	<rect x="325.26" y="142.59" class="st0" width="11.92" height="3.3"/>
	<rect x="337.18" y="18.77" class="st0" width="11.92" height="7.74"/>
	<rect x="325.26" y="11.04" class="st0" width="11.92" height="7.74"/>
	<rect x="325.26" y="18.77" class="st0" width="11.92" height="7.74"/>
	<rect x="349.1" y="18.77" class="st0" width="3.46" height="7.74"/>
	<rect x="349.1" y="134.85" class="st0" width="3.46" height="7.74"/>
	<rect x="206.06" y="142.59" class="st0" width="11.92" height="3.3"/>
	<rect x="277.58" y="142.59" class="st0" width="11.92" height="3.3"/>
	<rect x="182.22" y="142.59" class="st0" width="11.92" height="3.3"/>
	<rect x="217.98" y="142.59" class="st0" width="11.92" height="3.3"/>
	<rect x="194.14" y="142.59" class="st0" width="11.92" height="3.3"/>
	<rect x="265.66" y="142.59" class="st0" width="11.92" height="3.3"/>
	<rect x="253.74" y="142.59" class="st0" width="11.92" height="3.3"/>
	<rect x="229.9" y="142.59" class="st0" width="11.92" height="3.3"/>
	<rect x="241.82" y="142.59" class="st0" width="11.92" height="3.3"/>
	<rect x="217.98" y="11.04" class="st0" width="11.92" height="7.74"/>
	<rect x="158.38" y="11.04" class="st0" width="11.92" height="7.74"/>
	<rect x="194.14" y="11.04" class="st0" width="11.92" height="7.74"/>
	<rect x="170.3" y="11.04" class="st0" width="11.92" height="7.74"/>
	<rect x="182.22" y="11.04" class="st0" width="11.92" height="7.74"/>
	<rect x="146.46" y="11.04" class="st0" width="11.92" height="7.74"/>
	<rect x="110.71" y="11.04" class="st0" width="11.92" height="7.74"/>
	<rect x="134.55" y="11.04" class="st0" width="11.92" height="7.74"/>
	<rect x="98.79" y="11.04" class="st0" width="11.92" height="7.74"/>
	<rect x="122.63" y="11.04" class="st0" width="11.92" height="7.74"/>
	<rect x="301.42" y="11.04" class="st0" width="11.92" height="7.74"/>
	<rect x="289.5" y="11.04" class="st0" width="11.92" height="7.74"/>
	<rect x="265.66" y="11.04" class="st0" width="11.92" height="7.74"/>
	<rect x="277.58" y="11.04" class="st0" width="11.92" height="7.74"/>
	<rect x="206.06" y="11.04" class="st0" width="11.92" height="7.74"/>
	<rect x="313.34" y="11.04" class="st0" width="11.92" height="7.74"/>
	<rect x="229.9" y="11.04" class="st0" width="11.92" height="7.74"/>
	<rect x="86.87" y="11.04" class="st0" width="11.92" height="7.74"/>
	<rect x="241.82" y="11.04" class="st0" width="11.92" height="7.74"/>
	<rect x="253.74" y="11.04" class="st0" width="11.92" height="7.74"/>
	<rect x="74.95" class="st0" width="11.92" height="3.3"/>
	<rect x="146.46" y="34.25" class="st0" width="11.92" height="7.74"/>
	<rect x="134.55" y="34.25" class="st0" width="11.92" height="7.74"/>
	<rect x="170.3" y="34.25" class="st0" width="11.92" height="7.74"/>
	<rect x="122.63" y="34.25" class="st0" width="11.92" height="7.74"/>
	<rect x="158.38" y="34.25" class="st0" width="11.92" height="7.74"/>
	<rect x="74.95" y="34.25" class="st0" width="11.92" height="7.74"/>
	<rect x="86.87" y="34.25" class="st0" width="11.92" height="7.74"/>
	<rect x="182.22" y="34.25" class="st0" width="11.92" height="7.74"/>
	<rect x="98.79" y="34.25" class="st0" width="11.92" height="7.74"/>
	<rect x="110.71" y="34.25" class="st0" width="11.92" height="7.74"/>
	<rect x="265.66" y="34.25" class="st0" width="11.92" height="7.74"/>
	<rect x="277.58" y="34.25" class="st0" width="11.92" height="7.74"/>
	<rect x="253.74" y="34.25" class="st0" width="11.92" height="7.74"/>
	<rect x="63.03" y="34.25" class="st0" width="11.92" height="7.74"/>
	<rect x="289.5" y="34.25" class="st0" width="11.92" height="7.74"/>
	<rect x="206.06" y="34.25" class="st0" width="11.92" height="7.74"/>
	<rect x="241.82" y="34.25" class="st0" width="11.92" height="7.74"/>
	<rect x="217.98" y="34.25" class="st0" width="11.92" height="7.74"/>
	<rect x="194.14" y="34.25" class="st0" width="11.92" height="7.74"/>
	<rect x="229.9" y="34.25" class="st0" width="11.92" height="7.74"/>
	<rect x="74.95" y="127.12" class="st0" width="11.92" height="7.74"/>
	<rect x="63.03" y="127.12" class="st0" width="11.92" height="7.74"/>
	<rect x="51.11" y="127.12" class="st0" width="11.92" height="7.74"/>
	<rect x="27.27" y="127.12" class="st0" width="11.92" height="7.74"/>
	<rect x="289.5" y="41.99" class="st0" width="11.92" height="7.74"/>
	<rect x="39.19" y="127.12" class="st0" width="11.92" height="7.74"/>
	<rect x="98.79" y="127.12" class="st0" width="11.92" height="7.74"/>
	<rect x="122.63" y="127.12" class="st0" width="11.92" height="7.74"/>
	<rect x="110.71" y="127.12" class="st0" width="11.92" height="7.74"/>
	<rect x="15.35" y="127.12" class="st0" width="11.92" height="7.74"/>
	<rect x="86.87" y="127.12" class="st0" width="11.92" height="7.74"/>
	<rect x="27.27" y="41.99" class="st0" width="11.92" height="7.74"/>
	<rect x="15.35" y="119.38" class="st0" width="11.92" height="7.74"/>
	<rect x="15.35" y="41.99" class="st0" width="11.92" height="7.74"/>
	<rect x="51.11" y="34.25" class="st0" width="11.92" height="7.74"/>
	<rect x="51.11" y="41.99" class="st0" width="11.92" height="7.74"/>
	<rect x="39.19" y="41.99" class="st0" width="11.92" height="7.74"/>
	<rect y="119.38" class="st0" width="3.43" height="7.74"/>
	<rect x="3.43" y="41.99" class="st0" width="11.92" height="7.74"/>
	<rect x="3.43" y="119.38" class="st0" width="11.92" height="7.74"/>
	<rect y="41.99" class="st0" width="3.43" height="7.74"/>
	<rect x="146.46" y="119.38" class="st0" width="11.92" height="7.74"/>
	<rect x="98.79" y="119.38" class="st0" width="11.92" height="7.74"/>
	<rect x="110.71" y="119.38" class="st0" width="11.92" height="7.74"/>
	<rect x="86.87" y="119.38" class="st0" width="11.92" height="7.74"/>
	<rect x="74.95" y="119.38" class="st0" width="11.92" height="7.74"/>
	<rect x="63.03" y="119.38" class="st0" width="11.92" height="7.74"/>
	<rect x="158.38" y="119.38" class="st0" width="11.92" height="7.74"/>
	<rect x="51.11" y="119.38" class="st0" width="11.92" height="7.74"/>
	<rect x="170.3" y="119.38" class="st0" width="11.92" height="7.74"/>
	<rect x="134.55" y="127.12" class="st0" width="11.92" height="7.74"/>
	<rect x="134.55" y="119.38" class="st0" width="11.92" height="7.74"/>
	<rect x="122.63" y="119.38" class="st0" width="11.92" height="7.74"/>
	<rect x="3.43" y="49.73" class="st0" width="11.92" height="7.74"/>
	<rect y="111.64" class="st0" width="3.43" height="7.74"/>
	<rect y="49.73" class="st0" width="3.43" height="7.74"/>
	<rect x="15.35" y="49.73" class="st0" width="11.92" height="7.74"/>
	<rect x="27.27" y="111.64" class="st0" width="11.92" height="7.74"/>
	<rect x="3.43" y="111.64" class="st0" width="11.92" height="7.74"/>
	<rect x="27.27" y="119.38" class="st0" width="11.92" height="7.74"/>
	<rect x="39.19" y="119.38" class="st0" width="11.92" height="7.74"/>
	<rect x="301.42" y="41.99" class="st0" width="11.92" height="7.74"/>
	<rect x="15.35" y="111.64" class="st0" width="11.92" height="7.74"/>
	<rect x="325.26" y="111.64" class="st0" width="11.92" height="7.74"/>
	<rect x="337.18" y="111.64" class="st0" width="11.92" height="7.74"/>
	<rect x="313.34" y="119.38" class="st0" width="11.92" height="7.74"/>
	<rect x="182.22" y="119.38" class="st0" width="11.92" height="7.74"/>
	<rect x="349.1" y="111.64" class="st0" width="3.46" height="7.74"/>
	<rect x="349.1" y="41.99" class="st0" width="3.46" height="7.74"/>
	<rect x="325.26" y="41.99" class="st0" width="11.92" height="7.74"/>
	<rect x="313.34" y="41.99" class="st0" width="11.92" height="7.74"/>
	<rect x="337.18" y="41.99" class="st0" width="11.92" height="7.74"/>
	<rect x="301.42" y="119.38" class="st0" width="11.92" height="7.74"/>
	<rect x="313.34" y="111.64" class="st0" width="11.92" height="7.74"/>
	<rect x="217.98" y="119.38" class="st0" width="11.92" height="7.74"/>
	<rect x="289.5" y="119.38" class="st0" width="11.92" height="7.74"/>
	<rect x="229.9" y="119.38" class="st0" width="11.92" height="7.74"/>
	<rect x="194.14" y="119.38" class="st0" width="11.92" height="7.74"/>
	<rect x="206.06" y="119.38" class="st0" width="11.92" height="7.74"/>
	<rect x="277.58" y="119.38" class="st0" width="11.92" height="7.74"/>
	<rect x="265.66" y="119.38" class="st0" width="11.92" height="7.74"/>
	<rect x="241.82" y="119.38" class="st0" width="11.92" height="7.74"/>
	<rect x="253.74" y="119.38" class="st0" width="11.92" height="7.74"/>
	<rect x="110.71" y="26.51" class="st0" width="11.92" height="7.74"/>
	<rect x="15.35" y="134.85" class="st0" width="11.92" height="7.74"/>
	<rect y="34.25" class="st0" width="3.43" height="7.74"/>
	<rect x="27.27" y="134.85" class="st0" width="11.92" height="7.74"/>
	<rect x="86.87" y="134.85" class="st0" width="11.92" height="7.74"/>
	<rect y="127.12" class="st0" width="3.43" height="7.74"/>
	<rect x="3.43" y="134.85" class="st0" width="11.92" height="7.74"/>
	<rect x="74.95" y="134.85" class="st0" width="11.92" height="7.74"/>
	<rect x="39.19" y="134.85" class="st0" width="11.92" height="7.74"/>
	<rect x="63.03" y="134.85" class="st0" width="11.92" height="7.74"/>
	<rect x="51.11" y="134.85" class="st0" width="11.92" height="7.74"/>
	<rect x="3.43" y="127.12" class="st0" width="11.92" height="7.74"/>
	<rect x="63.03" y="26.51" class="st0" width="11.92" height="7.74"/>
	<rect x="74.95" y="26.51" class="st0" width="11.92" height="7.74"/>
	<rect x="86.87" y="26.51" class="st0" width="11.92" height="7.74"/>
	<rect x="51.11" y="26.51" class="st0" width="11.92" height="7.74"/>
	<rect x="39.19" y="26.51" class="st0" width="11.92" height="7.74"/>
	<rect x="15.35" y="34.25" class="st0" width="11.92" height="7.74"/>
	<rect x="27.27" y="34.25" class="st0" width="11.92" height="7.74"/>
	<rect x="39.19" y="34.25" class="st0" width="11.92" height="7.74"/>
	<rect x="3.43" y="34.25" class="st0" width="11.92" height="7.74"/>
	<rect x="277.58" y="134.85" class="st0" width="11.92" height="7.74"/>
	<rect x="253.74" y="134.85" class="st0" width="11.92" height="7.74"/>
	<rect x="98.79" y="134.85" class="st0" width="11.92" height="7.74"/>
	<rect x="229.9" y="134.85" class="st0" width="11.92" height="7.74"/>
	<rect x="98.79" y="26.51" class="st0" width="11.92" height="7.74"/>
	<rect x="241.82" y="134.85" class="st0" width="11.92" height="7.74"/>
	<rect x="289.5" y="134.85" class="st0" width="11.92" height="7.74"/>
	<rect x="313.34" y="134.85" class="st0" width="11.92" height="7.74"/>
	<rect x="325.26" y="134.85" class="st0" width="11.92" height="7.74"/>
	<rect x="301.42" y="134.85" class="st0" width="11.92" height="7.74"/>
	<rect x="217.98" y="134.85" class="st0" width="11.92" height="7.74"/>
	<rect x="265.66" y="134.85" class="st0" width="11.92" height="7.74"/>
	<rect x="206.06" y="134.85" class="st0" width="11.92" height="7.74"/>
	<rect x="122.63" y="134.85" class="st0" width="11.92" height="7.74"/>
	<rect x="146.46" y="134.85" class="st0" width="11.92" height="7.74"/>
	<rect x="110.71" y="134.85" class="st0" width="11.92" height="7.74"/>
	<rect x="134.55" y="134.85" class="st0" width="11.92" height="7.74"/>
	<rect x="182.22" y="134.85" class="st0" width="11.92" height="7.74"/>
	<rect x="194.14" y="134.85" class="st0" width="11.92" height="7.74"/>
	<rect x="170.3" y="134.85" class="st0" width="11.92" height="7.74"/>
	<rect x="158.38" y="134.85" class="st0" width="11.92" height="7.74"/>
	<rect x="146.46" y="26.51" class="st0" width="11.92" height="7.74"/>
	<rect x="301.42" y="127.12" class="st0" width="11.92" height="7.74"/>
	<rect x="337.18" y="34.25" class="st0" width="11.92" height="7.74"/>
	<rect x="289.5" y="127.12" class="st0" width="11.92" height="7.74"/>
	<rect x="325.26" y="127.12" class="st0" width="11.92" height="7.74"/>
	<rect x="277.58" y="127.12" class="st0" width="11.92" height="7.74"/>
	<rect x="265.66" y="127.12" class="st0" width="11.92" height="7.74"/>
	<rect x="349.1" y="119.38" class="st0" width="3.46" height="7.74"/>
	<rect x="349.1" y="34.25" class="st0" width="3.46" height="7.74"/>
	<rect x="337.18" y="119.38" class="st0" width="11.92" height="7.74"/>
	<rect x="325.26" y="119.38" class="st0" width="11.92" height="7.74"/>
	<rect x="313.34" y="127.12" class="st0" width="11.92" height="7.74"/>
	<rect x="194.14" y="127.12" class="st0" width="11.92" height="7.74"/>
	<rect x="182.22" y="127.12" class="st0" width="11.92" height="7.74"/>
	<rect x="170.3" y="127.12" class="st0" width="11.92" height="7.74"/>
	<rect x="158.38" y="127.12" class="st0" width="11.92" height="7.74"/>
	<rect x="229.9" y="127.12" class="st0" width="11.92" height="7.74"/>
	<rect x="241.82" y="127.12" class="st0" width="11.92" height="7.74"/>
	<rect x="253.74" y="127.12" class="st0" width="11.92" height="7.74"/>
	<rect x="217.98" y="127.12" class="st0" width="11.92" height="7.74"/>
	<rect x="206.06" y="127.12" class="st0" width="11.92" height="7.74"/>
	<rect x="277.58" y="26.51" class="st0" width="11.92" height="7.74"/>
	<rect x="194.14" y="26.51" class="st0" width="11.92" height="7.74"/>
	<rect x="182.22" y="26.51" class="st0" width="11.92" height="7.74"/>
	<rect x="217.98" y="26.51" class="st0" width="11.92" height="7.74"/>
	<rect x="170.3" y="26.51" class="st0" width="11.92" height="7.74"/>
	<rect x="206.06" y="26.51" class="st0" width="11.92" height="7.74"/>
	<rect x="325.26" y="34.25" class="st0" width="11.92" height="7.74"/>
	<rect x="122.63" y="26.51" class="st0" width="11.92" height="7.74"/>
	<rect x="134.55" y="26.51" class="st0" width="11.92" height="7.74"/>
	<rect x="146.46" y="127.12" class="st0" width="11.92" height="7.74"/>
	<rect x="158.38" y="26.51" class="st0" width="11.92" height="7.74"/>
	<rect x="301.42" y="34.25" class="st0" width="11.92" height="7.74"/>
	<rect x="301.42" y="26.51" class="st0" width="11.92" height="7.74"/>
	<rect x="289.5" y="26.51" class="st0" width="11.92" height="7.74"/>
	<rect x="229.9" y="26.51" class="st0" width="11.92" height="7.74"/>
	<rect x="313.34" y="34.25" class="st0" width="11.92" height="7.74"/>
	<rect x="241.82" y="26.51" class="st0" width="11.92" height="7.74"/>
	<rect x="337.18" y="134.85" class="st0" width="11.92" height="7.74"/>
	<rect x="253.74" y="26.51" class="st0" width="11.92" height="7.74"/>
	<rect x="265.66" y="26.51" class="st0" width="11.92" height="7.74"/>
</g>
<g>
	<circle class="st1" cx="101.42" cy="58.08" r="21.26"/>
	<g>
		<path d="M110.93,59.14c-0.33,0.43-1.03,0.65-2.09,0.65c-0.21,0-0.71-0.04-1.51-0.12s-1.33-0.12-1.6-0.12h-3.15
			c-0.14,0.55-0.21,1.16-0.21,1.83c0,2.17-0.03,3.37-0.09,3.6c-0.05,0.18-0.07,0.38-0.07,0.6s-0.1,0.43-0.31,0.62
			s-0.62,0.29-1.26,0.29c-0.74,0-1.23-0.12-1.48-0.37s-0.37-0.71-0.37-1.41l0.53-5.19c-1.5-0.08-2.47-0.08-2.92,0l-1.49,0.26
			c-0.5,0-0.94-0.17-1.31-0.51s-0.55-0.72-0.55-1.14c0-0.33,0.15-0.68,0.44-1.05s0.64-0.55,1.04-0.55c0.35,0,1,0.06,1.93,0.19
			l2.55-0.12h0.58c0.05-0.26,0.07-0.53,0.07-0.81c0-0.49-0.05-1.44-0.16-2.85c-0.05-0.52-0.07-0.9-0.07-1.16
			c0-1.93,0.64-2.9,1.92-2.9c0.46,0,0.84,0.24,1.14,0.73s0.46,0.89,0.46,1.2c0,0.52-0.05,1.31-0.14,2.39
			c-0.11,1.08-0.16,1.73-0.16,1.95v0.9c0,0.11,0.01,0.25,0.04,0.42l0.58,0.02l4.64-0.07c1.18,0,2.01,0.15,2.47,0.44
			s0.69,0.95,0.69,1.97L110.93,59.14z"/>
	</g>
</g>
<g>
	<g>
		<line class="st2" x1="122.68" y1="58.08" x2="146.7" y2="58.08"/>
		<g>
			<polygon points="144.72,60.99 155.56,58.08 144.72,55.18 			"/>
		</g>
	</g>
</g>
<g>
	<path d="M37.95,58.08c0-0.79,0.28-1.46,0.84-2.01c0.56-0.55,1.23-0.83,2-0.83c0.79,0,1.46,0.28,2.02,0.83
		c0.56,0.55,0.84,1.22,0.84,2.01c0,0.79-0.28,1.46-0.84,2.02c-0.56,0.56-1.23,0.84-2.02,0.84c-0.78,0-1.45-0.28-2-0.84
		C38.22,59.53,37.95,58.86,37.95,58.08z"/>
</g>
<g>
	<path d="M114.99,82.83c1.8,0,3.1-0.05,3.88-0.15c0.33-0.05,0.68-0.07,1.04-0.07c0.18,0,0.54,0.1,1.09,0.29s0.88,0.4,0.98,0.62
		s0.16,0.41,0.16,0.59c0,0.73-0.45,1.09-1.36,1.09c-0.1,0-0.49-0.08-1.16-0.25c-0.13-0.03-0.23-0.05-0.28-0.05l-1.07,0.07
		c-0.16,0-0.76-0.04-1.79-0.12c-0.32-0.02-1.29,0.01-2.92,0.09c-0.92,0.05-1.54,0-1.86-0.15s-0.47-0.42-0.47-0.82
		c0-0.42,0.28-0.74,0.85-0.96s1.25-0.32,2.04-0.32C114.32,82.7,114.6,82.75,114.99,82.83z"/>
</g>
<g>
	<g>
		<rect x="53.53" y="99.14" class="st1" width="35.43" height="35.43"/>
	</g>
	<g>
		<g>
			<path d="M70.72,112.3c-0.01,0.03-0.05,0.07-0.11,0.11c-0.14,0.09-0.27,0.19-0.41,0.3s-0.47,0.48-1,1.12
				c-0.68,0.81-1.3,1.51-1.86,2.09s-1.51,1.53-2.86,2.83l-0.71,0.69c0.43-0.04,0.98-0.09,1.65-0.16c0.96-0.1,1.49-0.16,1.6-0.16
				c0.33,0,0.6-0.01,0.81-0.03c0.21-0.01,0.4-0.02,0.57-0.02c1.32,0,1.98,0.32,1.98,0.96c0,0.26-0.07,0.46-0.2,0.61
				s-0.32,0.22-0.54,0.22c-0.18,0-0.4-0.03-0.64-0.1c-0.39-0.1-0.89-0.16-1.49-0.16c-0.23,0-0.9,0.04-2,0.11h0.01
				c-1.13,0.06-1.87,0.12-2.22,0.16s-0.76,0.12-1.22,0.25c-0.36,0.1-0.58,0.15-0.68,0.15c-0.46,0-0.68-0.23-0.68-0.68
				c0-0.36,0.12-0.64,0.37-0.82c0.61-0.45,1.39-1.14,2.37-2.05s1.88-1.83,2.74-2.72c0.14-0.15,0.3-0.31,0.49-0.5
				c0.76-0.76,1.31-1.35,1.65-1.78c-0.07,0-0.9,0.09-2.48,0.27c-1,0.12-1.75,0.18-2.26,0.18c-0.31,0-0.63-0.04-0.96-0.12
				c-0.48-0.21-0.72-0.48-0.72-0.81c0-0.15,0.09-0.32,0.28-0.52s0.34-0.29,0.46-0.29c0.09,0,0.2,0.02,0.34,0.08
				c0.14,0.05,0.25,0.08,0.32,0.08l1.26,0.01c0.35,0,0.73-0.01,1.14-0.05c0.31-0.03,0.79-0.06,1.46-0.09
				c0.75-0.04,1.27-0.08,1.54-0.13c0.84-0.14,1.37-0.21,1.59-0.21c0.38,0,0.57,0.2,0.57,0.61C70.87,111.96,70.82,112.15,70.72,112.3
				z"/>
			<path d="M73.54,113.62c0.61,0,1.05-0.02,1.32-0.05c0.11-0.02,0.23-0.02,0.35-0.02c0.06,0,0.18,0.03,0.37,0.1
				c0.19,0.07,0.3,0.14,0.33,0.21c0.04,0.07,0.06,0.14,0.06,0.2c0,0.25-0.15,0.37-0.46,0.37c-0.03,0-0.17-0.03-0.39-0.08
				c-0.05-0.01-0.08-0.02-0.1-0.02l-0.36,0.02c-0.06,0-0.26-0.01-0.61-0.04c-0.11-0.01-0.44,0-0.99,0.03
				c-0.31,0.02-0.52,0-0.63-0.05c-0.11-0.05-0.16-0.14-0.16-0.28c0-0.14,0.1-0.25,0.29-0.32c0.19-0.07,0.42-0.11,0.7-0.11
				C73.31,113.57,73.41,113.59,73.54,113.62z"/>
			<path d="M82.87,111.95l-1.33,1.79c-0.61,0.86-1.09,1.29-1.42,1.29c-0.15,0-0.29-0.09-0.41-0.27s-0.24-0.45-0.37-0.81
				s-0.21-0.63-0.26-0.82c-0.11-0.43-0.19-0.67-0.23-0.73l-0.2,1.04c-0.06,0.33-0.13,0.64-0.2,0.92s-0.14,0.62-0.22,1.01
				c-0.08,0.39-0.13,0.69-0.15,0.89c-0.01,0.07-0.07,0.14-0.19,0.22c-0.12,0.08-0.21,0.12-0.28,0.12c-0.13,0-0.25-0.06-0.36-0.18
				c-0.11-0.12-0.17-0.23-0.17-0.34c0-0.25,0.05-0.58,0.16-0.97c0.44-1.61,0.69-2.62,0.75-3.04c0.06-0.42,0.09-0.76,0.09-1.04
				c0-0.14,0.06-0.25,0.19-0.33c0.13-0.08,0.29-0.12,0.49-0.12c0.11,0,0.22,0.07,0.33,0.21c0.11,0.14,0.18,0.28,0.22,0.4l0-0.01
				l0.55,1.55c0.22,0.62,0.37,1.01,0.44,1.18c0.29-0.31,0.71-0.85,1.27-1.62c0.56-0.77,0.95-1.26,1.16-1.48
				c0.21-0.22,0.35-0.33,0.44-0.33c0.13,0,0.27,0.05,0.43,0.16c0.16,0.11,0.24,0.2,0.24,0.28c0,0.06-0.05,0.46-0.16,1.2
				c-0.07,0.52-0.14,1.11-0.2,1.76c-0.06,0.65-0.09,1.03-0.09,1.15c0,0.14,0.02,0.29,0.06,0.44c0.03,0.12,0.04,0.23,0.04,0.33
				c0,0.26-0.05,0.44-0.14,0.54s-0.23,0.14-0.42,0.14c-0.35,0-0.52-0.26-0.52-0.79c0-0.49,0.04-1.1,0.14-1.81s0.17-1.26,0.25-1.64
				C82.85,112.1,82.87,112,82.87,111.95z"/>
		</g>
	</g>
</g>
<polyline class="st2" points="53.04,115.76 40.86,115.76 40.86,57.8 "/>
<g>
	<g>
		<polyline class="st2" points="101.13,88.67 101.13,115.76 88.96,115.76 		"/>
		<g>
			<polygon points="98.22,90.65 101.12,79.81 104.03,90.65 			"/>
		</g>
	</g>
</g>
<g>
	<g>
		<line class="st2" x1="16.25" y1="57.97" x2="71.2" y2="57.97"/>
		<g>
			<polygon points="69.22,60.87 80.06,57.97 69.22,55.06 			"/>
		</g>
	</g>
</g>
<g>
	<path d="M7.4,42.72c-0.81,0.76-1.39,1.55-1.73,2.37c-0.15,0.34-0.3,0.6-0.46,0.78c-0.4-0.02-0.69-0.1-0.88-0.24
		s-0.28-0.37-0.28-0.69c0-0.28,0.12-0.63,0.37-1.05s0.85-1.07,1.81-1.96c0.15-0.14,0.27-0.26,0.37-0.36
		c-0.87-1.28-1.31-2.27-1.31-2.99c0-0.75,0.33-1.13,0.99-1.13c0.46,0,0.71,0.34,0.74,1.01c0.03,0.69,0.28,1.41,0.77,2.15
		c0.24-0.21,0.49-0.47,0.76-0.76c0.08-0.08,0.15-0.16,0.22-0.23c0.57-0.61,0.99-1.14,1.24-1.61c0.16-0.3,0.3-0.49,0.41-0.57
		s0.27-0.13,0.48-0.13c0.23,0,0.43,0.08,0.6,0.25s0.25,0.36,0.25,0.6c0,0.5-1.06,1.7-3.18,3.62c0.72,0.88,1.49,1.55,2.3,2
		c0.1,0.06,0.2,0.13,0.29,0.21c0.04,0.09,0.05,0.18,0.05,0.28c0,0.23-0.09,0.44-0.28,0.61s-0.41,0.26-0.68,0.26
		C9.57,45.16,8.62,44.35,7.4,42.72z"/>
	<path d="M13.47,42.31c0,0.15,0.02,0.31,0.07,0.47c0.04,0.16,0.07,0.36,0.1,0.57v-0.01l0.15,0.82c0.14,0.64,0.32,1.17,0.55,1.6
		s0.53,0.79,0.9,1.1c0.53,0.45,0.79,0.81,0.79,1.09c0,0.18-0.09,0.32-0.26,0.42s-0.39,0.16-0.65,0.16c-0.17,0-0.4-0.09-0.67-0.27
		s-0.61-0.53-1.01-1.05s-0.67-0.96-0.81-1.32s-0.28-0.94-0.43-1.76s-0.22-1.51-0.22-2.06c0-0.67,0.03-1.16,0.08-1.48
		s0.17-0.72,0.36-1.21s0.46-1.1,0.84-1.83s0.6-1.14,0.68-1.23s0.36-0.36,0.85-0.81l0.58-0.55c0.26-0.24,0.48-0.41,0.66-0.5
		c0.19-0.09,0.42-0.14,0.71-0.14c0.36,0,0.55,0.18,0.55,0.54c0,0.15-0.15,0.38-0.46,0.66c-0.54,0.51-1.02,1-1.44,1.48
		s-0.86,1.18-1.31,2.11s-0.68,1.78-0.68,2.54C13.41,41.8,13.43,42.01,13.47,42.31z"/>
	<path d="M23.8,44.07c-0.22-0.41-0.38-1.18-0.48-2.3c-0.1-1.17-0.32-1.75-0.67-1.75c-0.33,0-0.9,0.61-1.7,1.82s-1.3,2.11-1.49,2.69
		c-0.04,0.17-0.12,0.32-0.23,0.43s-0.22,0.17-0.33,0.17c-0.69,0-1.04-0.32-1.04-0.95c0-0.21,0.07-0.7,0.21-1.46
		c0.18-0.98,0.27-2.19,0.27-3.61c0-0.21,0.09-0.44,0.28-0.69s0.39-0.37,0.59-0.37c0.26,0,0.47,0.07,0.61,0.2s0.21,0.48,0.21,1.05
		c0,0.43-0.13,1.27-0.39,2.52c0.99-2.31,2.09-3.47,3.31-3.47c1.06,0,1.68,0.83,1.86,2.5c0.18,1.7,0.39,2.54,0.63,2.54
		c0.1,0,0.23-0.02,0.36-0.07c0.16-0.05,0.29-0.08,0.39-0.08c0.22,0,0.33,0.13,0.33,0.38c0,0.23-0.15,0.48-0.45,0.74
		s-0.68,0.39-1.13,0.39C24.4,44.76,24.02,44.53,23.8,44.07L23.8,44.07z"/>
	<path d="M27.93,48.54c-0.23,0-0.43-0.07-0.6-0.21s-0.25-0.28-0.25-0.43c0-0.21,0.28-0.66,0.84-1.36c0.37-0.44,0.73-1.12,1.09-2.04
		s0.54-1.49,0.54-1.71c0-0.77-0.06-1.5-0.18-2.19s-0.35-1.43-0.68-2.23s-0.61-1.37-0.84-1.74s-0.63-0.83-1.23-1.37
		c-0.11-0.1-0.16-0.24-0.16-0.41c0-0.12,0.09-0.25,0.27-0.4s0.37-0.22,0.57-0.22c0.43,0,0.98,0.48,1.63,1.45s1.05,1.69,1.19,2.16
		c0.05,0.16,0.1,0.33,0.16,0.51c0.28,0.84,0.48,1.52,0.58,2.03s0.15,1.15,0.15,1.9c0,0.86-0.15,1.66-0.44,2.42s-0.63,1.39-0.99,1.88
		c-0.39,0.52-0.62,0.85-0.7,0.98c-0.19,0.38-0.35,0.64-0.48,0.77S28.11,48.54,27.93,48.54z"/>
</g>
<g>
	<path d="M49.87,22.65c0.35,0,0.52,0.17,0.52,0.51c0,0.42-0.5,0.94-1.51,1.55s-1.98,0.92-2.92,0.92c-0.83,0-1.59-0.27-2.29-0.81
		s-1.05-1.33-1.05-2.37c0-1.06,0.36-2.23,1.09-3.52s1.63-2.34,2.71-3.15c1.08-0.81,2.13-1.22,3.15-1.22c0.61,0,1.1,0.18,1.46,0.55
		s0.55,0.79,0.55,1.28c0,0.53-0.04,0.91-0.12,1.14s-0.26,0.43-0.53,0.59s-0.49,0.25-0.66,0.25c-0.17,0-0.32-0.06-0.45-0.18
		s-0.19-0.29-0.19-0.5c0-0.15,0.04-0.36,0.12-0.64c0.07-0.28,0.11-0.51,0.11-0.7c0-0.31-0.11-0.47-0.32-0.47
		c-0.66,0-1.39,0.35-2.21,1.05s-1.51,1.57-2.1,2.61s-0.87,1.96-0.87,2.76c0,0.53,0.15,0.98,0.46,1.34s0.75,0.55,1.34,0.55
		c0.35,0,0.78-0.09,1.31-0.28s1.01-0.44,1.46-0.76C49.4,22.81,49.71,22.65,49.87,22.65z"/>
	<path d="M58.67,21.56c-0.31,1.07-0.89,1.97-1.74,2.7s-1.71,1.1-2.56,1.1c-0.67,0-1.23-0.25-1.67-0.74s-0.66-1.1-0.66-1.82
		c0-1.18,0.4-2.33,1.2-3.47s1.77-1.71,2.92-1.71c0.78,0,1.41,0.29,1.89,0.86s0.72,1.26,0.72,2.06
		C58.78,20.88,58.75,21.22,58.67,21.56L58.67,21.56z M55.11,19.4c-0.32,0.28-0.63,0.73-0.94,1.35s-0.46,1.24-0.46,1.87
		c0,0.38,0.07,0.69,0.21,0.94s0.32,0.37,0.55,0.37c0.56,0,1.15-0.33,1.76-1s0.92-1.42,0.92-2.26c0-0.47-0.1-0.86-0.3-1.16
		s-0.48-0.45-0.83-0.45C55.69,19.05,55.39,19.17,55.11,19.4L55.11,19.4z"/>
	<path d="M61.9,24.62c-0.05,0.47-0.32,0.7-0.79,0.7c-0.6,0-0.9-0.43-0.9-1.29c0-1.39,0.08-2.59,0.23-3.58
		c0.12-0.77,0.18-1.53,0.18-2.27c0-0.18,0.06-0.33,0.17-0.45s0.27-0.18,0.48-0.18c0.68,0,1.03,0.41,1.03,1.24
		c0,0.27-0.12,0.95-0.36,2.06c-0.15,0.66-0.22,1.13-0.22,1.43c1.3-2.86,2.48-4.29,3.53-4.29c0.42,0,0.76,0.17,1.02,0.51
		s0.39,1.08,0.4,2.24c0,1.06,0.06,1.59,0.16,1.59c0.08,0,0.37-0.51,0.85-1.54c0.54-1.13,1.01-1.88,1.39-2.25S69.87,18,70.29,18
		c0.51,0,0.87,0.22,1.1,0.65s0.39,1.17,0.48,2.2c0.07,0.82,0.16,1.44,0.28,1.86s0.32,0.7,0.6,0.83c0.23,0.11,0.34,0.27,0.34,0.49
		c0,0.2-0.13,0.39-0.39,0.59s-0.52,0.3-0.79,0.3c-0.46,0-0.83-0.23-1.09-0.69s-0.44-1.38-0.53-2.76c-0.05-0.67-0.1-1.11-0.16-1.32
		s-0.14-0.32-0.26-0.32c-0.1,0-0.25,0.16-0.44,0.49s-0.52,0.97-0.99,1.94c-0.41,0.88-0.77,1.49-1.07,1.83s-0.62,0.52-0.96,0.52
		c-0.26,0-0.53-0.11-0.8-0.34s-0.41-1.06-0.43-2.48c-0.02-1.27-0.1-1.91-0.25-1.91c-0.19,0-0.65,0.56-1.38,1.7
		S62.27,23.73,61.9,24.62z"/>
	<path d="M74.78,18.39c0.44-2.62,0.76-4.17,0.95-4.66s0.53-0.72,1.02-0.72c0.37,0,0.56,0.33,0.56,0.99c0,0.45-0.19,1.39-0.56,2.81
		c-0.2,0.7-0.43,1.76-0.71,3.19c0.56-0.75,1.18-1.36,1.85-1.83s1.26-0.7,1.79-0.7c0.43,0,0.79,0.18,1.07,0.55s0.43,0.8,0.43,1.3
		c0,1.4-0.54,2.72-1.62,3.96s-2.22,1.85-3.44,1.85c-0.36,0-0.7-0.1-1.02-0.3s-0.49-0.45-0.53-0.76c-0.02-0.17-0.05-0.28-0.1-0.33
		s-0.1-0.11-0.16-0.18c-0.13-0.14-0.2-0.33-0.2-0.57c0-0.28,0.07-0.87,0.21-1.76L74.78,18.39z M75.59,23.24
		c0.19,0.32,0.41,0.48,0.64,0.48c0.43,0,0.9-0.2,1.43-0.59s0.98-0.95,1.36-1.66s0.58-1.31,0.58-1.78c0-0.45-0.07-0.68-0.21-0.68
		c-0.72,0-1.54,0.53-2.44,1.59S75.59,22.53,75.59,23.24z"/>
</g>
<g>
	<g>
		<g>
			<g>
				<rect x="155.56" y="40.78" class="st1" width="35.43" height="35.43"/>
			</g>
			<g>
				<g>
					<path d="M164.45,54.4l-0.09-0.16c-0.15-0.23-0.22-0.4-0.22-0.51c0-0.22,0.11-0.41,0.33-0.57s0.43-0.24,0.61-0.24
						c0.08,0,0.19,0.01,0.31,0.02c0.13,0.02,0.21,0.03,0.23,0.03c1.34-0.21,2.29-0.31,2.83-0.31c1.02,0,1.82,0.24,2.41,0.72
						s0.89,1.07,0.89,1.78c0,0.67-0.29,1.31-0.87,1.92s-1.36,1.1-2.33,1.49c1.62,1.31,2.85,2.21,3.69,2.71
						c0.3,0.18,0.44,0.41,0.44,0.68c0,0.18-0.1,0.36-0.31,0.55s-0.4,0.27-0.58,0.27c-0.26,0-0.56-0.11-0.9-0.34
						s-0.81-0.59-1.43-1.08s-0.97-0.78-1.07-0.88c-0.87-0.72-1.49-1.21-1.87-1.44c-0.48,0-0.72-0.24-0.72-0.72
						c0-0.22,0.11-0.42,0.32-0.58s0.46-0.24,0.73-0.24c0.08,0,0.16,0.01,0.25,0.03c0.09,0.03,0.15,0.04,0.18,0.04
						c0.29,0,0.83-0.24,1.62-0.73s1.18-1.05,1.18-1.69c0-0.32-0.17-0.59-0.5-0.82S168.84,54,168.33,54c-0.61,0-1.09,0.04-1.47,0.11
						s-0.57,0.12-0.61,0.15s-0.08,0.1-0.12,0.22s-0.15,0.58-0.3,1.4s-0.29,1.73-0.42,2.71s-0.19,1.71-0.19,2.17
						c0,0.3,0.02,0.56,0.07,0.8c0.04,0.24,0.06,0.44,0.06,0.62c0,0.16-0.1,0.34-0.29,0.53s-0.4,0.28-0.63,0.28
						c-0.63,0-0.95-0.44-0.95-1.31c0-0.71,0.08-1.71,0.24-2.99s0.34-2.41,0.56-3.38c0.03-0.15,0.06-0.29,0.08-0.42L164.45,54.4z"/>
				</g>
			</g>
		</g>
		<g>
			<line class="st3" x1="178.85" y1="49.64" x2="178.85" y2="67.36"/>
			<g>
				<line class="st2" x1="178.85" y1="56.7" x2="178.85" y2="67.36"/>
				<g>
					<polygon points="178.85,49.64 174.79,59.59 178.85,57.23 182.92,59.59 					"/>
				</g>
			</g>
		</g>
	</g>
	<g>
		<g>
			<line class="st2" x1="255.88" y1="58.08" x2="325.56" y2="58.08"/>
			<g>
				<polygon points="323.58,60.99 334.42,58.08 323.58,55.18 				"/>
			</g>
		</g>
	</g>
	<g>
		<circle class="st1" cx="235.11" cy="59.41" r="21.26"/>
		<g>
			<path d="M244.61,60.47c-0.33,0.43-1.03,0.65-2.09,0.65c-0.21,0-0.71-0.04-1.51-0.12s-1.33-0.12-1.6-0.12h-3.15
				c-0.14,0.55-0.21,1.16-0.21,1.83c0,2.17-0.03,3.37-0.09,3.6c-0.05,0.18-0.07,0.38-0.07,0.6s-0.1,0.43-0.31,0.62
				s-0.62,0.29-1.26,0.29c-0.74,0-1.23-0.12-1.48-0.37s-0.37-0.71-0.37-1.41l0.53-5.19c-1.5-0.08-2.47-0.08-2.92,0l-1.49,0.26
				c-0.5,0-0.94-0.17-1.31-0.51s-0.55-0.72-0.55-1.14c0-0.33,0.15-0.68,0.44-1.05s0.64-0.55,1.04-0.55c0.35,0,1,0.06,1.93,0.19
				l2.55-0.12h0.58c0.05-0.26,0.07-0.53,0.07-0.81c0-0.49-0.05-1.44-0.16-2.85c-0.05-0.52-0.07-0.9-0.07-1.16
				c0-1.93,0.64-2.9,1.92-2.9c0.46,0,0.84,0.24,1.14,0.73s0.46,0.89,0.46,1.2c0,0.52-0.05,1.31-0.14,2.39
				c-0.11,1.08-0.16,1.73-0.16,1.95v0.9c0,0.11,0.01,0.25,0.04,0.42l0.58,0.02l4.64-0.07c1.18,0,2.01,0.15,2.47,0.44
				s0.69,0.95,0.69,1.97L244.61,60.47z"/>
		</g>
	</g>
	<g>
		<g>
			<line class="st2" x1="190.93" y1="58.08" x2="204.99" y2="58.08"/>
			<g>
				<polygon points="203,60.99 213.85,58.08 203,55.18 				"/>
			</g>
		</g>
	</g>
	<g>
		<g>
			<polyline class="st2" points="234.89,89.76 234.89,116.86 247.06,116.86 			"/>
			<g>
				<polygon points="231.98,91.75 234.89,80.9 237.79,91.75 				"/>
			</g>
		</g>
	</g>
	<g>
		<g>
			<rect x="247.89" y="99.14" class="st1" width="35.43" height="35.43"/>
		</g>
		<g>
			<g>
				<path d="M265.08,112.3c-0.01,0.03-0.04,0.07-0.11,0.11c-0.14,0.09-0.27,0.19-0.41,0.3c-0.13,0.11-0.47,0.48-1,1.12
					c-0.68,0.81-1.3,1.51-1.86,2.09s-1.51,1.53-2.86,2.83l-0.71,0.69c0.43-0.04,0.98-0.09,1.65-0.16c0.96-0.1,1.5-0.16,1.6-0.16
					c0.33,0,0.6-0.01,0.81-0.03c0.21-0.01,0.4-0.02,0.57-0.02c1.32,0,1.98,0.32,1.98,0.96c0,0.26-0.07,0.46-0.2,0.61
					c-0.13,0.15-0.32,0.22-0.54,0.22c-0.18,0-0.4-0.03-0.64-0.1c-0.39-0.1-0.89-0.16-1.49-0.16c-0.23,0-0.9,0.04-2,0.11h0.01
					c-1.13,0.06-1.87,0.12-2.22,0.16s-0.76,0.12-1.22,0.25c-0.36,0.1-0.58,0.15-0.68,0.15c-0.46,0-0.68-0.23-0.68-0.68
					c0-0.36,0.12-0.64,0.37-0.82c0.61-0.45,1.39-1.14,2.37-2.05s1.88-1.83,2.74-2.72c0.14-0.15,0.3-0.31,0.49-0.5
					c0.76-0.76,1.31-1.35,1.65-1.78c-0.07,0-0.9,0.09-2.48,0.27c-1,0.12-1.75,0.18-2.26,0.18c-0.31,0-0.63-0.04-0.96-0.12
					c-0.48-0.21-0.72-0.48-0.72-0.81c0-0.15,0.09-0.32,0.28-0.52c0.19-0.2,0.34-0.29,0.46-0.29c0.09,0,0.2,0.02,0.34,0.08
					c0.14,0.05,0.25,0.08,0.32,0.08l1.26,0.01c0.35,0,0.73-0.01,1.14-0.05c0.31-0.03,0.79-0.06,1.46-0.09
					c0.75-0.04,1.27-0.08,1.54-0.13c0.84-0.14,1.37-0.21,1.59-0.21c0.38,0,0.57,0.2,0.57,0.61
					C265.23,111.96,265.18,112.15,265.08,112.3z"/>
				<path d="M267.9,113.62c0.61,0,1.05-0.02,1.32-0.05c0.11-0.02,0.23-0.02,0.35-0.02c0.06,0,0.18,0.03,0.37,0.1
					c0.19,0.07,0.3,0.14,0.33,0.21c0.04,0.07,0.06,0.14,0.06,0.2c0,0.25-0.15,0.37-0.46,0.37c-0.03,0-0.17-0.03-0.39-0.08
					c-0.04-0.01-0.08-0.02-0.1-0.02l-0.36,0.02c-0.06,0-0.26-0.01-0.61-0.04c-0.11-0.01-0.44,0-0.99,0.03
					c-0.31,0.02-0.52,0-0.63-0.05c-0.11-0.05-0.16-0.14-0.16-0.28c0-0.14,0.1-0.25,0.29-0.32c0.19-0.07,0.42-0.11,0.7-0.11
					C267.67,113.57,267.77,113.59,267.9,113.62z"/>
				<path d="M274.65,115.81l0.01,0.16c0.02,0.21-0.21,0.31-0.67,0.31c-0.09,0-0.18-0.06-0.26-0.19c-0.02-0.02-0.03-0.04-0.04-0.04
					c-0.05,0-0.26,0.06-0.63,0.18c-0.08,0.03-0.13,0.04-0.17,0.05c-0.31,0.1-0.54,0.15-0.69,0.15c-0.16,0-0.29-0.05-0.39-0.14
					c-0.1-0.09-0.15-0.19-0.15-0.28c0-0.13,0.08-0.24,0.23-0.32c0.15-0.08,0.44-0.16,0.84-0.23c0.43-0.08,0.71-0.15,0.84-0.21
					c0.01-0.14,0.02-0.28,0.03-0.42c0.03-0.46,0.17-1.39,0.42-2.79c-0.02,0.01-0.25,0.13-0.67,0.38c-0.39,0.23-0.75,0.34-1.08,0.34
					c-0.22,0-0.33-0.09-0.33-0.28c0-0.12,0.04-0.21,0.11-0.27c0.07-0.06,0.21-0.13,0.41-0.22c0.24-0.1,0.54-0.25,0.91-0.46
					l0.59-0.34c0.36-0.23,0.6-0.35,0.7-0.35c0.15,0,0.26,0.07,0.33,0.21c0.08,0.14,0.12,0.26,0.12,0.37c0,0.08-0.04,0.17-0.12,0.26
					c-0.19,0.82-0.32,1.47-0.38,1.96c-0.06,0.49-0.09,0.97-0.09,1.44c0.15-0.02,0.49-0.1,1.03-0.23c0.32-0.08,0.66-0.12,1-0.12
					c0.09,0.19,0.14,0.31,0.14,0.37c0,0.09-0.02,0.17-0.06,0.22c-0.04,0.05-0.15,0.11-0.31,0.16c-0.16,0.05-0.44,0.11-0.83,0.16
					C275.08,115.69,274.8,115.75,274.65,115.81z"/>
			</g>
		</g>
	</g>
	<polyline class="st2" points="284.1,116.86 296.28,116.86 296.28,58.08 	"/>
	<g>
		<path d="M293.43,58.08c0-0.79,0.28-1.46,0.84-2.01c0.56-0.55,1.23-0.83,2-0.83c0.79,0,1.46,0.28,2.02,0.83
			c0.56,0.55,0.84,1.22,0.84,2.01c0,0.79-0.28,1.46-0.84,2.02c-0.56,0.56-1.23,0.84-2.02,0.84c-0.78,0-1.45-0.28-2-0.84
			C293.71,59.53,293.43,58.86,293.43,58.08z"/>
	</g>
	<g>
		<path d="M325.82,41.04c-0.07,1.11-0.2,2.18-0.39,3.22s-0.46,1.99-0.81,2.83c-0.36,0.85-0.74,1.43-1.16,1.73
			c-0.41,0.31-0.9,0.46-1.47,0.46c-0.61,0-1.2-0.12-1.76-0.35h0.01c-0.48-0.2-0.9-0.47-1.26-0.81c-0.36-0.34-0.54-0.62-0.54-0.85
			c0-0.21,0.05-0.39,0.16-0.51c0.11-0.13,0.25-0.19,0.42-0.19c0.15,0,0.28,0.06,0.38,0.19c0.58,0.75,1.43,1.13,2.54,1.13
			c0.45,0,0.89-0.47,1.31-1.42c0.42-0.94,0.68-2.08,0.79-3.4c-1.41,1.11-2.49,1.67-3.25,1.67c-0.49,0-0.88-0.2-1.17-0.59
			s-0.43-0.86-0.43-1.42s0.13-1.35,0.39-2.4c0.26-1.05,0.48-1.7,0.66-1.96c0.18-0.25,0.47-0.38,0.88-0.38
			c0.22,0,0.39,0.09,0.51,0.28c0.12,0.19,0.18,0.4,0.18,0.63c0,0.07-0.16,0.45-0.49,1.16c-0.4,0.86-0.6,1.6-0.6,2.21
			c0,0.32,0.04,0.56,0.13,0.73s0.18,0.25,0.28,0.25c0.22,0,0.48-0.07,0.8-0.2c0.31-0.13,0.68-0.36,1.1-0.69
			c0.42-0.33,0.69-0.57,0.82-0.74s0.22-0.39,0.29-0.65c0.07-0.27,0.13-0.85,0.17-1.76c0.02-0.53,0.05-0.86,0.08-1
			c0.03-0.14,0.11-0.26,0.24-0.38c0.13-0.11,0.31-0.17,0.53-0.17c0.3,0,0.51,0.06,0.64,0.19c0.13,0.13,0.19,0.43,0.19,0.9
			L325.82,41.04z"/>
		<path d="M328.48,42.31c0,0.15,0.02,0.31,0.07,0.47c0.04,0.16,0.07,0.36,0.1,0.57v-0.01l0.15,0.82c0.14,0.64,0.32,1.17,0.55,1.6
			s0.53,0.79,0.9,1.1c0.53,0.45,0.79,0.81,0.79,1.09c0,0.18-0.09,0.32-0.26,0.42c-0.17,0.1-0.39,0.16-0.65,0.16
			c-0.17,0-0.4-0.09-0.67-0.27c-0.27-0.18-0.61-0.53-1.01-1.05c-0.4-0.52-0.67-0.96-0.81-1.32c-0.14-0.36-0.28-0.94-0.43-1.76
			c-0.15-0.82-0.22-1.51-0.22-2.06c0-0.67,0.03-1.16,0.08-1.48s0.17-0.72,0.36-1.21s0.46-1.1,0.84-1.83s0.6-1.14,0.68-1.23
			c0.08-0.09,0.36-0.36,0.85-0.81l0.58-0.55c0.26-0.24,0.48-0.41,0.66-0.5c0.19-0.09,0.42-0.14,0.71-0.14
			c0.37,0,0.55,0.18,0.55,0.54c0,0.15-0.15,0.38-0.46,0.66c-0.54,0.51-1.02,1-1.44,1.48c-0.42,0.47-0.86,1.18-1.31,2.11
			c-0.45,0.93-0.68,1.78-0.68,2.54C328.42,41.8,328.44,42.01,328.48,42.31z"/>
		<path d="M338.81,44.07c-0.22-0.41-0.38-1.18-0.48-2.3c-0.1-1.17-0.32-1.75-0.67-1.75c-0.33,0-0.9,0.61-1.7,1.82
			s-1.3,2.11-1.49,2.69c-0.04,0.17-0.12,0.32-0.23,0.43c-0.11,0.11-0.22,0.17-0.33,0.17c-0.69,0-1.04-0.32-1.04-0.95
			c0-0.21,0.07-0.7,0.21-1.46c0.18-0.98,0.27-2.19,0.27-3.61c0-0.21,0.09-0.44,0.28-0.69c0.19-0.24,0.39-0.37,0.59-0.37
			c0.26,0,0.47,0.07,0.61,0.2c0.14,0.13,0.21,0.48,0.21,1.05c0,0.43-0.13,1.27-0.39,2.52c0.99-2.31,2.09-3.47,3.31-3.47
			c1.06,0,1.68,0.83,1.86,2.5c0.18,1.7,0.39,2.54,0.63,2.54c0.11,0,0.23-0.02,0.36-0.07c0.16-0.05,0.29-0.08,0.39-0.08
			c0.22,0,0.33,0.13,0.33,0.38c0,0.23-0.15,0.48-0.45,0.74s-0.68,0.39-1.13,0.39C339.41,44.76,339.03,44.53,338.81,44.07
			L338.81,44.07z"/>
		<path d="M342.95,48.54c-0.23,0-0.43-0.07-0.6-0.21c-0.17-0.14-0.25-0.28-0.25-0.43c0-0.21,0.28-0.66,0.84-1.36
			c0.37-0.44,0.73-1.12,1.09-2.04c0.36-0.92,0.54-1.49,0.54-1.71c0-0.77-0.06-1.5-0.18-2.19c-0.12-0.69-0.35-1.43-0.68-2.23
			c-0.33-0.79-0.61-1.37-0.84-1.74s-0.63-0.83-1.23-1.37c-0.11-0.1-0.16-0.24-0.16-0.41c0-0.12,0.09-0.25,0.27-0.4
			c0.18-0.15,0.37-0.22,0.57-0.22c0.43,0,0.98,0.48,1.63,1.45s1.05,1.69,1.19,2.16c0.05,0.16,0.1,0.33,0.16,0.51
			c0.28,0.84,0.48,1.52,0.58,2.03s0.15,1.15,0.15,1.9c0,0.86-0.15,1.66-0.44,2.42s-0.63,1.39-1,1.88c-0.39,0.52-0.62,0.85-0.7,0.98
			c-0.19,0.38-0.35,0.64-0.48,0.77C343.28,48.48,343.12,48.54,342.95,48.54z"/>
	</g>
</g>
<g>
	<path d="M228.83,18.24c-0.1,0.41-0.16,0.75-0.19,0.99c0,0.13-0.05,0.47-0.14,1.02c-0.15,0.98-0.23,1.64-0.23,2
		c0,0.6,0.04,1.19,0.11,1.78c0.05,0.42-0.03,0.73-0.26,0.93s-0.46,0.29-0.68,0.29c-0.32,0-0.55-0.14-0.69-0.42s-0.21-0.77-0.21-1.46
		c0-0.43,0.11-1.45,0.32-3.06l0.38-2.67c0.08-0.39,0.13-0.76,0.17-1.09c0.05-0.5,0.12-0.8,0.2-0.92s0.22-0.24,0.43-0.37
		s0.36-0.19,0.46-0.19c0.26,0,0.47,0.11,0.6,0.32s0.21,0.48,0.21,0.79L228.83,18.24z"/>
	<path d="M236.37,24.03c-0.22-0.41-0.38-1.18-0.48-2.3c-0.1-1.17-0.32-1.75-0.67-1.75c-0.33,0-0.9,0.61-1.7,1.82
		s-1.3,2.11-1.49,2.69c-0.04,0.17-0.12,0.32-0.23,0.43s-0.22,0.17-0.33,0.17c-0.69,0-1.04-0.32-1.04-0.95c0-0.21,0.07-0.7,0.21-1.46
		c0.18-0.98,0.27-2.19,0.27-3.61c0-0.21,0.09-0.44,0.28-0.69s0.39-0.37,0.59-0.37c0.26,0,0.47,0.07,0.61,0.2s0.21,0.48,0.21,1.05
		c0,0.43-0.13,1.27-0.39,2.52c0.99-2.31,2.09-3.47,3.31-3.47c1.06,0,1.68,0.83,1.86,2.5c0.18,1.7,0.39,2.54,0.63,2.54
		c0.1,0,0.23-0.02,0.36-0.07c0.16-0.05,0.29-0.08,0.39-0.08c0.22,0,0.33,0.13,0.33,0.38c0,0.23-0.15,0.48-0.45,0.74
		s-0.68,0.39-1.13,0.39C236.97,24.72,236.59,24.49,236.37,24.03L236.37,24.03z"/>
	<path d="M242.68,19.47c-0.04,0-0.17,0.51-0.39,1.52s-0.32,1.63-0.32,1.85c0,0.37,0.04,0.63,0.12,0.78s0.21,0.22,0.39,0.22
		c0.26,0,0.5-0.04,0.73-0.13s0.54-0.29,0.93-0.6c0.24-0.2,0.44-0.29,0.6-0.29c0.13,0,0.24,0.04,0.32,0.11s0.12,0.16,0.12,0.26
		c0,0.4-0.32,0.86-0.97,1.36s-1.33,0.76-2.05,0.76c-0.6,0-1.06-0.18-1.38-0.53s-0.48-0.87-0.48-1.53c0-0.62,0.23-1.84,0.69-3.68
		c-0.29,0.03-0.49,0.05-0.61,0.05h-0.14c-0.21,0-0.42-0.07-0.64-0.21s-0.32-0.36-0.32-0.66c0-0.38,0.22-0.57,0.65-0.57l1.46-0.05
		c0.19-0.55,0.39-1.27,0.61-2.17c0.13-0.56,0.42-0.83,0.87-0.83c0.25,0,0.45,0.08,0.59,0.23s0.21,0.32,0.21,0.51
		c0,0.07-0.19,0.78-0.58,2.11c1.45-0.13,2.24-0.19,2.39-0.19c0.24,0,0.4,0.04,0.48,0.11s0.12,0.21,0.12,0.41
		c0,0.41-0.34,0.66-1.03,0.77L242.68,19.47z"/>
	<path d="M252.54,22.67c0,0.47-0.4,1.04-1.2,1.7c-0.8,0.66-1.7,0.99-2.7,0.99c-0.77,0-1.38-0.24-1.82-0.73
		c-0.44-0.49-0.66-1.16-0.66-2.03c0-1.28,0.45-2.47,1.35-3.59s1.87-1.67,2.89-1.67c0.51,0,0.92,0.16,1.23,0.49
		c0.31,0.32,0.46,0.71,0.46,1.16c0,0.79-0.38,1.55-1.14,2.27c-0.76,0.72-1.74,1.21-2.93,1.49c-0.14,0.03-0.21,0.11-0.21,0.25
		c0,0.22,0.1,0.43,0.29,0.63c0.19,0.2,0.45,0.3,0.78,0.3c0.92,0,1.83-0.47,2.73-1.42c0.17-0.18,0.34-0.27,0.51-0.27
		C252.4,22.21,252.54,22.37,252.54,22.67z M247.95,21.46c0.72-0.15,1.35-0.45,1.9-0.92c0.55-0.47,0.82-0.9,0.82-1.28
		c0-0.15-0.04-0.28-0.13-0.38c-0.08-0.1-0.19-0.15-0.32-0.15c-0.4,0-0.84,0.29-1.32,0.88C248.43,20.19,248.11,20.81,247.95,21.46z"
		/>
	<path d="M258.36,22.93c-0.51,0.57-1.09,1.04-1.77,1.4c-0.67,0.37-1.25,0.55-1.74,0.55c-0.48,0-0.86-0.14-1.13-0.42
		s-0.4-0.67-0.4-1.17c0-0.71,0.27-1.49,0.8-2.36c0.54-0.87,1.28-1.62,2.23-2.26s1.81-0.96,2.57-0.96c0.42,0,0.78,0.11,1.09,0.34
		c0.07,0.05,0.14,0.1,0.19,0.14c0.11,0.08,0.21,0.22,0.3,0.43c0.09,0.21,0.14,0.38,0.14,0.5c0,0.08-0.09,0.36-0.26,0.83
		c-0.18,0.49-0.3,0.96-0.37,1.42c-0.07,0.46-0.21,1.6-0.42,3.43c-0.19,1.59-0.63,2.75-1.33,3.49c-0.7,0.73-1.48,1.1-2.34,1.1
		c-0.9,0-1.77-0.3-2.62-0.91c-0.84-0.6-1.27-1.1-1.27-1.49c0-0.35,0.17-0.52,0.51-0.52c0.13,0,0.4,0.13,0.81,0.4
		c1.04,0.68,1.93,1.03,2.67,1.03c0.56,0,1.04-0.35,1.42-1.06S258.13,24.82,258.36,22.93z M258.52,19.13c-0.34,0-0.78,0.2-1.33,0.6
		s-1.05,0.95-1.52,1.63s-0.7,1.25-0.7,1.7c0,0.24,0.09,0.36,0.26,0.36c0.59,0,1.17-0.24,1.75-0.71c0.58-0.48,1.05-1.02,1.4-1.64
		c0.36-0.62,0.54-1.09,0.54-1.41c0-0.16-0.04-0.29-0.12-0.38S258.63,19.13,258.52,19.13z"/>
	<path d="M263.4,21.63l0.12-0.22c0.55-1.11,1.14-2.01,1.78-2.7s1.26-1.04,1.86-1.04c0.46,0,0.84,0.13,1.14,0.38s0.44,0.56,0.44,0.91
		c0,0.22-0.05,0.41-0.15,0.56c-0.1,0.16-0.24,0.24-0.42,0.24c-0.28,0-0.54-0.12-0.77-0.35c-0.16-0.15-0.29-0.23-0.39-0.23
		c-0.34,0-0.91,0.53-1.72,1.59c-0.8,1.06-1.29,2.26-1.45,3.58c-0.05,0.38-0.16,0.65-0.33,0.8c-0.17,0.15-0.41,0.23-0.7,0.23
		c-0.31,0-0.54-0.18-0.67-0.54c-0.13-0.36-0.2-0.94-0.2-1.75c0-0.33,0.01-0.78,0.03-1.35c0.02-0.53,0.07-1.19,0.16-1.96
		c0.02-0.2,0.04-0.36,0.05-0.47c0.04-0.45,0.09-0.75,0.14-0.92c0.05-0.17,0.17-0.32,0.37-0.47s0.4-0.22,0.64-0.22
		c0.25,0,0.43,0.07,0.56,0.21c0.13,0.14,0.19,0.3,0.19,0.46c0,0.21-0.1,0.66-0.31,1.33c-0.07,0.23-0.13,0.51-0.18,0.83L263.4,21.63z
		"/>
	<path d="M273.47,22.73c-1.2,1.58-2.36,2.37-3.47,2.37c-0.41,0-0.76-0.16-1.06-0.49c-0.3-0.32-0.44-0.74-0.44-1.24
		c0-1.21,0.54-2.49,1.61-3.86c1.08-1.36,2.16-2.05,3.25-2.05c0.56,0,0.92,0.28,1.09,0.84c0.52,0,0.79,0.2,0.79,0.6
		c0,0.19-0.05,0.54-0.15,1.04c-0.18,0.94-0.27,1.69-0.27,2.25c0,0.58,0.04,0.99,0.12,1.23c0.08,0.24,0.14,0.39,0.17,0.46
		c0.04,0.07,0.15,0.15,0.33,0.23c0.18,0.09,0.27,0.21,0.27,0.36c0,0.23-0.12,0.43-0.35,0.58c-0.23,0.15-0.48,0.23-0.73,0.23
		C273.77,25.31,273.38,24.45,273.47,22.73z M273.06,18.94c-0.46,0-1.06,0.51-1.79,1.53c-0.74,1.02-1.1,1.88-1.1,2.59
		c0,0.37,0.08,0.56,0.23,0.56c0.54,0,1.2-0.48,1.99-1.43s1.18-1.79,1.18-2.51c0-0.23-0.05-0.41-0.15-0.54S273.19,18.94,273.06,18.94
		z"/>
	<path d="M279.77,19.47c-0.04,0-0.17,0.51-0.39,1.52c-0.22,1.02-0.32,1.63-0.32,1.85c0,0.37,0.04,0.63,0.12,0.78
		c0.08,0.15,0.21,0.22,0.39,0.22c0.25,0,0.5-0.04,0.73-0.13c0.24-0.09,0.54-0.29,0.93-0.6c0.24-0.2,0.44-0.29,0.6-0.29
		c0.13,0,0.24,0.04,0.32,0.11c0.08,0.08,0.12,0.16,0.12,0.26c0,0.4-0.32,0.86-0.97,1.36c-0.65,0.51-1.33,0.76-2.05,0.76
		c-0.6,0-1.06-0.18-1.38-0.53c-0.32-0.36-0.47-0.87-0.47-1.53c0-0.62,0.23-1.84,0.69-3.68c-0.29,0.03-0.5,0.05-0.61,0.05h-0.14
		c-0.21,0-0.42-0.07-0.64-0.21c-0.22-0.14-0.32-0.36-0.32-0.66c0-0.38,0.22-0.57,0.65-0.57l1.46-0.05c0.19-0.55,0.39-1.27,0.61-2.17
		c0.13-0.56,0.42-0.83,0.87-0.83c0.25,0,0.45,0.08,0.59,0.23c0.14,0.15,0.21,0.32,0.21,0.51c0,0.07-0.19,0.78-0.58,2.11
		c1.45-0.13,2.24-0.19,2.39-0.19c0.24,0,0.4,0.04,0.48,0.11c0.08,0.07,0.12,0.21,0.12,0.41c0,0.41-0.34,0.66-1.03,0.77L279.77,19.47
		z"/>
	<path d="M289.97,21.56c-0.31,1.07-0.89,1.97-1.74,2.7s-1.71,1.1-2.56,1.1c-0.67,0-1.23-0.25-1.67-0.74s-0.66-1.1-0.66-1.82
		c0-1.18,0.4-2.33,1.2-3.47c0.8-1.14,1.77-1.71,2.92-1.71c0.78,0,1.41,0.29,1.89,0.86c0.48,0.58,0.72,1.26,0.72,2.06
		C290.09,20.88,290.05,21.22,289.97,21.56L289.97,21.56z M286.42,19.4c-0.32,0.28-0.63,0.73-0.94,1.35
		c-0.31,0.62-0.46,1.24-0.46,1.87c0,0.38,0.07,0.69,0.21,0.94c0.14,0.25,0.32,0.37,0.55,0.37c0.56,0,1.15-0.33,1.76-1
		c0.61-0.67,0.92-1.42,0.92-2.26c0-0.47-0.1-0.86-0.3-1.16s-0.47-0.45-0.83-0.45C287,19.05,286.69,19.17,286.42,19.4L286.42,19.4z"
		/>
	<path d="M293.11,21.63l0.12-0.22c0.55-1.11,1.14-2.01,1.78-2.7s1.26-1.04,1.86-1.04c0.46,0,0.84,0.13,1.14,0.38
		s0.44,0.56,0.44,0.91c0,0.22-0.05,0.41-0.15,0.56c-0.1,0.16-0.24,0.24-0.42,0.24c-0.28,0-0.54-0.12-0.77-0.35
		c-0.16-0.15-0.29-0.23-0.39-0.23c-0.34,0-0.91,0.53-1.72,1.59c-0.8,1.06-1.29,2.26-1.45,3.58c-0.05,0.38-0.16,0.65-0.33,0.8
		c-0.17,0.15-0.41,0.23-0.7,0.23c-0.31,0-0.54-0.18-0.67-0.54c-0.13-0.36-0.2-0.94-0.2-1.75c0-0.33,0.01-0.78,0.03-1.35
		c0.02-0.53,0.07-1.19,0.16-1.96c0.02-0.2,0.04-0.36,0.05-0.47c0.04-0.45,0.09-0.75,0.14-0.92c0.05-0.17,0.17-0.32,0.37-0.47
		s0.4-0.22,0.64-0.22c0.25,0,0.43,0.07,0.56,0.21c0.13,0.14,0.19,0.3,0.19,0.46c0,0.21-0.1,0.66-0.31,1.33
		c-0.07,0.23-0.13,0.51-0.18,0.83L293.11,21.63z"/>
</g>
</svg>
