<?xml version="1.0" encoding="utf-8"?>
<!-- Generator: Adobe Illustrator 23.0.3, SVG Export Plug-In . SVG Version: 6.00 Build 0)  -->
<svg version="1.1" id="Слой_1" xmlns="http://www.w3.org/2000/svg" xmlns:xlink="http://www.w3.org/1999/xlink" x="0px" y="0px"
	 viewBox="0 0 330.24 140.79" style="enable-background:new 0 0 330.24 140.79;" xml:space="preserve">
<style type="text/css">
	.st0{fill:none;stroke:#EBEBED;stroke-miterlimit:10;}
	.st1{fill:none;stroke:#000000;stroke-miterlimit:10;}
	.st2{fill:#FFFFFF;stroke:#000000;stroke-width:2;stroke-miterlimit:10;}
	.st3{fill:#FFFFFF;}
</style>
<g>
	<rect x="248.84" y="48.01" class="st0" width="11.17" height="7.47"/>
	<rect x="226.51" y="48.01" class="st0" width="11.16" height="7.47"/>
	<rect x="215.34" y="48.01" class="st0" width="11.17" height="7.47"/>
	<rect x="204.18" y="48.01" class="st0" width="11.17" height="7.47"/>
	<rect x="248.84" y="55.47" class="st0" width="11.17" height="7.47"/>
	<rect x="237.67" y="48.01" class="st0" width="11.17" height="7.47"/>
	<rect x="282.33" y="55.47" class="st0" width="11.17" height="7.47"/>
	<rect x="293.5" y="55.47" class="st0" width="11.16" height="7.47"/>
	<rect x="193.01" y="48.01" class="st0" width="11.16" height="7.47"/>
	<rect x="271.17" y="55.47" class="st0" width="11.16" height="7.47"/>
	<rect x="304.66" y="55.47" class="st0" width="11.16" height="7.47"/>
	<rect x="260" y="55.47" class="st0" width="11.16" height="7.47"/>
	<rect x="315.83" y="55.47" class="st0" width="11.17" height="7.47"/>
	<rect x="181.85" y="40.54" class="st0" width="11.16" height="7.47"/>
	<rect x="326.99" y="48.01" class="st0" width="3.24" height="7.47"/>
	<rect x="315.83" y="48.01" class="st0" width="11.17" height="7.47"/>
	<rect x="315.83" y="100.28" class="st0" width="11.17" height="7.47"/>
	<rect x="326.99" y="100.28" class="st0" width="3.24" height="7.47"/>
	<rect x="304.66" y="100.28" class="st0" width="11.16" height="7.47"/>
	<rect x="304.66" y="48.01" class="st0" width="11.16" height="7.47"/>
	<rect x="260" y="48.01" class="st0" width="11.16" height="7.47"/>
	<rect x="193.01" y="107.74" class="st0" width="11.16" height="7.47"/>
	<rect x="271.17" y="48.01" class="st0" width="11.16" height="7.47"/>
	<rect x="282.33" y="48.01" class="st0" width="11.17" height="7.47"/>
	<rect x="204.18" y="107.74" class="st0" width="11.17" height="7.47"/>
	<rect x="226.51" y="107.74" class="st0" width="11.16" height="7.47"/>
	<rect x="293.5" y="100.28" class="st0" width="11.16" height="7.47"/>
	<rect x="248.84" y="107.74" class="st0" width="11.17" height="7.47"/>
	<rect x="215.34" y="107.74" class="st0" width="11.17" height="7.47"/>
	<rect x="260" y="40.54" class="st0" width="11.16" height="7.47"/>
	<rect x="237.67" y="107.74" class="st0" width="11.17" height="7.47"/>
	<rect x="282.33" y="100.28" class="st0" width="11.17" height="7.47"/>
	<rect x="260" y="107.74" class="st0" width="11.16" height="7.47"/>
	<rect x="282.33" y="107.74" class="st0" width="11.17" height="7.47"/>
	<rect x="271.17" y="107.74" class="st0" width="11.16" height="7.47"/>
	<rect x="293.5" y="48.01" class="st0" width="11.16" height="7.47"/>
	<rect x="92.53" y="40.54" class="st0" width="11.17" height="7.47"/>
	<rect x="103.7" y="40.54" class="st0" width="11.17" height="7.47"/>
	<rect x="137.19" y="40.54" class="st0" width="11.16" height="7.47"/>
	<rect x="126.03" y="40.54" class="st0" width="11.16" height="7.47"/>
	<rect x="81.37" y="40.54" class="st0" width="11.16" height="7.47"/>
	<rect x="114.86" y="40.54" class="st0" width="11.16" height="7.47"/>
	<rect x="47.87" y="48.01" class="st0" width="11.16" height="7.47"/>
	<rect x="70.2" y="40.54" class="st0" width="11.16" height="7.47"/>
	<rect x="59.04" y="48.01" class="st0" width="11.17" height="7.47"/>
	<rect x="59.04" y="40.54" class="st0" width="11.17" height="7.47"/>
	<rect x="215.34" y="40.54" class="st0" width="11.17" height="7.47"/>
	<rect x="204.18" y="40.54" class="st0" width="11.17" height="7.47"/>
	<rect x="226.51" y="40.54" class="st0" width="11.16" height="7.47"/>
	<rect x="248.84" y="40.54" class="st0" width="11.17" height="7.47"/>
	<rect x="148.35" y="40.54" class="st0" width="11.16" height="7.47"/>
	<rect x="237.67" y="40.54" class="st0" width="11.17" height="7.47"/>
	<rect x="170.68" y="40.54" class="st0" width="11.16" height="7.47"/>
	<rect x="193.01" y="40.54" class="st0" width="11.16" height="7.47"/>
	<rect x="159.52" y="40.54" class="st0" width="11.16" height="7.47"/>
	<rect x="326.99" y="55.47" class="st0" width="3.24" height="7.47"/>
	<rect x="92.53" y="107.74" class="st0" width="11.17" height="7.47"/>
	<rect x="36.71" y="55.47" class="st0" width="11.16" height="7.47"/>
	<rect x="25.54" y="55.47" class="st0" width="11.16" height="7.47"/>
	<rect x="47.87" y="55.47" class="st0" width="11.16" height="7.47"/>
	<rect y="77.87" class="st0" width="3.21" height="7.47"/>
	<rect x="14.38" y="55.47" class="st0" width="11.17" height="7.47"/>
	<rect y="62.94" class="st0" width="3.21" height="7.47"/>
	<rect y="70.41" class="st0" width="3.21" height="7.47"/>
	<rect x="70.2" y="55.47" class="st0" width="11.16" height="7.47"/>
	<rect x="3.21" y="55.47" class="st0" width="11.17" height="7.47"/>
	<rect y="55.47" class="st0" width="3.21" height="7.47"/>
	<rect x="59.04" y="55.47" class="st0" width="11.17" height="7.47"/>
	<rect x="148.35" y="48.01" class="st0" width="11.16" height="7.47"/>
	<rect x="70.2" y="48.01" class="st0" width="11.16" height="7.47"/>
	<rect x="181.85" y="107.74" class="st0" width="11.16" height="7.47"/>
	<rect x="159.52" y="48.01" class="st0" width="11.16" height="7.47"/>
	<rect x="170.68" y="48.01" class="st0" width="11.16" height="7.47"/>
	<rect x="126.03" y="48.01" class="st0" width="11.16" height="7.47"/>
	<rect x="92.53" y="48.01" class="st0" width="11.17" height="7.47"/>
	<rect x="81.37" y="48.01" class="st0" width="11.16" height="7.47"/>
	<rect x="114.86" y="48.01" class="st0" width="11.16" height="7.47"/>
	<rect x="103.7" y="48.01" class="st0" width="11.17" height="7.47"/>
	<rect x="137.19" y="48.01" class="st0" width="11.16" height="7.47"/>
	<rect x="70.2" y="107.74" class="st0" width="11.16" height="7.47"/>
	<rect x="126.03" y="107.74" class="st0" width="11.16" height="7.47"/>
	<rect x="114.86" y="107.74" class="st0" width="11.16" height="7.47"/>
	<rect x="81.37" y="107.74" class="st0" width="11.16" height="7.47"/>
	<rect x="181.85" y="48.01" class="st0" width="11.16" height="7.47"/>
	<rect x="103.7" y="107.74" class="st0" width="11.17" height="7.47"/>
	<rect x="137.19" y="107.74" class="st0" width="11.16" height="7.47"/>
	<rect x="159.52" y="107.74" class="st0" width="11.16" height="7.47"/>
	<rect x="170.68" y="107.74" class="st0" width="11.16" height="7.47"/>
	<rect x="148.35" y="107.74" class="st0" width="11.16" height="7.47"/>
	<rect y="85.34" class="st0" width="3.21" height="7.47"/>
	<rect y="100.28" class="st0" width="3.21" height="7.47"/>
	<rect x="3.21" y="100.28" class="st0" width="11.17" height="7.47"/>
	<rect y="92.81" class="st0" width="3.21" height="7.47"/>
	<rect x="14.38" y="100.28" class="st0" width="11.17" height="7.47"/>
	<rect x="36.71" y="107.74" class="st0" width="11.16" height="7.47"/>
	<rect x="25.54" y="100.28" class="st0" width="11.16" height="7.47"/>
	<rect x="59.04" y="107.74" class="st0" width="11.17" height="7.47"/>
	<rect x="47.87" y="107.74" class="st0" width="11.16" height="7.47"/>
	<rect x="36.71" y="100.28" class="st0" width="11.16" height="7.47"/>
	<rect x="204.18" y="55.47" class="st0" width="11.17" height="7.47"/>
	<rect x="248.84" y="70.41" class="st0" width="11.17" height="7.47"/>
	<rect x="304.66" y="70.41" class="st0" width="11.16" height="7.47"/>
	<rect x="260" y="70.41" class="st0" width="11.16" height="7.47"/>
	<rect x="282.33" y="70.41" class="st0" width="11.17" height="7.47"/>
	<rect x="293.5" y="70.41" class="st0" width="11.16" height="7.47"/>
	<rect x="326.99" y="92.81" class="st0" width="3.24" height="7.47"/>
	<rect x="204.18" y="62.94" class="st0" width="11.17" height="7.47"/>
	<rect x="215.34" y="62.94" class="st0" width="11.17" height="7.47"/>
	<rect x="226.51" y="70.41" class="st0" width="11.16" height="7.47"/>
	<rect x="226.51" y="62.94" class="st0" width="11.16" height="7.47"/>
	<rect x="237.67" y="70.41" class="st0" width="11.17" height="7.47"/>
	<rect x="260" y="77.87" class="st0" width="11.16" height="7.47"/>
	<rect x="282.33" y="77.87" class="st0" width="11.17" height="7.47"/>
	<rect x="59.04" y="85.34" class="st0" width="11.17" height="7.47"/>
	<rect x="271.17" y="77.87" class="st0" width="11.16" height="7.47"/>
	<rect x="248.84" y="77.87" class="st0" width="11.17" height="7.47"/>
	<rect x="248.84" y="85.34" class="st0" width="11.17" height="7.47"/>
	<rect x="315.83" y="70.41" class="st0" width="11.17" height="7.47"/>
	<rect x="293.5" y="77.87" class="st0" width="11.16" height="7.47"/>
	<rect x="326.99" y="77.87" class="st0" width="3.24" height="7.47"/>
	<rect x="326.99" y="70.41" class="st0" width="3.24" height="7.47"/>
	<rect x="315.83" y="77.87" class="st0" width="11.17" height="7.47"/>
	<rect x="304.66" y="77.87" class="st0" width="11.16" height="7.47"/>
	<rect x="148.35" y="62.94" class="st0" width="11.16" height="7.47"/>
	<rect x="70.2" y="70.41" class="st0" width="11.16" height="7.47"/>
	<rect x="36.71" y="70.41" class="st0" width="11.16" height="7.47"/>
	<rect x="59.04" y="70.41" class="st0" width="11.17" height="7.47"/>
	<rect x="47.87" y="70.41" class="st0" width="11.16" height="7.47"/>
	<rect x="14.38" y="70.41" class="st0" width="11.17" height="7.47"/>
	<rect x="25.54" y="70.41" class="st0" width="11.16" height="7.47"/>
	<rect x="36.71" y="85.34" class="st0" width="11.16" height="7.47"/>
	<rect x="181.85" y="62.94" class="st0" width="11.16" height="7.47"/>
	<rect x="14.38" y="85.34" class="st0" width="11.17" height="7.47"/>
	<rect x="25.54" y="85.34" class="st0" width="11.16" height="7.47"/>
	<rect x="14.38" y="77.87" class="st0" width="11.17" height="7.47"/>
	<rect x="47.87" y="85.34" class="st0" width="11.16" height="7.47"/>
	<rect x="137.19" y="62.94" class="st0" width="11.16" height="7.47"/>
	<rect x="126.03" y="62.94" class="st0" width="11.16" height="7.47"/>
	<rect x="237.67" y="85.34" class="st0" width="11.17" height="7.47"/>
	<rect x="81.37" y="70.41" class="st0" width="11.16" height="7.47"/>
	<rect x="170.68" y="62.94" class="st0" width="11.16" height="7.47"/>
	<rect x="159.52" y="62.94" class="st0" width="11.16" height="7.47"/>
	<rect x="92.53" y="70.41" class="st0" width="11.17" height="7.47"/>
	<rect x="92.53" y="62.94" class="st0" width="11.17" height="7.47"/>
	<rect x="114.86" y="62.94" class="st0" width="11.16" height="7.47"/>
	<rect x="103.7" y="62.94" class="st0" width="11.17" height="7.47"/>
	<rect x="193.01" y="62.94" class="st0" width="11.16" height="7.47"/>
	<rect x="215.34" y="70.41" class="st0" width="11.17" height="7.47"/>
	<rect x="215.34" y="77.87" class="st0" width="11.17" height="7.47"/>
	<rect x="170.68" y="77.87" class="st0" width="11.16" height="7.47"/>
	<rect x="193.01" y="77.87" class="st0" width="11.16" height="7.47"/>
	<rect x="181.85" y="77.87" class="st0" width="11.16" height="7.47"/>
	<rect x="204.18" y="77.87" class="st0" width="11.17" height="7.47"/>
	<rect x="170.68" y="70.41" class="st0" width="11.16" height="7.47"/>
	<rect x="204.18" y="70.41" class="st0" width="11.17" height="7.47"/>
	<rect x="159.52" y="70.41" class="st0" width="11.16" height="7.47"/>
	<rect x="181.85" y="70.41" class="st0" width="11.16" height="7.47"/>
	<rect x="193.01" y="70.41" class="st0" width="11.16" height="7.47"/>
	<rect x="59.04" y="77.87" class="st0" width="11.17" height="7.47"/>
	<rect x="148.35" y="70.41" class="st0" width="11.16" height="7.47"/>
	<rect x="47.87" y="77.87" class="st0" width="11.16" height="7.47"/>
	<rect x="36.71" y="77.87" class="st0" width="11.16" height="7.47"/>
	<rect x="159.52" y="77.87" class="st0" width="11.16" height="7.47"/>
	<rect x="237.67" y="77.87" class="st0" width="11.17" height="7.47"/>
	<rect x="25.54" y="77.87" class="st0" width="11.16" height="7.47"/>
	<rect x="148.35" y="77.87" class="st0" width="11.16" height="7.47"/>
	<rect x="137.19" y="77.87" class="st0" width="11.16" height="7.47"/>
	<rect x="126.03" y="77.87" class="st0" width="11.16" height="7.47"/>
	<rect x="114.86" y="77.87" class="st0" width="11.16" height="7.47"/>
	<rect x="226.51" y="77.87" class="st0" width="11.16" height="7.47"/>
	<rect x="159.52" y="85.34" class="st0" width="11.16" height="7.47"/>
	<rect x="137.19" y="85.34" class="st0" width="11.16" height="7.47"/>
	<rect x="148.35" y="85.34" class="st0" width="11.16" height="7.47"/>
	<rect x="137.19" y="70.41" class="st0" width="11.16" height="7.47"/>
	<rect x="103.7" y="85.34" class="st0" width="11.17" height="7.47"/>
	<rect x="114.86" y="85.34" class="st0" width="11.16" height="7.47"/>
	<rect x="226.51" y="85.34" class="st0" width="11.16" height="7.47"/>
	<rect x="204.18" y="85.34" class="st0" width="11.17" height="7.47"/>
	<rect x="215.34" y="85.34" class="st0" width="11.17" height="7.47"/>
	<rect x="170.68" y="85.34" class="st0" width="11.16" height="7.47"/>
	<rect x="181.85" y="85.34" class="st0" width="11.16" height="7.47"/>
	<rect x="193.01" y="85.34" class="st0" width="11.16" height="7.47"/>
	<rect x="126.03" y="85.34" class="st0" width="11.16" height="7.47"/>
	<rect x="103.7" y="77.87" class="st0" width="11.17" height="7.47"/>
	<rect x="92.53" y="77.87" class="st0" width="11.17" height="7.47"/>
	<rect x="103.7" y="70.41" class="st0" width="11.17" height="7.47"/>
	<rect x="114.86" y="70.41" class="st0" width="11.16" height="7.47"/>
	<rect x="126.03" y="70.41" class="st0" width="11.16" height="7.47"/>
	<rect x="81.37" y="85.34" class="st0" width="11.16" height="7.47"/>
	<rect x="81.37" y="77.87" class="st0" width="11.16" height="7.47"/>
	<rect x="70.2" y="85.34" class="st0" width="11.16" height="7.47"/>
	<rect x="92.53" y="85.34" class="st0" width="11.17" height="7.47"/>
	<rect x="70.2" y="77.87" class="st0" width="11.16" height="7.47"/>
	<rect x="271.17" y="70.41" class="st0" width="11.16" height="7.47"/>
	<rect x="3.21" y="92.81" class="st0" width="11.17" height="7.47"/>
	<rect x="81.37" y="100.28" class="st0" width="11.16" height="7.47"/>
	<rect x="114.86" y="55.47" class="st0" width="11.16" height="7.47"/>
	<rect x="3.21" y="77.87" class="st0" width="11.17" height="7.47"/>
	<rect x="3.21" y="70.41" class="st0" width="11.17" height="7.47"/>
	<rect x="25.54" y="92.81" class="st0" width="11.16" height="7.47"/>
	<rect x="59.04" y="100.28" class="st0" width="11.17" height="7.47"/>
	<rect x="70.2" y="100.28" class="st0" width="11.16" height="7.47"/>
	<rect x="36.71" y="92.81" class="st0" width="11.16" height="7.47"/>
	<rect x="47.87" y="92.81" class="st0" width="11.16" height="7.47"/>
	<rect x="47.87" y="100.28" class="st0" width="11.16" height="7.47"/>
	<rect x="14.38" y="92.81" class="st0" width="11.17" height="7.47"/>
	<rect x="81.37" y="62.94" class="st0" width="11.16" height="7.47"/>
	<rect x="81.37" y="55.47" class="st0" width="11.16" height="7.47"/>
	<rect x="70.2" y="62.94" class="st0" width="11.16" height="7.47"/>
	<rect x="92.53" y="55.47" class="st0" width="11.17" height="7.47"/>
	<rect x="103.7" y="55.47" class="st0" width="11.17" height="7.47"/>
	<rect x="36.71" y="62.94" class="st0" width="11.16" height="7.47"/>
	<rect x="14.38" y="62.94" class="st0" width="11.17" height="7.47"/>
	<rect x="25.54" y="62.94" class="st0" width="11.16" height="7.47"/>
	<rect x="3.21" y="62.94" class="st0" width="11.17" height="7.47"/>
	<rect x="47.87" y="62.94" class="st0" width="11.16" height="7.47"/>
	<rect x="59.04" y="62.94" class="st0" width="11.17" height="7.47"/>
	<rect x="3.21" y="85.34" class="st0" width="11.17" height="7.47"/>
	<rect x="260" y="100.28" class="st0" width="11.16" height="7.47"/>
	<rect x="271.17" y="100.28" class="st0" width="11.16" height="7.47"/>
	<rect x="248.84" y="100.28" class="st0" width="11.17" height="7.47"/>
	<rect x="215.34" y="100.28" class="st0" width="11.17" height="7.47"/>
	<rect x="92.53" y="100.28" class="st0" width="11.17" height="7.47"/>
	<rect x="237.67" y="100.28" class="st0" width="11.17" height="7.47"/>
	<rect x="315.83" y="92.81" class="st0" width="11.17" height="7.47"/>
	<rect x="271.17" y="92.81" class="st0" width="11.16" height="7.47"/>
	<rect x="304.66" y="92.81" class="st0" width="11.16" height="7.47"/>
	<rect x="293.5" y="92.81" class="st0" width="11.16" height="7.47"/>
	<rect x="282.33" y="92.81" class="st0" width="11.17" height="7.47"/>
	<rect x="226.51" y="100.28" class="st0" width="11.16" height="7.47"/>
	<rect x="137.19" y="100.28" class="st0" width="11.16" height="7.47"/>
	<rect x="148.35" y="100.28" class="st0" width="11.16" height="7.47"/>
	<rect x="126.03" y="100.28" class="st0" width="11.16" height="7.47"/>
	<rect x="103.7" y="100.28" class="st0" width="11.17" height="7.47"/>
	<rect x="114.86" y="100.28" class="st0" width="11.16" height="7.47"/>
	<rect x="204.18" y="100.28" class="st0" width="11.17" height="7.47"/>
	<rect x="181.85" y="100.28" class="st0" width="11.16" height="7.47"/>
	<rect x="193.01" y="100.28" class="st0" width="11.16" height="7.47"/>
	<rect x="159.52" y="100.28" class="st0" width="11.16" height="7.47"/>
	<rect x="170.68" y="100.28" class="st0" width="11.16" height="7.47"/>
	<rect x="148.35" y="55.47" class="st0" width="11.16" height="7.47"/>
	<rect x="215.34" y="92.81" class="st0" width="11.17" height="7.47"/>
	<rect x="237.67" y="92.81" class="st0" width="11.17" height="7.47"/>
	<rect x="226.51" y="92.81" class="st0" width="11.16" height="7.47"/>
	<rect x="204.18" y="92.81" class="st0" width="11.17" height="7.47"/>
	<rect x="193.01" y="92.81" class="st0" width="11.16" height="7.47"/>
	<rect x="181.85" y="92.81" class="st0" width="11.16" height="7.47"/>
	<rect x="282.33" y="85.34" class="st0" width="11.17" height="7.47"/>
	<rect x="248.84" y="92.81" class="st0" width="11.17" height="7.47"/>
	<rect x="271.17" y="85.34" class="st0" width="11.16" height="7.47"/>
	<rect x="260" y="85.34" class="st0" width="11.16" height="7.47"/>
	<rect x="260" y="92.81" class="st0" width="11.16" height="7.47"/>
	<rect x="159.52" y="92.81" class="st0" width="11.16" height="7.47"/>
	<rect x="103.7" y="92.81" class="st0" width="11.17" height="7.47"/>
	<rect x="92.53" y="92.81" class="st0" width="11.17" height="7.47"/>
	<rect x="70.2" y="92.81" class="st0" width="11.16" height="7.47"/>
	<rect x="81.37" y="92.81" class="st0" width="11.16" height="7.47"/>
	<rect x="114.86" y="92.81" class="st0" width="11.16" height="7.47"/>
	<rect x="137.19" y="92.81" class="st0" width="11.16" height="7.47"/>
	<rect x="126.03" y="92.81" class="st0" width="11.16" height="7.47"/>
	<rect x="293.5" y="85.34" class="st0" width="11.16" height="7.47"/>
	<rect x="148.35" y="92.81" class="st0" width="11.16" height="7.47"/>
	<rect x="170.68" y="92.81" class="st0" width="11.16" height="7.47"/>
	<rect x="226.51" y="55.47" class="st0" width="11.16" height="7.47"/>
	<rect x="36.71" y="48.01" class="st0" width="11.16" height="7.47"/>
	<rect x="193.01" y="55.47" class="st0" width="11.16" height="7.47"/>
	<rect x="215.34" y="55.47" class="st0" width="11.17" height="7.47"/>
	<rect x="304.66" y="85.34" class="st0" width="11.16" height="7.47"/>
	<rect x="126.03" y="55.47" class="st0" width="11.16" height="7.47"/>
	<rect x="170.68" y="55.47" class="st0" width="11.16" height="7.47"/>
	<rect x="59.04" y="92.81" class="st0" width="11.17" height="7.47"/>
	<rect x="137.19" y="55.47" class="st0" width="11.16" height="7.47"/>
	<rect x="237.67" y="62.94" class="st0" width="11.17" height="7.47"/>
	<rect x="181.85" y="55.47" class="st0" width="11.16" height="7.47"/>
	<rect x="159.52" y="55.47" class="st0" width="11.16" height="7.47"/>
	<rect x="237.67" y="55.47" class="st0" width="11.17" height="7.47"/>
	<rect x="304.66" y="62.94" class="st0" width="11.16" height="7.47"/>
	<rect x="248.84" y="62.94" class="st0" width="11.17" height="7.47"/>
	<rect x="326.99" y="62.94" class="st0" width="3.24" height="7.47"/>
	<rect x="315.83" y="85.34" class="st0" width="11.17" height="7.47"/>
	<rect x="326.99" y="85.34" class="st0" width="3.24" height="7.47"/>
	<rect x="315.83" y="62.94" class="st0" width="11.17" height="7.47"/>
	<rect x="293.5" y="62.94" class="st0" width="11.16" height="7.47"/>
	<rect x="271.17" y="62.94" class="st0" width="11.16" height="7.47"/>
	<rect x="260" y="62.94" class="st0" width="11.16" height="7.47"/>
	<rect x="282.33" y="62.94" class="st0" width="11.17" height="7.47"/>
	<rect x="260" y="3.21" class="st0" width="11.16" height="7.47"/>
	<rect x="215.34" y="0.03" class="st0" width="11.17" height="3.18"/>
	<rect x="204.18" y="0.03" class="st0" width="11.17" height="3.18"/>
	<rect x="36.71" y="18.14" class="st0" width="11.16" height="7.47"/>
	<rect x="148.35" y="137.61" class="st0" width="11.16" height="3.18"/>
	<rect x="181.85" y="0.03" class="st0" width="11.16" height="3.18"/>
	<rect x="237.67" y="0.03" class="st0" width="11.17" height="3.18"/>
	<rect x="282.33" y="0.03" class="st0" width="11.17" height="3.18"/>
	<rect x="271.17" y="0.03" class="st0" width="11.16" height="3.18"/>
	<rect x="260" y="0.03" class="st0" width="11.16" height="3.18"/>
	<rect x="248.84" y="0.03" class="st0" width="11.17" height="3.18"/>
	<rect x="170.68" y="0.03" class="st0" width="11.16" height="3.18"/>
	<rect x="25.54" y="25.61" class="st0" width="11.16" height="7.47"/>
	<rect x="3.21" y="25.61" class="st0" width="11.17" height="7.47"/>
	<rect x="14.38" y="25.61" class="st0" width="11.17" height="7.47"/>
	<rect x="159.52" y="0.03" class="st0" width="11.16" height="3.18"/>
	<rect x="25.54" y="18.14" class="st0" width="11.16" height="7.47"/>
	<rect y="25.61" class="st0" width="3.21" height="7.47"/>
	<rect x="137.19" y="0.03" class="st0" width="11.16" height="3.18"/>
	<rect x="148.35" y="0.03" class="st0" width="11.16" height="3.18"/>
	<rect x="126.03" y="0.03" class="st0" width="11.16" height="3.18"/>
	<rect x="226.51" y="0.03" class="st0" width="11.16" height="3.18"/>
	<rect x="70.2" y="137.61" class="st0" width="11.16" height="3.18"/>
	<rect x="36.71" y="137.61" class="st0" width="11.16" height="3.18"/>
	<rect x="59.04" y="137.61" class="st0" width="11.17" height="3.18"/>
	<rect x="92.53" y="137.61" class="st0" width="11.17" height="3.18"/>
	<rect x="47.87" y="137.61" class="st0" width="11.16" height="3.18"/>
	<rect x="81.37" y="137.61" class="st0" width="11.16" height="3.18"/>
	<rect x="126.03" y="137.61" class="st0" width="11.16" height="3.18"/>
	<rect x="137.19" y="137.61" class="st0" width="11.16" height="3.18"/>
	<rect x="103.7" y="137.61" class="st0" width="11.17" height="3.18"/>
	<rect x="114.86" y="137.61" class="st0" width="11.16" height="3.18"/>
	<rect y="130.14" class="st0" width="3.21" height="7.47"/>
	<rect x="326.99" y="3.21" class="st0" width="3.24" height="7.47"/>
	<rect x="315.83" y="0.03" class="st0" width="11.17" height="3.18"/>
	<rect x="326.99" y="0.03" class="st0" width="3.24" height="3.18"/>
	<rect x="25.54" y="137.61" class="st0" width="11.16" height="3.18"/>
	<rect x="304.66" y="0.03" class="st0" width="11.16" height="3.18"/>
	<rect x="293.5" y="0.03" class="st0" width="11.16" height="3.18"/>
	<rect x="14.38" y="137.61" class="st0" width="11.17" height="3.18"/>
	<rect x="3.21" y="137.61" class="st0" width="11.17" height="3.18"/>
	<rect y="137.61" class="st0" width="3.21" height="3.18"/>
	<rect x="193.01" y="0.03" class="st0" width="11.16" height="3.18"/>
	<rect x="114.86" y="0.03" class="st0" width="11.16" height="3.18"/>
	<rect x="103.7" y="0.03" class="st0" width="11.17" height="3.18"/>
	<rect x="92.53" y="0.03" class="st0" width="11.17" height="3.18"/>
	<rect x="81.37" y="0.03" class="st0" width="11.16" height="3.18"/>
	<rect x="25.54" y="48.01" class="st0" width="11.16" height="7.47"/>
	<rect x="326.99" y="25.61" class="st0" width="3.24" height="7.47"/>
	<rect x="315.83" y="25.61" class="st0" width="11.17" height="7.47"/>
	<rect x="293.5" y="18.14" class="st0" width="11.16" height="7.47"/>
	<rect x="293.5" y="25.61" class="st0" width="11.16" height="7.47"/>
	<rect x="304.66" y="25.61" class="st0" width="11.16" height="7.47"/>
	<rect y="0.03" class="st0" width="3.21" height="3.18"/>
	<rect y="3.21" class="st0" width="3.21" height="7.47"/>
	<rect x="3.21" y="0.03" class="st0" width="11.17" height="3.18"/>
	<rect x="282.33" y="18.14" class="st0" width="11.17" height="7.47"/>
	<rect x="326.99" y="122.67" class="st0" width="3.24" height="7.47"/>
	<rect x="47.87" y="0.03" class="st0" width="11.16" height="3.18"/>
	<rect x="36.71" y="0.03" class="st0" width="11.16" height="3.18"/>
	<rect x="14.38" y="0.03" class="st0" width="11.17" height="3.18"/>
	<rect x="59.04" y="0.03" class="st0" width="11.17" height="3.18"/>
	<rect x="25.54" y="0.03" class="st0" width="11.16" height="3.18"/>
	<rect x="114.86" y="18.14" class="st0" width="11.16" height="7.47"/>
	<rect x="126.03" y="18.14" class="st0" width="11.16" height="7.47"/>
	<rect x="103.7" y="18.14" class="st0" width="11.17" height="7.47"/>
	<rect x="47.87" y="18.14" class="st0" width="11.16" height="7.47"/>
	<rect x="137.19" y="18.14" class="st0" width="11.16" height="7.47"/>
	<rect x="148.35" y="18.14" class="st0" width="11.16" height="7.47"/>
	<rect x="70.2" y="18.14" class="st0" width="11.16" height="7.47"/>
	<rect x="59.04" y="18.14" class="st0" width="11.17" height="7.47"/>
	<rect x="92.53" y="18.14" class="st0" width="11.17" height="7.47"/>
	<rect x="159.52" y="18.14" class="st0" width="11.16" height="7.47"/>
	<rect x="81.37" y="18.14" class="st0" width="11.16" height="7.47"/>
	<rect x="271.17" y="18.14" class="st0" width="11.16" height="7.47"/>
	<rect x="237.67" y="18.14" class="st0" width="11.17" height="7.47"/>
	<rect x="170.68" y="18.14" class="st0" width="11.16" height="7.47"/>
	<rect x="248.84" y="18.14" class="st0" width="11.17" height="7.47"/>
	<rect x="260" y="18.14" class="st0" width="11.16" height="7.47"/>
	<rect x="226.51" y="18.14" class="st0" width="11.16" height="7.47"/>
	<rect x="193.01" y="18.14" class="st0" width="11.16" height="7.47"/>
	<rect x="215.34" y="18.14" class="st0" width="11.17" height="7.47"/>
	<rect x="181.85" y="18.14" class="st0" width="11.16" height="7.47"/>
	<rect x="204.18" y="18.14" class="st0" width="11.17" height="7.47"/>
	<rect x="159.52" y="137.61" class="st0" width="11.16" height="3.18"/>
	<rect x="36.71" y="3.21" class="st0" width="11.16" height="7.47"/>
	<rect x="25.54" y="3.21" class="st0" width="11.16" height="7.47"/>
	<rect x="103.7" y="3.21" class="st0" width="11.17" height="7.47"/>
	<rect x="47.87" y="3.21" class="st0" width="11.16" height="7.47"/>
	<rect x="3.21" y="3.21" class="st0" width="11.17" height="7.47"/>
	<rect x="92.53" y="3.21" class="st0" width="11.17" height="7.47"/>
	<rect x="3.21" y="10.68" class="st0" width="11.17" height="7.47"/>
	<rect x="81.37" y="3.21" class="st0" width="11.16" height="7.47"/>
	<rect x="70.2" y="3.21" class="st0" width="11.16" height="7.47"/>
	<rect x="59.04" y="3.21" class="st0" width="11.17" height="7.47"/>
	<rect x="14.38" y="3.21" class="st0" width="11.17" height="7.47"/>
	<rect y="10.68" class="st0" width="3.21" height="7.47"/>
	<rect x="47.87" y="10.68" class="st0" width="11.16" height="7.47"/>
	<rect x="59.04" y="10.68" class="st0" width="11.17" height="7.47"/>
	<rect x="25.54" y="10.68" class="st0" width="11.16" height="7.47"/>
	<rect x="36.71" y="10.68" class="st0" width="11.16" height="7.47"/>
	<rect y="18.14" class="st0" width="3.21" height="7.47"/>
	<rect x="3.21" y="18.14" class="st0" width="11.17" height="7.47"/>
	<rect x="14.38" y="18.14" class="st0" width="11.17" height="7.47"/>
	<rect x="14.38" y="10.68" class="st0" width="11.17" height="7.47"/>
	<rect x="137.19" y="3.21" class="st0" width="11.16" height="7.47"/>
	<rect x="271.17" y="3.21" class="st0" width="11.16" height="7.47"/>
	<rect x="326.99" y="10.68" class="st0" width="3.24" height="7.47"/>
	<rect x="282.33" y="3.21" class="st0" width="11.17" height="7.47"/>
	<rect x="248.84" y="3.21" class="st0" width="11.17" height="7.47"/>
	<rect x="226.51" y="3.21" class="st0" width="11.16" height="7.47"/>
	<rect x="237.67" y="3.21" class="st0" width="11.17" height="7.47"/>
	<rect x="315.83" y="10.68" class="st0" width="11.17" height="7.47"/>
	<rect x="304.66" y="3.21" class="st0" width="11.16" height="7.47"/>
	<rect x="293.5" y="3.21" class="st0" width="11.16" height="7.47"/>
	<rect x="315.83" y="3.21" class="st0" width="11.17" height="7.47"/>
	<rect x="70.2" y="10.68" class="st0" width="11.16" height="7.47"/>
	<rect x="315.83" y="122.67" class="st0" width="11.17" height="7.47"/>
	<rect x="114.86" y="3.21" class="st0" width="11.16" height="7.47"/>
	<rect x="148.35" y="3.21" class="st0" width="11.16" height="7.47"/>
	<rect x="126.03" y="3.21" class="st0" width="11.16" height="7.47"/>
	<rect x="215.34" y="3.21" class="st0" width="11.17" height="7.47"/>
	<rect x="204.18" y="3.21" class="st0" width="11.17" height="7.47"/>
	<rect x="170.68" y="3.21" class="st0" width="11.16" height="7.47"/>
	<rect x="193.01" y="3.21" class="st0" width="11.16" height="7.47"/>
	<rect x="181.85" y="3.21" class="st0" width="11.16" height="7.47"/>
	<rect x="159.52" y="3.21" class="st0" width="11.16" height="7.47"/>
	<rect x="271.17" y="137.61" class="st0" width="11.16" height="3.18"/>
	<rect x="326.99" y="137.61" class="st0" width="3.24" height="3.18"/>
	<rect x="315.83" y="137.61" class="st0" width="11.17" height="3.18"/>
	<rect x="282.33" y="137.61" class="st0" width="11.17" height="3.18"/>
	<rect x="293.5" y="137.61" class="st0" width="11.16" height="3.18"/>
	<rect x="304.66" y="137.61" class="st0" width="11.16" height="3.18"/>
	<rect x="315.83" y="18.14" class="st0" width="11.17" height="7.47"/>
	<rect x="304.66" y="10.68" class="st0" width="11.16" height="7.47"/>
	<rect x="304.66" y="18.14" class="st0" width="11.16" height="7.47"/>
	<rect x="326.99" y="18.14" class="st0" width="3.24" height="7.47"/>
	<rect x="326.99" y="130.14" class="st0" width="3.24" height="7.47"/>
	<rect x="193.01" y="137.61" class="st0" width="11.16" height="3.18"/>
	<rect x="260" y="137.61" class="st0" width="11.16" height="3.18"/>
	<rect x="170.68" y="137.61" class="st0" width="11.16" height="3.18"/>
	<rect x="204.18" y="137.61" class="st0" width="11.17" height="3.18"/>
	<rect x="181.85" y="137.61" class="st0" width="11.16" height="3.18"/>
	<rect x="248.84" y="137.61" class="st0" width="11.17" height="3.18"/>
	<rect x="237.67" y="137.61" class="st0" width="11.17" height="3.18"/>
	<rect x="215.34" y="137.61" class="st0" width="11.17" height="3.18"/>
	<rect x="226.51" y="137.61" class="st0" width="11.16" height="3.18"/>
	<rect x="204.18" y="10.68" class="st0" width="11.17" height="7.47"/>
	<rect x="148.35" y="10.68" class="st0" width="11.16" height="7.47"/>
	<rect x="181.85" y="10.68" class="st0" width="11.16" height="7.47"/>
	<rect x="159.52" y="10.68" class="st0" width="11.16" height="7.47"/>
	<rect x="170.68" y="10.68" class="st0" width="11.16" height="7.47"/>
	<rect x="137.19" y="10.68" class="st0" width="11.16" height="7.47"/>
	<rect x="103.7" y="10.68" class="st0" width="11.17" height="7.47"/>
	<rect x="126.03" y="10.68" class="st0" width="11.16" height="7.47"/>
	<rect x="92.53" y="10.68" class="st0" width="11.17" height="7.47"/>
	<rect x="114.86" y="10.68" class="st0" width="11.16" height="7.47"/>
	<rect x="282.33" y="10.68" class="st0" width="11.17" height="7.47"/>
	<rect x="271.17" y="10.68" class="st0" width="11.16" height="7.47"/>
	<rect x="248.84" y="10.68" class="st0" width="11.17" height="7.47"/>
	<rect x="260" y="10.68" class="st0" width="11.16" height="7.47"/>
	<rect x="193.01" y="10.68" class="st0" width="11.16" height="7.47"/>
	<rect x="293.5" y="10.68" class="st0" width="11.16" height="7.47"/>
	<rect x="215.34" y="10.68" class="st0" width="11.17" height="7.47"/>
	<rect x="81.37" y="10.68" class="st0" width="11.16" height="7.47"/>
	<rect x="226.51" y="10.68" class="st0" width="11.16" height="7.47"/>
	<rect x="237.67" y="10.68" class="st0" width="11.17" height="7.47"/>
	<rect x="70.2" y="0.03" class="st0" width="11.16" height="3.18"/>
	<rect x="137.19" y="33.08" class="st0" width="11.16" height="7.47"/>
	<rect x="126.03" y="33.08" class="st0" width="11.16" height="7.47"/>
	<rect x="159.52" y="33.08" class="st0" width="11.16" height="7.47"/>
	<rect x="114.86" y="33.08" class="st0" width="11.16" height="7.47"/>
	<rect x="148.35" y="33.08" class="st0" width="11.16" height="7.47"/>
	<rect x="70.2" y="33.08" class="st0" width="11.16" height="7.47"/>
	<rect x="81.37" y="33.08" class="st0" width="11.16" height="7.47"/>
	<rect x="170.68" y="33.08" class="st0" width="11.16" height="7.47"/>
	<rect x="92.53" y="33.08" class="st0" width="11.17" height="7.47"/>
	<rect x="103.7" y="33.08" class="st0" width="11.17" height="7.47"/>
	<rect x="248.84" y="33.08" class="st0" width="11.17" height="7.47"/>
	<rect x="260" y="33.08" class="st0" width="11.16" height="7.47"/>
	<rect x="237.67" y="33.08" class="st0" width="11.17" height="7.47"/>
	<rect x="59.04" y="33.08" class="st0" width="11.17" height="7.47"/>
	<rect x="271.17" y="33.08" class="st0" width="11.16" height="7.47"/>
	<rect x="193.01" y="33.08" class="st0" width="11.16" height="7.47"/>
	<rect x="226.51" y="33.08" class="st0" width="11.16" height="7.47"/>
	<rect x="204.18" y="33.08" class="st0" width="11.17" height="7.47"/>
	<rect x="181.85" y="33.08" class="st0" width="11.16" height="7.47"/>
	<rect x="215.34" y="33.08" class="st0" width="11.17" height="7.47"/>
	<rect x="70.2" y="122.67" class="st0" width="11.16" height="7.47"/>
	<rect x="59.04" y="122.67" class="st0" width="11.17" height="7.47"/>
	<rect x="47.87" y="122.67" class="st0" width="11.16" height="7.47"/>
	<rect x="25.54" y="122.67" class="st0" width="11.16" height="7.47"/>
	<rect x="271.17" y="40.54" class="st0" width="11.16" height="7.47"/>
	<rect x="36.71" y="122.67" class="st0" width="11.16" height="7.47"/>
	<rect x="92.53" y="122.67" class="st0" width="11.17" height="7.47"/>
	<rect x="114.86" y="122.67" class="st0" width="11.16" height="7.47"/>
	<rect x="103.7" y="122.67" class="st0" width="11.17" height="7.47"/>
	<rect x="14.38" y="122.67" class="st0" width="11.17" height="7.47"/>
	<rect x="81.37" y="122.67" class="st0" width="11.16" height="7.47"/>
	<rect x="25.54" y="40.54" class="st0" width="11.16" height="7.47"/>
	<rect x="14.38" y="115.21" class="st0" width="11.17" height="7.47"/>
	<rect x="14.38" y="40.54" class="st0" width="11.17" height="7.47"/>
	<rect x="47.87" y="33.08" class="st0" width="11.16" height="7.47"/>
	<rect x="47.87" y="40.54" class="st0" width="11.16" height="7.47"/>
	<rect x="36.71" y="40.54" class="st0" width="11.16" height="7.47"/>
	<rect y="115.21" class="st0" width="3.21" height="7.47"/>
	<rect x="3.21" y="40.54" class="st0" width="11.17" height="7.47"/>
	<rect x="3.21" y="115.21" class="st0" width="11.17" height="7.47"/>
	<rect y="40.54" class="st0" width="3.21" height="7.47"/>
	<rect x="137.19" y="115.21" class="st0" width="11.16" height="7.47"/>
	<rect x="92.53" y="115.21" class="st0" width="11.17" height="7.47"/>
	<rect x="103.7" y="115.21" class="st0" width="11.17" height="7.47"/>
	<rect x="81.37" y="115.21" class="st0" width="11.16" height="7.47"/>
	<rect x="70.2" y="115.21" class="st0" width="11.16" height="7.47"/>
	<rect x="59.04" y="115.21" class="st0" width="11.17" height="7.47"/>
	<rect x="148.35" y="115.21" class="st0" width="11.16" height="7.47"/>
	<rect x="47.87" y="115.21" class="st0" width="11.16" height="7.47"/>
	<rect x="159.52" y="115.21" class="st0" width="11.16" height="7.47"/>
	<rect x="126.03" y="122.67" class="st0" width="11.16" height="7.47"/>
	<rect x="126.03" y="115.21" class="st0" width="11.16" height="7.47"/>
	<rect x="114.86" y="115.21" class="st0" width="11.16" height="7.47"/>
	<rect x="3.21" y="48.01" class="st0" width="11.17" height="7.47"/>
	<rect y="107.74" class="st0" width="3.21" height="7.47"/>
	<rect y="48.01" class="st0" width="3.21" height="7.47"/>
	<rect x="14.38" y="48.01" class="st0" width="11.17" height="7.47"/>
	<rect x="25.54" y="107.74" class="st0" width="11.16" height="7.47"/>
	<rect x="3.21" y="107.74" class="st0" width="11.17" height="7.47"/>
	<rect x="25.54" y="115.21" class="st0" width="11.16" height="7.47"/>
	<rect x="36.71" y="115.21" class="st0" width="11.16" height="7.47"/>
	<rect x="282.33" y="40.54" class="st0" width="11.17" height="7.47"/>
	<rect x="14.38" y="107.74" class="st0" width="11.17" height="7.47"/>
	<rect x="304.66" y="107.74" class="st0" width="11.16" height="7.47"/>
	<rect x="315.83" y="107.74" class="st0" width="11.17" height="7.47"/>
	<rect x="293.5" y="115.21" class="st0" width="11.16" height="7.47"/>
	<rect x="170.68" y="115.21" class="st0" width="11.16" height="7.47"/>
	<rect x="326.99" y="107.74" class="st0" width="3.24" height="7.47"/>
	<rect x="326.99" y="40.54" class="st0" width="3.24" height="7.47"/>
	<rect x="304.66" y="40.54" class="st0" width="11.16" height="7.47"/>
	<rect x="293.5" y="40.54" class="st0" width="11.16" height="7.47"/>
	<rect x="315.83" y="40.54" class="st0" width="11.17" height="7.47"/>
	<rect x="282.33" y="115.21" class="st0" width="11.17" height="7.47"/>
	<rect x="293.5" y="107.74" class="st0" width="11.16" height="7.47"/>
	<rect x="204.18" y="115.21" class="st0" width="11.17" height="7.47"/>
	<rect x="271.17" y="115.21" class="st0" width="11.16" height="7.47"/>
	<rect x="215.34" y="115.21" class="st0" width="11.17" height="7.47"/>
	<rect x="181.85" y="115.21" class="st0" width="11.16" height="7.47"/>
	<rect x="193.01" y="115.21" class="st0" width="11.16" height="7.47"/>
	<rect x="260" y="115.21" class="st0" width="11.16" height="7.47"/>
	<rect x="248.84" y="115.21" class="st0" width="11.17" height="7.47"/>
	<rect x="226.51" y="115.21" class="st0" width="11.16" height="7.47"/>
	<rect x="237.67" y="115.21" class="st0" width="11.17" height="7.47"/>
	<rect x="103.7" y="25.61" class="st0" width="11.17" height="7.47"/>
	<rect x="14.38" y="130.14" class="st0" width="11.17" height="7.47"/>
	<rect y="33.08" class="st0" width="3.21" height="7.47"/>
	<rect x="25.54" y="130.14" class="st0" width="11.16" height="7.47"/>
	<rect x="81.37" y="130.14" class="st0" width="11.16" height="7.47"/>
	<rect y="122.67" class="st0" width="3.21" height="7.47"/>
	<rect x="3.21" y="130.14" class="st0" width="11.17" height="7.47"/>
	<rect x="70.2" y="130.14" class="st0" width="11.16" height="7.47"/>
	<rect x="36.71" y="130.14" class="st0" width="11.16" height="7.47"/>
	<rect x="59.04" y="130.14" class="st0" width="11.17" height="7.47"/>
	<rect x="47.87" y="130.14" class="st0" width="11.16" height="7.47"/>
	<rect x="3.21" y="122.67" class="st0" width="11.17" height="7.47"/>
	<rect x="59.04" y="25.61" class="st0" width="11.17" height="7.47"/>
	<rect x="70.2" y="25.61" class="st0" width="11.16" height="7.47"/>
	<rect x="81.37" y="25.61" class="st0" width="11.16" height="7.47"/>
	<rect x="47.87" y="25.61" class="st0" width="11.16" height="7.47"/>
	<rect x="36.71" y="25.61" class="st0" width="11.16" height="7.47"/>
	<rect x="14.38" y="33.08" class="st0" width="11.17" height="7.47"/>
	<rect x="25.54" y="33.08" class="st0" width="11.16" height="7.47"/>
	<rect x="36.71" y="33.08" class="st0" width="11.16" height="7.47"/>
	<rect x="3.21" y="33.08" class="st0" width="11.17" height="7.47"/>
	<rect x="260" y="130.14" class="st0" width="11.16" height="7.47"/>
	<rect x="237.67" y="130.14" class="st0" width="11.17" height="7.47"/>
	<rect x="92.53" y="130.14" class="st0" width="11.17" height="7.47"/>
	<rect x="215.34" y="130.14" class="st0" width="11.17" height="7.47"/>
	<rect x="92.53" y="25.61" class="st0" width="11.17" height="7.47"/>
	<rect x="226.51" y="130.14" class="st0" width="11.16" height="7.47"/>
	<rect x="271.17" y="130.14" class="st0" width="11.16" height="7.47"/>
	<rect x="293.5" y="130.14" class="st0" width="11.16" height="7.47"/>
	<rect x="304.66" y="130.14" class="st0" width="11.16" height="7.47"/>
	<rect x="282.33" y="130.14" class="st0" width="11.17" height="7.47"/>
	<rect x="204.18" y="130.14" class="st0" width="11.17" height="7.47"/>
	<rect x="248.84" y="130.14" class="st0" width="11.17" height="7.47"/>
	<rect x="193.01" y="130.14" class="st0" width="11.16" height="7.47"/>
	<rect x="114.86" y="130.14" class="st0" width="11.16" height="7.47"/>
	<rect x="137.19" y="130.14" class="st0" width="11.16" height="7.47"/>
	<rect x="103.7" y="130.14" class="st0" width="11.17" height="7.47"/>
	<rect x="126.03" y="130.14" class="st0" width="11.16" height="7.47"/>
	<rect x="170.68" y="130.14" class="st0" width="11.16" height="7.47"/>
	<rect x="181.85" y="130.14" class="st0" width="11.16" height="7.47"/>
	<rect x="159.52" y="130.14" class="st0" width="11.16" height="7.47"/>
	<rect x="148.35" y="130.14" class="st0" width="11.16" height="7.47"/>
	<rect x="137.19" y="25.61" class="st0" width="11.16" height="7.47"/>
	<rect x="282.33" y="122.67" class="st0" width="11.17" height="7.47"/>
	<rect x="315.83" y="33.08" class="st0" width="11.17" height="7.47"/>
	<rect x="271.17" y="122.67" class="st0" width="11.16" height="7.47"/>
	<rect x="304.66" y="122.67" class="st0" width="11.16" height="7.47"/>
	<rect x="260" y="122.67" class="st0" width="11.16" height="7.47"/>
	<rect x="248.84" y="122.67" class="st0" width="11.17" height="7.47"/>
	<rect x="326.99" y="115.21" class="st0" width="3.24" height="7.47"/>
	<rect x="326.99" y="33.08" class="st0" width="3.24" height="7.47"/>
	<rect x="315.83" y="115.21" class="st0" width="11.17" height="7.47"/>
	<rect x="304.66" y="115.21" class="st0" width="11.16" height="7.47"/>
	<rect x="293.5" y="122.67" class="st0" width="11.16" height="7.47"/>
	<rect x="181.85" y="122.67" class="st0" width="11.16" height="7.47"/>
	<rect x="170.68" y="122.67" class="st0" width="11.16" height="7.47"/>
	<rect x="159.52" y="122.67" class="st0" width="11.16" height="7.47"/>
	<rect x="148.35" y="122.67" class="st0" width="11.16" height="7.47"/>
	<rect x="215.34" y="122.67" class="st0" width="11.17" height="7.47"/>
	<rect x="226.51" y="122.67" class="st0" width="11.16" height="7.47"/>
	<rect x="237.67" y="122.67" class="st0" width="11.17" height="7.47"/>
	<rect x="204.18" y="122.67" class="st0" width="11.17" height="7.47"/>
	<rect x="193.01" y="122.67" class="st0" width="11.16" height="7.47"/>
	<rect x="260" y="25.61" class="st0" width="11.16" height="7.47"/>
	<rect x="181.85" y="25.61" class="st0" width="11.16" height="7.47"/>
	<rect x="170.68" y="25.61" class="st0" width="11.16" height="7.47"/>
	<rect x="204.18" y="25.61" class="st0" width="11.17" height="7.47"/>
	<rect x="159.52" y="25.61" class="st0" width="11.16" height="7.47"/>
	<rect x="193.01" y="25.61" class="st0" width="11.16" height="7.47"/>
	<rect x="304.66" y="33.08" class="st0" width="11.16" height="7.47"/>
	<rect x="114.86" y="25.61" class="st0" width="11.16" height="7.47"/>
	<rect x="126.03" y="25.61" class="st0" width="11.16" height="7.47"/>
	<rect x="137.19" y="122.67" class="st0" width="11.16" height="7.47"/>
	<rect x="148.35" y="25.61" class="st0" width="11.16" height="7.47"/>
	<rect x="282.33" y="33.08" class="st0" width="11.17" height="7.47"/>
	<rect x="282.33" y="25.61" class="st0" width="11.17" height="7.47"/>
	<rect x="271.17" y="25.61" class="st0" width="11.16" height="7.47"/>
	<rect x="215.34" y="25.61" class="st0" width="11.17" height="7.47"/>
	<rect x="293.5" y="33.08" class="st0" width="11.16" height="7.47"/>
	<rect x="226.51" y="25.61" class="st0" width="11.16" height="7.47"/>
	<rect x="315.83" y="130.14" class="st0" width="11.17" height="7.47"/>
	<rect x="237.67" y="25.61" class="st0" width="11.17" height="7.47"/>
	<rect x="248.84" y="25.61" class="st0" width="11.17" height="7.47"/>
</g>
<g>
	<path d="M55.05,12.34c-0.1,0.41-0.16,0.75-0.19,0.99c0,0.13-0.05,0.47-0.14,1.02c-0.15,0.97-0.23,1.64-0.23,2
		c0,0.6,0.04,1.19,0.11,1.78c0.05,0.42-0.03,0.73-0.26,0.93c-0.23,0.19-0.46,0.29-0.68,0.29c-0.32,0-0.55-0.14-0.69-0.42
		s-0.21-0.77-0.21-1.46c0-0.43,0.11-1.45,0.32-3.06l0.38-2.67c0.08-0.39,0.13-0.76,0.17-1.09c0.05-0.5,0.12-0.8,0.2-0.92
		s0.22-0.24,0.43-0.37s0.36-0.19,0.46-0.19c0.26,0,0.47,0.11,0.6,0.32c0.14,0.21,0.21,0.48,0.21,0.79L55.05,12.34z"/>
	<path d="M62.59,18.12c-0.22-0.41-0.38-1.18-0.48-2.3c-0.1-1.17-0.32-1.75-0.67-1.75c-0.33,0-0.9,0.61-1.7,1.82
		c-0.81,1.21-1.3,2.11-1.49,2.69c-0.04,0.17-0.12,0.32-0.23,0.43c-0.11,0.11-0.22,0.17-0.33,0.17c-0.69,0-1.04-0.32-1.04-0.95
		c0-0.21,0.07-0.7,0.21-1.46c0.18-0.98,0.27-2.19,0.27-3.61c0-0.21,0.09-0.44,0.28-0.69c0.19-0.24,0.39-0.37,0.59-0.37
		c0.26,0,0.47,0.07,0.61,0.2c0.14,0.13,0.21,0.48,0.21,1.05c0,0.43-0.13,1.27-0.39,2.52c0.99-2.32,2.09-3.47,3.31-3.47
		c1.06,0,1.68,0.83,1.86,2.5c0.18,1.7,0.39,2.54,0.63,2.54c0.1,0,0.23-0.02,0.36-0.07c0.16-0.05,0.29-0.08,0.39-0.08
		c0.22,0,0.33,0.13,0.33,0.38c0,0.23-0.15,0.48-0.45,0.74c-0.3,0.26-0.68,0.39-1.13,0.39C63.19,18.81,62.81,18.58,62.59,18.12
		L62.59,18.12z"/>
	<path d="M68.89,13.57c-0.04,0-0.17,0.51-0.39,1.52c-0.22,1.02-0.32,1.63-0.32,1.85c0,0.37,0.04,0.63,0.12,0.78
		c0.08,0.15,0.21,0.22,0.39,0.22c0.26,0,0.5-0.04,0.73-0.13s0.54-0.29,0.93-0.6c0.24-0.2,0.44-0.29,0.6-0.29
		c0.13,0,0.24,0.04,0.32,0.11s0.12,0.16,0.12,0.26c0,0.4-0.32,0.86-0.97,1.36c-0.65,0.51-1.33,0.76-2.05,0.76
		c-0.6,0-1.06-0.18-1.38-0.53s-0.48-0.87-0.48-1.53c0-0.62,0.23-1.84,0.69-3.68c-0.29,0.03-0.49,0.05-0.61,0.05h-0.14
		c-0.21,0-0.42-0.07-0.64-0.21s-0.32-0.36-0.32-0.66c0-0.38,0.22-0.57,0.65-0.57l1.46-0.05c0.19-0.55,0.39-1.27,0.61-2.17
		c0.13-0.56,0.42-0.83,0.87-0.83c0.25,0,0.45,0.08,0.59,0.23c0.14,0.15,0.21,0.32,0.21,0.51c0,0.07-0.19,0.78-0.58,2.11
		c1.45-0.13,2.24-0.19,2.39-0.19c0.24,0,0.4,0.04,0.48,0.11c0.08,0.07,0.12,0.21,0.12,0.41c0,0.41-0.34,0.66-1.03,0.77L68.89,13.57z
		"/>
	<path d="M78.75,16.77c0,0.47-0.4,1.04-1.2,1.7c-0.8,0.66-1.7,0.99-2.7,0.99c-0.77,0-1.38-0.24-1.82-0.73s-0.66-1.16-0.66-2.03
		c0-1.28,0.45-2.47,1.35-3.59c0.9-1.12,1.87-1.67,2.89-1.67c0.51,0,0.92,0.16,1.23,0.49c0.31,0.32,0.46,0.71,0.46,1.16
		c0,0.79-0.38,1.55-1.14,2.27s-1.74,1.21-2.93,1.49c-0.14,0.03-0.21,0.11-0.21,0.25c0,0.22,0.1,0.43,0.29,0.63s0.45,0.3,0.78,0.3
		c0.92,0,1.83-0.47,2.73-1.42c0.17-0.18,0.34-0.27,0.51-0.27C78.62,16.31,78.75,16.46,78.75,16.77z M74.17,15.56
		c0.72-0.15,1.35-0.45,1.9-0.92c0.55-0.47,0.82-0.9,0.82-1.28c0-0.15-0.04-0.28-0.13-0.38s-0.19-0.15-0.32-0.15
		c-0.4,0-0.84,0.29-1.32,0.88C74.64,14.28,74.32,14.9,74.17,15.56z"/>
	<path d="M84.57,17.03c-0.51,0.57-1.09,1.04-1.77,1.4c-0.67,0.37-1.25,0.55-1.74,0.55c-0.48,0-0.86-0.14-1.12-0.42
		c-0.27-0.28-0.4-0.67-0.4-1.17c0-0.71,0.27-1.49,0.8-2.36c0.54-0.87,1.28-1.62,2.23-2.26c0.95-0.64,1.81-0.96,2.57-0.96
		c0.42,0,0.78,0.11,1.09,0.34c0.07,0.05,0.14,0.1,0.19,0.14c0.11,0.08,0.21,0.22,0.3,0.43c0.09,0.21,0.14,0.38,0.14,0.5
		c0,0.08-0.09,0.36-0.26,0.83c-0.18,0.49-0.3,0.96-0.37,1.42s-0.21,1.6-0.42,3.43c-0.19,1.59-0.63,2.75-1.33,3.49
		c-0.7,0.73-1.48,1.1-2.34,1.1c-0.9,0-1.77-0.3-2.61-0.91c-0.85-0.6-1.27-1.1-1.27-1.49c0-0.35,0.17-0.52,0.51-0.52
		c0.13,0,0.4,0.13,0.81,0.4c1.04,0.68,1.93,1.03,2.67,1.03c0.56,0,1.04-0.35,1.42-1.06C84.04,20.21,84.35,18.91,84.57,17.03z
		 M84.73,13.23c-0.34,0-0.78,0.2-1.33,0.6s-1.05,0.95-1.52,1.63s-0.7,1.25-0.7,1.7c0,0.24,0.09,0.36,0.26,0.36
		c0.59,0,1.17-0.24,1.75-0.71c0.58-0.48,1.05-1.02,1.4-1.64c0.36-0.62,0.54-1.09,0.54-1.41c0-0.16-0.04-0.29-0.12-0.38
		S84.84,13.23,84.73,13.23z"/>
	<path d="M89.61,15.73l0.12-0.22c0.55-1.11,1.15-2.01,1.78-2.7s1.26-1.04,1.86-1.04c0.46,0,0.84,0.13,1.14,0.38
		c0.29,0.25,0.44,0.56,0.44,0.91c0,0.22-0.05,0.41-0.15,0.56s-0.24,0.24-0.42,0.24c-0.28,0-0.54-0.12-0.77-0.35
		c-0.16-0.15-0.29-0.23-0.39-0.23c-0.34,0-0.91,0.53-1.72,1.59c-0.8,1.06-1.29,2.26-1.45,3.58c-0.05,0.38-0.16,0.65-0.33,0.8
		c-0.17,0.15-0.41,0.23-0.7,0.23c-0.31,0-0.54-0.18-0.67-0.54c-0.13-0.36-0.2-0.94-0.2-1.75c0-0.33,0.01-0.78,0.03-1.35
		c0.02-0.53,0.07-1.19,0.16-1.96c0.02-0.2,0.04-0.36,0.05-0.47c0.04-0.45,0.09-0.75,0.14-0.92c0.05-0.17,0.17-0.32,0.37-0.47
		c0.19-0.15,0.4-0.22,0.64-0.22c0.25,0,0.43,0.07,0.56,0.21c0.13,0.14,0.19,0.3,0.19,0.46c0,0.21-0.1,0.66-0.31,1.33
		c-0.07,0.23-0.13,0.51-0.18,0.83L89.61,15.73z"/>
	<path d="M99.68,16.83c-1.2,1.58-2.36,2.37-3.47,2.37c-0.41,0-0.76-0.16-1.06-0.49c-0.3-0.32-0.44-0.74-0.44-1.24
		c0-1.21,0.54-2.49,1.61-3.86c1.08-1.36,2.16-2.05,3.25-2.05c0.56,0,0.92,0.28,1.09,0.84c0.52,0,0.79,0.2,0.79,0.6
		c0,0.19-0.05,0.54-0.15,1.04c-0.18,0.94-0.27,1.69-0.27,2.25c0,0.58,0.04,0.99,0.12,1.23c0.08,0.24,0.14,0.39,0.17,0.46
		c0.04,0.07,0.15,0.15,0.33,0.23c0.18,0.09,0.27,0.21,0.27,0.36c0,0.23-0.12,0.43-0.35,0.58c-0.23,0.15-0.48,0.23-0.73,0.23
		C99.98,19.41,99.6,18.55,99.68,16.83z M99.27,13.03c-0.46,0-1.06,0.51-1.79,1.53s-1.1,1.88-1.1,2.59c0,0.37,0.08,0.56,0.23,0.56
		c0.54,0,1.2-0.48,1.99-1.43c0.79-0.95,1.18-1.79,1.18-2.5c0-0.23-0.05-0.41-0.15-0.54C99.52,13.1,99.4,13.03,99.27,13.03z"/>
	<path d="M105.98,13.57c-0.04,0-0.17,0.51-0.39,1.52c-0.22,1.02-0.32,1.63-0.32,1.85c0,0.37,0.04,0.63,0.12,0.78
		c0.08,0.15,0.21,0.22,0.39,0.22c0.26,0,0.5-0.04,0.73-0.13s0.54-0.29,0.93-0.6c0.24-0.2,0.44-0.29,0.6-0.29
		c0.13,0,0.24,0.04,0.32,0.11s0.12,0.16,0.12,0.26c0,0.4-0.32,0.86-0.97,1.36c-0.65,0.51-1.33,0.76-2.05,0.76
		c-0.6,0-1.06-0.18-1.38-0.53s-0.48-0.87-0.48-1.53c0-0.62,0.23-1.84,0.69-3.68c-0.29,0.03-0.49,0.05-0.61,0.05h-0.14
		c-0.21,0-0.42-0.07-0.64-0.21s-0.32-0.36-0.32-0.66c0-0.38,0.22-0.57,0.65-0.57l1.46-0.05c0.19-0.55,0.39-1.27,0.61-2.17
		c0.13-0.56,0.42-0.83,0.87-0.83c0.25,0,0.45,0.08,0.59,0.23c0.14,0.15,0.21,0.32,0.21,0.51c0,0.07-0.19,0.78-0.58,2.11
		c1.45-0.13,2.24-0.19,2.39-0.19c0.24,0,0.4,0.04,0.48,0.11c0.08,0.07,0.12,0.21,0.12,0.41c0,0.41-0.34,0.66-1.03,0.77L105.98,13.57
		z"/>
	<path d="M116.19,15.65c-0.31,1.07-0.89,1.96-1.74,2.7s-1.71,1.1-2.56,1.1c-0.67,0-1.23-0.25-1.67-0.74
		c-0.44-0.49-0.66-1.1-0.66-1.82c0-1.18,0.4-2.33,1.2-3.47c0.8-1.14,1.77-1.71,2.92-1.71c0.78,0,1.41,0.29,1.89,0.86
		c0.48,0.58,0.72,1.26,0.72,2.06C116.3,14.97,116.26,15.31,116.19,15.65L116.19,15.65z M112.63,13.49
		c-0.32,0.28-0.63,0.73-0.94,1.35c-0.31,0.62-0.46,1.24-0.46,1.87c0,0.38,0.07,0.69,0.21,0.94s0.32,0.37,0.55,0.37
		c0.56,0,1.15-0.33,1.76-1s0.92-1.42,0.92-2.26c0-0.47-0.1-0.86-0.3-1.16c-0.2-0.3-0.48-0.45-0.83-0.45
		C113.21,13.14,112.91,13.26,112.63,13.49L112.63,13.49z"/>
	<path d="M119.32,15.73l0.12-0.22c0.55-1.11,1.15-2.01,1.78-2.7s1.26-1.04,1.86-1.04c0.46,0,0.84,0.13,1.14,0.38
		c0.29,0.25,0.44,0.56,0.44,0.91c0,0.22-0.05,0.41-0.15,0.56s-0.24,0.24-0.42,0.24c-0.28,0-0.54-0.12-0.77-0.35
		c-0.16-0.15-0.29-0.23-0.39-0.23c-0.34,0-0.91,0.53-1.72,1.59c-0.8,1.06-1.29,2.26-1.45,3.58c-0.05,0.38-0.16,0.65-0.33,0.8
		c-0.17,0.15-0.41,0.23-0.7,0.23c-0.31,0-0.54-0.18-0.67-0.54c-0.13-0.36-0.2-0.94-0.2-1.75c0-0.33,0.01-0.78,0.03-1.35
		c0.02-0.53,0.07-1.19,0.16-1.96c0.02-0.2,0.04-0.36,0.05-0.47c0.04-0.45,0.09-0.75,0.14-0.92c0.05-0.17,0.17-0.32,0.37-0.47
		c0.19-0.15,0.4-0.22,0.64-0.22c0.25,0,0.43,0.07,0.56,0.21c0.13,0.14,0.19,0.3,0.19,0.46c0,0.21-0.1,0.66-0.31,1.33
		c-0.07,0.23-0.13,0.51-0.18,0.83L119.32,15.73z"/>
</g>
<g>
	<g>
		<path d="M7.4,40.47c-0.81,0.76-1.39,1.55-1.73,2.37c-0.15,0.34-0.3,0.6-0.46,0.78c-0.4-0.02-0.69-0.1-0.88-0.24
			c-0.19-0.14-0.28-0.37-0.28-0.69c0-0.28,0.12-0.63,0.37-1.05s0.85-1.07,1.81-1.96c0.15-0.14,0.27-0.26,0.37-0.36
			c-0.87-1.28-1.31-2.27-1.31-2.99c0-0.75,0.33-1.13,0.99-1.13c0.46,0,0.71,0.34,0.74,1.01c0.03,0.69,0.28,1.41,0.77,2.15
			c0.24-0.21,0.49-0.47,0.76-0.76c0.08-0.08,0.15-0.16,0.22-0.23c0.57-0.61,0.99-1.14,1.24-1.61c0.16-0.3,0.3-0.49,0.41-0.57
			c0.11-0.09,0.27-0.13,0.48-0.13c0.23,0,0.43,0.08,0.6,0.25s0.25,0.36,0.25,0.6c0,0.5-1.06,1.7-3.18,3.62
			c0.72,0.88,1.49,1.55,2.3,2c0.1,0.06,0.2,0.13,0.29,0.21c0.04,0.09,0.05,0.18,0.05,0.28c0,0.23-0.09,0.44-0.28,0.61
			c-0.19,0.18-0.41,0.26-0.68,0.26C9.57,42.91,8.62,42.09,7.4,40.47z"/>
		<path d="M13.47,40.05c0,0.15,0.02,0.31,0.07,0.47c0.04,0.16,0.07,0.36,0.1,0.57v-0.01l0.15,0.82c0.14,0.64,0.32,1.17,0.55,1.6
			c0.23,0.43,0.53,0.79,0.9,1.1c0.53,0.45,0.79,0.81,0.79,1.09c0,0.18-0.09,0.32-0.26,0.42c-0.17,0.1-0.39,0.16-0.65,0.16
			c-0.17,0-0.4-0.09-0.67-0.27c-0.27-0.18-0.61-0.53-1.01-1.05c-0.4-0.52-0.67-0.96-0.81-1.32s-0.28-0.94-0.43-1.76
			s-0.22-1.51-0.22-2.06c0-0.67,0.03-1.16,0.08-1.48s0.17-0.72,0.36-1.21c0.18-0.49,0.46-1.1,0.84-1.83
			c0.38-0.73,0.6-1.14,0.68-1.23c0.08-0.09,0.36-0.36,0.85-0.81l0.58-0.55c0.26-0.24,0.48-0.41,0.66-0.5
			c0.19-0.09,0.42-0.14,0.71-0.14c0.36,0,0.55,0.18,0.55,0.54c0,0.15-0.15,0.38-0.46,0.66c-0.54,0.51-1.02,1-1.44,1.48
			c-0.42,0.47-0.86,1.18-1.31,2.11s-0.68,1.78-0.68,2.54C13.41,39.54,13.43,39.75,13.47,40.05z"/>
		<path d="M23.8,41.81c-0.22-0.41-0.38-1.18-0.48-2.3c-0.1-1.17-0.32-1.75-0.67-1.75c-0.33,0-0.9,0.61-1.7,1.82
			c-0.81,1.21-1.3,2.11-1.49,2.69c-0.04,0.17-0.12,0.32-0.23,0.43c-0.11,0.11-0.22,0.17-0.33,0.17c-0.69,0-1.04-0.32-1.04-0.95
			c0-0.21,0.07-0.7,0.21-1.46c0.18-0.98,0.27-2.19,0.27-3.61c0-0.21,0.09-0.44,0.28-0.69c0.19-0.24,0.39-0.37,0.59-0.37
			c0.26,0,0.47,0.07,0.61,0.2c0.14,0.13,0.21,0.48,0.21,1.05c0,0.43-0.13,1.27-0.39,2.52c0.99-2.32,2.09-3.47,3.31-3.47
			c1.06,0,1.68,0.83,1.86,2.5c0.18,1.7,0.39,2.54,0.63,2.54c0.1,0,0.23-0.02,0.36-0.07c0.16-0.05,0.29-0.08,0.39-0.08
			c0.22,0,0.33,0.13,0.33,0.38c0,0.23-0.15,0.48-0.45,0.74c-0.3,0.26-0.68,0.39-1.13,0.39C24.4,42.5,24.02,42.27,23.8,41.81
			L23.8,41.81z"/>
		<path d="M27.94,46.28c-0.23,0-0.43-0.07-0.6-0.21s-0.25-0.28-0.25-0.43c0-0.21,0.28-0.66,0.84-1.36c0.37-0.44,0.73-1.12,1.09-2.04
			c0.36-0.92,0.54-1.49,0.54-1.71c0-0.77-0.06-1.5-0.18-2.19c-0.12-0.69-0.35-1.43-0.68-2.23c-0.33-0.79-0.61-1.37-0.84-1.74
			C27.63,34,27.22,33.54,26.62,33c-0.11-0.11-0.16-0.24-0.16-0.41c0-0.12,0.09-0.25,0.27-0.4c0.18-0.15,0.37-0.22,0.57-0.22
			c0.43,0,0.98,0.48,1.63,1.45c0.66,0.97,1.05,1.69,1.19,2.16c0.05,0.16,0.1,0.33,0.16,0.51c0.28,0.84,0.48,1.52,0.58,2.03
			s0.15,1.15,0.15,1.9c0,0.86-0.15,1.66-0.44,2.42s-0.63,1.39-0.99,1.88c-0.39,0.52-0.62,0.85-0.7,0.98
			c-0.19,0.38-0.35,0.64-0.48,0.77C28.27,46.22,28.11,46.28,27.94,46.28z"/>
	</g>
	<g>
		<g>
			<line class="st1" x1="80.63" y1="54.64" x2="134.08" y2="54.64"/>
			<g>
				<polygon points="132.1,57.55 142.94,54.65 132.1,51.74 				"/>
			</g>
		</g>
	</g>
	<g>
		<circle class="st2" cx="59.74" cy="56.13" r="21.26"/>
		<g>
			<path d="M69.24,57.19c-0.33,0.43-1.03,0.65-2.09,0.65c-0.21,0-0.71-0.04-1.51-0.12s-1.33-0.12-1.6-0.12h-3.15
				c-0.14,0.55-0.21,1.16-0.21,1.83c0,2.17-0.03,3.37-0.09,3.6c-0.05,0.18-0.07,0.38-0.07,0.6s-0.1,0.43-0.31,0.62
				s-0.62,0.29-1.26,0.29c-0.74,0-1.23-0.12-1.48-0.37s-0.37-0.71-0.37-1.41l0.53-5.19c-1.5-0.08-2.47-0.08-2.92,0l-1.49,0.26
				c-0.5,0-0.94-0.17-1.31-0.51s-0.55-0.72-0.55-1.14c0-0.33,0.15-0.68,0.44-1.05s0.64-0.55,1.04-0.55c0.35,0,1,0.06,1.93,0.19
				l2.55-0.12h0.58c0.05-0.26,0.07-0.53,0.07-0.81c0-0.49-0.05-1.44-0.16-2.85c-0.05-0.52-0.07-0.9-0.07-1.16
				c0-1.93,0.64-2.9,1.92-2.9c0.46,0,0.84,0.24,1.14,0.73s0.46,0.89,0.46,1.2c0,0.52-0.05,1.31-0.14,2.39
				c-0.11,1.08-0.16,1.73-0.16,1.95v0.9c0,0.11,0.01,0.25,0.04,0.42l0.58,0.02l4.64-0.07c1.18,0,2.01,0.15,2.47,0.44
				s0.69,0.95,0.69,1.97L69.24,57.19z"/>
		</g>
	</g>
	<g>
		<g>
			<line class="st1" x1="15.56" y1="54.8" x2="29.62" y2="54.8"/>
			<g>
				<polygon points="27.64,57.7 38.48,54.8 27.64,51.89 				"/>
			</g>
		</g>
	</g>
	<g>
		<g>
			<polyline class="st1" points="59.52,86.48 59.52,113.57 71.69,113.57 			"/>
			<g>
				<polygon points="56.62,88.46 59.52,77.62 62.43,88.46 				"/>
			</g>
		</g>
	</g>
	<g>
		<g>
			<rect x="72.52" y="95.86" class="st2" width="35.43" height="35.43"/>
		</g>
		<g>
			<g>
				<path d="M89.71,109.01c-0.01,0.03-0.05,0.07-0.11,0.11c-0.14,0.09-0.27,0.19-0.41,0.3s-0.47,0.48-1,1.12
					c-0.68,0.81-1.3,1.51-1.86,2.09c-0.55,0.58-1.51,1.53-2.86,2.83l-0.71,0.69c0.43-0.04,0.98-0.09,1.65-0.16
					c0.96-0.11,1.49-0.16,1.6-0.16c0.33,0,0.6-0.01,0.81-0.03c0.21-0.01,0.4-0.02,0.57-0.02c1.32,0,1.98,0.32,1.98,0.96
					c0,0.26-0.07,0.46-0.2,0.61c-0.13,0.15-0.32,0.22-0.54,0.22c-0.18,0-0.4-0.03-0.64-0.1c-0.39-0.11-0.89-0.16-1.49-0.16
					c-0.23,0-0.9,0.04-2,0.11h0.01c-1.13,0.06-1.87,0.12-2.22,0.16s-0.76,0.12-1.22,0.25c-0.36,0.1-0.58,0.15-0.68,0.15
					c-0.46,0-0.68-0.23-0.68-0.68c0-0.37,0.12-0.64,0.37-0.82c0.61-0.45,1.39-1.14,2.37-2.05c0.97-0.92,1.88-1.83,2.74-2.72
					c0.14-0.15,0.3-0.31,0.49-0.5c0.76-0.76,1.31-1.35,1.65-1.78c-0.07,0-0.9,0.09-2.48,0.27c-1,0.12-1.75,0.18-2.26,0.18
					c-0.31,0-0.63-0.04-0.96-0.12c-0.48-0.21-0.72-0.48-0.72-0.81c0-0.15,0.09-0.32,0.28-0.52c0.19-0.2,0.34-0.29,0.46-0.29
					c0.09,0,0.2,0.02,0.34,0.08c0.14,0.05,0.25,0.08,0.32,0.08l1.26,0.01c0.35,0,0.73-0.01,1.14-0.05c0.31-0.03,0.79-0.06,1.46-0.09
					c0.75-0.04,1.27-0.08,1.54-0.13c0.84-0.14,1.37-0.21,1.59-0.21c0.38,0,0.57,0.2,0.57,0.61
					C89.86,108.68,89.81,108.87,89.71,109.01z"/>
				<path d="M92.53,110.34c0.61,0,1.05-0.02,1.32-0.05c0.11-0.02,0.23-0.02,0.35-0.02c0.06,0,0.18,0.03,0.37,0.1s0.3,0.14,0.33,0.21
					c0.04,0.07,0.06,0.14,0.06,0.2c0,0.25-0.15,0.37-0.46,0.37c-0.03,0-0.17-0.03-0.39-0.08c-0.05-0.01-0.08-0.02-0.1-0.02
					l-0.36,0.02c-0.06,0-0.26-0.01-0.61-0.04c-0.11-0.01-0.44,0-0.99,0.03c-0.31,0.02-0.52,0-0.63-0.05
					c-0.11-0.05-0.16-0.14-0.16-0.28c0-0.14,0.1-0.25,0.29-0.32c0.19-0.07,0.42-0.11,0.7-0.11C92.3,110.29,92.4,110.31,92.53,110.34
					z"/>
				<path d="M99.28,112.52l0.01,0.16c0.02,0.21-0.21,0.32-0.67,0.32c-0.09,0-0.18-0.06-0.26-0.19c-0.02-0.02-0.03-0.04-0.04-0.04
					c-0.05,0-0.26,0.06-0.63,0.18c-0.08,0.03-0.13,0.04-0.17,0.05c-0.31,0.1-0.54,0.15-0.69,0.15c-0.16,0-0.29-0.05-0.39-0.14
					c-0.1-0.09-0.15-0.19-0.15-0.28c0-0.13,0.08-0.24,0.23-0.32c0.15-0.08,0.44-0.16,0.84-0.23c0.43-0.08,0.71-0.15,0.84-0.21
					c0.01-0.14,0.02-0.28,0.03-0.42c0.03-0.46,0.16-1.39,0.41-2.79c-0.02,0.01-0.25,0.13-0.67,0.38c-0.39,0.23-0.75,0.34-1.08,0.34
					c-0.22,0-0.33-0.09-0.33-0.28c0-0.12,0.04-0.21,0.11-0.27c0.07-0.06,0.21-0.13,0.41-0.22c0.24-0.1,0.54-0.25,0.91-0.46
					l0.59-0.34c0.36-0.23,0.6-0.35,0.7-0.35c0.15,0,0.26,0.07,0.33,0.21c0.08,0.14,0.12,0.26,0.12,0.37c0,0.08-0.04,0.17-0.12,0.26
					c-0.19,0.82-0.32,1.47-0.38,1.96c-0.06,0.49-0.09,0.97-0.09,1.44c0.15-0.02,0.49-0.1,1.03-0.24c0.32-0.08,0.66-0.12,1-0.12
					c0.09,0.19,0.14,0.31,0.14,0.37c0,0.09-0.02,0.17-0.06,0.22c-0.04,0.05-0.15,0.11-0.31,0.16c-0.16,0.05-0.44,0.11-0.83,0.16
					C99.71,112.41,99.43,112.46,99.28,112.52z"/>
			</g>
		</g>
	</g>
	<polyline class="st1" points="108.73,113.57 120.91,113.57 120.91,54.8 	"/>
	<g>
		<path d="M118.06,54.79c0-0.79,0.28-1.46,0.84-2.01c0.56-0.55,1.23-0.83,2-0.83c0.79,0,1.46,0.28,2.02,0.83
			c0.56,0.55,0.84,1.22,0.84,2.01c0,0.79-0.28,1.46-0.84,2.02c-0.56,0.56-1.23,0.84-2.02,0.84c-0.78,0-1.45-0.28-2-0.84
			C118.34,56.25,118.06,55.58,118.06,54.79z"/>
	</g>
	<g>
		<g>
			<g>
				<rect x="142.94" y="37.08" class="st2" width="35.43" height="35.43"/>
			</g>
			<g>
				<g>
					<path d="M151.83,50.7l-0.09-0.16c-0.15-0.23-0.22-0.4-0.22-0.51c0-0.22,0.11-0.41,0.33-0.57c0.22-0.16,0.43-0.24,0.61-0.24
						c0.08,0,0.19,0.01,0.31,0.02c0.13,0.02,0.21,0.03,0.23,0.03c1.34-0.21,2.29-0.31,2.83-0.31c1.02,0,1.82,0.24,2.41,0.72
						c0.59,0.48,0.89,1.07,0.89,1.78c0,0.67-0.29,1.31-0.87,1.92c-0.58,0.61-1.36,1.1-2.33,1.49c1.62,1.31,2.85,2.21,3.69,2.71
						c0.3,0.18,0.44,0.41,0.44,0.68c0,0.18-0.1,0.36-0.31,0.55c-0.21,0.18-0.4,0.27-0.58,0.27c-0.26,0-0.56-0.11-0.9-0.34
						c-0.34-0.23-0.81-0.59-1.43-1.08c-0.62-0.49-0.97-0.78-1.07-0.88c-0.87-0.72-1.49-1.21-1.87-1.44c-0.48,0-0.72-0.24-0.72-0.72
						c0-0.22,0.11-0.42,0.32-0.58c0.21-0.16,0.46-0.24,0.73-0.24c0.08,0,0.16,0.01,0.25,0.03c0.09,0.03,0.15,0.04,0.18,0.04
						c0.29,0,0.83-0.24,1.62-0.73c0.79-0.49,1.18-1.05,1.18-1.69c0-0.32-0.17-0.59-0.5-0.82c-0.33-0.23-0.75-0.34-1.26-0.34
						c-0.61,0-1.09,0.04-1.47,0.11c-0.37,0.07-0.57,0.12-0.61,0.15c-0.03,0.03-0.08,0.1-0.12,0.22c-0.05,0.11-0.15,0.58-0.3,1.4
						c-0.15,0.82-0.29,1.73-0.42,2.71c-0.13,0.98-0.19,1.71-0.19,2.17c0,0.3,0.02,0.56,0.07,0.8c0.04,0.24,0.06,0.44,0.06,0.62
						c0,0.16-0.1,0.34-0.29,0.53c-0.19,0.19-0.4,0.28-0.63,0.28c-0.63,0-0.95-0.44-0.95-1.31c0-0.71,0.08-1.71,0.24-2.99
						c0.16-1.28,0.34-2.41,0.56-3.38c0.03-0.16,0.06-0.29,0.08-0.42L151.83,50.7z"/>
				</g>
			</g>
		</g>
		<g>
			<line class="st3" x1="166.23" y1="63.66" x2="166.23" y2="45.94"/>
			<g>
				<line class="st1" x1="166.23" y1="56.6" x2="166.23" y2="45.94"/>
				<g>
					<polygon points="166.23,63.66 170.3,53.71 166.23,56.07 162.17,53.71 					"/>
				</g>
			</g>
		</g>
	</g>
</g>
<g>
	<circle class="st2" cx="260.13" cy="54.76" r="21.26"/>
	<g>
		<path d="M269.63,55.82c-0.33,0.43-1.03,0.65-2.09,0.65c-0.21,0-0.71-0.04-1.51-0.12s-1.33-0.12-1.6-0.12h-3.15
			c-0.14,0.55-0.21,1.16-0.21,1.83c0,2.17-0.03,3.37-0.09,3.6c-0.05,0.18-0.07,0.38-0.07,0.6s-0.1,0.43-0.31,0.62
			s-0.62,0.29-1.26,0.29c-0.74,0-1.23-0.12-1.48-0.37s-0.37-0.71-0.37-1.41l0.53-5.19c-1.5-0.08-2.47-0.08-2.92,0l-1.49,0.26
			c-0.5,0-0.94-0.17-1.31-0.51s-0.55-0.72-0.55-1.14c0-0.33,0.15-0.68,0.44-1.05s0.64-0.55,1.04-0.55c0.35,0,1,0.06,1.93,0.19
			l2.55-0.12h0.58c0.05-0.26,0.07-0.53,0.07-0.81c0-0.49-0.05-1.44-0.16-2.85c-0.05-0.52-0.07-0.9-0.07-1.16
			c0-1.93,0.64-2.9,1.92-2.9c0.46,0,0.84,0.24,1.14,0.73s0.46,0.89,0.46,1.2c0,0.52-0.05,1.31-0.14,2.39
			c-0.11,1.08-0.16,1.73-0.16,1.95v0.9c0,0.11,0.01,0.25,0.04,0.42l0.58,0.02l4.64-0.07c1.18,0,2.01,0.15,2.47,0.44
			s0.69,0.95,0.69,1.97L269.63,55.82z"/>
	</g>
</g>
<g>
	<g>
		<line class="st1" x1="281.39" y1="54.76" x2="305.41" y2="54.76"/>
		<g>
			<polygon points="303.43,57.67 314.27,54.76 303.43,51.86 			"/>
		</g>
	</g>
</g>
<g>
	<path d="M305.67,36.47c-0.07,1.11-0.2,2.18-0.39,3.22c-0.18,1.04-0.46,1.99-0.81,2.83s-0.74,1.42-1.16,1.73s-0.9,0.46-1.47,0.46
		c-0.61,0-1.2-0.12-1.76-0.35h0.01c-0.48-0.2-0.9-0.47-1.26-0.81c-0.36-0.34-0.54-0.62-0.54-0.85c0-0.21,0.05-0.39,0.16-0.51
		c0.11-0.13,0.25-0.19,0.42-0.19c0.15,0,0.28,0.06,0.38,0.19c0.58,0.75,1.43,1.13,2.54,1.13c0.45,0,0.89-0.47,1.31-1.42
		s0.68-2.08,0.79-3.4c-1.41,1.11-2.49,1.67-3.25,1.67c-0.49,0-0.88-0.2-1.17-0.59c-0.29-0.39-0.43-0.86-0.43-1.42
		c0-0.55,0.13-1.35,0.39-2.4c0.26-1.05,0.48-1.7,0.66-1.96s0.47-0.38,0.88-0.38c0.22,0,0.39,0.09,0.51,0.28
		c0.12,0.19,0.18,0.4,0.18,0.63c0,0.07-0.16,0.45-0.49,1.16c-0.4,0.86-0.6,1.59-0.6,2.21c0,0.32,0.04,0.56,0.13,0.73
		c0.09,0.17,0.18,0.25,0.28,0.25c0.22,0,0.48-0.07,0.8-0.2c0.31-0.13,0.68-0.36,1.1-0.69c0.42-0.33,0.69-0.57,0.82-0.74
		c0.12-0.17,0.22-0.39,0.29-0.65s0.13-0.85,0.17-1.76c0.02-0.53,0.05-0.86,0.08-1s0.11-0.26,0.24-0.38
		c0.13-0.11,0.31-0.17,0.53-0.17c0.3,0,0.51,0.06,0.64,0.19c0.13,0.13,0.19,0.43,0.19,0.9L305.67,36.47z"/>
	<path d="M308.33,37.74c0,0.15,0.02,0.31,0.07,0.47c0.04,0.16,0.07,0.36,0.1,0.57v-0.01l0.15,0.82c0.14,0.64,0.32,1.17,0.55,1.6
		c0.23,0.43,0.53,0.79,0.9,1.1c0.53,0.45,0.79,0.81,0.79,1.09c0,0.18-0.09,0.32-0.26,0.42c-0.17,0.1-0.39,0.16-0.65,0.16
		c-0.17,0-0.4-0.09-0.67-0.27c-0.27-0.18-0.61-0.53-1.01-1.05c-0.4-0.52-0.67-0.96-0.81-1.32s-0.28-0.94-0.43-1.76
		s-0.22-1.51-0.22-2.06c0-0.67,0.03-1.16,0.08-1.48s0.17-0.72,0.36-1.21c0.18-0.49,0.46-1.1,0.84-1.83c0.38-0.73,0.6-1.14,0.68-1.23
		c0.08-0.09,0.36-0.36,0.85-0.81l0.58-0.55c0.26-0.24,0.48-0.41,0.66-0.5c0.19-0.09,0.42-0.14,0.71-0.14c0.36,0,0.55,0.18,0.55,0.54
		c0,0.15-0.15,0.38-0.46,0.66c-0.54,0.51-1.02,1-1.44,1.48c-0.42,0.47-0.86,1.18-1.31,2.11s-0.68,1.78-0.68,2.54
		C308.27,37.23,308.29,37.44,308.33,37.74z"/>
	<path d="M318.66,39.5c-0.22-0.41-0.38-1.18-0.48-2.3c-0.1-1.17-0.32-1.75-0.67-1.75c-0.33,0-0.9,0.61-1.7,1.82
		c-0.81,1.21-1.3,2.11-1.49,2.69c-0.04,0.17-0.12,0.32-0.23,0.43c-0.11,0.11-0.22,0.17-0.33,0.17c-0.69,0-1.04-0.32-1.04-0.95
		c0-0.21,0.07-0.7,0.21-1.46c0.18-0.98,0.27-2.19,0.27-3.61c0-0.21,0.09-0.44,0.28-0.69c0.19-0.24,0.39-0.37,0.59-0.37
		c0.26,0,0.47,0.07,0.61,0.2c0.14,0.13,0.21,0.48,0.21,1.05c0,0.43-0.13,1.27-0.39,2.52c0.99-2.32,2.09-3.47,3.31-3.47
		c1.06,0,1.68,0.83,1.86,2.5c0.18,1.7,0.39,2.54,0.63,2.54c0.1,0,0.23-0.02,0.36-0.07c0.16-0.05,0.29-0.08,0.39-0.08
		c0.22,0,0.33,0.13,0.33,0.38c0,0.23-0.15,0.48-0.45,0.74c-0.3,0.26-0.68,0.39-1.13,0.39C319.26,40.19,318.88,39.96,318.66,39.5
		L318.66,39.5z"/>
	<path d="M322.79,43.97c-0.23,0-0.43-0.07-0.6-0.21s-0.25-0.28-0.25-0.43c0-0.21,0.28-0.66,0.84-1.36c0.37-0.44,0.73-1.12,1.09-2.04
		c0.36-0.92,0.54-1.49,0.54-1.71c0-0.77-0.06-1.5-0.18-2.19c-0.12-0.69-0.35-1.43-0.68-2.23c-0.33-0.79-0.61-1.37-0.84-1.74
		c-0.23-0.37-0.63-0.83-1.23-1.37c-0.11-0.11-0.16-0.24-0.16-0.41c0-0.12,0.09-0.25,0.27-0.4c0.18-0.15,0.37-0.22,0.57-0.22
		c0.43,0,0.98,0.48,1.63,1.45c0.66,0.97,1.05,1.69,1.19,2.16c0.05,0.16,0.1,0.33,0.16,0.51c0.28,0.84,0.48,1.52,0.58,2.03
		s0.15,1.15,0.15,1.9c0,0.86-0.15,1.66-0.44,2.42s-0.63,1.39-0.99,1.88c-0.39,0.52-0.62,0.85-0.7,0.98
		c-0.19,0.38-0.35,0.64-0.48,0.77C323.13,43.91,322.97,43.97,322.79,43.97z"/>
</g>
<g>
	<path d="M196.65,54.76c0-0.79,0.28-1.46,0.84-2.01c0.56-0.55,1.23-0.83,2-0.83c0.79,0,1.46,0.28,2.02,0.83
		c0.56,0.55,0.84,1.22,0.84,2.01c0,0.79-0.28,1.46-0.84,2.02c-0.56,0.56-1.23,0.84-2.02,0.84c-0.78,0-1.45-0.28-2-0.84
		C196.93,56.21,196.65,55.54,196.65,54.76z"/>
</g>
<g>
	<path d="M273.69,79.51c1.8,0,3.1-0.05,3.88-0.15c0.33-0.05,0.68-0.07,1.04-0.07c0.18,0,0.54,0.1,1.09,0.29s0.88,0.4,0.98,0.62
		s0.16,0.41,0.16,0.59c0,0.73-0.45,1.09-1.36,1.09c-0.1,0-0.49-0.08-1.16-0.25c-0.13-0.03-0.23-0.05-0.28-0.05l-1.07,0.07
		c-0.16,0-0.76-0.04-1.79-0.12c-0.32-0.02-1.29,0.01-2.92,0.09c-0.92,0.05-1.54,0-1.86-0.15s-0.47-0.42-0.47-0.82
		c0-0.42,0.28-0.74,0.85-0.96s1.25-0.32,2.04-0.32C273.03,79.38,273.31,79.43,273.69,79.51z"/>
</g>
<g>
	<g>
		<rect x="212.23" y="95.82" class="st2" width="35.43" height="35.43"/>
	</g>
	<g>
		<g>
			<path d="M229.42,108.98c-0.01,0.03-0.05,0.07-0.11,0.11c-0.14,0.09-0.27,0.19-0.41,0.3s-0.47,0.48-1,1.12
				c-0.68,0.81-1.3,1.51-1.86,2.09c-0.55,0.58-1.51,1.53-2.86,2.83l-0.71,0.69c0.43-0.04,0.98-0.09,1.65-0.16
				c0.96-0.11,1.49-0.16,1.6-0.16c0.33,0,0.6-0.01,0.81-0.03c0.21-0.01,0.4-0.02,0.57-0.02c1.32,0,1.98,0.32,1.98,0.96
				c0,0.26-0.07,0.46-0.2,0.61c-0.13,0.15-0.32,0.22-0.54,0.22c-0.18,0-0.4-0.03-0.64-0.1c-0.39-0.11-0.89-0.16-1.49-0.16
				c-0.23,0-0.9,0.04-2,0.11h0.01c-1.13,0.06-1.87,0.12-2.22,0.16s-0.76,0.12-1.22,0.25c-0.36,0.1-0.58,0.15-0.68,0.15
				c-0.46,0-0.68-0.23-0.68-0.68c0-0.37,0.12-0.64,0.37-0.82c0.61-0.45,1.39-1.14,2.37-2.05c0.97-0.92,1.88-1.83,2.74-2.72
				c0.14-0.15,0.3-0.31,0.49-0.5c0.76-0.76,1.31-1.35,1.65-1.78c-0.07,0-0.9,0.09-2.48,0.27c-1,0.12-1.75,0.18-2.26,0.18
				c-0.31,0-0.63-0.04-0.96-0.12c-0.48-0.21-0.72-0.48-0.72-0.81c0-0.15,0.09-0.32,0.28-0.52c0.19-0.2,0.34-0.29,0.46-0.29
				c0.09,0,0.2,0.02,0.34,0.08c0.14,0.05,0.25,0.08,0.32,0.08l1.26,0.01c0.35,0,0.73-0.01,1.14-0.05c0.31-0.03,0.79-0.06,1.46-0.09
				c0.75-0.04,1.27-0.08,1.54-0.13c0.84-0.14,1.37-0.21,1.59-0.21c0.38,0,0.57,0.2,0.57,0.61
				C229.58,108.64,229.52,108.83,229.42,108.98z"/>
			<path d="M232.25,110.3c0.61,0,1.05-0.02,1.32-0.05c0.11-0.02,0.23-0.02,0.35-0.02c0.06,0,0.18,0.03,0.37,0.1s0.3,0.14,0.33,0.21
				c0.04,0.07,0.06,0.14,0.06,0.2c0,0.25-0.15,0.37-0.46,0.37c-0.03,0-0.17-0.03-0.39-0.08c-0.05-0.01-0.08-0.02-0.1-0.02
				l-0.36,0.02c-0.06,0-0.26-0.01-0.61-0.04c-0.11-0.01-0.44,0-0.99,0.03c-0.31,0.02-0.52,0-0.63-0.05
				c-0.11-0.05-0.16-0.14-0.16-0.28c0-0.14,0.1-0.25,0.29-0.32c0.19-0.07,0.42-0.11,0.7-0.11
				C232.02,110.25,232.12,110.27,232.25,110.3z"/>
			<path d="M241.58,108.63l-1.33,1.79c-0.61,0.86-1.09,1.29-1.42,1.29c-0.15,0-0.29-0.09-0.41-0.26s-0.24-0.45-0.37-0.81
				s-0.21-0.63-0.26-0.82c-0.11-0.43-0.19-0.67-0.23-0.73l-0.2,1.04c-0.06,0.33-0.13,0.64-0.2,0.92s-0.14,0.62-0.22,1.01
				c-0.08,0.39-0.13,0.69-0.15,0.89c-0.01,0.07-0.07,0.14-0.19,0.22c-0.12,0.08-0.21,0.12-0.28,0.12c-0.13,0-0.25-0.06-0.36-0.18
				c-0.11-0.12-0.17-0.23-0.17-0.34c0-0.25,0.05-0.58,0.16-0.97c0.44-1.61,0.69-2.62,0.75-3.04s0.09-0.76,0.09-1.04
				c0-0.14,0.06-0.25,0.19-0.33s0.29-0.12,0.49-0.12c0.11,0,0.22,0.07,0.33,0.21c0.11,0.14,0.18,0.28,0.22,0.4l0-0.01l0.55,1.55
				c0.22,0.62,0.37,1.01,0.44,1.18c0.29-0.31,0.71-0.85,1.27-1.62c0.56-0.77,0.95-1.26,1.16-1.48c0.21-0.22,0.35-0.33,0.44-0.33
				c0.13,0,0.27,0.05,0.43,0.16c0.16,0.11,0.24,0.2,0.24,0.28c0,0.06-0.05,0.46-0.16,1.2c-0.07,0.52-0.14,1.11-0.2,1.76
				c-0.06,0.65-0.09,1.03-0.09,1.15c0,0.14,0.02,0.29,0.06,0.44c0.03,0.12,0.04,0.23,0.04,0.33c0,0.26-0.05,0.44-0.14,0.54
				s-0.23,0.14-0.42,0.14c-0.35,0-0.52-0.26-0.52-0.79c0-0.49,0.04-1.1,0.14-1.81c0.09-0.71,0.17-1.26,0.25-1.64
				C241.56,108.78,241.57,108.68,241.58,108.63z"/>
		</g>
	</g>
</g>
<polyline class="st1" points="211.74,112.44 199.56,112.44 199.56,54.48 "/>
<g>
	<g>
		<polyline class="st1" points="259.83,85.35 259.83,112.44 247.67,112.44 		"/>
		<g>
			<polygon points="256.93,87.33 259.83,76.49 262.74,87.33 			"/>
		</g>
	</g>
</g>
<g>
	<g>
		<line class="st1" x1="178.38" y1="54.79" x2="229.91" y2="54.79"/>
		<g>
			<polygon points="227.93,57.7 238.77,54.79 227.93,51.89 			"/>
		</g>
	</g>
</g>
<g>
	<path d="M213.58,16.75c0.35,0,0.52,0.17,0.52,0.51c0,0.42-0.5,0.94-1.51,1.55c-1,0.61-1.98,0.92-2.92,0.92
		c-0.83,0-1.59-0.27-2.29-0.81c-0.7-0.54-1.05-1.33-1.05-2.37c0-1.06,0.36-2.23,1.09-3.52c0.73-1.29,1.63-2.34,2.71-3.15
		c1.08-0.81,2.13-1.22,3.15-1.22c0.61,0,1.1,0.18,1.46,0.55c0.36,0.37,0.55,0.79,0.55,1.28c0,0.53-0.04,0.91-0.12,1.14
		c-0.08,0.23-0.26,0.43-0.53,0.59s-0.49,0.25-0.66,0.25c-0.17,0-0.32-0.06-0.45-0.18s-0.19-0.29-0.19-0.5
		c0-0.15,0.04-0.36,0.12-0.64c0.07-0.28,0.11-0.51,0.11-0.7c0-0.31-0.11-0.47-0.32-0.47c-0.66,0-1.39,0.35-2.21,1.05
		c-0.82,0.7-1.51,1.57-2.1,2.62c-0.58,1.04-0.87,1.96-0.87,2.76c0,0.53,0.15,0.98,0.46,1.34c0.31,0.37,0.75,0.55,1.34,0.55
		c0.35,0,0.78-0.09,1.31-0.28c0.53-0.19,1.01-0.44,1.46-0.76C213.1,16.91,213.41,16.75,213.58,16.75z"/>
	<path d="M222.37,15.65c-0.31,1.07-0.89,1.97-1.74,2.7s-1.71,1.1-2.56,1.1c-0.67,0-1.23-0.25-1.67-0.74
		c-0.44-0.5-0.66-1.1-0.66-1.82c0-1.18,0.4-2.33,1.2-3.47c0.8-1.14,1.77-1.71,2.92-1.71c0.78,0,1.41,0.29,1.89,0.87
		c0.48,0.58,0.72,1.26,0.72,2.06C222.49,14.97,222.45,15.31,222.37,15.65L222.37,15.65z M218.82,13.49
		c-0.32,0.28-0.63,0.73-0.94,1.35c-0.31,0.62-0.46,1.24-0.46,1.87c0,0.38,0.07,0.69,0.21,0.94s0.32,0.37,0.55,0.37
		c0.56,0,1.15-0.33,1.76-1s0.92-1.42,0.92-2.26c0-0.47-0.1-0.86-0.3-1.16c-0.2-0.3-0.48-0.46-0.83-0.46
		C219.4,13.14,219.1,13.26,218.82,13.49L218.82,13.49z"/>
	<path d="M225.61,18.72c-0.05,0.47-0.32,0.7-0.79,0.7c-0.6,0-0.9-0.43-0.9-1.29c0-1.39,0.08-2.59,0.23-3.58
		c0.12-0.77,0.18-1.53,0.18-2.27c0-0.18,0.06-0.33,0.17-0.45c0.11-0.12,0.27-0.18,0.48-0.18c0.68,0,1.03,0.42,1.03,1.24
		c0,0.27-0.12,0.96-0.36,2.06c-0.15,0.66-0.22,1.13-0.22,1.43c1.3-2.86,2.48-4.29,3.53-4.29c0.42,0,0.76,0.17,1.02,0.51
		c0.26,0.34,0.39,1.08,0.4,2.24c0,1.06,0.06,1.59,0.16,1.59c0.08,0,0.37-0.51,0.85-1.54c0.54-1.13,1.01-1.88,1.39-2.25
		c0.39-0.36,0.79-0.55,1.21-0.55c0.51,0,0.87,0.22,1.1,0.65c0.23,0.43,0.39,1.17,0.48,2.2c0.07,0.82,0.16,1.44,0.28,1.86
		c0.12,0.42,0.32,0.7,0.6,0.83c0.23,0.11,0.34,0.27,0.34,0.49c0,0.2-0.13,0.39-0.39,0.59s-0.52,0.3-0.79,0.3
		c-0.46,0-0.83-0.23-1.09-0.69s-0.44-1.38-0.53-2.76c-0.05-0.67-0.1-1.11-0.16-1.32c-0.06-0.22-0.14-0.33-0.26-0.33
		c-0.1,0-0.25,0.16-0.44,0.49c-0.19,0.33-0.52,0.97-0.99,1.94c-0.41,0.88-0.77,1.49-1.07,1.83c-0.3,0.35-0.62,0.52-0.96,0.52
		c-0.26,0-0.53-0.11-0.8-0.34c-0.27-0.23-0.41-1.05-0.43-2.48c-0.02-1.27-0.1-1.91-0.25-1.91c-0.19,0-0.65,0.57-1.38,1.7
		C226.53,16.81,225.98,17.82,225.61,18.72z"/>
	<path d="M238.49,12.48c0.44-2.62,0.76-4.17,0.95-4.66c0.19-0.48,0.53-0.72,1.02-0.72c0.37,0,0.56,0.33,0.56,0.99
		c0,0.45-0.19,1.39-0.56,2.81c-0.2,0.7-0.43,1.76-0.71,3.19c0.56-0.75,1.18-1.36,1.85-1.83s1.26-0.7,1.79-0.7
		c0.43,0,0.79,0.18,1.07,0.55c0.28,0.37,0.43,0.8,0.43,1.29c0,1.4-0.54,2.72-1.62,3.96c-1.08,1.24-2.22,1.85-3.44,1.85
		c-0.36,0-0.7-0.1-1.02-0.3s-0.49-0.45-0.53-0.76c-0.02-0.17-0.05-0.28-0.1-0.33s-0.1-0.11-0.16-0.18c-0.13-0.14-0.2-0.33-0.2-0.57
		c0-0.28,0.07-0.87,0.21-1.76L238.49,12.48z M239.29,17.33c0.19,0.32,0.41,0.48,0.64,0.48c0.43,0,0.9-0.2,1.43-0.59
		c0.52-0.39,0.98-0.95,1.36-1.67c0.39-0.71,0.58-1.31,0.58-1.78c0-0.45-0.07-0.68-0.21-0.68c-0.72,0-1.54,0.53-2.44,1.59
		S239.29,16.63,239.29,17.33z"/>
</g>
</svg>
