<?xml version="1.0" encoding="utf-8"?>
<!-- Generator: Adobe Illustrator 23.0.3, SVG Export Plug-In . SVG Version: 6.00 Build 0)  -->
<svg version="1.1" id="Слой_1" xmlns="http://www.w3.org/2000/svg" xmlns:xlink="http://www.w3.org/1999/xlink" x="0px" y="0px"
	 viewBox="0 0 388.89 127.26" style="enable-background:new 0 0 388.89 127.26;" xml:space="preserve">
<style type="text/css">
	.st0{fill:none;stroke:#EBEBED;stroke-miterlimit:10;}
	.st1{fill:#FFFFFF;stroke:#000000;stroke-width:2;stroke-miterlimit:10;}
	.st2{fill:none;stroke:#000000;stroke-miterlimit:10;}
</style>
<g>
	<rect x="293.04" y="43.38" class="st0" width="13.15" height="6.75"/>
	<rect x="266.74" y="43.38" class="st0" width="13.15" height="6.75"/>
	<rect x="253.59" y="43.38" class="st0" width="13.15" height="6.75"/>
	<rect x="240.44" y="43.38" class="st0" width="13.15" height="6.75"/>
	<rect x="293.04" y="50.13" class="st0" width="13.15" height="6.75"/>
	<rect x="279.89" y="43.38" class="st0" width="13.15" height="6.75"/>
	<rect x="332.48" y="50.13" class="st0" width="13.15" height="6.75"/>
	<rect x="345.63" y="50.13" class="st0" width="13.15" height="6.75"/>
	<rect x="227.3" y="43.38" class="st0" width="13.15" height="6.75"/>
	<rect x="319.33" y="50.13" class="st0" width="13.15" height="6.75"/>
	<rect x="358.77" y="50.13" class="st0" width="13.15" height="6.75"/>
	<rect x="306.19" y="50.13" class="st0" width="13.15" height="6.75"/>
	<rect x="371.92" y="50.13" class="st0" width="13.15" height="6.75"/>
	<rect x="214.15" y="36.63" class="st0" width="13.15" height="6.75"/>
	<rect x="385.07" y="43.38" class="st0" width="3.82" height="6.75"/>
	<rect x="371.92" y="43.38" class="st0" width="13.15" height="6.75"/>
	<rect x="371.92" y="90.63" class="st0" width="13.15" height="6.75"/>
	<rect x="385.07" y="90.63" class="st0" width="3.82" height="6.75"/>
	<rect x="358.77" y="90.63" class="st0" width="13.15" height="6.75"/>
	<rect x="358.77" y="43.38" class="st0" width="13.15" height="6.75"/>
	<rect x="306.19" y="43.38" class="st0" width="13.15" height="6.75"/>
	<rect x="227.3" y="97.38" class="st0" width="13.15" height="6.75"/>
	<rect x="319.33" y="43.38" class="st0" width="13.15" height="6.75"/>
	<rect x="332.48" y="43.38" class="st0" width="13.15" height="6.75"/>
	<rect x="240.44" y="97.38" class="st0" width="13.15" height="6.75"/>
	<rect x="266.74" y="97.38" class="st0" width="13.15" height="6.75"/>
	<rect x="345.63" y="90.63" class="st0" width="13.15" height="6.75"/>
	<rect x="293.04" y="97.38" class="st0" width="13.15" height="6.75"/>
	<rect x="253.59" y="97.38" class="st0" width="13.15" height="6.75"/>
	<rect x="306.19" y="36.63" class="st0" width="13.15" height="6.75"/>
	<rect x="279.89" y="97.38" class="st0" width="13.15" height="6.75"/>
	<rect x="332.48" y="90.63" class="st0" width="13.15" height="6.75"/>
	<rect x="306.19" y="97.38" class="st0" width="13.15" height="6.75"/>
	<rect x="332.48" y="97.38" class="st0" width="13.15" height="6.75"/>
	<rect x="319.33" y="97.38" class="st0" width="13.15" height="6.75"/>
	<rect x="345.63" y="43.38" class="st0" width="13.15" height="6.75"/>
	<rect x="108.97" y="36.63" class="st0" width="13.15" height="6.75"/>
	<rect x="122.11" y="36.63" class="st0" width="13.15" height="6.75"/>
	<rect x="161.56" y="36.63" class="st0" width="13.15" height="6.75"/>
	<rect x="148.41" y="36.63" class="st0" width="13.15" height="6.75"/>
	<rect x="95.82" y="36.63" class="st0" width="13.15" height="6.75"/>
	<rect x="135.26" y="36.63" class="st0" width="13.15" height="6.75"/>
	<rect x="56.38" y="43.38" class="st0" width="13.15" height="6.75"/>
	<rect x="82.67" y="36.63" class="st0" width="13.15" height="6.75"/>
	<rect x="69.52" y="43.38" class="st0" width="13.15" height="6.75"/>
	<rect x="69.52" y="36.63" class="st0" width="13.15" height="6.75"/>
	<rect x="253.59" y="36.63" class="st0" width="13.15" height="6.75"/>
	<rect x="240.44" y="36.63" class="st0" width="13.15" height="6.75"/>
	<rect x="266.74" y="36.63" class="st0" width="13.15" height="6.75"/>
	<rect x="293.04" y="36.63" class="st0" width="13.15" height="6.75"/>
	<rect x="174.71" y="36.63" class="st0" width="13.15" height="6.75"/>
	<rect x="279.89" y="36.63" class="st0" width="13.15" height="6.75"/>
	<rect x="201" y="36.63" class="st0" width="13.15" height="6.75"/>
	<rect x="227.3" y="36.63" class="st0" width="13.15" height="6.75"/>
	<rect x="187.85" y="36.63" class="st0" width="13.15" height="6.75"/>
	<rect x="385.07" y="50.13" class="st0" width="3.82" height="6.75"/>
	<rect x="108.97" y="97.38" class="st0" width="13.15" height="6.75"/>
	<rect x="43.23" y="50.13" class="st0" width="13.15" height="6.75"/>
	<rect x="30.08" y="50.13" class="st0" width="13.15" height="6.75"/>
	<rect x="56.38" y="50.13" class="st0" width="13.15" height="6.75"/>
	<rect y="70.38" class="st0" width="3.78" height="6.75"/>
	<rect x="16.93" y="50.13" class="st0" width="13.15" height="6.75"/>
	<rect y="56.88" class="st0" width="3.78" height="6.75"/>
	<rect y="63.63" class="st0" width="3.78" height="6.75"/>
	<rect x="82.67" y="50.13" class="st0" width="13.15" height="6.75"/>
	<rect x="3.78" y="50.13" class="st0" width="13.15" height="6.75"/>
	<rect y="50.13" class="st0" width="3.78" height="6.75"/>
	<rect x="69.52" y="50.13" class="st0" width="13.15" height="6.75"/>
	<rect x="174.71" y="43.38" class="st0" width="13.15" height="6.75"/>
	<rect x="82.67" y="43.38" class="st0" width="13.15" height="6.75"/>
	<rect x="214.15" y="97.38" class="st0" width="13.15" height="6.75"/>
	<rect x="187.85" y="43.38" class="st0" width="13.15" height="6.75"/>
	<rect x="201" y="43.38" class="st0" width="13.15" height="6.75"/>
	<rect x="148.41" y="43.38" class="st0" width="13.15" height="6.75"/>
	<rect x="108.97" y="43.38" class="st0" width="13.15" height="6.75"/>
	<rect x="95.82" y="43.38" class="st0" width="13.15" height="6.75"/>
	<rect x="135.26" y="43.38" class="st0" width="13.15" height="6.75"/>
	<rect x="122.11" y="43.38" class="st0" width="13.15" height="6.75"/>
	<rect x="161.56" y="43.38" class="st0" width="13.15" height="6.75"/>
	<rect x="82.67" y="97.38" class="st0" width="13.15" height="6.75"/>
	<rect x="148.41" y="97.38" class="st0" width="13.15" height="6.75"/>
	<rect x="135.26" y="97.38" class="st0" width="13.15" height="6.75"/>
	<rect x="95.82" y="97.38" class="st0" width="13.15" height="6.75"/>
	<rect x="214.15" y="43.38" class="st0" width="13.15" height="6.75"/>
	<rect x="122.11" y="97.38" class="st0" width="13.15" height="6.75"/>
	<rect x="161.56" y="97.38" class="st0" width="13.15" height="6.75"/>
	<rect x="187.85" y="97.38" class="st0" width="13.15" height="6.75"/>
	<rect x="201" y="97.38" class="st0" width="13.15" height="6.75"/>
	<rect x="174.71" y="97.38" class="st0" width="13.15" height="6.75"/>
	<rect y="77.13" class="st0" width="3.78" height="6.75"/>
	<rect y="90.63" class="st0" width="3.78" height="6.75"/>
	<rect x="3.78" y="90.63" class="st0" width="13.15" height="6.75"/>
	<rect y="83.88" class="st0" width="3.78" height="6.75"/>
	<rect x="16.93" y="90.63" class="st0" width="13.15" height="6.75"/>
	<rect x="43.23" y="97.38" class="st0" width="13.15" height="6.75"/>
	<rect x="30.08" y="90.63" class="st0" width="13.15" height="6.75"/>
	<rect x="69.52" y="97.38" class="st0" width="13.15" height="6.75"/>
	<rect x="56.38" y="97.38" class="st0" width="13.15" height="6.75"/>
	<rect x="43.23" y="90.63" class="st0" width="13.15" height="6.75"/>
	<rect x="240.44" y="50.13" class="st0" width="13.15" height="6.75"/>
	<rect x="293.04" y="63.63" class="st0" width="13.15" height="6.75"/>
	<rect x="358.77" y="63.63" class="st0" width="13.15" height="6.75"/>
	<rect x="306.19" y="63.63" class="st0" width="13.15" height="6.75"/>
	<rect x="332.48" y="63.63" class="st0" width="13.15" height="6.75"/>
	<rect x="345.63" y="63.63" class="st0" width="13.15" height="6.75"/>
	<rect x="385.07" y="83.88" class="st0" width="3.82" height="6.75"/>
	<rect x="240.44" y="56.88" class="st0" width="13.15" height="6.75"/>
	<rect x="253.59" y="56.88" class="st0" width="13.15" height="6.75"/>
	<rect x="266.74" y="63.63" class="st0" width="13.15" height="6.75"/>
	<rect x="266.74" y="56.88" class="st0" width="13.15" height="6.75"/>
	<rect x="279.89" y="63.63" class="st0" width="13.15" height="6.75"/>
	<rect x="306.19" y="70.38" class="st0" width="13.15" height="6.75"/>
	<rect x="332.48" y="70.38" class="st0" width="13.15" height="6.75"/>
	<rect x="69.52" y="77.13" class="st0" width="13.15" height="6.75"/>
	<rect x="319.33" y="70.38" class="st0" width="13.15" height="6.75"/>
	<rect x="293.04" y="70.38" class="st0" width="13.15" height="6.75"/>
	<rect x="293.04" y="77.13" class="st0" width="13.15" height="6.75"/>
	<rect x="371.92" y="63.63" class="st0" width="13.15" height="6.75"/>
	<rect x="345.63" y="70.38" class="st0" width="13.15" height="6.75"/>
	<rect x="385.07" y="70.38" class="st0" width="3.82" height="6.75"/>
	<rect x="385.07" y="63.63" class="st0" width="3.82" height="6.75"/>
	<rect x="371.92" y="70.38" class="st0" width="13.15" height="6.75"/>
	<rect x="358.77" y="70.38" class="st0" width="13.15" height="6.75"/>
	<rect x="174.71" y="56.88" class="st0" width="13.15" height="6.75"/>
	<rect x="82.67" y="63.63" class="st0" width="13.15" height="6.75"/>
	<rect x="43.23" y="63.63" class="st0" width="13.15" height="6.75"/>
	<rect x="69.52" y="63.63" class="st0" width="13.15" height="6.75"/>
	<rect x="56.38" y="63.63" class="st0" width="13.15" height="6.75"/>
	<rect x="16.93" y="63.63" class="st0" width="13.15" height="6.75"/>
	<rect x="30.08" y="63.63" class="st0" width="13.15" height="6.75"/>
	<rect x="43.23" y="77.13" class="st0" width="13.15" height="6.75"/>
	<rect x="214.15" y="56.88" class="st0" width="13.15" height="6.75"/>
	<rect x="16.93" y="77.13" class="st0" width="13.15" height="6.75"/>
	<rect x="30.08" y="77.13" class="st0" width="13.15" height="6.75"/>
	<rect x="16.93" y="70.38" class="st0" width="13.15" height="6.75"/>
	<rect x="56.38" y="77.13" class="st0" width="13.15" height="6.75"/>
	<rect x="161.56" y="56.88" class="st0" width="13.15" height="6.75"/>
	<rect x="148.41" y="56.88" class="st0" width="13.15" height="6.75"/>
	<rect x="279.89" y="77.13" class="st0" width="13.15" height="6.75"/>
	<rect x="95.82" y="63.63" class="st0" width="13.15" height="6.75"/>
	<rect x="201" y="56.88" class="st0" width="13.15" height="6.75"/>
	<rect x="187.85" y="56.88" class="st0" width="13.15" height="6.75"/>
	<rect x="108.97" y="63.63" class="st0" width="13.15" height="6.75"/>
	<rect x="108.97" y="56.88" class="st0" width="13.15" height="6.75"/>
	<rect x="135.26" y="56.88" class="st0" width="13.15" height="6.75"/>
	<rect x="122.11" y="56.88" class="st0" width="13.15" height="6.75"/>
	<rect x="227.3" y="56.88" class="st0" width="13.15" height="6.75"/>
	<rect x="253.59" y="63.63" class="st0" width="13.15" height="6.75"/>
	<rect x="253.59" y="70.38" class="st0" width="13.15" height="6.75"/>
	<rect x="201" y="70.38" class="st0" width="13.15" height="6.75"/>
	<rect x="227.3" y="70.38" class="st0" width="13.15" height="6.75"/>
	<rect x="214.15" y="70.38" class="st0" width="13.15" height="6.75"/>
	<rect x="240.44" y="70.38" class="st0" width="13.15" height="6.75"/>
	<rect x="201" y="63.63" class="st0" width="13.15" height="6.75"/>
	<rect x="240.44" y="63.63" class="st0" width="13.15" height="6.75"/>
	<rect x="187.85" y="63.63" class="st0" width="13.15" height="6.75"/>
	<rect x="214.15" y="63.63" class="st0" width="13.15" height="6.75"/>
	<rect x="227.3" y="63.63" class="st0" width="13.15" height="6.75"/>
	<rect x="69.52" y="70.38" class="st0" width="13.15" height="6.75"/>
	<rect x="174.71" y="63.63" class="st0" width="13.15" height="6.75"/>
	<rect x="56.38" y="70.38" class="st0" width="13.15" height="6.75"/>
	<rect x="43.23" y="70.38" class="st0" width="13.15" height="6.75"/>
	<rect x="187.85" y="70.38" class="st0" width="13.15" height="6.75"/>
	<rect x="279.89" y="70.38" class="st0" width="13.15" height="6.75"/>
	<rect x="30.08" y="70.38" class="st0" width="13.15" height="6.75"/>
	<rect x="174.71" y="70.38" class="st0" width="13.15" height="6.75"/>
	<rect x="161.56" y="70.38" class="st0" width="13.15" height="6.75"/>
	<rect x="148.41" y="70.38" class="st0" width="13.15" height="6.75"/>
	<rect x="135.26" y="70.38" class="st0" width="13.15" height="6.75"/>
	<rect x="266.74" y="70.38" class="st0" width="13.15" height="6.75"/>
	<rect x="187.85" y="77.13" class="st0" width="13.15" height="6.75"/>
	<rect x="161.56" y="77.13" class="st0" width="13.15" height="6.75"/>
	<rect x="174.71" y="77.13" class="st0" width="13.15" height="6.75"/>
	<rect x="161.56" y="63.63" class="st0" width="13.15" height="6.75"/>
	<rect x="122.11" y="77.13" class="st0" width="13.15" height="6.75"/>
	<rect x="135.26" y="77.13" class="st0" width="13.15" height="6.75"/>
	<rect x="266.74" y="77.13" class="st0" width="13.15" height="6.75"/>
	<rect x="240.44" y="77.13" class="st0" width="13.15" height="6.75"/>
	<rect x="253.59" y="77.13" class="st0" width="13.15" height="6.75"/>
	<rect x="201" y="77.13" class="st0" width="13.15" height="6.75"/>
	<rect x="214.15" y="77.13" class="st0" width="13.15" height="6.75"/>
	<rect x="227.3" y="77.13" class="st0" width="13.15" height="6.75"/>
	<rect x="148.41" y="77.13" class="st0" width="13.15" height="6.75"/>
	<rect x="122.11" y="70.38" class="st0" width="13.15" height="6.75"/>
	<rect x="108.97" y="70.38" class="st0" width="13.15" height="6.75"/>
	<rect x="122.11" y="63.63" class="st0" width="13.15" height="6.75"/>
	<rect x="135.26" y="63.63" class="st0" width="13.15" height="6.75"/>
	<rect x="148.41" y="63.63" class="st0" width="13.15" height="6.75"/>
	<rect x="95.82" y="77.13" class="st0" width="13.15" height="6.75"/>
	<rect x="95.82" y="70.38" class="st0" width="13.15" height="6.75"/>
	<rect x="82.67" y="77.13" class="st0" width="13.15" height="6.75"/>
	<rect x="108.97" y="77.13" class="st0" width="13.15" height="6.75"/>
	<rect x="82.67" y="70.38" class="st0" width="13.15" height="6.75"/>
	<rect x="319.33" y="63.63" class="st0" width="13.15" height="6.75"/>
	<rect x="3.78" y="83.88" class="st0" width="13.15" height="6.75"/>
	<rect x="95.82" y="90.63" class="st0" width="13.15" height="6.75"/>
	<rect x="135.26" y="50.13" class="st0" width="13.15" height="6.75"/>
	<rect x="3.78" y="70.38" class="st0" width="13.15" height="6.75"/>
	<rect x="3.78" y="63.63" class="st0" width="13.15" height="6.75"/>
	<rect x="30.08" y="83.88" class="st0" width="13.15" height="6.75"/>
	<rect x="69.52" y="90.63" class="st0" width="13.15" height="6.75"/>
	<rect x="82.67" y="90.63" class="st0" width="13.15" height="6.75"/>
	<rect x="43.23" y="83.88" class="st0" width="13.15" height="6.75"/>
	<rect x="56.38" y="83.88" class="st0" width="13.15" height="6.75"/>
	<rect x="56.38" y="90.63" class="st0" width="13.15" height="6.75"/>
	<rect x="16.93" y="83.88" class="st0" width="13.15" height="6.75"/>
	<rect x="95.82" y="56.88" class="st0" width="13.15" height="6.75"/>
	<rect x="95.82" y="50.13" class="st0" width="13.15" height="6.75"/>
	<rect x="82.67" y="56.88" class="st0" width="13.15" height="6.75"/>
	<rect x="108.97" y="50.13" class="st0" width="13.15" height="6.75"/>
	<rect x="122.11" y="50.13" class="st0" width="13.15" height="6.75"/>
	<rect x="43.23" y="56.88" class="st0" width="13.15" height="6.75"/>
	<rect x="16.93" y="56.88" class="st0" width="13.15" height="6.75"/>
	<rect x="30.08" y="56.88" class="st0" width="13.15" height="6.75"/>
	<rect x="3.78" y="56.88" class="st0" width="13.15" height="6.75"/>
	<rect x="56.38" y="56.88" class="st0" width="13.15" height="6.75"/>
	<rect x="69.52" y="56.88" class="st0" width="13.15" height="6.75"/>
	<rect x="3.78" y="77.13" class="st0" width="13.15" height="6.75"/>
	<rect x="306.19" y="90.63" class="st0" width="13.15" height="6.75"/>
	<rect x="319.33" y="90.63" class="st0" width="13.15" height="6.75"/>
	<rect x="293.04" y="90.63" class="st0" width="13.15" height="6.75"/>
	<rect x="253.59" y="90.63" class="st0" width="13.15" height="6.75"/>
	<rect x="108.97" y="90.63" class="st0" width="13.15" height="6.75"/>
	<rect x="279.89" y="90.63" class="st0" width="13.15" height="6.75"/>
	<rect x="371.92" y="83.88" class="st0" width="13.15" height="6.75"/>
	<rect x="319.33" y="83.88" class="st0" width="13.15" height="6.75"/>
	<rect x="358.77" y="83.88" class="st0" width="13.15" height="6.75"/>
	<rect x="345.63" y="83.88" class="st0" width="13.15" height="6.75"/>
	<rect x="332.48" y="83.88" class="st0" width="13.15" height="6.75"/>
	<rect x="266.74" y="90.63" class="st0" width="13.15" height="6.75"/>
	<rect x="161.56" y="90.63" class="st0" width="13.15" height="6.75"/>
	<rect x="174.71" y="90.63" class="st0" width="13.15" height="6.75"/>
	<rect x="148.41" y="90.63" class="st0" width="13.15" height="6.75"/>
	<rect x="122.11" y="90.63" class="st0" width="13.15" height="6.75"/>
	<rect x="135.26" y="90.63" class="st0" width="13.15" height="6.75"/>
	<rect x="240.44" y="90.63" class="st0" width="13.15" height="6.75"/>
	<rect x="214.15" y="90.63" class="st0" width="13.15" height="6.75"/>
	<rect x="227.3" y="90.63" class="st0" width="13.15" height="6.75"/>
	<rect x="187.85" y="90.63" class="st0" width="13.15" height="6.75"/>
	<rect x="201" y="90.63" class="st0" width="13.15" height="6.75"/>
	<rect x="174.71" y="50.13" class="st0" width="13.15" height="6.75"/>
	<rect x="253.59" y="83.88" class="st0" width="13.15" height="6.75"/>
	<rect x="279.89" y="83.88" class="st0" width="13.15" height="6.75"/>
	<rect x="266.74" y="83.88" class="st0" width="13.15" height="6.75"/>
	<rect x="240.44" y="83.88" class="st0" width="13.15" height="6.75"/>
	<rect x="227.3" y="83.88" class="st0" width="13.15" height="6.75"/>
	<rect x="214.15" y="83.88" class="st0" width="13.15" height="6.75"/>
	<rect x="332.48" y="77.13" class="st0" width="13.15" height="6.75"/>
	<rect x="293.04" y="83.88" class="st0" width="13.15" height="6.75"/>
	<rect x="319.33" y="77.13" class="st0" width="13.15" height="6.75"/>
	<rect x="306.19" y="77.13" class="st0" width="13.15" height="6.75"/>
	<rect x="306.19" y="83.88" class="st0" width="13.15" height="6.75"/>
	<rect x="187.85" y="83.88" class="st0" width="13.15" height="6.75"/>
	<rect x="122.11" y="83.88" class="st0" width="13.15" height="6.75"/>
	<rect x="108.97" y="83.88" class="st0" width="13.15" height="6.75"/>
	<rect x="82.67" y="83.88" class="st0" width="13.15" height="6.75"/>
	<rect x="95.82" y="83.88" class="st0" width="13.15" height="6.75"/>
	<rect x="135.26" y="83.88" class="st0" width="13.15" height="6.75"/>
	<rect x="161.56" y="83.88" class="st0" width="13.15" height="6.75"/>
	<rect x="148.41" y="83.88" class="st0" width="13.15" height="6.75"/>
	<rect x="345.63" y="77.13" class="st0" width="13.15" height="6.75"/>
	<rect x="174.71" y="83.88" class="st0" width="13.15" height="6.75"/>
	<rect x="201" y="83.88" class="st0" width="13.15" height="6.75"/>
	<rect x="266.74" y="50.13" class="st0" width="13.15" height="6.75"/>
	<rect x="43.23" y="43.38" class="st0" width="13.15" height="6.75"/>
	<rect x="227.3" y="50.13" class="st0" width="13.15" height="6.75"/>
	<rect x="253.59" y="50.13" class="st0" width="13.15" height="6.75"/>
	<rect x="358.77" y="77.13" class="st0" width="13.15" height="6.75"/>
	<rect x="148.41" y="50.13" class="st0" width="13.15" height="6.75"/>
	<rect x="201" y="50.13" class="st0" width="13.15" height="6.75"/>
	<rect x="69.52" y="83.88" class="st0" width="13.15" height="6.75"/>
	<rect x="161.56" y="50.13" class="st0" width="13.15" height="6.75"/>
	<rect x="279.89" y="56.88" class="st0" width="13.15" height="6.75"/>
	<rect x="214.15" y="50.13" class="st0" width="13.15" height="6.75"/>
	<rect x="187.85" y="50.13" class="st0" width="13.15" height="6.75"/>
	<rect x="279.89" y="50.13" class="st0" width="13.15" height="6.75"/>
	<rect x="358.77" y="56.88" class="st0" width="13.15" height="6.75"/>
	<rect x="293.04" y="56.88" class="st0" width="13.15" height="6.75"/>
	<rect x="385.07" y="56.88" class="st0" width="3.82" height="6.75"/>
	<rect x="371.92" y="77.13" class="st0" width="13.15" height="6.75"/>
	<rect x="385.07" y="77.13" class="st0" width="3.82" height="6.75"/>
	<rect x="371.92" y="56.88" class="st0" width="13.15" height="6.75"/>
	<rect x="345.63" y="56.88" class="st0" width="13.15" height="6.75"/>
	<rect x="319.33" y="56.88" class="st0" width="13.15" height="6.75"/>
	<rect x="306.19" y="56.88" class="st0" width="13.15" height="6.75"/>
	<rect x="332.48" y="56.88" class="st0" width="13.15" height="6.75"/>
	<rect x="306.19" y="2.88" class="st0" width="13.15" height="6.75"/>
	<rect x="253.59" class="st0" width="13.15" height="2.88"/>
	<rect x="240.44" class="st0" width="13.15" height="2.88"/>
	<rect x="43.23" y="16.38" class="st0" width="13.15" height="6.75"/>
	<rect x="174.71" y="124.39" class="st0" width="13.15" height="2.88"/>
	<rect x="214.15" class="st0" width="13.15" height="2.88"/>
	<rect x="279.89" class="st0" width="13.15" height="2.88"/>
	<rect x="332.48" class="st0" width="13.15" height="2.88"/>
	<rect x="319.33" class="st0" width="13.15" height="2.88"/>
	<rect x="306.19" class="st0" width="13.15" height="2.88"/>
	<rect x="293.04" class="st0" width="13.15" height="2.88"/>
	<rect x="201" class="st0" width="13.15" height="2.88"/>
	<rect x="30.08" y="23.13" class="st0" width="13.15" height="6.75"/>
	<rect x="3.78" y="23.13" class="st0" width="13.15" height="6.75"/>
	<rect x="16.93" y="23.13" class="st0" width="13.15" height="6.75"/>
	<rect x="187.85" class="st0" width="13.15" height="2.88"/>
	<rect x="30.08" y="16.38" class="st0" width="13.15" height="6.75"/>
	<rect y="23.13" class="st0" width="3.78" height="6.75"/>
	<rect x="161.56" class="st0" width="13.15" height="2.88"/>
	<rect x="174.71" class="st0" width="13.15" height="2.88"/>
	<rect x="148.41" class="st0" width="13.15" height="2.88"/>
	<rect x="266.74" class="st0" width="13.15" height="2.88"/>
	<rect x="82.67" y="124.39" class="st0" width="13.15" height="2.88"/>
	<rect x="43.23" y="124.39" class="st0" width="13.15" height="2.88"/>
	<rect x="69.52" y="124.39" class="st0" width="13.15" height="2.88"/>
	<rect x="108.97" y="124.39" class="st0" width="13.15" height="2.88"/>
	<rect x="56.38" y="124.39" class="st0" width="13.15" height="2.88"/>
	<rect x="95.82" y="124.39" class="st0" width="13.15" height="2.88"/>
	<rect x="148.41" y="124.39" class="st0" width="13.15" height="2.88"/>
	<rect x="161.56" y="124.39" class="st0" width="13.15" height="2.88"/>
	<rect x="122.11" y="124.39" class="st0" width="13.15" height="2.88"/>
	<rect x="135.26" y="124.39" class="st0" width="13.15" height="2.88"/>
	<rect y="117.63" class="st0" width="3.78" height="6.75"/>
	<rect x="385.07" y="2.88" class="st0" width="3.82" height="6.75"/>
	<rect x="371.92" class="st0" width="13.15" height="2.88"/>
	<rect x="385.07" class="st0" width="3.82" height="2.88"/>
	<rect x="30.08" y="124.39" class="st0" width="13.15" height="2.88"/>
	<rect x="358.77" class="st0" width="13.15" height="2.88"/>
	<rect x="345.63" class="st0" width="13.15" height="2.88"/>
	<rect x="16.93" y="124.39" class="st0" width="13.15" height="2.88"/>
	<rect x="3.78" y="124.39" class="st0" width="13.15" height="2.88"/>
	<rect y="124.39" class="st0" width="3.78" height="2.88"/>
	<rect x="227.3" class="st0" width="13.15" height="2.88"/>
	<rect x="135.26" class="st0" width="13.15" height="2.88"/>
	<rect x="122.11" class="st0" width="13.15" height="2.88"/>
	<rect x="108.97" class="st0" width="13.15" height="2.88"/>
	<rect x="95.82" class="st0" width="13.15" height="2.88"/>
	<rect x="30.08" y="43.38" class="st0" width="13.15" height="6.75"/>
	<rect x="385.07" y="23.13" class="st0" width="3.82" height="6.75"/>
	<rect x="371.92" y="23.13" class="st0" width="13.15" height="6.75"/>
	<rect x="345.63" y="16.38" class="st0" width="13.15" height="6.75"/>
	<rect x="345.63" y="23.13" class="st0" width="13.15" height="6.75"/>
	<rect x="358.77" y="23.13" class="st0" width="13.15" height="6.75"/>
	<rect class="st0" width="3.78" height="2.88"/>
	<rect y="2.88" class="st0" width="3.78" height="6.75"/>
	<rect x="3.78" class="st0" width="13.15" height="2.88"/>
	<rect x="332.48" y="16.38" class="st0" width="13.15" height="6.75"/>
	<rect x="385.07" y="110.88" class="st0" width="3.82" height="6.75"/>
	<rect x="56.38" class="st0" width="13.15" height="2.88"/>
	<rect x="43.23" class="st0" width="13.15" height="2.88"/>
	<rect x="16.93" class="st0" width="13.15" height="2.88"/>
	<rect x="69.52" class="st0" width="13.15" height="2.88"/>
	<rect x="30.08" class="st0" width="13.15" height="2.88"/>
	<rect x="135.26" y="16.38" class="st0" width="13.15" height="6.75"/>
	<rect x="148.41" y="16.38" class="st0" width="13.15" height="6.75"/>
	<rect x="122.11" y="16.38" class="st0" width="13.15" height="6.75"/>
	<rect x="56.38" y="16.38" class="st0" width="13.15" height="6.75"/>
	<rect x="161.56" y="16.38" class="st0" width="13.15" height="6.75"/>
	<rect x="174.71" y="16.38" class="st0" width="13.15" height="6.75"/>
	<rect x="82.67" y="16.38" class="st0" width="13.15" height="6.75"/>
	<rect x="69.52" y="16.38" class="st0" width="13.15" height="6.75"/>
	<rect x="108.97" y="16.38" class="st0" width="13.15" height="6.75"/>
	<rect x="187.85" y="16.38" class="st0" width="13.15" height="6.75"/>
	<rect x="95.82" y="16.38" class="st0" width="13.15" height="6.75"/>
	<rect x="319.33" y="16.38" class="st0" width="13.15" height="6.75"/>
	<rect x="279.89" y="16.38" class="st0" width="13.15" height="6.75"/>
	<rect x="201" y="16.38" class="st0" width="13.15" height="6.75"/>
	<rect x="293.04" y="16.38" class="st0" width="13.15" height="6.75"/>
	<rect x="306.19" y="16.38" class="st0" width="13.15" height="6.75"/>
	<rect x="266.74" y="16.38" class="st0" width="13.15" height="6.75"/>
	<rect x="227.3" y="16.38" class="st0" width="13.15" height="6.75"/>
	<rect x="253.59" y="16.38" class="st0" width="13.15" height="6.75"/>
	<rect x="214.15" y="16.38" class="st0" width="13.15" height="6.75"/>
	<rect x="240.44" y="16.38" class="st0" width="13.15" height="6.75"/>
	<rect x="187.85" y="124.39" class="st0" width="13.15" height="2.88"/>
	<rect x="43.23" y="2.88" class="st0" width="13.15" height="6.75"/>
	<rect x="30.08" y="2.88" class="st0" width="13.15" height="6.75"/>
	<rect x="122.11" y="2.88" class="st0" width="13.15" height="6.75"/>
	<rect x="56.38" y="2.88" class="st0" width="13.15" height="6.75"/>
	<rect x="3.78" y="2.88" class="st0" width="13.15" height="6.75"/>
	<rect x="108.97" y="2.88" class="st0" width="13.15" height="6.75"/>
	<rect x="3.78" y="9.63" class="st0" width="13.15" height="6.75"/>
	<rect x="95.82" y="2.88" class="st0" width="13.15" height="6.75"/>
	<rect x="82.67" y="2.88" class="st0" width="13.15" height="6.75"/>
	<rect x="69.52" y="2.88" class="st0" width="13.15" height="6.75"/>
	<rect x="16.93" y="2.88" class="st0" width="13.15" height="6.75"/>
	<rect y="9.63" class="st0" width="3.78" height="6.75"/>
	<rect x="56.38" y="9.63" class="st0" width="13.15" height="6.75"/>
	<rect x="69.52" y="9.63" class="st0" width="13.15" height="6.75"/>
	<rect x="30.08" y="9.63" class="st0" width="13.15" height="6.75"/>
	<rect x="43.23" y="9.63" class="st0" width="13.15" height="6.75"/>
	<rect y="16.38" class="st0" width="3.78" height="6.75"/>
	<rect x="3.78" y="16.38" class="st0" width="13.15" height="6.75"/>
	<rect x="16.93" y="16.38" class="st0" width="13.15" height="6.75"/>
	<rect x="16.93" y="9.63" class="st0" width="13.15" height="6.75"/>
	<rect x="161.56" y="2.88" class="st0" width="13.15" height="6.75"/>
	<rect x="319.33" y="2.88" class="st0" width="13.15" height="6.75"/>
	<rect x="385.07" y="9.63" class="st0" width="3.82" height="6.75"/>
	<rect x="332.48" y="2.88" class="st0" width="13.15" height="6.75"/>
	<rect x="293.04" y="2.88" class="st0" width="13.15" height="6.75"/>
	<rect x="266.74" y="2.88" class="st0" width="13.15" height="6.75"/>
	<rect x="279.89" y="2.88" class="st0" width="13.15" height="6.75"/>
	<rect x="371.92" y="9.63" class="st0" width="13.15" height="6.75"/>
	<rect x="358.77" y="2.88" class="st0" width="13.15" height="6.75"/>
	<rect x="345.63" y="2.88" class="st0" width="13.15" height="6.75"/>
	<rect x="371.92" y="2.88" class="st0" width="13.15" height="6.75"/>
	<rect x="82.67" y="9.63" class="st0" width="13.15" height="6.75"/>
	<rect x="371.92" y="110.88" class="st0" width="13.15" height="6.75"/>
	<rect x="135.26" y="2.88" class="st0" width="13.15" height="6.75"/>
	<rect x="174.71" y="2.88" class="st0" width="13.15" height="6.75"/>
	<rect x="148.41" y="2.88" class="st0" width="13.15" height="6.75"/>
	<rect x="253.59" y="2.88" class="st0" width="13.15" height="6.75"/>
	<rect x="240.44" y="2.88" class="st0" width="13.15" height="6.75"/>
	<rect x="201" y="2.88" class="st0" width="13.15" height="6.75"/>
	<rect x="227.3" y="2.88" class="st0" width="13.15" height="6.75"/>
	<rect x="214.15" y="2.88" class="st0" width="13.15" height="6.75"/>
	<rect x="187.85" y="2.88" class="st0" width="13.15" height="6.75"/>
	<rect x="319.33" y="124.39" class="st0" width="13.15" height="2.88"/>
	<rect x="385.07" y="124.39" class="st0" width="3.82" height="2.88"/>
	<rect x="371.92" y="124.39" class="st0" width="13.15" height="2.88"/>
	<rect x="332.48" y="124.39" class="st0" width="13.15" height="2.88"/>
	<rect x="345.63" y="124.39" class="st0" width="13.15" height="2.88"/>
	<rect x="358.77" y="124.39" class="st0" width="13.15" height="2.88"/>
	<rect x="371.92" y="16.38" class="st0" width="13.15" height="6.75"/>
	<rect x="358.77" y="9.63" class="st0" width="13.15" height="6.75"/>
	<rect x="358.77" y="16.38" class="st0" width="13.15" height="6.75"/>
	<rect x="385.07" y="16.38" class="st0" width="3.82" height="6.75"/>
	<rect x="385.07" y="117.63" class="st0" width="3.82" height="6.75"/>
	<rect x="227.3" y="124.39" class="st0" width="13.15" height="2.88"/>
	<rect x="306.19" y="124.39" class="st0" width="13.15" height="2.88"/>
	<rect x="201" y="124.39" class="st0" width="13.15" height="2.88"/>
	<rect x="240.44" y="124.39" class="st0" width="13.15" height="2.88"/>
	<rect x="214.15" y="124.39" class="st0" width="13.15" height="2.88"/>
	<rect x="293.04" y="124.39" class="st0" width="13.15" height="2.88"/>
	<rect x="279.89" y="124.39" class="st0" width="13.15" height="2.88"/>
	<rect x="253.59" y="124.39" class="st0" width="13.15" height="2.88"/>
	<rect x="266.74" y="124.39" class="st0" width="13.15" height="2.88"/>
	<rect x="240.44" y="9.63" class="st0" width="13.15" height="6.75"/>
	<rect x="174.71" y="9.63" class="st0" width="13.15" height="6.75"/>
	<rect x="214.15" y="9.63" class="st0" width="13.15" height="6.75"/>
	<rect x="187.85" y="9.63" class="st0" width="13.15" height="6.75"/>
	<rect x="201" y="9.63" class="st0" width="13.15" height="6.75"/>
	<rect x="161.56" y="9.63" class="st0" width="13.15" height="6.75"/>
	<rect x="122.11" y="9.63" class="st0" width="13.15" height="6.75"/>
	<rect x="148.41" y="9.63" class="st0" width="13.15" height="6.75"/>
	<rect x="108.97" y="9.63" class="st0" width="13.15" height="6.75"/>
	<rect x="135.26" y="9.63" class="st0" width="13.15" height="6.75"/>
	<rect x="332.48" y="9.63" class="st0" width="13.15" height="6.75"/>
	<rect x="319.33" y="9.63" class="st0" width="13.15" height="6.75"/>
	<rect x="293.04" y="9.63" class="st0" width="13.15" height="6.75"/>
	<rect x="306.19" y="9.63" class="st0" width="13.15" height="6.75"/>
	<rect x="227.3" y="9.63" class="st0" width="13.15" height="6.75"/>
	<rect x="345.63" y="9.63" class="st0" width="13.15" height="6.75"/>
	<rect x="253.59" y="9.63" class="st0" width="13.15" height="6.75"/>
	<rect x="95.82" y="9.63" class="st0" width="13.15" height="6.75"/>
	<rect x="266.74" y="9.63" class="st0" width="13.15" height="6.75"/>
	<rect x="279.89" y="9.63" class="st0" width="13.15" height="6.75"/>
	<rect x="82.67" class="st0" width="13.15" height="2.88"/>
	<rect x="161.56" y="29.88" class="st0" width="13.15" height="6.75"/>
	<rect x="148.41" y="29.88" class="st0" width="13.15" height="6.75"/>
	<rect x="187.85" y="29.88" class="st0" width="13.15" height="6.75"/>
	<rect x="135.26" y="29.88" class="st0" width="13.15" height="6.75"/>
	<rect x="174.71" y="29.88" class="st0" width="13.15" height="6.75"/>
	<rect x="82.67" y="29.88" class="st0" width="13.15" height="6.75"/>
	<rect x="95.82" y="29.88" class="st0" width="13.15" height="6.75"/>
	<rect x="201" y="29.88" class="st0" width="13.15" height="6.75"/>
	<rect x="108.97" y="29.88" class="st0" width="13.15" height="6.75"/>
	<rect x="122.11" y="29.88" class="st0" width="13.15" height="6.75"/>
	<rect x="293.04" y="29.88" class="st0" width="13.15" height="6.75"/>
	<rect x="306.19" y="29.88" class="st0" width="13.15" height="6.75"/>
	<rect x="279.89" y="29.88" class="st0" width="13.15" height="6.75"/>
	<rect x="69.52" y="29.88" class="st0" width="13.15" height="6.75"/>
	<rect x="319.33" y="29.88" class="st0" width="13.15" height="6.75"/>
	<rect x="227.3" y="29.88" class="st0" width="13.15" height="6.75"/>
	<rect x="266.74" y="29.88" class="st0" width="13.15" height="6.75"/>
	<rect x="240.44" y="29.88" class="st0" width="13.15" height="6.75"/>
	<rect x="214.15" y="29.88" class="st0" width="13.15" height="6.75"/>
	<rect x="253.59" y="29.88" class="st0" width="13.15" height="6.75"/>
	<rect x="82.67" y="110.88" class="st0" width="13.15" height="6.75"/>
	<rect x="69.52" y="110.88" class="st0" width="13.15" height="6.75"/>
	<rect x="56.38" y="110.88" class="st0" width="13.15" height="6.75"/>
	<rect x="30.08" y="110.88" class="st0" width="13.15" height="6.75"/>
	<rect x="319.33" y="36.63" class="st0" width="13.15" height="6.75"/>
	<rect x="43.23" y="110.88" class="st0" width="13.15" height="6.75"/>
	<rect x="108.97" y="110.88" class="st0" width="13.15" height="6.75"/>
	<rect x="135.26" y="110.88" class="st0" width="13.15" height="6.75"/>
	<rect x="122.11" y="110.88" class="st0" width="13.15" height="6.75"/>
	<rect x="16.93" y="110.88" class="st0" width="13.15" height="6.75"/>
	<rect x="95.82" y="110.88" class="st0" width="13.15" height="6.75"/>
	<rect x="30.08" y="36.63" class="st0" width="13.15" height="6.75"/>
	<rect x="16.93" y="104.13" class="st0" width="13.15" height="6.75"/>
	<rect x="16.93" y="36.63" class="st0" width="13.15" height="6.75"/>
	<rect x="56.38" y="29.88" class="st0" width="13.15" height="6.75"/>
	<rect x="56.38" y="36.63" class="st0" width="13.15" height="6.75"/>
	<rect x="43.23" y="36.63" class="st0" width="13.15" height="6.75"/>
	<rect y="104.13" class="st0" width="3.78" height="6.75"/>
	<rect x="3.78" y="36.63" class="st0" width="13.15" height="6.75"/>
	<rect x="3.78" y="104.13" class="st0" width="13.15" height="6.75"/>
	<rect y="36.63" class="st0" width="3.78" height="6.75"/>
	<rect x="161.56" y="104.13" class="st0" width="13.15" height="6.75"/>
	<rect x="108.97" y="104.13" class="st0" width="13.15" height="6.75"/>
	<rect x="122.11" y="104.13" class="st0" width="13.15" height="6.75"/>
	<rect x="95.82" y="104.13" class="st0" width="13.15" height="6.75"/>
	<rect x="82.67" y="104.13" class="st0" width="13.15" height="6.75"/>
	<rect x="69.52" y="104.13" class="st0" width="13.15" height="6.75"/>
	<rect x="174.71" y="104.13" class="st0" width="13.15" height="6.75"/>
	<rect x="56.38" y="104.13" class="st0" width="13.15" height="6.75"/>
	<rect x="187.85" y="104.13" class="st0" width="13.15" height="6.75"/>
	<rect x="148.41" y="110.88" class="st0" width="13.15" height="6.75"/>
	<rect x="148.41" y="104.13" class="st0" width="13.15" height="6.75"/>
	<rect x="135.26" y="104.13" class="st0" width="13.15" height="6.75"/>
	<rect x="3.78" y="43.38" class="st0" width="13.15" height="6.75"/>
	<rect y="97.38" class="st0" width="3.78" height="6.75"/>
	<rect y="43.38" class="st0" width="3.78" height="6.75"/>
	<rect x="16.93" y="43.38" class="st0" width="13.15" height="6.75"/>
	<rect x="30.08" y="97.38" class="st0" width="13.15" height="6.75"/>
	<rect x="3.78" y="97.38" class="st0" width="13.15" height="6.75"/>
	<rect x="30.08" y="104.13" class="st0" width="13.15" height="6.75"/>
	<rect x="43.23" y="104.13" class="st0" width="13.15" height="6.75"/>
	<rect x="332.48" y="36.63" class="st0" width="13.15" height="6.75"/>
	<rect x="16.93" y="97.38" class="st0" width="13.15" height="6.75"/>
	<rect x="358.77" y="97.38" class="st0" width="13.15" height="6.75"/>
	<rect x="371.92" y="97.38" class="st0" width="13.15" height="6.75"/>
	<rect x="345.63" y="104.13" class="st0" width="13.15" height="6.75"/>
	<rect x="201" y="104.13" class="st0" width="13.15" height="6.75"/>
	<rect x="385.07" y="97.38" class="st0" width="3.82" height="6.75"/>
	<rect x="385.07" y="36.63" class="st0" width="3.82" height="6.75"/>
	<rect x="358.77" y="36.63" class="st0" width="13.15" height="6.75"/>
	<rect x="345.63" y="36.63" class="st0" width="13.15" height="6.75"/>
	<rect x="371.92" y="36.63" class="st0" width="13.15" height="6.75"/>
	<rect x="332.48" y="104.13" class="st0" width="13.15" height="6.75"/>
	<rect x="345.63" y="97.38" class="st0" width="13.15" height="6.75"/>
	<rect x="240.44" y="104.13" class="st0" width="13.15" height="6.75"/>
	<rect x="319.33" y="104.13" class="st0" width="13.15" height="6.75"/>
	<rect x="253.59" y="104.13" class="st0" width="13.15" height="6.75"/>
	<rect x="214.15" y="104.13" class="st0" width="13.15" height="6.75"/>
	<rect x="227.3" y="104.13" class="st0" width="13.15" height="6.75"/>
	<rect x="306.19" y="104.13" class="st0" width="13.15" height="6.75"/>
	<rect x="293.04" y="104.13" class="st0" width="13.15" height="6.75"/>
	<rect x="266.74" y="104.13" class="st0" width="13.15" height="6.75"/>
	<rect x="279.89" y="104.13" class="st0" width="13.15" height="6.75"/>
	<rect x="122.11" y="23.13" class="st0" width="13.15" height="6.75"/>
	<rect x="16.93" y="117.63" class="st0" width="13.15" height="6.75"/>
	<rect y="29.88" class="st0" width="3.78" height="6.75"/>
	<rect x="30.08" y="117.63" class="st0" width="13.15" height="6.75"/>
	<rect x="95.82" y="117.63" class="st0" width="13.15" height="6.75"/>
	<rect y="110.88" class="st0" width="3.78" height="6.75"/>
	<rect x="3.78" y="117.63" class="st0" width="13.15" height="6.75"/>
	<rect x="82.67" y="117.63" class="st0" width="13.15" height="6.75"/>
	<rect x="43.23" y="117.63" class="st0" width="13.15" height="6.75"/>
	<rect x="69.52" y="117.63" class="st0" width="13.15" height="6.75"/>
	<rect x="56.38" y="117.63" class="st0" width="13.15" height="6.75"/>
	<rect x="3.78" y="110.88" class="st0" width="13.15" height="6.75"/>
	<rect x="69.52" y="23.13" class="st0" width="13.15" height="6.75"/>
	<rect x="82.67" y="23.13" class="st0" width="13.15" height="6.75"/>
	<rect x="95.82" y="23.13" class="st0" width="13.15" height="6.75"/>
	<rect x="56.38" y="23.13" class="st0" width="13.15" height="6.75"/>
	<rect x="43.23" y="23.13" class="st0" width="13.15" height="6.75"/>
	<rect x="16.93" y="29.88" class="st0" width="13.15" height="6.75"/>
	<rect x="30.08" y="29.88" class="st0" width="13.15" height="6.75"/>
	<rect x="43.23" y="29.88" class="st0" width="13.15" height="6.75"/>
	<rect x="3.78" y="29.88" class="st0" width="13.15" height="6.75"/>
	<rect x="306.19" y="117.63" class="st0" width="13.15" height="6.75"/>
	<rect x="279.89" y="117.63" class="st0" width="13.15" height="6.75"/>
	<rect x="108.97" y="117.63" class="st0" width="13.15" height="6.75"/>
	<rect x="253.59" y="117.63" class="st0" width="13.15" height="6.75"/>
	<rect x="108.97" y="23.13" class="st0" width="13.15" height="6.75"/>
	<rect x="266.74" y="117.63" class="st0" width="13.15" height="6.75"/>
	<rect x="319.33" y="117.63" class="st0" width="13.15" height="6.75"/>
	<rect x="345.63" y="117.63" class="st0" width="13.15" height="6.75"/>
	<rect x="358.77" y="117.63" class="st0" width="13.15" height="6.75"/>
	<rect x="332.48" y="117.63" class="st0" width="13.15" height="6.75"/>
	<rect x="240.44" y="117.63" class="st0" width="13.15" height="6.75"/>
	<rect x="293.04" y="117.63" class="st0" width="13.15" height="6.75"/>
	<rect x="227.3" y="117.63" class="st0" width="13.15" height="6.75"/>
	<rect x="135.26" y="117.63" class="st0" width="13.15" height="6.75"/>
	<rect x="161.56" y="117.63" class="st0" width="13.15" height="6.75"/>
	<rect x="122.11" y="117.63" class="st0" width="13.15" height="6.75"/>
	<rect x="148.41" y="117.63" class="st0" width="13.15" height="6.75"/>
	<rect x="201" y="117.63" class="st0" width="13.15" height="6.75"/>
	<rect x="214.15" y="117.63" class="st0" width="13.15" height="6.75"/>
	<rect x="187.85" y="117.63" class="st0" width="13.15" height="6.75"/>
	<rect x="174.71" y="117.63" class="st0" width="13.15" height="6.75"/>
	<rect x="161.56" y="23.13" class="st0" width="13.15" height="6.75"/>
	<rect x="332.48" y="110.88" class="st0" width="13.15" height="6.75"/>
	<rect x="371.92" y="29.88" class="st0" width="13.15" height="6.75"/>
	<rect x="319.33" y="110.88" class="st0" width="13.15" height="6.75"/>
	<rect x="358.77" y="110.88" class="st0" width="13.15" height="6.75"/>
	<rect x="306.19" y="110.88" class="st0" width="13.15" height="6.75"/>
	<rect x="293.04" y="110.88" class="st0" width="13.15" height="6.75"/>
	<rect x="385.07" y="104.13" class="st0" width="3.82" height="6.75"/>
	<rect x="385.07" y="29.88" class="st0" width="3.82" height="6.75"/>
	<rect x="371.92" y="104.13" class="st0" width="13.15" height="6.75"/>
	<rect x="358.77" y="104.13" class="st0" width="13.15" height="6.75"/>
	<rect x="345.63" y="110.88" class="st0" width="13.15" height="6.75"/>
	<rect x="214.15" y="110.88" class="st0" width="13.15" height="6.75"/>
	<rect x="201" y="110.88" class="st0" width="13.15" height="6.75"/>
	<rect x="187.85" y="110.88" class="st0" width="13.15" height="6.75"/>
	<rect x="174.71" y="110.88" class="st0" width="13.15" height="6.75"/>
	<rect x="253.59" y="110.88" class="st0" width="13.15" height="6.75"/>
	<rect x="266.74" y="110.88" class="st0" width="13.15" height="6.75"/>
	<rect x="279.89" y="110.88" class="st0" width="13.15" height="6.75"/>
	<rect x="240.44" y="110.88" class="st0" width="13.15" height="6.75"/>
	<rect x="227.3" y="110.88" class="st0" width="13.15" height="6.75"/>
	<rect x="306.19" y="23.13" class="st0" width="13.15" height="6.75"/>
	<rect x="214.15" y="23.13" class="st0" width="13.15" height="6.75"/>
	<rect x="201" y="23.13" class="st0" width="13.15" height="6.75"/>
	<rect x="240.44" y="23.13" class="st0" width="13.15" height="6.75"/>
	<rect x="187.85" y="23.13" class="st0" width="13.15" height="6.75"/>
	<rect x="227.3" y="23.13" class="st0" width="13.15" height="6.75"/>
	<rect x="358.77" y="29.88" class="st0" width="13.15" height="6.75"/>
	<rect x="135.26" y="23.13" class="st0" width="13.15" height="6.75"/>
	<rect x="148.41" y="23.13" class="st0" width="13.15" height="6.75"/>
	<rect x="161.56" y="110.88" class="st0" width="13.15" height="6.75"/>
	<rect x="174.71" y="23.13" class="st0" width="13.15" height="6.75"/>
	<rect x="332.48" y="29.88" class="st0" width="13.15" height="6.75"/>
	<rect x="332.48" y="23.13" class="st0" width="13.15" height="6.75"/>
	<rect x="319.33" y="23.13" class="st0" width="13.15" height="6.75"/>
	<rect x="253.59" y="23.13" class="st0" width="13.15" height="6.75"/>
	<rect x="345.63" y="29.88" class="st0" width="13.15" height="6.75"/>
	<rect x="266.74" y="23.13" class="st0" width="13.15" height="6.75"/>
	<rect x="371.92" y="117.63" class="st0" width="13.15" height="6.75"/>
	<rect x="279.89" y="23.13" class="st0" width="13.15" height="6.75"/>
	<rect x="293.04" y="23.13" class="st0" width="13.15" height="6.75"/>
</g>
<g>
	<circle class="st1" cx="104.04" cy="47.88" r="21.26"/>
	<g>
		<path d="M113.54,48.94c-0.33,0.43-1.03,0.65-2.09,0.65c-0.21,0-0.71-0.04-1.51-0.12s-1.33-0.12-1.6-0.12h-3.15
			c-0.14,0.55-0.21,1.16-0.21,1.83c0,2.17-0.03,3.37-0.09,3.6c-0.05,0.18-0.07,0.38-0.07,0.6s-0.1,0.43-0.31,0.62
			s-0.62,0.29-1.26,0.29c-0.74,0-1.23-0.12-1.48-0.37s-0.37-0.71-0.37-1.41l0.53-5.19c-1.5-0.08-2.47-0.08-2.92,0l-1.49,0.26
			c-0.5,0-0.94-0.17-1.31-0.51s-0.55-0.72-0.55-1.14c0-0.33,0.15-0.68,0.44-1.05s0.64-0.55,1.04-0.55c0.35,0,1,0.06,1.93,0.19
			l2.55-0.12h0.58c0.05-0.26,0.07-0.53,0.07-0.81c0-0.49-0.05-1.44-0.16-2.85c-0.05-0.52-0.07-0.9-0.07-1.16
			c0-1.93,0.64-2.9,1.92-2.9c0.46,0,0.84,0.24,1.14,0.73s0.46,0.89,0.46,1.2c0,0.52-0.05,1.31-0.14,2.39
			c-0.11,1.08-0.16,1.73-0.16,1.95v0.9c0,0.11,0.01,0.25,0.04,0.42l0.58,0.02l4.64-0.07c1.18,0,2.01,0.15,2.47,0.44
			s0.69,0.95,0.69,1.97L113.54,48.94z"/>
	</g>
</g>
<g>
	<g>
		<line class="st2" x1="125.3" y1="47.88" x2="149.32" y2="47.88"/>
		<g>
			<polygon points="147.34,50.78 158.18,47.88 147.34,44.97 			"/>
		</g>
	</g>
</g>
<g>
	<path d="M143.54,35.7c-0.07,1.11-0.2,2.18-0.39,3.22s-0.46,1.99-0.81,2.83s-0.74,1.43-1.16,1.73s-0.9,0.46-1.47,0.46
		c-0.61,0-1.2-0.12-1.76-0.35h0.01c-0.48-0.2-0.9-0.47-1.26-0.81s-0.54-0.62-0.54-0.85c0-0.21,0.05-0.39,0.16-0.51
		s0.25-0.19,0.42-0.19c0.15,0,0.28,0.06,0.38,0.19c0.58,0.75,1.43,1.13,2.54,1.13c0.45,0,0.89-0.47,1.31-1.42s0.68-2.08,0.79-3.4
		c-1.41,1.11-2.49,1.67-3.25,1.67c-0.49,0-0.88-0.2-1.17-0.59s-0.43-0.86-0.43-1.42s0.13-1.35,0.39-2.4s0.48-1.7,0.66-1.96
		s0.47-0.38,0.88-0.38c0.22,0,0.39,0.09,0.51,0.28s0.18,0.4,0.18,0.63c0,0.07-0.16,0.45-0.49,1.16c-0.4,0.86-0.6,1.6-0.6,2.21
		c0,0.32,0.04,0.56,0.13,0.73s0.18,0.25,0.28,0.25c0.22,0,0.48-0.07,0.8-0.2s0.68-0.36,1.1-0.69s0.69-0.57,0.82-0.74
		s0.22-0.39,0.29-0.65s0.13-0.85,0.17-1.76c0.02-0.53,0.05-0.86,0.08-1s0.11-0.26,0.24-0.38s0.31-0.17,0.53-0.17
		c0.3,0,0.51,0.06,0.64,0.19s0.19,0.43,0.19,0.9L143.54,35.7z"/>
	<path d="M146.2,36.97c0,0.15,0.02,0.31,0.07,0.47c0.04,0.16,0.07,0.36,0.1,0.57v-0.01l0.15,0.82c0.14,0.64,0.32,1.17,0.55,1.6
		s0.53,0.79,0.9,1.1c0.53,0.45,0.79,0.81,0.79,1.09c0,0.18-0.09,0.32-0.26,0.42s-0.39,0.16-0.65,0.16c-0.17,0-0.4-0.09-0.67-0.27
		s-0.61-0.53-1.01-1.05s-0.67-0.96-0.81-1.32s-0.28-0.94-0.43-1.76s-0.22-1.51-0.22-2.06c0-0.67,0.03-1.16,0.08-1.48
		s0.17-0.72,0.36-1.21s0.46-1.1,0.84-1.83s0.6-1.14,0.68-1.23s0.36-0.36,0.85-0.81l0.58-0.55c0.26-0.24,0.48-0.41,0.66-0.5
		s0.42-0.14,0.71-0.14c0.36,0,0.55,0.18,0.55,0.54c0,0.15-0.15,0.38-0.46,0.66c-0.54,0.51-1.02,1-1.44,1.48s-0.86,1.18-1.31,2.11
		s-0.68,1.78-0.68,2.54C146.14,36.46,146.16,36.67,146.2,36.97z"/>
	<path d="M156.53,38.73c-0.22-0.41-0.38-1.18-0.48-2.3c-0.1-1.17-0.32-1.75-0.67-1.75c-0.33,0-0.9,0.61-1.7,1.82
		s-1.3,2.11-1.49,2.69c-0.04,0.17-0.12,0.32-0.23,0.43s-0.22,0.17-0.33,0.17c-0.69,0-1.04-0.32-1.04-0.95c0-0.21,0.07-0.7,0.21-1.46
		c0.18-0.98,0.27-2.19,0.27-3.61c0-0.21,0.09-0.44,0.28-0.69s0.39-0.37,0.59-0.37c0.26,0,0.47,0.07,0.61,0.2s0.21,0.48,0.21,1.05
		c0,0.43-0.13,1.27-0.39,2.52c0.99-2.31,2.09-3.47,3.31-3.47c1.06,0,1.68,0.83,1.86,2.5c0.18,1.7,0.39,2.54,0.63,2.54
		c0.1,0,0.23-0.02,0.36-0.07c0.16-0.05,0.29-0.08,0.39-0.08c0.22,0,0.33,0.13,0.33,0.38c0,0.23-0.15,0.48-0.45,0.74
		s-0.68,0.39-1.13,0.39C157.13,39.42,156.75,39.19,156.53,38.73L156.53,38.73z"/>
	<path d="M160.67,43.2c-0.23,0-0.43-0.07-0.6-0.21s-0.25-0.28-0.25-0.43c0-0.21,0.28-0.66,0.84-1.36c0.37-0.44,0.73-1.12,1.09-2.04
		s0.54-1.49,0.54-1.71c0-0.77-0.06-1.5-0.18-2.19s-0.35-1.43-0.68-2.23s-0.61-1.37-0.84-1.74s-0.63-0.83-1.23-1.37
		c-0.11-0.1-0.16-0.24-0.16-0.41c0-0.12,0.09-0.25,0.27-0.4s0.37-0.22,0.57-0.22c0.43,0,0.98,0.48,1.63,1.45s1.05,1.69,1.19,2.16
		c0.05,0.16,0.1,0.33,0.16,0.51c0.28,0.84,0.48,1.52,0.58,2.03s0.15,1.15,0.15,1.9c0,0.86-0.15,1.66-0.44,2.42s-0.63,1.39-0.99,1.88
		c-0.39,0.52-0.62,0.85-0.7,0.98c-0.19,0.38-0.35,0.64-0.48,0.77S160.84,43.2,160.67,43.2z"/>
</g>
<g>
	<path d="M40.56,47.87c0-0.79,0.28-1.46,0.84-2.01c0.56-0.55,1.23-0.83,2-0.83c0.79,0,1.46,0.28,2.02,0.83
		c0.56,0.55,0.84,1.22,0.84,2.01c0,0.79-0.28,1.46-0.84,2.02c-0.56,0.56-1.23,0.84-2.02,0.84c-0.78,0-1.45-0.28-2-0.84
		C40.84,49.33,40.56,48.66,40.56,47.87z"/>
</g>
<g>
	<path d="M117.6,72.63c1.8,0,3.1-0.05,3.88-0.15c0.33-0.05,0.68-0.07,1.04-0.07c0.18,0,0.54,0.1,1.09,0.29s0.88,0.4,0.98,0.62
		s0.16,0.41,0.16,0.59c0,0.73-0.45,1.09-1.36,1.09c-0.1,0-0.49-0.08-1.16-0.25c-0.13-0.03-0.23-0.05-0.28-0.05l-1.07,0.07
		c-0.16,0-0.76-0.04-1.79-0.12c-0.32-0.02-1.29,0.01-2.92,0.09c-0.92,0.05-1.54,0-1.86-0.15s-0.47-0.42-0.47-0.82
		c0-0.42,0.28-0.74,0.85-0.96s1.25-0.32,2.04-0.32C116.93,72.5,117.22,72.54,117.6,72.63z"/>
</g>
<g>
	<g>
		<rect x="56.14" y="88.94" class="st1" width="35.43" height="35.43"/>
	</g>
	<g>
		<g>
			<path d="M73.33,102.09c-0.01,0.03-0.05,0.07-0.11,0.11c-0.14,0.09-0.27,0.19-0.41,0.3s-0.47,0.48-1,1.12
				c-0.68,0.81-1.3,1.51-1.86,2.09s-1.51,1.53-2.86,2.83l-0.71,0.69c0.43-0.04,0.98-0.09,1.65-0.16c0.96-0.1,1.49-0.16,1.6-0.16
				c0.33,0,0.6-0.01,0.81-0.03c0.21-0.01,0.4-0.02,0.57-0.02c1.32,0,1.98,0.32,1.98,0.96c0,0.26-0.07,0.46-0.2,0.61
				s-0.32,0.22-0.54,0.22c-0.18,0-0.4-0.03-0.64-0.1c-0.39-0.1-0.89-0.16-1.49-0.16c-0.23,0-0.9,0.04-2,0.11h0.01
				c-1.13,0.06-1.87,0.12-2.22,0.16s-0.76,0.12-1.22,0.25c-0.36,0.1-0.58,0.15-0.68,0.15c-0.46,0-0.68-0.23-0.68-0.68
				c0-0.36,0.12-0.64,0.37-0.82c0.61-0.45,1.39-1.14,2.37-2.05s1.88-1.83,2.74-2.72c0.14-0.15,0.3-0.31,0.49-0.5
				c0.76-0.76,1.31-1.35,1.65-1.78c-0.07,0-0.9,0.09-2.48,0.27c-1,0.12-1.75,0.18-2.26,0.18c-0.31,0-0.63-0.04-0.96-0.12
				c-0.48-0.21-0.72-0.48-0.72-0.81c0-0.15,0.09-0.32,0.28-0.52s0.34-0.29,0.46-0.29c0.09,0,0.2,0.02,0.34,0.08
				c0.14,0.05,0.25,0.08,0.32,0.08l1.26,0.01c0.35,0,0.73-0.01,1.14-0.05c0.31-0.03,0.79-0.06,1.46-0.09
				c0.75-0.04,1.27-0.08,1.54-0.13c0.84-0.14,1.37-0.21,1.59-0.21c0.38,0,0.57,0.2,0.57,0.61
				C73.48,101.76,73.43,101.95,73.33,102.09z"/>
			<path d="M76.16,103.42c0.61,0,1.05-0.02,1.32-0.05c0.11-0.02,0.23-0.02,0.35-0.02c0.06,0,0.18,0.03,0.37,0.1
				c0.19,0.07,0.3,0.14,0.33,0.21c0.04,0.07,0.06,0.14,0.06,0.2c0,0.25-0.15,0.37-0.46,0.37c-0.03,0-0.17-0.03-0.39-0.08
				c-0.05-0.01-0.08-0.02-0.1-0.02l-0.36,0.02c-0.06,0-0.26-0.01-0.61-0.04c-0.11-0.01-0.44,0-0.99,0.03
				c-0.31,0.02-0.52,0-0.63-0.05c-0.11-0.05-0.16-0.14-0.16-0.28c0-0.14,0.1-0.25,0.29-0.32c0.19-0.07,0.42-0.11,0.7-0.11
				C75.93,103.37,76.03,103.39,76.16,103.42z"/>
			<path d="M85.49,101.75l-1.33,1.79c-0.61,0.86-1.09,1.29-1.42,1.29c-0.15,0-0.29-0.09-0.41-0.27s-0.24-0.45-0.37-0.81
				s-0.21-0.63-0.26-0.82c-0.11-0.43-0.19-0.67-0.23-0.73l-0.2,1.04c-0.06,0.33-0.13,0.64-0.2,0.92s-0.14,0.62-0.22,1.01
				c-0.08,0.39-0.13,0.69-0.15,0.89c-0.01,0.07-0.07,0.14-0.19,0.22c-0.12,0.08-0.21,0.12-0.28,0.12c-0.13,0-0.25-0.06-0.36-0.18
				c-0.11-0.12-0.17-0.23-0.17-0.34c0-0.25,0.05-0.58,0.16-0.97c0.44-1.61,0.69-2.62,0.75-3.04c0.06-0.42,0.09-0.76,0.09-1.04
				c0-0.14,0.06-0.25,0.19-0.33c0.13-0.08,0.29-0.12,0.49-0.12c0.11,0,0.22,0.07,0.33,0.21c0.11,0.14,0.18,0.28,0.22,0.4l0-0.01
				l0.55,1.55c0.22,0.62,0.37,1.01,0.44,1.18c0.29-0.31,0.71-0.85,1.27-1.62c0.56-0.77,0.95-1.26,1.16-1.48
				c0.21-0.22,0.35-0.33,0.44-0.33c0.13,0,0.27,0.05,0.43,0.16c0.16,0.11,0.24,0.2,0.24,0.28c0,0.06-0.05,0.46-0.16,1.2
				c-0.07,0.52-0.14,1.11-0.2,1.76c-0.06,0.65-0.09,1.03-0.09,1.15c0,0.14,0.02,0.29,0.06,0.44c0.03,0.12,0.04,0.23,0.04,0.33
				c0,0.26-0.05,0.44-0.14,0.54s-0.23,0.14-0.42,0.14c-0.35,0-0.52-0.26-0.52-0.79c0-0.49,0.04-1.1,0.14-1.81s0.17-1.26,0.25-1.64
				C85.46,101.89,85.48,101.8,85.49,101.75z"/>
		</g>
	</g>
</g>
<polyline class="st2" points="55.65,105.56 43.47,105.56 43.47,47.6 "/>
<g>
	<g>
		<polyline class="st2" points="103.74,78.47 103.74,105.56 91.58,105.56 		"/>
		<g>
			<polygon points="100.84,80.45 103.74,69.61 106.65,80.45 			"/>
		</g>
	</g>
</g>
<g>
	<path d="M222.97,33.55c-0.81,0.76-1.39,1.55-1.73,2.37c-0.15,0.34-0.3,0.6-0.46,0.78c-0.4-0.02-0.69-0.1-0.88-0.24
		c-0.19-0.14-0.28-0.37-0.28-0.69c0-0.28,0.12-0.63,0.37-1.05c0.24-0.42,0.85-1.07,1.81-1.96c0.15-0.14,0.27-0.26,0.37-0.36
		c-0.87-1.28-1.31-2.27-1.31-2.99c0-0.75,0.33-1.13,0.99-1.13c0.46,0,0.71,0.34,0.74,1.01c0.03,0.69,0.28,1.41,0.77,2.15
		c0.24-0.21,0.49-0.47,0.76-0.76c0.08-0.08,0.15-0.16,0.22-0.23c0.57-0.61,0.99-1.14,1.24-1.61c0.16-0.3,0.3-0.49,0.41-0.57
		c0.11-0.09,0.27-0.13,0.47-0.13c0.23,0,0.43,0.08,0.6,0.25c0.17,0.16,0.25,0.36,0.25,0.6c0,0.5-1.06,1.7-3.18,3.62
		c0.72,0.88,1.49,1.55,2.3,2c0.1,0.06,0.2,0.13,0.29,0.21c0.04,0.09,0.05,0.18,0.05,0.28c0,0.23-0.09,0.44-0.28,0.61
		c-0.19,0.18-0.41,0.26-0.68,0.26C225.14,35.99,224.19,35.17,222.97,33.55z"/>
	<path d="M229.04,33.13c0,0.15,0.02,0.31,0.07,0.47c0.04,0.16,0.07,0.36,0.1,0.57v-0.01l0.15,0.82c0.14,0.64,0.32,1.17,0.55,1.6
		s0.53,0.79,0.9,1.1c0.53,0.45,0.79,0.81,0.79,1.09c0,0.18-0.09,0.32-0.26,0.42c-0.17,0.1-0.39,0.16-0.65,0.16
		c-0.17,0-0.4-0.09-0.67-0.27c-0.27-0.18-0.61-0.53-1.01-1.05c-0.4-0.52-0.67-0.96-0.81-1.32c-0.14-0.36-0.28-0.94-0.43-1.76
		c-0.15-0.82-0.22-1.51-0.22-2.06c0-0.67,0.03-1.16,0.08-1.48s0.17-0.72,0.36-1.21s0.46-1.1,0.84-1.83s0.6-1.14,0.68-1.23
		c0.08-0.09,0.36-0.36,0.85-0.81l0.58-0.55c0.26-0.24,0.48-0.41,0.66-0.5c0.19-0.09,0.42-0.14,0.71-0.14c0.37,0,0.55,0.18,0.55,0.54
		c0,0.15-0.15,0.38-0.46,0.66c-0.54,0.51-1.02,1-1.44,1.48c-0.42,0.47-0.86,1.18-1.31,2.11c-0.45,0.93-0.68,1.78-0.68,2.54
		C228.98,32.62,229,32.83,229.04,33.13z"/>
	<path d="M239.37,34.89c-0.22-0.41-0.38-1.18-0.48-2.3c-0.1-1.17-0.32-1.75-0.67-1.75c-0.33,0-0.9,0.61-1.7,1.82
		s-1.3,2.11-1.49,2.69c-0.04,0.17-0.12,0.32-0.23,0.43c-0.11,0.11-0.22,0.17-0.33,0.17c-0.69,0-1.04-0.32-1.04-0.95
		c0-0.21,0.07-0.7,0.21-1.46c0.18-0.98,0.27-2.19,0.27-3.61c0-0.21,0.09-0.44,0.28-0.69c0.19-0.24,0.39-0.37,0.59-0.37
		c0.26,0,0.47,0.07,0.61,0.2c0.14,0.13,0.21,0.48,0.21,1.05c0,0.43-0.13,1.27-0.39,2.52c0.99-2.31,2.09-3.47,3.31-3.47
		c1.06,0,1.68,0.83,1.86,2.5c0.18,1.7,0.39,2.54,0.63,2.54c0.11,0,0.23-0.02,0.36-0.07c0.16-0.05,0.29-0.08,0.39-0.08
		c0.22,0,0.33,0.13,0.33,0.38c0,0.23-0.15,0.48-0.45,0.74s-0.68,0.39-1.13,0.39C239.97,35.58,239.59,35.35,239.37,34.89
		L239.37,34.89z"/>
	<path d="M243.5,39.36c-0.23,0-0.43-0.07-0.6-0.21c-0.17-0.14-0.25-0.28-0.25-0.43c0-0.21,0.28-0.66,0.84-1.36
		c0.37-0.44,0.73-1.12,1.09-2.04c0.36-0.92,0.54-1.49,0.54-1.71c0-0.77-0.06-1.5-0.18-2.19c-0.12-0.69-0.35-1.43-0.68-2.23
		c-0.33-0.79-0.61-1.37-0.84-1.74s-0.63-0.83-1.23-1.37c-0.11-0.1-0.16-0.24-0.16-0.41c0-0.12,0.09-0.25,0.27-0.4
		c0.18-0.15,0.37-0.22,0.57-0.22c0.43,0,0.98,0.48,1.63,1.45s1.05,1.69,1.19,2.16c0.05,0.16,0.1,0.33,0.16,0.51
		c0.28,0.84,0.48,1.52,0.58,2.03s0.15,1.15,0.15,1.9c0,0.86-0.15,1.66-0.44,2.42s-0.63,1.39-1,1.88c-0.39,0.52-0.62,0.85-0.7,0.98
		c-0.19,0.38-0.35,0.64-0.48,0.77C243.84,39.3,243.68,39.36,243.5,39.36z"/>
</g>
<g>
	<g>
		<line class="st2" x1="296.08" y1="47.88" x2="365.76" y2="47.88"/>
		<g>
			<polygon points="363.78,50.78 374.62,47.88 363.78,44.97 			"/>
		</g>
	</g>
</g>
<g>
	<circle class="st1" cx="275.3" cy="49.21" r="21.26"/>
	<g>
		<path d="M284.81,50.27c-0.33,0.43-1.03,0.65-2.09,0.65c-0.21,0-0.71-0.04-1.51-0.12s-1.33-0.12-1.6-0.12h-3.15
			c-0.14,0.55-0.21,1.16-0.21,1.83c0,2.17-0.03,3.37-0.09,3.6c-0.05,0.18-0.07,0.38-0.07,0.6s-0.1,0.43-0.31,0.62
			s-0.62,0.29-1.26,0.29c-0.74,0-1.23-0.12-1.48-0.37s-0.37-0.71-0.37-1.41l0.53-5.19c-1.5-0.08-2.47-0.08-2.92,0l-1.49,0.26
			c-0.5,0-0.94-0.17-1.31-0.51s-0.55-0.72-0.55-1.14c0-0.33,0.15-0.68,0.44-1.05s0.64-0.55,1.04-0.55c0.35,0,1,0.06,1.93,0.19
			l2.55-0.12h0.58c0.05-0.26,0.07-0.53,0.07-0.81c0-0.49-0.05-1.44-0.16-2.85c-0.05-0.52-0.07-0.9-0.07-1.16
			c0-1.93,0.64-2.9,1.92-2.9c0.46,0,0.84,0.24,1.14,0.73s0.46,0.89,0.46,1.2c0,0.52-0.05,1.31-0.14,2.39
			c-0.11,1.08-0.16,1.73-0.16,1.95v0.9c0,0.11,0.01,0.25,0.04,0.42l0.58,0.02l4.64-0.07c1.18,0,2.01,0.15,2.47,0.44
			s0.69,0.95,0.69,1.97L284.81,50.27z"/>
	</g>
</g>
<g>
	<g>
		<line class="st2" x1="231.12" y1="47.88" x2="245.18" y2="47.88"/>
		<g>
			<polygon points="243.2,50.78 254.04,47.88 243.2,44.97 			"/>
		</g>
	</g>
</g>
<g>
	<g>
		<polyline class="st2" points="275.09,79.56 275.09,106.65 287.25,106.65 		"/>
		<g>
			<polygon points="272.18,81.54 275.09,70.7 277.99,81.54 			"/>
		</g>
	</g>
</g>
<g>
	<g>
		<rect x="288.08" y="88.94" class="st1" width="35.43" height="35.43"/>
	</g>
	<g>
		<g>
			<path d="M305.27,102.09c-0.01,0.03-0.04,0.07-0.11,0.11c-0.14,0.09-0.27,0.19-0.41,0.3c-0.13,0.11-0.47,0.48-1,1.12
				c-0.68,0.81-1.3,1.51-1.86,2.09s-1.51,1.53-2.86,2.83l-0.71,0.69c0.43-0.04,0.98-0.09,1.65-0.16c0.96-0.1,1.5-0.16,1.6-0.16
				c0.33,0,0.6-0.01,0.81-0.03c0.21-0.01,0.4-0.02,0.57-0.02c1.32,0,1.98,0.32,1.98,0.96c0,0.26-0.07,0.46-0.2,0.61
				c-0.13,0.15-0.32,0.22-0.54,0.22c-0.18,0-0.4-0.03-0.64-0.1c-0.39-0.1-0.89-0.16-1.49-0.16c-0.23,0-0.9,0.04-2,0.11h0.01
				c-1.13,0.06-1.87,0.12-2.22,0.16s-0.76,0.12-1.22,0.25c-0.36,0.1-0.58,0.15-0.68,0.15c-0.46,0-0.68-0.23-0.68-0.68
				c0-0.36,0.12-0.64,0.37-0.82c0.61-0.45,1.39-1.14,2.37-2.05s1.88-1.83,2.74-2.72c0.14-0.15,0.3-0.31,0.49-0.5
				c0.76-0.76,1.31-1.35,1.65-1.78c-0.07,0-0.9,0.09-2.48,0.27c-1,0.12-1.75,0.18-2.26,0.18c-0.31,0-0.63-0.04-0.96-0.12
				c-0.48-0.21-0.72-0.48-0.72-0.81c0-0.15,0.09-0.32,0.28-0.52c0.19-0.2,0.34-0.29,0.46-0.29c0.09,0,0.2,0.02,0.34,0.08
				c0.14,0.05,0.25,0.08,0.32,0.08l1.26,0.01c0.35,0,0.73-0.01,1.14-0.05c0.31-0.03,0.79-0.06,1.46-0.09
				c0.75-0.04,1.27-0.08,1.54-0.13c0.84-0.14,1.37-0.21,1.59-0.21c0.38,0,0.57,0.2,0.57,0.61
				C305.42,101.76,305.38,101.95,305.27,102.09z"/>
			<path d="M308.1,103.42c0.61,0,1.05-0.02,1.32-0.05c0.11-0.02,0.23-0.02,0.35-0.02c0.06,0,0.18,0.03,0.37,0.1
				c0.19,0.07,0.3,0.14,0.33,0.21c0.04,0.07,0.06,0.14,0.06,0.2c0,0.25-0.15,0.37-0.46,0.37c-0.03,0-0.17-0.03-0.39-0.08
				c-0.04-0.01-0.08-0.02-0.1-0.02l-0.36,0.02c-0.06,0-0.26-0.01-0.61-0.04c-0.11-0.01-0.44,0-0.99,0.03
				c-0.31,0.02-0.52,0-0.63-0.05c-0.11-0.05-0.16-0.14-0.16-0.28c0-0.14,0.1-0.25,0.29-0.32c0.19-0.07,0.42-0.11,0.7-0.11
				C307.87,103.37,307.97,103.39,308.1,103.42z"/>
			<path d="M314.85,105.6l0.01,0.16c0.02,0.21-0.21,0.31-0.67,0.31c-0.09,0-0.18-0.06-0.26-0.19c-0.02-0.02-0.03-0.04-0.04-0.04
				c-0.05,0-0.26,0.06-0.63,0.18c-0.08,0.03-0.13,0.04-0.17,0.05c-0.31,0.1-0.54,0.15-0.69,0.15c-0.16,0-0.29-0.05-0.39-0.14
				c-0.1-0.09-0.15-0.19-0.15-0.28c0-0.13,0.08-0.24,0.23-0.32c0.15-0.08,0.44-0.16,0.84-0.23c0.43-0.08,0.71-0.15,0.84-0.21
				c0.01-0.14,0.02-0.28,0.03-0.42c0.03-0.46,0.17-1.39,0.42-2.79c-0.02,0.01-0.25,0.13-0.67,0.38c-0.39,0.23-0.75,0.34-1.08,0.34
				c-0.22,0-0.33-0.09-0.33-0.28c0-0.12,0.04-0.21,0.11-0.27c0.07-0.06,0.21-0.13,0.41-0.22c0.24-0.1,0.54-0.25,0.91-0.46l0.59-0.34
				c0.36-0.23,0.6-0.35,0.7-0.35c0.15,0,0.26,0.07,0.33,0.21c0.08,0.14,0.12,0.26,0.12,0.37c0,0.08-0.04,0.17-0.12,0.26
				c-0.19,0.82-0.32,1.47-0.38,1.96c-0.06,0.49-0.09,0.97-0.09,1.44c0.15-0.02,0.49-0.1,1.03-0.23c0.32-0.08,0.66-0.12,1-0.12
				c0.09,0.19,0.14,0.31,0.14,0.37c0,0.09-0.02,0.17-0.06,0.22c-0.04,0.05-0.15,0.11-0.31,0.16c-0.16,0.05-0.44,0.11-0.83,0.16
				C315.28,105.48,315,105.55,314.85,105.6z"/>
		</g>
	</g>
</g>
<g>
	<g>
		<line class="st2" x1="4.14" y1="47.88" x2="73.82" y2="47.88"/>
		<g>
			<polygon points="71.84,50.78 82.68,47.88 71.84,44.97 			"/>
		</g>
	</g>
</g>
<g>
	<path d="M6.44,32.52c-0.81,0.76-1.39,1.55-1.73,2.37c-0.15,0.34-0.3,0.6-0.46,0.78c-0.4-0.02-0.69-0.1-0.88-0.24
		s-0.28-0.37-0.28-0.69c0-0.28,0.12-0.63,0.37-1.05s0.85-1.07,1.81-1.96c0.15-0.14,0.27-0.26,0.37-0.36
		c-0.87-1.28-1.31-2.27-1.31-2.99c0-0.75,0.33-1.13,0.99-1.13c0.46,0,0.71,0.34,0.74,1.01c0.03,0.69,0.28,1.41,0.77,2.15
		c0.24-0.21,0.49-0.47,0.76-0.76c0.08-0.08,0.15-0.16,0.22-0.23c0.57-0.61,0.99-1.14,1.24-1.61c0.16-0.3,0.3-0.49,0.41-0.57
		s0.27-0.13,0.48-0.13c0.23,0,0.43,0.08,0.6,0.25s0.25,0.36,0.25,0.6c0,0.5-1.06,1.7-3.18,3.62c0.72,0.88,1.49,1.55,2.3,2
		c0.1,0.06,0.2,0.13,0.29,0.21c0.04,0.09,0.05,0.18,0.05,0.28c0,0.23-0.09,0.44-0.28,0.61s-0.41,0.26-0.68,0.26
		C8.6,34.96,7.66,34.15,6.44,32.52z"/>
	<path d="M12.51,32.1c0,0.15,0.02,0.31,0.07,0.47c0.04,0.16,0.07,0.36,0.1,0.57v-0.01l0.15,0.82c0.14,0.64,0.32,1.17,0.55,1.6
		s0.53,0.79,0.9,1.1c0.53,0.45,0.79,0.81,0.79,1.09c0,0.18-0.09,0.32-0.26,0.42s-0.39,0.16-0.65,0.16c-0.17,0-0.4-0.09-0.67-0.27
		s-0.61-0.53-1.01-1.05s-0.67-0.96-0.81-1.32s-0.28-0.94-0.43-1.76s-0.22-1.51-0.22-2.06c0-0.67,0.03-1.16,0.08-1.48
		s0.17-0.72,0.36-1.21s0.46-1.1,0.84-1.83s0.6-1.14,0.68-1.23s0.36-0.36,0.85-0.81l0.58-0.55c0.26-0.24,0.48-0.41,0.66-0.5
		s0.42-0.14,0.71-0.14c0.36,0,0.55,0.18,0.55,0.54c0,0.15-0.15,0.38-0.46,0.66c-0.54,0.51-1.02,1-1.44,1.48s-0.86,1.18-1.31,2.11
		s-0.68,1.78-0.68,2.54C12.44,31.6,12.46,31.81,12.51,32.1z"/>
	<path d="M22.83,33.87c-0.22-0.41-0.38-1.18-0.48-2.3c-0.1-1.17-0.32-1.75-0.67-1.75c-0.33,0-0.9,0.61-1.7,1.82s-1.3,2.11-1.49,2.69
		c-0.04,0.17-0.12,0.32-0.23,0.43s-0.22,0.17-0.33,0.17c-0.69,0-1.04-0.32-1.04-0.95c0-0.21,0.07-0.7,0.21-1.46
		c0.18-0.98,0.27-2.19,0.27-3.61c0-0.21,0.09-0.44,0.28-0.69s0.39-0.37,0.59-0.37c0.26,0,0.47,0.07,0.61,0.2s0.21,0.48,0.21,1.05
		c0,0.43-0.13,1.27-0.39,2.52c0.99-2.31,2.09-3.47,3.31-3.47c1.06,0,1.68,0.83,1.86,2.5c0.18,1.7,0.39,2.54,0.63,2.54
		c0.1,0,0.23-0.02,0.36-0.07c0.16-0.05,0.29-0.08,0.39-0.08c0.22,0,0.33,0.13,0.33,0.38c0,0.23-0.15,0.48-0.45,0.74
		s-0.68,0.39-1.13,0.39C23.43,34.56,23.06,34.33,22.83,33.87L22.83,33.87z"/>
	<path d="M26.97,38.34c-0.23,0-0.43-0.07-0.6-0.21s-0.25-0.28-0.25-0.43c0-0.21,0.28-0.66,0.84-1.36c0.37-0.44,0.73-1.12,1.09-2.04
		s0.54-1.49,0.54-1.71c0-0.77-0.06-1.5-0.18-2.19s-0.35-1.43-0.68-2.23s-0.61-1.37-0.84-1.74s-0.63-0.83-1.23-1.37
		c-0.11-0.1-0.16-0.24-0.16-0.41c0-0.12,0.09-0.25,0.27-0.4s0.37-0.22,0.57-0.22c0.43,0,0.98,0.48,1.63,1.45s1.05,1.69,1.19,2.16
		c0.05,0.16,0.1,0.33,0.16,0.51c0.28,0.84,0.48,1.52,0.58,2.03s0.15,1.15,0.15,1.9c0,0.86-0.15,1.66-0.44,2.42s-0.63,1.39-0.99,1.88
		c-0.39,0.52-0.62,0.85-0.7,0.98c-0.19,0.38-0.35,0.64-0.48,0.77S27.15,38.34,26.97,38.34z"/>
</g>
<g>
	<path d="M60.12,15.2c0.35,0,0.52,0.17,0.52,0.51c0,0.42-0.5,0.94-1.51,1.55s-1.98,0.92-2.92,0.92c-0.83,0-1.59-0.27-2.29-0.81
		s-1.05-1.33-1.05-2.37c0-1.06,0.36-2.23,1.09-3.52c0.73-1.29,1.63-2.34,2.71-3.15c1.08-0.81,2.13-1.22,3.16-1.22
		c0.61,0,1.1,0.18,1.46,0.55c0.36,0.36,0.55,0.79,0.55,1.28c0,0.53-0.04,0.91-0.12,1.14s-0.26,0.43-0.53,0.59
		c-0.27,0.16-0.49,0.25-0.66,0.25c-0.17,0-0.32-0.06-0.45-0.18c-0.13-0.12-0.19-0.29-0.19-0.5c0-0.15,0.04-0.36,0.12-0.64
		c0.07-0.28,0.11-0.51,0.11-0.7c0-0.31-0.11-0.47-0.32-0.47c-0.66,0-1.39,0.35-2.21,1.05c-0.82,0.7-1.51,1.57-2.1,2.61
		s-0.87,1.96-0.87,2.76c0,0.53,0.15,0.98,0.46,1.34c0.3,0.36,0.75,0.55,1.34,0.55c0.35,0,0.78-0.09,1.31-0.28s1.01-0.44,1.46-0.76
		C59.65,15.36,59.95,15.2,60.12,15.2z"/>
	<path d="M68.92,14.11c-0.31,1.07-0.89,1.97-1.74,2.7s-1.71,1.1-2.56,1.1c-0.67,0-1.23-0.25-1.67-0.74s-0.66-1.1-0.66-1.82
		c0-1.18,0.4-2.33,1.2-3.47c0.8-1.14,1.77-1.71,2.92-1.71c0.78,0,1.41,0.29,1.89,0.86c0.48,0.58,0.72,1.26,0.72,2.06
		C69.03,13.43,68.99,13.77,68.92,14.11L68.92,14.11z M65.36,11.95c-0.32,0.28-0.63,0.73-0.94,1.35c-0.31,0.62-0.46,1.24-0.46,1.87
		c0,0.38,0.07,0.69,0.21,0.94c0.14,0.25,0.32,0.37,0.55,0.37c0.56,0,1.15-0.33,1.76-1c0.61-0.67,0.92-1.42,0.92-2.26
		c0-0.47-0.1-0.86-0.3-1.16s-0.47-0.45-0.83-0.45C65.94,11.6,65.64,11.71,65.36,11.95L65.36,11.95z"/>
	<path d="M72.15,17.17c-0.05,0.47-0.32,0.7-0.79,0.7c-0.6,0-0.9-0.43-0.9-1.29c0-1.39,0.08-2.59,0.23-3.58
		c0.12-0.77,0.18-1.53,0.18-2.27c0-0.18,0.06-0.33,0.17-0.45c0.11-0.12,0.27-0.18,0.48-0.18c0.68,0,1.03,0.41,1.03,1.24
		c0,0.27-0.12,0.95-0.36,2.06c-0.15,0.66-0.22,1.13-0.22,1.43c1.3-2.86,2.48-4.29,3.53-4.29c0.42,0,0.76,0.17,1.02,0.51
		c0.26,0.34,0.39,1.08,0.4,2.24c0,1.06,0.06,1.59,0.16,1.59c0.08,0,0.37-0.51,0.85-1.54c0.54-1.13,1.01-1.88,1.39-2.25
		c0.39-0.36,0.79-0.55,1.21-0.55c0.51,0,0.87,0.22,1.1,0.65c0.23,0.44,0.39,1.17,0.48,2.2c0.07,0.82,0.16,1.44,0.28,1.86
		s0.32,0.7,0.6,0.83c0.23,0.11,0.34,0.27,0.34,0.49c0,0.2-0.13,0.39-0.39,0.59s-0.52,0.3-0.79,0.3c-0.46,0-0.83-0.23-1.09-0.69
		c-0.26-0.46-0.44-1.38-0.53-2.76c-0.05-0.67-0.1-1.11-0.16-1.32c-0.06-0.22-0.14-0.32-0.26-0.32c-0.1,0-0.25,0.16-0.44,0.49
		s-0.52,0.97-0.99,1.94c-0.42,0.88-0.77,1.49-1.07,1.83c-0.3,0.35-0.62,0.52-0.96,0.52c-0.26,0-0.53-0.11-0.8-0.34
		s-0.41-1.06-0.43-2.48c-0.02-1.27-0.11-1.91-0.25-1.91c-0.19,0-0.65,0.56-1.38,1.7C73.07,15.26,72.52,16.28,72.15,17.17z"/>
	<path d="M85.03,10.93c0.44-2.62,0.76-4.17,0.95-4.66C86.18,5.8,86.51,5.55,87,5.55c0.37,0,0.56,0.33,0.56,0.99
		c0,0.45-0.19,1.39-0.56,2.81c-0.2,0.7-0.43,1.76-0.71,3.19c0.56-0.75,1.18-1.36,1.85-1.83c0.67-0.46,1.26-0.7,1.79-0.7
		c0.43,0,0.79,0.18,1.07,0.55c0.29,0.37,0.43,0.8,0.43,1.3c0,1.4-0.54,2.72-1.62,3.96c-1.08,1.23-2.22,1.85-3.43,1.85
		c-0.37,0-0.7-0.1-1.02-0.3s-0.49-0.45-0.53-0.76c-0.02-0.17-0.05-0.28-0.1-0.33c-0.05-0.05-0.1-0.11-0.16-0.18
		c-0.13-0.14-0.2-0.33-0.2-0.57c0-0.28,0.07-0.87,0.21-1.76L85.03,10.93z M85.84,15.79c0.19,0.32,0.41,0.48,0.64,0.48
		c0.43,0,0.9-0.2,1.42-0.59c0.52-0.39,0.98-0.95,1.36-1.66c0.39-0.72,0.58-1.31,0.58-1.78c0-0.45-0.07-0.68-0.21-0.68
		c-0.72,0-1.54,0.53-2.44,1.59S85.84,15.08,85.84,15.79z"/>
</g>
<polyline class="st2" points="324.29,106.65 336.47,106.65 336.47,47.88 "/>
<g>
	<path d="M333.63,47.87c0-0.79,0.28-1.46,0.84-2.01c0.56-0.55,1.23-0.83,2-0.83c0.79,0,1.46,0.28,2.02,0.83
		c0.56,0.55,0.84,1.22,0.84,2.01c0,0.79-0.28,1.46-0.84,2.02c-0.56,0.56-1.23,0.84-2.02,0.84c-0.78,0-1.45-0.28-2-0.84
		C333.91,49.33,333.63,48.66,333.63,47.87z"/>
</g>
<g>
	<path d="M366.02,30.84c-0.07,1.11-0.2,2.18-0.39,3.22s-0.46,1.99-0.81,2.83c-0.36,0.85-0.74,1.43-1.16,1.73
		c-0.41,0.31-0.9,0.46-1.47,0.46c-0.61,0-1.2-0.12-1.76-0.35h0.01c-0.48-0.2-0.9-0.47-1.26-0.81c-0.36-0.34-0.54-0.62-0.54-0.85
		c0-0.21,0.05-0.39,0.16-0.51c0.11-0.13,0.25-0.19,0.42-0.19c0.15,0,0.28,0.06,0.38,0.19c0.58,0.75,1.43,1.13,2.54,1.13
		c0.45,0,0.89-0.47,1.31-1.42c0.42-0.94,0.68-2.08,0.79-3.4c-1.41,1.11-2.49,1.67-3.25,1.67c-0.49,0-0.88-0.2-1.17-0.59
		s-0.43-0.86-0.43-1.42s0.13-1.35,0.39-2.4c0.26-1.05,0.48-1.7,0.66-1.96c0.18-0.25,0.47-0.38,0.88-0.38c0.22,0,0.39,0.09,0.51,0.28
		c0.12,0.19,0.18,0.4,0.18,0.63c0,0.07-0.16,0.45-0.49,1.16c-0.4,0.86-0.6,1.6-0.6,2.21c0,0.32,0.04,0.56,0.13,0.73
		s0.18,0.25,0.28,0.25c0.22,0,0.48-0.07,0.8-0.2c0.31-0.13,0.68-0.36,1.1-0.69c0.42-0.33,0.69-0.57,0.82-0.74s0.22-0.39,0.29-0.65
		c0.07-0.27,0.13-0.85,0.17-1.76c0.02-0.53,0.05-0.86,0.08-1c0.03-0.14,0.11-0.26,0.24-0.38c0.13-0.11,0.31-0.17,0.53-0.17
		c0.3,0,0.51,0.06,0.64,0.19c0.13,0.13,0.19,0.43,0.19,0.9L366.02,30.84z"/>
	<path d="M368.68,32.1c0,0.15,0.02,0.31,0.07,0.47c0.04,0.16,0.07,0.36,0.1,0.57v-0.01l0.15,0.82c0.14,0.64,0.32,1.17,0.55,1.6
		s0.53,0.79,0.9,1.1c0.53,0.45,0.79,0.81,0.79,1.09c0,0.18-0.09,0.32-0.26,0.42c-0.17,0.1-0.39,0.16-0.65,0.16
		c-0.17,0-0.4-0.09-0.67-0.27c-0.27-0.18-0.61-0.53-1.01-1.05c-0.4-0.52-0.67-0.96-0.81-1.32c-0.14-0.36-0.28-0.94-0.43-1.76
		c-0.15-0.82-0.22-1.51-0.22-2.06c0-0.67,0.03-1.16,0.08-1.48s0.17-0.72,0.36-1.21s0.46-1.1,0.84-1.83s0.6-1.14,0.68-1.23
		c0.08-0.09,0.36-0.36,0.85-0.81l0.58-0.55c0.26-0.24,0.48-0.41,0.66-0.5c0.19-0.09,0.42-0.14,0.71-0.14c0.37,0,0.55,0.18,0.55,0.54
		c0,0.15-0.15,0.38-0.46,0.66c-0.54,0.51-1.02,1-1.44,1.48c-0.42,0.47-0.86,1.18-1.31,2.11c-0.45,0.93-0.68,1.78-0.68,2.54
		C368.62,31.6,368.64,31.81,368.68,32.1z"/>
	<path d="M379.01,33.87c-0.22-0.41-0.38-1.18-0.48-2.3c-0.1-1.17-0.32-1.75-0.67-1.75c-0.33,0-0.9,0.61-1.7,1.82
		s-1.3,2.11-1.49,2.69c-0.04,0.17-0.12,0.32-0.23,0.43c-0.11,0.11-0.22,0.17-0.33,0.17c-0.69,0-1.04-0.32-1.04-0.95
		c0-0.21,0.07-0.7,0.21-1.46c0.18-0.98,0.27-2.19,0.27-3.61c0-0.21,0.09-0.44,0.28-0.69c0.19-0.24,0.39-0.37,0.59-0.37
		c0.26,0,0.47,0.07,0.61,0.2c0.14,0.13,0.21,0.48,0.21,1.05c0,0.43-0.13,1.27-0.39,2.52c0.99-2.31,2.09-3.47,3.31-3.47
		c1.06,0,1.68,0.83,1.86,2.5c0.18,1.7,0.39,2.54,0.63,2.54c0.11,0,0.23-0.02,0.36-0.07c0.16-0.05,0.29-0.08,0.39-0.08
		c0.22,0,0.33,0.13,0.33,0.38c0,0.23-0.15,0.48-0.45,0.74s-0.68,0.39-1.13,0.39C379.61,34.56,379.23,34.33,379.01,33.87
		L379.01,33.87z"/>
	<path d="M383.14,38.34c-0.23,0-0.43-0.07-0.6-0.21c-0.17-0.14-0.25-0.28-0.25-0.43c0-0.21,0.28-0.66,0.84-1.36
		c0.37-0.44,0.73-1.12,1.09-2.04c0.36-0.92,0.54-1.49,0.54-1.71c0-0.77-0.06-1.5-0.18-2.19c-0.12-0.69-0.35-1.43-0.68-2.23
		c-0.33-0.79-0.61-1.37-0.84-1.74s-0.63-0.83-1.23-1.37c-0.11-0.1-0.16-0.24-0.16-0.41c0-0.12,0.09-0.25,0.27-0.4
		c0.18-0.15,0.37-0.22,0.57-0.22c0.43,0,0.98,0.48,1.63,1.45s1.05,1.69,1.19,2.16c0.05,0.16,0.1,0.33,0.16,0.51
		c0.28,0.84,0.48,1.52,0.58,2.03s0.15,1.15,0.15,1.9c0,0.86-0.15,1.66-0.44,2.42s-0.63,1.39-1,1.88c-0.39,0.52-0.62,0.85-0.7,0.98
		c-0.19,0.38-0.35,0.64-0.48,0.77C383.48,38.28,383.32,38.34,383.14,38.34z"/>
</g>
<g>
	<path d="M279.98,8.04c-0.1,0.41-0.16,0.75-0.19,0.99c0,0.13-0.05,0.47-0.14,1.02c-0.15,0.98-0.23,1.64-0.23,2
		c0,0.6,0.04,1.19,0.11,1.78c0.05,0.42-0.03,0.73-0.26,0.93c-0.23,0.19-0.46,0.29-0.68,0.29c-0.32,0-0.55-0.14-0.69-0.42
		s-0.21-0.77-0.21-1.46c0-0.43,0.11-1.45,0.32-3.06l0.38-2.67c0.08-0.39,0.13-0.76,0.17-1.09c0.05-0.5,0.12-0.8,0.2-0.92
		c0.08-0.12,0.22-0.24,0.43-0.37s0.36-0.19,0.46-0.19c0.26,0,0.47,0.11,0.6,0.32c0.14,0.21,0.21,0.48,0.21,0.79L279.98,8.04z"/>
	<path d="M287.52,13.82c-0.22-0.41-0.38-1.18-0.48-2.3c-0.1-1.17-0.32-1.75-0.67-1.75c-0.33,0-0.9,0.61-1.7,1.82
		s-1.3,2.11-1.49,2.69c-0.04,0.17-0.12,0.32-0.23,0.43c-0.11,0.11-0.22,0.17-0.33,0.17c-0.69,0-1.04-0.32-1.04-0.95
		c0-0.21,0.07-0.7,0.21-1.46c0.18-0.98,0.27-2.19,0.27-3.61c0-0.21,0.09-0.44,0.28-0.69c0.19-0.24,0.38-0.37,0.59-0.37
		c0.26,0,0.47,0.07,0.61,0.2c0.14,0.13,0.21,0.48,0.21,1.05c0,0.43-0.13,1.27-0.39,2.52c0.99-2.31,2.09-3.47,3.31-3.47
		c1.06,0,1.68,0.83,1.86,2.5c0.18,1.7,0.39,2.54,0.63,2.54c0.1,0,0.23-0.02,0.36-0.07c0.16-0.05,0.29-0.08,0.39-0.08
		c0.22,0,0.33,0.13,0.33,0.38c0,0.23-0.15,0.48-0.45,0.74s-0.68,0.39-1.13,0.39C288.12,14.51,287.74,14.28,287.52,13.82
		L287.52,13.82z"/>
	<path d="M293.82,9.27c-0.04,0-0.17,0.51-0.39,1.52c-0.22,1.02-0.32,1.63-0.32,1.85c0,0.37,0.04,0.63,0.12,0.78
		c0.08,0.15,0.21,0.22,0.39,0.22c0.25,0,0.5-0.04,0.73-0.13c0.24-0.09,0.54-0.29,0.93-0.6c0.24-0.2,0.44-0.29,0.6-0.29
		c0.13,0,0.24,0.04,0.32,0.11c0.08,0.08,0.12,0.16,0.12,0.26c0,0.4-0.32,0.86-0.97,1.36c-0.65,0.51-1.33,0.76-2.05,0.76
		c-0.6,0-1.06-0.18-1.38-0.53c-0.32-0.36-0.47-0.87-0.47-1.53c0-0.62,0.23-1.84,0.69-3.68c-0.29,0.03-0.5,0.05-0.61,0.05h-0.14
		c-0.21,0-0.42-0.07-0.64-0.21c-0.22-0.14-0.32-0.36-0.32-0.66c0-0.38,0.22-0.57,0.65-0.57l1.46-0.05c0.19-0.55,0.39-1.27,0.61-2.17
		c0.13-0.56,0.42-0.83,0.87-0.83c0.25,0,0.45,0.08,0.59,0.23c0.14,0.15,0.21,0.32,0.21,0.51c0,0.07-0.19,0.78-0.58,2.11
		c1.45-0.13,2.24-0.19,2.39-0.19c0.24,0,0.4,0.04,0.48,0.11c0.08,0.07,0.12,0.21,0.12,0.41c0,0.41-0.34,0.66-1.03,0.77L293.82,9.27z
		"/>
	<path d="M303.68,12.47c0,0.47-0.4,1.04-1.2,1.7c-0.8,0.66-1.7,0.99-2.7,0.99c-0.77,0-1.38-0.24-1.82-0.73
		c-0.44-0.49-0.66-1.16-0.66-2.03c0-1.28,0.45-2.47,1.35-3.59s1.87-1.67,2.89-1.67c0.51,0,0.92,0.16,1.23,0.49
		c0.31,0.32,0.46,0.71,0.46,1.16c0,0.79-0.38,1.55-1.14,2.27c-0.76,0.72-1.74,1.21-2.93,1.49c-0.14,0.03-0.21,0.11-0.21,0.25
		c0,0.22,0.1,0.43,0.29,0.63c0.19,0.2,0.45,0.3,0.78,0.3c0.92,0,1.83-0.47,2.73-1.42c0.17-0.18,0.34-0.27,0.51-0.27
		C303.55,12.01,303.68,12.16,303.68,12.47z M299.1,11.26c0.72-0.15,1.35-0.45,1.9-0.92c0.55-0.47,0.82-0.9,0.82-1.28
		c0-0.15-0.04-0.28-0.13-0.38c-0.08-0.1-0.19-0.15-0.32-0.15c-0.4,0-0.84,0.29-1.32,0.88C299.57,9.98,299.25,10.6,299.1,11.26z"/>
	<path d="M309.5,12.73c-0.51,0.57-1.09,1.04-1.77,1.4c-0.67,0.37-1.25,0.55-1.74,0.55c-0.48,0-0.86-0.14-1.13-0.42
		s-0.4-0.67-0.4-1.17c0-0.71,0.27-1.49,0.8-2.36c0.54-0.87,1.28-1.62,2.23-2.26s1.81-0.96,2.57-0.96c0.42,0,0.78,0.11,1.09,0.34
		c0.07,0.05,0.14,0.1,0.19,0.14c0.11,0.08,0.21,0.22,0.3,0.43c0.09,0.21,0.14,0.38,0.14,0.5c0,0.08-0.09,0.36-0.26,0.83
		c-0.18,0.49-0.3,0.96-0.37,1.42c-0.07,0.46-0.21,1.6-0.42,3.43c-0.19,1.59-0.63,2.75-1.33,3.49c-0.7,0.73-1.48,1.1-2.34,1.1
		c-0.9,0-1.77-0.3-2.62-0.91c-0.84-0.6-1.27-1.1-1.27-1.49c0-0.35,0.17-0.52,0.51-0.52c0.13,0,0.4,0.13,0.81,0.4
		c1.04,0.68,1.93,1.03,2.67,1.03c0.56,0,1.04-0.35,1.42-1.06S309.28,14.62,309.5,12.73z M309.67,8.93c-0.34,0-0.78,0.2-1.33,0.6
		s-1.05,0.95-1.52,1.63s-0.7,1.25-0.7,1.7c0,0.24,0.09,0.36,0.26,0.36c0.59,0,1.17-0.24,1.75-0.71c0.58-0.48,1.05-1.02,1.4-1.64
		c0.36-0.62,0.54-1.09,0.54-1.41c0-0.16-0.04-0.29-0.12-0.38S309.78,8.93,309.67,8.93z"/>
	<path d="M314.54,11.43l0.12-0.22c0.55-1.11,1.14-2.01,1.78-2.7s1.26-1.04,1.86-1.04c0.46,0,0.84,0.13,1.14,0.38
		s0.44,0.56,0.44,0.91c0,0.22-0.05,0.41-0.15,0.56c-0.1,0.16-0.24,0.24-0.42,0.24c-0.28,0-0.54-0.12-0.77-0.35
		C318.38,9.07,318.25,9,318.15,9c-0.34,0-0.91,0.53-1.72,1.59c-0.8,1.06-1.29,2.26-1.45,3.58c-0.05,0.38-0.16,0.65-0.33,0.8
		c-0.17,0.15-0.41,0.23-0.7,0.23c-0.31,0-0.54-0.18-0.67-0.54c-0.13-0.36-0.2-0.94-0.2-1.75c0-0.33,0.01-0.78,0.03-1.35
		c0.02-0.53,0.07-1.19,0.16-1.96c0.02-0.2,0.04-0.36,0.05-0.47c0.04-0.45,0.09-0.75,0.14-0.92c0.05-0.17,0.17-0.32,0.37-0.47
		s0.4-0.22,0.64-0.22c0.25,0,0.43,0.07,0.56,0.21c0.13,0.14,0.19,0.3,0.19,0.46c0,0.21-0.1,0.66-0.31,1.33
		c-0.07,0.23-0.13,0.51-0.18,0.83L314.54,11.43z"/>
	<path d="M324.62,12.53c-1.2,1.58-2.36,2.37-3.47,2.37c-0.41,0-0.76-0.16-1.06-0.49c-0.3-0.32-0.44-0.74-0.44-1.24
		c0-1.21,0.54-2.49,1.61-3.86c1.08-1.36,2.16-2.05,3.25-2.05c0.56,0,0.92,0.28,1.09,0.84c0.52,0,0.79,0.2,0.79,0.6
		c0,0.19-0.05,0.54-0.15,1.04c-0.18,0.94-0.27,1.69-0.27,2.25c0,0.58,0.04,0.99,0.12,1.23c0.08,0.24,0.14,0.39,0.17,0.46
		c0.04,0.07,0.15,0.15,0.33,0.23c0.18,0.09,0.27,0.21,0.27,0.36c0,0.23-0.12,0.43-0.35,0.58c-0.23,0.15-0.48,0.23-0.73,0.23
		C324.91,15.11,324.53,14.25,324.62,12.53z M324.21,8.74c-0.46,0-1.06,0.51-1.79,1.53c-0.74,1.02-1.1,1.88-1.1,2.59
		c0,0.37,0.08,0.56,0.23,0.56c0.54,0,1.2-0.48,1.99-1.43s1.18-1.79,1.18-2.51c0-0.23-0.05-0.41-0.15-0.54S324.33,8.74,324.21,8.74z"
		/>
	<path d="M330.91,9.27c-0.04,0-0.17,0.51-0.39,1.52c-0.22,1.02-0.32,1.63-0.32,1.85c0,0.37,0.04,0.63,0.12,0.78
		c0.08,0.15,0.21,0.22,0.39,0.22c0.25,0,0.5-0.04,0.73-0.13c0.24-0.09,0.54-0.29,0.93-0.6c0.24-0.2,0.44-0.29,0.6-0.29
		c0.13,0,0.24,0.04,0.32,0.11c0.08,0.08,0.12,0.16,0.12,0.26c0,0.4-0.32,0.86-0.97,1.36c-0.65,0.51-1.33,0.76-2.05,0.76
		c-0.6,0-1.06-0.18-1.38-0.53c-0.32-0.36-0.47-0.87-0.47-1.53c0-0.62,0.23-1.84,0.69-3.68c-0.29,0.03-0.5,0.05-0.61,0.05h-0.14
		c-0.21,0-0.42-0.07-0.64-0.21c-0.22-0.14-0.32-0.36-0.32-0.66c0-0.38,0.22-0.57,0.65-0.57l1.46-0.05c0.19-0.55,0.39-1.27,0.61-2.17
		c0.13-0.56,0.42-0.83,0.87-0.83c0.25,0,0.45,0.08,0.59,0.23c0.14,0.15,0.21,0.32,0.21,0.51c0,0.07-0.19,0.78-0.58,2.11
		c1.45-0.13,2.24-0.19,2.39-0.19c0.24,0,0.4,0.04,0.48,0.11c0.08,0.07,0.12,0.21,0.12,0.41c0,0.41-0.34,0.66-1.03,0.77L330.91,9.27z
		"/>
	<path d="M341.12,11.36c-0.31,1.07-0.89,1.97-1.74,2.7s-1.71,1.1-2.56,1.1c-0.67,0-1.23-0.25-1.67-0.74s-0.66-1.1-0.66-1.82
		c0-1.18,0.4-2.33,1.2-3.47c0.8-1.14,1.77-1.71,2.92-1.71c0.78,0,1.41,0.29,1.89,0.86c0.48,0.58,0.72,1.26,0.72,2.06
		C341.23,10.68,341.2,11.02,341.12,11.36L341.12,11.36z M337.56,9.2c-0.32,0.28-0.63,0.73-0.94,1.35c-0.31,0.62-0.46,1.24-0.46,1.87
		c0,0.38,0.07,0.69,0.21,0.94c0.14,0.25,0.32,0.37,0.55,0.37c0.56,0,1.15-0.33,1.76-1c0.61-0.67,0.92-1.42,0.92-2.26
		c0-0.47-0.1-0.86-0.3-1.16s-0.47-0.45-0.83-0.45C338.14,8.85,337.84,8.96,337.56,9.2L337.56,9.2z"/>
	<path d="M344.26,11.43l0.12-0.22c0.55-1.11,1.14-2.01,1.78-2.7s1.26-1.04,1.86-1.04c0.46,0,0.84,0.13,1.14,0.38
		s0.44,0.56,0.44,0.91c0,0.22-0.05,0.41-0.15,0.56c-0.1,0.16-0.24,0.24-0.42,0.24c-0.28,0-0.54-0.12-0.77-0.35
		C348.09,9.07,347.96,9,347.87,9c-0.34,0-0.91,0.53-1.72,1.59c-0.8,1.06-1.29,2.26-1.45,3.58c-0.05,0.38-0.16,0.65-0.33,0.8
		c-0.17,0.15-0.41,0.23-0.7,0.23c-0.31,0-0.54-0.18-0.67-0.54c-0.13-0.36-0.2-0.94-0.2-1.75c0-0.33,0.01-0.78,0.03-1.35
		c0.02-0.53,0.07-1.19,0.16-1.96c0.02-0.2,0.04-0.36,0.05-0.47c0.04-0.45,0.09-0.75,0.14-0.92c0.05-0.17,0.17-0.32,0.37-0.47
		s0.4-0.22,0.64-0.22c0.25,0,0.43,0.07,0.56,0.21c0.13,0.14,0.19,0.3,0.19,0.46c0,0.21-0.1,0.66-0.31,1.33
		c-0.07,0.23-0.13,0.51-0.18,0.83L344.26,11.43z"/>
</g>
</svg>
