<svg width="445" height="249" viewBox="0 0 445 249" fill="none" xmlns="http://www.w3.org/2000/svg">
<g clip-path="url(#clip0_307_605)">
<rect width="445" height="249" fill="white"/>
<line x1="-4.37114e-08" y1="89.6406" x2="438" y2="89.6406" stroke="black"/>
<path d="M444 89.5342L437.25 91.6072L437.25 87.4613L444 89.5342Z" fill="black"/>
<path d="M444.301 84.1406H440.999V83.6895C441.104 83.6803 441.218 83.6712 441.341 83.6621C441.468 83.653 441.573 83.6348 441.655 83.6074C441.783 83.5664 441.876 83.4958 441.936 83.3955C441.999 83.2907 442.031 83.1562 442.031 82.9922V79.5264C442.031 79.0479 441.917 78.6787 441.689 78.4189C441.466 78.1592 441.193 78.0293 440.869 78.0293C440.628 78.0293 440.407 78.068 440.206 78.1455C440.006 78.2184 439.828 78.3096 439.673 78.4189C439.522 78.5238 439.402 78.6377 439.311 78.7607C439.224 78.8792 439.16 78.9749 439.119 79.0479V82.9238C439.119 83.0788 439.151 83.2064 439.215 83.3066C439.279 83.4069 439.374 83.4844 439.502 83.5391C439.598 83.5846 439.7 83.6188 439.81 83.6416C439.924 83.6644 440.04 83.6803 440.158 83.6895V84.1406H436.856V83.6895C436.961 83.6803 437.068 83.6712 437.178 83.6621C437.292 83.653 437.39 83.6348 437.472 83.6074C437.599 83.5664 437.693 83.4958 437.752 83.3955C437.816 83.2907 437.848 83.1562 437.848 82.9922V78.8291C437.848 78.6742 437.813 78.5329 437.745 78.4053C437.681 78.2731 437.59 78.166 437.472 78.084C437.385 78.0293 437.283 77.9906 437.164 77.9678C437.046 77.9404 436.918 77.9222 436.781 77.9131V77.4688L439.023 77.3184L439.119 77.4141V78.3643H439.153C439.263 78.2549 439.399 78.125 439.563 77.9746C439.728 77.8197 439.882 77.6943 440.028 77.5986C440.197 77.4893 440.397 77.3981 440.63 77.3252C440.862 77.2523 441.124 77.2158 441.416 77.2158C442.063 77.2158 442.542 77.4186 442.852 77.8242C443.166 78.2253 443.323 78.7607 443.323 79.4307V82.9375C443.323 83.097 443.351 83.2269 443.405 83.3271C443.46 83.4229 443.553 83.498 443.686 83.5527C443.795 83.5983 443.888 83.6302 443.966 83.6484C444.048 83.6667 444.16 83.6803 444.301 83.6895V84.1406Z" fill="black"/>
<line x1="39.5" y1="90.1406" x2="39.5" y2="95.1406" stroke="black"/>
<line x1="119.5" y1="90.1406" x2="119.5" y2="95.1406" stroke="black"/>
<line x1="199.5" y1="90.1406" x2="199.5" y2="95.1406" stroke="black"/>
<line x1="279.5" y1="90.1406" x2="279.5" y2="95.1406" stroke="black"/>
<line x1="359.5" y1="90.1406" x2="359.5" y2="95.1406" stroke="black"/>
<path d="M41.332 102.668C41.582 102.969 41.7676 103.322 41.8887 103.729C42.0137 104.131 42.0762 104.553 42.0762 104.994C42.0762 105.525 42 106.002 41.8477 106.424C41.6953 106.842 41.4863 107.189 41.2207 107.467C40.9473 107.752 40.623 107.967 40.248 108.111C39.873 108.256 39.4551 108.328 38.9941 108.328C38.4902 108.328 38.041 108.244 37.6465 108.076C37.252 107.908 36.9316 107.678 36.6855 107.385C36.4277 107.08 36.2344 106.725 36.1055 106.318C35.9805 105.908 35.918 105.467 35.918 104.994C35.918 104.529 35.9785 104.102 36.0996 103.711C36.2246 103.32 36.418 102.967 36.6797 102.65C36.9297 102.346 37.252 102.105 37.6465 101.93C38.041 101.754 38.4922 101.666 39 101.666C39.5352 101.666 39.9941 101.756 40.377 101.936C40.7598 102.115 41.0781 102.359 41.332 102.668ZM40.7812 104.994C40.7812 104.064 40.6211 103.344 40.3008 102.832C39.9844 102.32 39.5527 102.064 39.0059 102.064C38.4512 102.064 38.0137 102.32 37.6934 102.832C37.373 103.344 37.2129 104.064 37.2129 104.994C37.2129 105.877 37.3652 106.588 37.6699 107.127C37.9785 107.662 38.4199 107.93 38.9941 107.93C39.5684 107.93 40.0098 107.662 40.3184 107.127C40.627 106.588 40.7812 105.877 40.7812 104.994Z" fill="black"/>
<path d="M121.162 108.141H117.213V107.725C117.33 107.717 117.512 107.701 117.758 107.678C118.008 107.65 118.18 107.623 118.273 107.596C118.395 107.557 118.486 107.494 118.549 107.408C118.615 107.318 118.648 107.186 118.648 107.01V102.896H117.189V102.404H117.512C117.934 102.404 118.311 102.326 118.643 102.17C118.979 102.014 119.219 101.846 119.363 101.666H119.85C119.838 101.92 119.826 102.217 119.814 102.557C119.803 102.896 119.797 103.201 119.797 103.471V106.945C119.797 107.082 119.826 107.205 119.885 107.314C119.947 107.42 120.035 107.498 120.148 107.549C120.25 107.592 120.416 107.631 120.646 107.666C120.877 107.701 121.049 107.721 121.162 107.725V108.141Z" fill="black"/>
<path d="M202.283 108.141H196.793V107.344C196.898 107.223 197.045 107.088 197.232 106.939C197.42 106.787 197.643 106.623 197.9 106.447C198.057 106.342 198.244 106.227 198.463 106.102C198.682 105.977 198.93 105.84 199.207 105.691C199.516 105.527 199.752 105.383 199.916 105.258C200.084 105.133 200.236 104.979 200.373 104.795C200.463 104.674 200.535 104.523 200.59 104.344C200.645 104.16 200.672 103.9 200.672 103.564C200.672 103.076 200.541 102.719 200.279 102.492C200.018 102.262 199.682 102.146 199.271 102.146C199.018 102.146 198.777 102.197 198.551 102.299C198.324 102.396 198.154 102.533 198.041 102.709C198.068 102.834 198.102 102.982 198.141 103.154C198.184 103.326 198.205 103.494 198.205 103.658C198.205 103.807 198.143 103.939 198.018 104.057C197.896 104.17 197.715 104.227 197.473 104.227C197.277 104.227 197.127 104.16 197.021 104.027C196.916 103.891 196.863 103.709 196.863 103.482C196.863 103.271 196.922 103.061 197.039 102.85C197.156 102.635 197.324 102.438 197.543 102.258C197.758 102.082 198.023 101.939 198.34 101.83C198.656 101.721 198.998 101.666 199.365 101.666C200.166 101.666 200.801 101.846 201.27 102.205C201.742 102.561 201.979 103.037 201.979 103.635C201.979 103.92 201.936 104.18 201.85 104.414C201.768 104.648 201.633 104.855 201.445 105.035C201.238 105.234 200.996 105.406 200.719 105.551C200.441 105.691 200.018 105.889 199.447 106.143C199.107 106.295 198.791 106.455 198.498 106.623C198.205 106.787 197.965 106.947 197.777 107.104H202.283V108.141Z" fill="black"/>
<path d="M279.043 110.279C278.676 110.279 278.34 110.232 278.035 110.139C277.73 110.049 277.469 109.926 277.25 109.77C277.031 109.613 276.861 109.434 276.74 109.23C276.623 109.027 276.564 108.818 276.564 108.604C276.564 108.412 276.611 108.24 276.705 108.088C276.799 107.932 276.949 107.854 277.156 107.854C277.391 107.854 277.568 107.912 277.689 108.029C277.814 108.143 277.877 108.273 277.877 108.422C277.877 108.547 277.855 108.705 277.812 108.896C277.773 109.088 277.742 109.225 277.719 109.307C277.746 109.342 277.795 109.389 277.865 109.447C277.939 109.506 278.029 109.559 278.135 109.605C278.26 109.664 278.391 109.711 278.527 109.746C278.664 109.781 278.857 109.799 279.107 109.799C279.342 109.799 279.566 109.76 279.781 109.682C280 109.604 280.191 109.479 280.355 109.307C280.527 109.127 280.66 108.916 280.754 108.674C280.852 108.436 280.9 108.121 280.9 107.73C280.9 107.52 280.877 107.311 280.83 107.104C280.787 106.896 280.705 106.717 280.584 106.564C280.463 106.412 280.297 106.295 280.086 106.213C279.879 106.127 279.615 106.084 279.295 106.084H278.527V105.41H279.037C279.576 105.41 279.965 105.262 280.203 104.965C280.441 104.668 280.561 104.221 280.561 103.623C280.561 103.135 280.445 102.768 280.215 102.521C279.984 102.271 279.658 102.146 279.236 102.146C279.033 102.146 278.865 102.172 278.732 102.223C278.604 102.27 278.498 102.316 278.416 102.363C278.318 102.418 278.238 102.479 278.176 102.545C278.113 102.611 278.066 102.66 278.035 102.691C278.062 102.816 278.096 102.971 278.135 103.154C278.174 103.334 278.193 103.506 278.193 103.67C278.193 103.814 278.131 103.945 278.006 104.062C277.885 104.176 277.705 104.232 277.467 104.232C277.26 104.232 277.107 104.158 277.01 104.01C276.916 103.861 276.869 103.689 276.869 103.494C276.869 103.291 276.926 103.084 277.039 102.873C277.152 102.662 277.32 102.465 277.543 102.281C277.766 102.098 278.037 101.949 278.357 101.836C278.678 101.723 279.047 101.666 279.465 101.666C279.945 101.666 280.342 101.738 280.654 101.883C280.971 102.023 281.219 102.195 281.398 102.398C281.574 102.598 281.695 102.807 281.762 103.025C281.828 103.244 281.861 103.432 281.861 103.588C281.861 103.783 281.834 103.98 281.779 104.18C281.725 104.375 281.635 104.557 281.51 104.725C281.373 104.908 281.191 105.076 280.965 105.229C280.742 105.377 280.461 105.498 280.121 105.592V105.686C280.34 105.705 280.572 105.754 280.818 105.832C281.068 105.91 281.293 106.025 281.492 106.178C281.699 106.338 281.869 106.545 282.002 106.799C282.135 107.049 282.201 107.367 282.201 107.754C282.201 108.504 281.9 109.111 281.299 109.576C280.697 110.045 279.945 110.279 279.043 110.279Z" fill="black"/>
<path d="M362.459 107.613H361.27V110.279H360.145V107.613H356.395V106.711L360.502 101.701H361.27V106.846H362.459V107.613ZM360.145 106.846V103.008L356.98 106.846H360.145Z" fill="black"/>
<path d="M205 68.1915C207.667 74.3582 217.9 81.3915 237.5 60.1915C262 33.6915 272.5 60.1883 275.5 64.6883C278.5 69.1883 284.28 91.1489 307.5 104.688C328 116.641 341 30.1406 351.5 21.6396C357.5 13.1407 371.4 0.701318 391 27.1414" stroke="#FF0000" stroke-dasharray="2 2"/>
<path d="M24 73.1406C28.5 66.6406 48.2133 51.9256 53.5 56.1836C64 64.6406 66.8031 71.507 69 90.6819C71 108.138 78 111.682 82.5 113.182C87 114.682 100 101.182 104.5 90.6819C109 80.1819 130.502 35.1392 137 27.1376C142.5 20.365 158.399 -4.39944 170.5 0.681841C183.5 6.14068 182.5 14.6825 205.5 69.6836" stroke="#FF0000" stroke-dasharray="2 2"/>
<line x1="39.5" y1="89.1406" x2="39.5" y2="60.1406" stroke="#FF0000"/>
<circle cx="39.5" cy="59.6406" r="2.5" fill="#FF0000"/>
<line x1="119.5" y1="89.1406" x2="119.5" y2="60.1406" stroke="#FF0000"/>
<circle cx="119.5" cy="59.6406" r="2.5" fill="#FF0000"/>
<line x1="199.5" y1="89.1406" x2="199.5" y2="56.1406" stroke="#FF0000"/>
<circle cx="199.5" cy="55.6406" r="2.5" fill="#FF0000"/>
<line x1="279.5" y1="89.1406" x2="279.5" y2="74.1406" stroke="#FF0000"/>
<circle cx="279.5" cy="73.6406" r="2.5" fill="#FF0000"/>
<line x1="359.5" y1="89.1406" x2="359.5" y2="14.1406" stroke="#FF0000"/>
<circle cx="359.5" cy="13.6406" r="2.5" fill="#FF0000"/>
<line x1="4.37114e-08" y1="222.641" x2="439" y2="222.641" stroke="black"/>
<path d="M445 222.534L438.25 224.607L438.25 220.461L445 222.534Z" fill="black"/>
<path d="M444.883 239.141H442.846C442.49 238.626 442.11 238.074 441.704 237.486C441.299 236.898 440.877 236.326 440.439 235.771L439.879 236.297V237.896C439.879 238.061 439.909 238.197 439.968 238.307C440.027 238.411 440.123 238.489 440.255 238.539C440.364 238.585 440.469 238.619 440.569 238.642C440.67 238.664 440.786 238.68 440.918 238.689V239.141H437.609V238.689C437.714 238.68 437.824 238.671 437.938 238.662C438.051 238.648 438.147 238.63 438.225 238.607C438.352 238.566 438.448 238.496 438.512 238.396C438.576 238.291 438.607 238.156 438.607 237.992V230.158C438.607 229.99 438.571 229.832 438.498 229.687C438.43 229.536 438.339 229.422 438.225 229.345C438.129 229.272 437.979 229.224 437.773 229.201C437.573 229.178 437.411 229.162 437.288 229.153V228.716L439.783 228.559L439.879 228.661V235.791C440.234 235.436 440.617 235.055 441.027 234.649C441.442 234.239 441.791 233.875 442.073 233.556C442.11 233.515 442.148 233.462 442.189 233.398C442.235 233.33 442.258 233.275 442.258 233.234C442.258 233.111 442.158 233.02 441.957 232.961C441.761 232.902 441.572 232.861 441.39 232.838V232.4H444.356V232.824C443.974 232.938 443.634 233.082 443.338 233.255C443.046 233.424 442.823 233.576 442.668 233.713C442.559 233.804 442.404 233.952 442.203 234.157C442.003 234.362 441.722 234.631 441.362 234.964C441.736 235.424 442.155 235.976 442.62 236.618C443.09 237.261 443.431 237.726 443.646 238.013C443.846 238.282 444.026 238.457 444.186 238.539C444.345 238.621 444.577 238.671 444.883 238.689V239.141Z" fill="black"/>
<line x1="9.5" y1="223.141" x2="9.5" y2="228.141" stroke="black"/>
<line x1="89.5" y1="223.141" x2="89.5" y2="228.141" stroke="black"/>
<line x1="169.5" y1="223.141" x2="169.5" y2="228.141" stroke="black"/>
<line x1="249.5" y1="223.141" x2="249.5" y2="228.141" stroke="black"/>
<line x1="329.5" y1="223.141" x2="329.5" y2="228.141" stroke="black"/>
<line x1="409.5" y1="223.141" x2="409.5" y2="228.141" stroke="black"/>
<path d="M11.332 235.668C11.582 235.969 11.7676 236.322 11.8887 236.729C12.0137 237.131 12.0762 237.553 12.0762 237.994C12.0762 238.525 12 239.002 11.8477 239.424C11.6953 239.842 11.4863 240.189 11.2207 240.467C10.9473 240.752 10.623 240.967 10.248 241.111C9.87305 241.256 9.45508 241.328 8.99414 241.328C8.49023 241.328 8.04102 241.244 7.64648 241.076C7.25195 240.908 6.93164 240.678 6.68555 240.385C6.42773 240.08 6.23438 239.725 6.10547 239.318C5.98047 238.908 5.91797 238.467 5.91797 237.994C5.91797 237.529 5.97852 237.102 6.09961 236.711C6.22461 236.32 6.41797 235.967 6.67969 235.65C6.92969 235.346 7.25195 235.105 7.64648 234.93C8.04102 234.754 8.49219 234.666 9 234.666C9.53516 234.666 9.99414 234.756 10.377 234.936C10.7598 235.115 11.0781 235.359 11.332 235.668ZM10.7812 237.994C10.7812 237.064 10.6211 236.344 10.3008 235.832C9.98438 235.32 9.55273 235.064 9.00586 235.064C8.45117 235.064 8.01367 235.32 7.69336 235.832C7.37305 236.344 7.21289 237.064 7.21289 237.994C7.21289 238.877 7.36523 239.588 7.66992 240.127C7.97852 240.662 8.41992 240.93 8.99414 240.93C9.56836 240.93 10.0098 240.662 10.3184 240.127C10.627 239.588 10.7812 238.877 10.7812 237.994Z" fill="black"/>
<path d="M91.1621 241.141H87.2129V240.725C87.3301 240.717 87.5117 240.701 87.7578 240.678C88.0078 240.65 88.1797 240.623 88.2734 240.596C88.3945 240.557 88.4863 240.494 88.5488 240.408C88.6152 240.318 88.6484 240.186 88.6484 240.01V235.896H87.1895V235.404H87.5117C87.9336 235.404 88.3105 235.326 88.6426 235.17C88.9785 235.014 89.2188 234.846 89.3633 234.666H89.8496C89.8379 234.92 89.8262 235.217 89.8145 235.557C89.8027 235.896 89.7969 236.201 89.7969 236.471V239.945C89.7969 240.082 89.8262 240.205 89.8848 240.314C89.9473 240.42 90.0352 240.498 90.1484 240.549C90.25 240.592 90.416 240.631 90.6465 240.666C90.877 240.701 91.0488 240.721 91.1621 240.725V241.141Z" fill="black"/>
<path d="M172.283 241.141H166.793V240.344C166.898 240.223 167.045 240.088 167.232 239.939C167.42 239.787 167.643 239.623 167.9 239.447C168.057 239.342 168.244 239.227 168.463 239.102C168.682 238.977 168.93 238.84 169.207 238.691C169.516 238.527 169.752 238.383 169.916 238.258C170.084 238.133 170.236 237.979 170.373 237.795C170.463 237.674 170.535 237.523 170.59 237.344C170.645 237.16 170.672 236.9 170.672 236.564C170.672 236.076 170.541 235.719 170.279 235.492C170.018 235.262 169.682 235.146 169.271 235.146C169.018 235.146 168.777 235.197 168.551 235.299C168.324 235.396 168.154 235.533 168.041 235.709C168.068 235.834 168.102 235.982 168.141 236.154C168.184 236.326 168.205 236.494 168.205 236.658C168.205 236.807 168.143 236.939 168.018 237.057C167.896 237.17 167.715 237.227 167.473 237.227C167.277 237.227 167.127 237.16 167.021 237.027C166.916 236.891 166.863 236.709 166.863 236.482C166.863 236.271 166.922 236.061 167.039 235.85C167.156 235.635 167.324 235.438 167.543 235.258C167.758 235.082 168.023 234.939 168.34 234.83C168.656 234.721 168.998 234.666 169.365 234.666C170.166 234.666 170.801 234.846 171.27 235.205C171.742 235.561 171.979 236.037 171.979 236.635C171.979 236.92 171.936 237.18 171.85 237.414C171.768 237.648 171.633 237.855 171.445 238.035C171.238 238.234 170.996 238.406 170.719 238.551C170.441 238.691 170.018 238.889 169.447 239.143C169.107 239.295 168.791 239.455 168.498 239.623C168.205 239.787 167.965 239.947 167.777 240.104H172.283V241.141Z" fill="black"/>
<path d="M249.043 243.279C248.676 243.279 248.34 243.232 248.035 243.139C247.73 243.049 247.469 242.926 247.25 242.77C247.031 242.613 246.861 242.434 246.74 242.23C246.623 242.027 246.564 241.818 246.564 241.604C246.564 241.412 246.611 241.24 246.705 241.088C246.799 240.932 246.949 240.854 247.156 240.854C247.391 240.854 247.568 240.912 247.689 241.029C247.814 241.143 247.877 241.273 247.877 241.422C247.877 241.547 247.855 241.705 247.812 241.896C247.773 242.088 247.742 242.225 247.719 242.307C247.746 242.342 247.795 242.389 247.865 242.447C247.939 242.506 248.029 242.559 248.135 242.605C248.26 242.664 248.391 242.711 248.527 242.746C248.664 242.781 248.857 242.799 249.107 242.799C249.342 242.799 249.566 242.76 249.781 242.682C250 242.604 250.191 242.479 250.355 242.307C250.527 242.127 250.66 241.916 250.754 241.674C250.852 241.436 250.9 241.121 250.9 240.73C250.9 240.52 250.877 240.311 250.83 240.104C250.787 239.896 250.705 239.717 250.584 239.564C250.463 239.412 250.297 239.295 250.086 239.213C249.879 239.127 249.615 239.084 249.295 239.084H248.527V238.41H249.037C249.576 238.41 249.965 238.262 250.203 237.965C250.441 237.668 250.561 237.221 250.561 236.623C250.561 236.135 250.445 235.768 250.215 235.521C249.984 235.271 249.658 235.146 249.236 235.146C249.033 235.146 248.865 235.172 248.732 235.223C248.604 235.27 248.498 235.316 248.416 235.363C248.318 235.418 248.238 235.479 248.176 235.545C248.113 235.611 248.066 235.66 248.035 235.691C248.062 235.816 248.096 235.971 248.135 236.154C248.174 236.334 248.193 236.506 248.193 236.67C248.193 236.814 248.131 236.945 248.006 237.062C247.885 237.176 247.705 237.232 247.467 237.232C247.26 237.232 247.107 237.158 247.01 237.01C246.916 236.861 246.869 236.689 246.869 236.494C246.869 236.291 246.926 236.084 247.039 235.873C247.152 235.662 247.32 235.465 247.543 235.281C247.766 235.098 248.037 234.949 248.357 234.836C248.678 234.723 249.047 234.666 249.465 234.666C249.945 234.666 250.342 234.738 250.654 234.883C250.971 235.023 251.219 235.195 251.398 235.398C251.574 235.598 251.695 235.807 251.762 236.025C251.828 236.244 251.861 236.432 251.861 236.588C251.861 236.783 251.834 236.98 251.779 237.18C251.725 237.375 251.635 237.557 251.51 237.725C251.373 237.908 251.191 238.076 250.965 238.229C250.742 238.377 250.461 238.498 250.121 238.592V238.686C250.34 238.705 250.572 238.754 250.818 238.832C251.068 238.91 251.293 239.025 251.492 239.178C251.699 239.338 251.869 239.545 252.002 239.799C252.135 240.049 252.201 240.367 252.201 240.754C252.201 241.504 251.9 242.111 251.299 242.576C250.697 243.045 249.945 243.279 249.043 243.279Z" fill="black"/>
<path d="M332.459 240.613H331.27V243.279H330.145V240.613H326.395V239.711L330.502 234.701H331.27V239.846H332.459V240.613ZM330.145 239.846V236.008L326.98 239.846H330.145Z" fill="black"/>
<path d="M411.27 238.393C411.527 238.596 411.74 238.857 411.908 239.178C412.08 239.498 412.166 239.898 412.166 240.379C412.166 241.219 411.879 241.912 411.305 242.459C410.73 243.006 410.002 243.279 409.119 243.279C408.436 243.279 407.857 243.117 407.385 242.793C406.912 242.469 406.676 242.092 406.676 241.662C406.676 241.463 406.725 241.289 406.822 241.141C406.92 240.992 407.07 240.918 407.273 240.918C407.508 240.918 407.686 240.98 407.807 241.105C407.932 241.227 407.994 241.359 407.994 241.504C407.994 241.629 407.973 241.785 407.93 241.973C407.887 242.16 407.854 242.299 407.83 242.389C407.861 242.416 407.912 242.453 407.982 242.5C408.053 242.547 408.137 242.592 408.234 242.635C408.336 242.678 408.459 242.715 408.604 242.746C408.752 242.781 408.924 242.799 409.119 242.799C409.369 242.799 409.605 242.748 409.828 242.646C410.051 242.545 410.238 242.395 410.391 242.195C410.559 241.977 410.684 241.727 410.766 241.445C410.852 241.168 410.895 240.814 410.895 240.385C410.895 239.834 410.74 239.379 410.432 239.02C410.127 238.656 409.725 238.475 409.225 238.475C408.912 238.475 408.619 238.533 408.346 238.65C408.076 238.768 407.834 238.963 407.619 239.236L407.227 239.084L407.725 234.854H411.92V235.896H408.199L407.895 238.381C408.07 238.256 408.301 238.133 408.586 238.012C408.875 237.887 409.191 237.824 409.535 237.824C409.82 237.824 410.115 237.869 410.42 237.959C410.729 238.045 411.012 238.189 411.27 238.393Z" fill="black"/>
<g opacity="0.3">
<path d="M205 201.332C207.667 207.499 217.9 214.532 237.5 193.332C262 166.832 272.5 193.329 275.5 197.829C278.5 202.329 284.28 224.29 307.5 237.829C328 249.782 341 163.281 351.5 154.78C357.5 146.281 371.4 133.842 391 160.282" stroke="#FF0000" stroke-dasharray="2 2"/>
<path d="M24 206.281C28.5 199.781 48.2133 185.066 53.5 189.324C64 197.781 66.8031 204.648 69 223.822C71 241.278 78 244.822 82.5 246.322C87 247.822 100 234.322 104.5 223.822C109 213.322 130.502 168.28 137 160.278C142.5 153.506 158.399 128.741 170.5 133.822C183.5 139.281 182.5 147.823 205.5 202.824" stroke="#FF0000" stroke-dasharray="2 2"/>
</g>
<path d="M176 201.332C178.667 207.499 188.9 214.532 208.5 193.332C233 166.832 243.5 193.329 246.5 197.829C249.5 202.329 255.28 224.29 278.5 237.829C299 249.782 312 163.281 322.5 154.78C328.5 146.281 342.4 133.842 362 160.282" stroke="#0000FF" stroke-dasharray="2 2"/>
<path d="M0.5 200.641C5 194.141 19.2133 185.066 24.5 189.324C35 197.781 37.8031 204.648 40 223.822C42 241.278 49 244.822 53.5 246.322C58 247.822 71 234.322 75.5 223.822C80 213.322 101.502 168.28 108 160.278C113.5 153.506 129.399 128.741 141.5 133.822C154.5 139.281 153.5 147.823 176.5 202.824" stroke="#0000FF" stroke-dasharray="2 2"/>
<line x1="9.5" y1="222.141" x2="9.5" y2="194.141" stroke="#0000FF"/>
<circle cx="9.5" cy="193.641" r="2.5" fill="#0000FF"/>
<line x1="89.5" y1="222.141" x2="89.5" y2="194.141" stroke="#0000FF"/>
<circle cx="89.5" cy="193.641" r="2.5" fill="#0000FF"/>
<line x1="169.5" y1="222.141" x2="169.5" y2="186.141" stroke="#0000FF"/>
<circle cx="169.5" cy="185.641" r="2.5" fill="#0000FF"/>
<line x1="198.5" y1="222.141" x2="198.5" y2="186.141" stroke="#FF0000"/>
<circle cx="198.5" cy="185.641" r="2.5" fill="#FF0000"/>
<line x1="249.5" y1="222.141" x2="249.5" y2="204.141" stroke="#0000FF"/>
<circle cx="249.5" cy="203.641" r="2.5" fill="#0000FF"/>
<line x1="329.5" y1="222.141" x2="329.5" y2="148.141" stroke="#0000FF"/>
<circle cx="329.5" cy="147.641" r="2.5" fill="#0000FF"/>
<line x1="174" y1="185.641" x2="191" y2="185.641" stroke="black"/>
<path d="M194 185.534L187.25 187.607L187.25 183.461L194 185.534Z" fill="black"/>
<path d="M185.754 181.053L184.074 181.16L184.001 181.092V180.643L183.962 180.633C183.793 180.822 183.583 180.976 183.332 181.097C183.085 181.217 182.829 181.277 182.565 181.277C182.292 181.277 182.027 181.217 181.77 181.097C181.516 180.973 181.294 180.8 181.105 180.579C180.913 180.354 180.76 180.084 180.646 179.769C180.536 179.453 180.48 179.104 180.48 178.724C180.48 178.375 180.541 178.045 180.661 177.732C180.782 177.42 180.948 177.146 181.159 176.912C181.358 176.694 181.6 176.52 181.887 176.39C182.176 176.259 182.471 176.194 182.771 176.194C182.995 176.194 183.215 176.224 183.43 176.282C183.648 176.338 183.835 176.409 183.991 176.497V174.822C183.991 174.686 183.968 174.562 183.923 174.451C183.877 174.337 183.814 174.251 183.732 174.192C183.641 174.131 183.518 174.087 183.361 174.061C183.208 174.031 183.042 174.01 182.863 173.997V173.694L184.831 173.582L184.904 173.655V180.149C184.904 180.263 184.925 180.361 184.968 180.442C185.013 180.521 185.078 180.587 185.163 180.643C185.225 180.682 185.314 180.706 185.432 180.716C185.549 180.726 185.656 180.732 185.754 180.735V181.053ZM183.991 180.208V177.391C183.965 177.306 183.923 177.215 183.864 177.117C183.806 177.02 183.732 176.93 183.645 176.849C183.55 176.767 183.439 176.701 183.312 176.648C183.186 176.593 183.037 176.565 182.868 176.565C182.673 176.565 182.492 176.616 182.326 176.717C182.163 176.818 182.019 176.963 181.892 177.151C181.771 177.334 181.675 177.566 181.604 177.85C181.535 178.13 181.501 178.44 181.501 178.782C181.501 179.056 181.527 179.305 181.579 179.529C181.631 179.751 181.719 179.957 181.843 180.149C181.957 180.332 182.102 180.478 182.277 180.589C182.456 180.7 182.668 180.755 182.912 180.755C183.173 180.755 183.387 180.698 183.557 180.584C183.729 180.47 183.874 180.345 183.991 180.208Z" fill="black"/>
</g>
<defs>
<clipPath id="clip0_307_605">
<rect width="445" height="249" fill="white"/>
</clipPath>
</defs>
</svg>
