<?xml version="1.0" encoding="utf-8"?>
<!-- Generator: Adobe Illustrator 23.0.3, SVG Export Plug-In . SVG Version: 6.00 Build 0)  -->
<svg version="1.1" id="Слой_1" xmlns="http://www.w3.org/2000/svg" xmlns:xlink="http://www.w3.org/1999/xlink" x="0px" y="0px"
	 viewBox="0 0 258.19 116.48" style="enable-background:new 0 0 258.19 116.48;" xml:space="preserve">
<style type="text/css">
	.st0{fill:none;stroke:#EBEBED;stroke-miterlimit:10;}
	.st1{fill:#FFFFFF;stroke:#000000;stroke-width:2;stroke-miterlimit:10;}
	.st2{fill:none;}
	.st3{enable-background:new    ;}
	.st4{fill:none;stroke:#000000;stroke-miterlimit:10;}
</style>
<g>
	<rect x="194.55" y="39.9" class="st0" width="8.73" height="6.16"/>
	<rect x="177.09" y="39.9" class="st0" width="8.73" height="6.16"/>
	<rect x="168.36" y="39.9" class="st0" width="8.73" height="6.16"/>
	<rect x="159.63" y="39.9" class="st0" width="8.73" height="6.16"/>
	<rect x="194.55" y="46.06" class="st0" width="8.73" height="6.16"/>
	<rect x="185.82" y="39.9" class="st0" width="8.73" height="6.16"/>
	<rect x="220.74" y="46.06" class="st0" width="8.73" height="6.16"/>
	<rect x="229.47" y="46.06" class="st0" width="8.73" height="6.16"/>
	<rect x="150.91" y="39.9" class="st0" width="8.73" height="6.16"/>
	<rect x="212.01" y="46.06" class="st0" width="8.73" height="6.16"/>
	<rect x="238.2" y="46.06" class="st0" width="8.73" height="6.16"/>
	<rect x="203.28" y="46.06" class="st0" width="8.73" height="6.16"/>
	<rect x="246.92" y="46.06" class="st0" width="8.73" height="6.16"/>
	<rect x="142.18" y="33.74" class="st0" width="8.73" height="6.16"/>
	<rect x="255.65" y="39.9" class="st0" width="2.54" height="6.16"/>
	<rect x="246.92" y="39.9" class="st0" width="8.73" height="6.16"/>
	<rect x="246.92" y="83.04" class="st0" width="8.73" height="6.16"/>
	<rect x="255.65" y="83.04" class="st0" width="2.54" height="6.16"/>
	<rect x="238.2" y="83.04" class="st0" width="8.73" height="6.16"/>
	<rect x="238.2" y="39.9" class="st0" width="8.73" height="6.16"/>
	<rect x="203.28" y="39.9" class="st0" width="8.73" height="6.16"/>
	<rect x="150.91" y="89.21" class="st0" width="8.73" height="6.16"/>
	<rect x="212.01" y="39.9" class="st0" width="8.73" height="6.16"/>
	<rect x="220.74" y="39.9" class="st0" width="8.73" height="6.16"/>
	<rect x="159.63" y="89.21" class="st0" width="8.73" height="6.16"/>
	<rect x="177.09" y="89.21" class="st0" width="8.73" height="6.16"/>
	<rect x="229.47" y="83.04" class="st0" width="8.73" height="6.16"/>
	<rect x="194.55" y="89.21" class="st0" width="8.73" height="6.16"/>
	<rect x="168.36" y="89.21" class="st0" width="8.73" height="6.16"/>
	<rect x="203.28" y="33.74" class="st0" width="8.73" height="6.16"/>
	<rect x="185.82" y="89.21" class="st0" width="8.73" height="6.16"/>
	<rect x="220.74" y="83.04" class="st0" width="8.73" height="6.16"/>
	<rect x="203.28" y="89.21" class="st0" width="8.73" height="6.16"/>
	<rect x="220.74" y="89.21" class="st0" width="8.73" height="6.16"/>
	<rect x="212.01" y="89.21" class="st0" width="8.73" height="6.16"/>
	<rect x="229.47" y="39.9" class="st0" width="8.73" height="6.16"/>
	<rect x="72.34" y="33.74" class="st0" width="8.73" height="6.16"/>
	<rect x="81.07" y="33.74" class="st0" width="8.73" height="6.16"/>
	<rect x="107.26" y="33.74" class="st0" width="8.73" height="6.16"/>
	<rect x="98.53" y="33.74" class="st0" width="8.73" height="6.16"/>
	<rect x="63.62" y="33.74" class="st0" width="8.73" height="6.16"/>
	<rect x="89.8" y="33.74" class="st0" width="8.73" height="6.16"/>
	<rect x="37.43" y="39.9" class="st0" width="8.73" height="6.16"/>
	<rect x="54.89" y="33.74" class="st0" width="8.73" height="6.16"/>
	<rect x="46.16" y="39.9" class="st0" width="8.73" height="6.16"/>
	<rect x="46.16" y="33.74" class="st0" width="8.73" height="6.16"/>
	<rect x="168.36" y="33.74" class="st0" width="8.73" height="6.16"/>
	<rect x="159.63" y="33.74" class="st0" width="8.73" height="6.16"/>
	<rect x="177.09" y="33.74" class="st0" width="8.73" height="6.16"/>
	<rect x="194.55" y="33.74" class="st0" width="8.73" height="6.16"/>
	<rect x="115.99" y="33.74" class="st0" width="8.73" height="6.16"/>
	<rect x="185.82" y="33.74" class="st0" width="8.73" height="6.16"/>
	<rect x="133.45" y="33.74" class="st0" width="8.73" height="6.16"/>
	<rect x="150.91" y="33.74" class="st0" width="8.73" height="6.16"/>
	<rect x="124.72" y="33.74" class="st0" width="8.73" height="6.16"/>
	<rect x="255.65" y="46.06" class="st0" width="2.54" height="6.16"/>
	<rect x="72.34" y="89.21" class="st0" width="8.73" height="6.16"/>
	<rect x="28.7" y="46.06" class="st0" width="8.73" height="6.16"/>
	<rect x="19.97" y="46.06" class="st0" width="8.73" height="6.16"/>
	<rect x="37.43" y="46.06" class="st0" width="8.73" height="6.16"/>
	<rect y="64.55" class="st0" width="2.51" height="6.16"/>
	<rect x="11.24" y="46.06" class="st0" width="8.73" height="6.16"/>
	<rect y="52.23" class="st0" width="2.51" height="6.16"/>
	<rect y="58.39" class="st0" width="2.51" height="6.16"/>
	<rect x="54.89" y="46.06" class="st0" width="8.73" height="6.16"/>
	<rect x="2.51" y="46.06" class="st0" width="8.73" height="6.16"/>
	<rect y="46.06" class="st0" width="2.51" height="6.16"/>
	<rect x="46.16" y="46.06" class="st0" width="8.73" height="6.16"/>
	<rect x="115.99" y="39.9" class="st0" width="8.73" height="6.16"/>
	<rect x="54.89" y="39.9" class="st0" width="8.73" height="6.16"/>
	<rect x="142.18" y="89.21" class="st0" width="8.73" height="6.16"/>
	<rect x="124.72" y="39.9" class="st0" width="8.73" height="6.16"/>
	<rect x="133.45" y="39.9" class="st0" width="8.73" height="6.16"/>
	<rect x="98.53" y="39.9" class="st0" width="8.73" height="6.16"/>
	<rect x="72.34" y="39.9" class="st0" width="8.73" height="6.16"/>
	<rect x="63.62" y="39.9" class="st0" width="8.73" height="6.16"/>
	<rect x="89.8" y="39.9" class="st0" width="8.73" height="6.16"/>
	<rect x="81.07" y="39.9" class="st0" width="8.73" height="6.16"/>
	<rect x="107.26" y="39.9" class="st0" width="8.73" height="6.16"/>
	<rect x="54.89" y="89.21" class="st0" width="8.73" height="6.16"/>
	<rect x="98.53" y="89.21" class="st0" width="8.73" height="6.16"/>
	<rect x="89.8" y="89.21" class="st0" width="8.73" height="6.16"/>
	<rect x="63.62" y="89.21" class="st0" width="8.73" height="6.16"/>
	<rect x="142.18" y="39.9" class="st0" width="8.73" height="6.16"/>
	<rect x="81.07" y="89.21" class="st0" width="8.73" height="6.16"/>
	<rect x="107.26" y="89.21" class="st0" width="8.73" height="6.16"/>
	<rect x="124.72" y="89.21" class="st0" width="8.73" height="6.16"/>
	<rect x="133.45" y="89.21" class="st0" width="8.73" height="6.16"/>
	<rect x="115.99" y="89.21" class="st0" width="8.73" height="6.16"/>
	<rect y="70.71" class="st0" width="2.51" height="6.16"/>
	<rect y="83.04" class="st0" width="2.51" height="6.16"/>
	<rect x="2.51" y="83.04" class="st0" width="8.73" height="6.16"/>
	<rect y="76.88" class="st0" width="2.51" height="6.16"/>
	<rect x="11.24" y="83.04" class="st0" width="8.73" height="6.16"/>
	<rect x="28.7" y="89.21" class="st0" width="8.73" height="6.16"/>
	<rect x="19.97" y="83.04" class="st0" width="8.73" height="6.16"/>
	<rect x="46.16" y="89.21" class="st0" width="8.73" height="6.16"/>
	<rect x="37.43" y="89.21" class="st0" width="8.73" height="6.16"/>
	<rect x="28.7" y="83.04" class="st0" width="8.73" height="6.16"/>
	<rect x="159.63" y="46.06" class="st0" width="8.73" height="6.16"/>
	<rect x="194.55" y="58.39" class="st0" width="8.73" height="6.16"/>
	<rect x="238.2" y="58.39" class="st0" width="8.73" height="6.16"/>
	<rect x="203.28" y="58.39" class="st0" width="8.73" height="6.16"/>
	<rect x="220.74" y="58.39" class="st0" width="8.73" height="6.16"/>
	<rect x="229.47" y="58.39" class="st0" width="8.73" height="6.16"/>
	<rect x="255.65" y="76.88" class="st0" width="2.54" height="6.16"/>
	<rect x="159.63" y="52.23" class="st0" width="8.73" height="6.16"/>
	<rect x="168.36" y="52.23" class="st0" width="8.73" height="6.16"/>
	<rect x="177.09" y="58.39" class="st0" width="8.73" height="6.16"/>
	<rect x="177.09" y="52.23" class="st0" width="8.73" height="6.16"/>
	<rect x="185.82" y="58.39" class="st0" width="8.73" height="6.16"/>
	<rect x="203.28" y="64.55" class="st0" width="8.73" height="6.16"/>
	<rect x="220.74" y="64.55" class="st0" width="8.73" height="6.16"/>
	<rect x="46.16" y="70.71" class="st0" width="8.73" height="6.16"/>
	<rect x="212.01" y="64.55" class="st0" width="8.73" height="6.16"/>
	<rect x="194.55" y="64.55" class="st0" width="8.73" height="6.16"/>
	<rect x="194.55" y="70.71" class="st0" width="8.73" height="6.16"/>
	<rect x="246.92" y="58.39" class="st0" width="8.73" height="6.16"/>
	<rect x="229.47" y="64.55" class="st0" width="8.73" height="6.16"/>
	<rect x="255.65" y="64.55" class="st0" width="2.54" height="6.16"/>
	<rect x="255.65" y="58.39" class="st0" width="2.54" height="6.16"/>
	<rect x="246.92" y="64.55" class="st0" width="8.73" height="6.16"/>
	<rect x="238.2" y="64.55" class="st0" width="8.73" height="6.16"/>
	<rect x="115.99" y="52.23" class="st0" width="8.73" height="6.16"/>
	<rect x="54.89" y="58.39" class="st0" width="8.73" height="6.16"/>
	<rect x="28.7" y="58.39" class="st0" width="8.73" height="6.16"/>
	<rect x="46.16" y="58.39" class="st0" width="8.73" height="6.16"/>
	<rect x="37.43" y="58.39" class="st0" width="8.73" height="6.16"/>
	<rect x="11.24" y="58.39" class="st0" width="8.73" height="6.16"/>
	<rect x="19.97" y="58.39" class="st0" width="8.73" height="6.16"/>
	<rect x="28.7" y="70.71" class="st0" width="8.73" height="6.16"/>
	<rect x="142.18" y="52.23" class="st0" width="8.73" height="6.16"/>
	<rect x="11.24" y="70.71" class="st0" width="8.73" height="6.16"/>
	<rect x="19.97" y="70.71" class="st0" width="8.73" height="6.16"/>
	<rect x="11.24" y="64.55" class="st0" width="8.73" height="6.16"/>
	<rect x="37.43" y="70.71" class="st0" width="8.73" height="6.16"/>
	<rect x="107.26" y="52.23" class="st0" width="8.73" height="6.16"/>
	<rect x="98.53" y="52.23" class="st0" width="8.73" height="6.16"/>
	<rect x="185.82" y="70.71" class="st0" width="8.73" height="6.16"/>
	<rect x="63.62" y="58.39" class="st0" width="8.73" height="6.16"/>
	<rect x="133.45" y="52.23" class="st0" width="8.73" height="6.16"/>
	<rect x="124.72" y="52.23" class="st0" width="8.73" height="6.16"/>
	<rect x="72.34" y="58.39" class="st0" width="8.73" height="6.16"/>
	<rect x="72.34" y="52.23" class="st0" width="8.73" height="6.16"/>
	<rect x="89.8" y="52.23" class="st0" width="8.73" height="6.16"/>
	<rect x="81.07" y="52.23" class="st0" width="8.73" height="6.16"/>
	<rect x="150.91" y="52.23" class="st0" width="8.73" height="6.16"/>
	<rect x="168.36" y="58.39" class="st0" width="8.73" height="6.16"/>
	<rect x="168.36" y="64.55" class="st0" width="8.73" height="6.16"/>
	<rect x="133.45" y="64.55" class="st0" width="8.73" height="6.16"/>
	<rect x="150.91" y="64.55" class="st0" width="8.73" height="6.16"/>
	<rect x="142.18" y="64.55" class="st0" width="8.73" height="6.16"/>
	<rect x="159.63" y="64.55" class="st0" width="8.73" height="6.16"/>
	<rect x="133.45" y="58.39" class="st0" width="8.73" height="6.16"/>
	<rect x="159.63" y="58.39" class="st0" width="8.73" height="6.16"/>
	<rect x="124.72" y="58.39" class="st0" width="8.73" height="6.16"/>
	<rect x="142.18" y="58.39" class="st0" width="8.73" height="6.16"/>
	<rect x="150.91" y="58.39" class="st0" width="8.73" height="6.16"/>
	<rect x="46.16" y="64.55" class="st0" width="8.73" height="6.16"/>
	<rect x="115.99" y="58.39" class="st0" width="8.73" height="6.16"/>
	<rect x="37.43" y="64.55" class="st0" width="8.73" height="6.16"/>
	<rect x="28.7" y="64.55" class="st0" width="8.73" height="6.16"/>
	<rect x="124.72" y="64.55" class="st0" width="8.73" height="6.16"/>
	<rect x="185.82" y="64.55" class="st0" width="8.73" height="6.16"/>
	<rect x="19.97" y="64.55" class="st0" width="8.73" height="6.16"/>
	<rect x="115.99" y="64.55" class="st0" width="8.73" height="6.16"/>
	<rect x="107.26" y="64.55" class="st0" width="8.73" height="6.16"/>
	<rect x="98.53" y="64.55" class="st0" width="8.73" height="6.16"/>
	<rect x="89.8" y="64.55" class="st0" width="8.73" height="6.16"/>
	<rect x="177.09" y="64.55" class="st0" width="8.73" height="6.16"/>
	<rect x="124.72" y="70.71" class="st0" width="8.73" height="6.16"/>
	<rect x="107.26" y="70.71" class="st0" width="8.73" height="6.16"/>
	<rect x="115.99" y="70.71" class="st0" width="8.73" height="6.16"/>
	<rect x="107.26" y="58.39" class="st0" width="8.73" height="6.16"/>
	<rect x="81.07" y="70.71" class="st0" width="8.73" height="6.16"/>
	<rect x="89.8" y="70.71" class="st0" width="8.73" height="6.16"/>
	<rect x="177.09" y="70.71" class="st0" width="8.73" height="6.16"/>
	<rect x="159.63" y="70.71" class="st0" width="8.73" height="6.16"/>
	<rect x="168.36" y="70.71" class="st0" width="8.73" height="6.16"/>
	<rect x="133.45" y="70.71" class="st0" width="8.73" height="6.16"/>
	<rect x="142.18" y="70.71" class="st0" width="8.73" height="6.16"/>
	<rect x="150.91" y="70.71" class="st0" width="8.73" height="6.16"/>
	<rect x="98.53" y="70.71" class="st0" width="8.73" height="6.16"/>
	<rect x="81.07" y="64.55" class="st0" width="8.73" height="6.16"/>
	<rect x="72.34" y="64.55" class="st0" width="8.73" height="6.16"/>
	<rect x="81.07" y="58.39" class="st0" width="8.73" height="6.16"/>
	<rect x="89.8" y="58.39" class="st0" width="8.73" height="6.16"/>
	<rect x="98.53" y="58.39" class="st0" width="8.73" height="6.16"/>
	<rect x="63.62" y="70.71" class="st0" width="8.73" height="6.16"/>
	<rect x="63.62" y="64.55" class="st0" width="8.73" height="6.16"/>
	<rect x="54.89" y="70.71" class="st0" width="8.73" height="6.16"/>
	<rect x="72.34" y="70.71" class="st0" width="8.73" height="6.16"/>
	<rect x="54.89" y="64.55" class="st0" width="8.73" height="6.16"/>
	<rect x="212.01" y="58.39" class="st0" width="8.73" height="6.16"/>
	<rect x="2.51" y="76.88" class="st0" width="8.73" height="6.16"/>
	<rect x="63.62" y="83.04" class="st0" width="8.73" height="6.16"/>
	<rect x="89.8" y="46.06" class="st0" width="8.73" height="6.16"/>
	<rect x="2.51" y="64.55" class="st0" width="8.73" height="6.16"/>
	<rect x="2.51" y="58.39" class="st0" width="8.73" height="6.16"/>
	<rect x="19.97" y="76.88" class="st0" width="8.73" height="6.16"/>
	<rect x="46.16" y="83.04" class="st0" width="8.73" height="6.16"/>
	<rect x="54.89" y="83.04" class="st0" width="8.73" height="6.16"/>
	<rect x="28.7" y="76.88" class="st0" width="8.73" height="6.16"/>
	<rect x="37.43" y="76.88" class="st0" width="8.73" height="6.16"/>
	<rect x="37.43" y="83.04" class="st0" width="8.73" height="6.16"/>
	<rect x="11.24" y="76.88" class="st0" width="8.73" height="6.16"/>
	<rect x="63.62" y="52.23" class="st0" width="8.73" height="6.16"/>
	<rect x="63.62" y="46.06" class="st0" width="8.73" height="6.16"/>
	<rect x="54.89" y="52.23" class="st0" width="8.73" height="6.16"/>
	<rect x="72.34" y="46.06" class="st0" width="8.73" height="6.16"/>
	<rect x="81.07" y="46.06" class="st0" width="8.73" height="6.16"/>
	<rect x="28.7" y="52.23" class="st0" width="8.73" height="6.16"/>
	<rect x="11.24" y="52.23" class="st0" width="8.73" height="6.16"/>
	<rect x="19.97" y="52.23" class="st0" width="8.73" height="6.16"/>
	<rect x="2.51" y="52.23" class="st0" width="8.73" height="6.16"/>
	<rect x="37.43" y="52.23" class="st0" width="8.73" height="6.16"/>
	<rect x="46.16" y="52.23" class="st0" width="8.73" height="6.16"/>
	<rect x="2.51" y="70.71" class="st0" width="8.73" height="6.16"/>
	<rect x="203.28" y="83.04" class="st0" width="8.73" height="6.16"/>
	<rect x="212.01" y="83.04" class="st0" width="8.73" height="6.16"/>
	<rect x="194.55" y="83.04" class="st0" width="8.73" height="6.16"/>
	<rect x="168.36" y="83.04" class="st0" width="8.73" height="6.16"/>
	<rect x="72.34" y="83.04" class="st0" width="8.73" height="6.16"/>
	<rect x="185.82" y="83.04" class="st0" width="8.73" height="6.16"/>
	<rect x="246.92" y="76.88" class="st0" width="8.73" height="6.16"/>
	<rect x="212.01" y="76.88" class="st0" width="8.73" height="6.16"/>
	<rect x="238.2" y="76.88" class="st0" width="8.73" height="6.16"/>
	<rect x="229.47" y="76.88" class="st0" width="8.73" height="6.16"/>
	<rect x="220.74" y="76.88" class="st0" width="8.73" height="6.16"/>
	<rect x="177.09" y="83.04" class="st0" width="8.73" height="6.16"/>
	<rect x="107.26" y="83.04" class="st0" width="8.73" height="6.16"/>
	<rect x="115.99" y="83.04" class="st0" width="8.73" height="6.16"/>
	<rect x="98.53" y="83.04" class="st0" width="8.73" height="6.16"/>
	<rect x="81.07" y="83.04" class="st0" width="8.73" height="6.16"/>
	<rect x="89.8" y="83.04" class="st0" width="8.73" height="6.16"/>
	<rect x="159.63" y="83.04" class="st0" width="8.73" height="6.16"/>
	<rect x="142.18" y="83.04" class="st0" width="8.73" height="6.16"/>
	<rect x="150.91" y="83.04" class="st0" width="8.73" height="6.16"/>
	<rect x="124.72" y="83.04" class="st0" width="8.73" height="6.16"/>
	<rect x="133.45" y="83.04" class="st0" width="8.73" height="6.16"/>
	<rect x="115.99" y="46.06" class="st0" width="8.73" height="6.16"/>
	<rect x="168.36" y="76.88" class="st0" width="8.73" height="6.16"/>
	<rect x="185.82" y="76.88" class="st0" width="8.73" height="6.16"/>
	<rect x="177.09" y="76.88" class="st0" width="8.73" height="6.16"/>
	<rect x="159.63" y="76.88" class="st0" width="8.73" height="6.16"/>
	<rect x="150.91" y="76.88" class="st0" width="8.73" height="6.16"/>
	<rect x="142.18" y="76.88" class="st0" width="8.73" height="6.16"/>
	<rect x="220.74" y="70.71" class="st0" width="8.73" height="6.16"/>
	<rect x="194.55" y="76.88" class="st0" width="8.73" height="6.16"/>
	<rect x="212.01" y="70.71" class="st0" width="8.73" height="6.16"/>
	<rect x="203.28" y="70.71" class="st0" width="8.73" height="6.16"/>
	<rect x="203.28" y="76.88" class="st0" width="8.73" height="6.16"/>
	<rect x="124.72" y="76.88" class="st0" width="8.73" height="6.16"/>
	<rect x="81.07" y="76.88" class="st0" width="8.73" height="6.16"/>
	<rect x="72.34" y="76.88" class="st0" width="8.73" height="6.16"/>
	<rect x="54.89" y="76.88" class="st0" width="8.73" height="6.16"/>
	<rect x="63.62" y="76.88" class="st0" width="8.73" height="6.16"/>
	<rect x="89.8" y="76.88" class="st0" width="8.73" height="6.16"/>
	<rect x="107.26" y="76.88" class="st0" width="8.73" height="6.16"/>
	<rect x="98.53" y="76.88" class="st0" width="8.73" height="6.16"/>
	<rect x="229.47" y="70.71" class="st0" width="8.73" height="6.16"/>
	<rect x="115.99" y="76.88" class="st0" width="8.73" height="6.16"/>
	<rect x="133.45" y="76.88" class="st0" width="8.73" height="6.16"/>
	<rect x="177.09" y="46.06" class="st0" width="8.73" height="6.16"/>
	<rect x="28.7" y="39.9" class="st0" width="8.73" height="6.16"/>
	<rect x="150.91" y="46.06" class="st0" width="8.73" height="6.16"/>
	<rect x="168.36" y="46.06" class="st0" width="8.73" height="6.16"/>
	<rect x="238.2" y="70.71" class="st0" width="8.73" height="6.16"/>
	<rect x="98.53" y="46.06" class="st0" width="8.73" height="6.16"/>
	<rect x="133.45" y="46.06" class="st0" width="8.73" height="6.16"/>
	<rect x="46.16" y="76.88" class="st0" width="8.73" height="6.16"/>
	<rect x="107.26" y="46.06" class="st0" width="8.73" height="6.16"/>
	<rect x="185.82" y="52.23" class="st0" width="8.73" height="6.16"/>
	<rect x="142.18" y="46.06" class="st0" width="8.73" height="6.16"/>
	<rect x="124.72" y="46.06" class="st0" width="8.73" height="6.16"/>
	<rect x="185.82" y="46.06" class="st0" width="8.73" height="6.16"/>
	<rect x="238.2" y="52.23" class="st0" width="8.73" height="6.16"/>
	<rect x="194.55" y="52.23" class="st0" width="8.73" height="6.16"/>
	<rect x="255.65" y="52.23" class="st0" width="2.54" height="6.16"/>
	<rect x="246.92" y="70.71" class="st0" width="8.73" height="6.16"/>
	<rect x="255.65" y="70.71" class="st0" width="2.54" height="6.16"/>
	<rect x="246.92" y="52.23" class="st0" width="8.73" height="6.16"/>
	<rect x="229.47" y="52.23" class="st0" width="8.73" height="6.16"/>
	<rect x="212.01" y="52.23" class="st0" width="8.73" height="6.16"/>
	<rect x="203.28" y="52.23" class="st0" width="8.73" height="6.16"/>
	<rect x="220.74" y="52.23" class="st0" width="8.73" height="6.16"/>
	<rect x="203.28" y="2.92" class="st0" width="8.73" height="6.16"/>
	<rect x="168.36" y="0.29" class="st0" width="8.73" height="2.63"/>
	<rect x="159.63" y="0.29" class="st0" width="8.73" height="2.63"/>
	<rect x="28.7" y="15.25" class="st0" width="8.73" height="6.16"/>
	<rect x="115.99" y="113.86" class="st0" width="8.73" height="2.63"/>
	<rect x="142.18" y="0.29" class="st0" width="8.73" height="2.63"/>
	<rect x="185.82" y="0.29" class="st0" width="8.73" height="2.63"/>
	<rect x="220.74" y="0.29" class="st0" width="8.73" height="2.63"/>
	<rect x="212.01" y="0.29" class="st0" width="8.73" height="2.63"/>
	<rect x="203.28" y="0.29" class="st0" width="8.73" height="2.63"/>
	<rect x="194.55" y="0.29" class="st0" width="8.73" height="2.63"/>
	<rect x="133.45" y="0.29" class="st0" width="8.73" height="2.63"/>
	<rect x="19.97" y="21.41" class="st0" width="8.73" height="6.16"/>
	<rect x="2.51" y="21.41" class="st0" width="8.73" height="6.16"/>
	<rect x="11.24" y="21.41" class="st0" width="8.73" height="6.16"/>
	<rect x="124.72" y="0.29" class="st0" width="8.73" height="2.63"/>
	<rect x="19.97" y="15.25" class="st0" width="8.73" height="6.16"/>
	<rect y="21.41" class="st0" width="2.51" height="6.16"/>
	<rect x="107.26" y="0.29" class="st0" width="8.73" height="2.63"/>
	<rect x="115.99" y="0.29" class="st0" width="8.73" height="2.63"/>
	<rect x="98.53" y="0.29" class="st0" width="8.73" height="2.63"/>
	<rect x="177.09" y="0.29" class="st0" width="8.73" height="2.63"/>
	<rect x="54.89" y="113.86" class="st0" width="8.73" height="2.63"/>
	<rect x="28.7" y="113.86" class="st0" width="8.73" height="2.63"/>
	<rect x="46.16" y="113.86" class="st0" width="8.73" height="2.63"/>
	<rect x="72.34" y="113.86" class="st0" width="8.73" height="2.63"/>
	<rect x="37.43" y="113.86" class="st0" width="8.73" height="2.63"/>
	<rect x="63.62" y="113.86" class="st0" width="8.73" height="2.63"/>
	<rect x="98.53" y="113.86" class="st0" width="8.73" height="2.63"/>
	<rect x="107.26" y="113.86" class="st0" width="8.73" height="2.63"/>
	<rect x="81.07" y="113.86" class="st0" width="8.73" height="2.63"/>
	<rect x="89.8" y="113.86" class="st0" width="8.73" height="2.63"/>
	<rect y="107.69" class="st0" width="2.51" height="6.16"/>
	<rect x="255.65" y="2.92" class="st0" width="2.54" height="6.16"/>
	<rect x="246.92" y="0.29" class="st0" width="8.73" height="2.63"/>
	<rect x="255.65" y="0.29" class="st0" width="2.54" height="2.63"/>
	<rect x="19.97" y="113.86" class="st0" width="8.73" height="2.63"/>
	<rect x="238.2" y="0.29" class="st0" width="8.73" height="2.63"/>
	<rect x="229.47" y="0.29" class="st0" width="8.73" height="2.63"/>
	<rect x="11.24" y="113.86" class="st0" width="8.73" height="2.63"/>
	<rect x="2.51" y="113.86" class="st0" width="8.73" height="2.63"/>
	<rect y="113.86" class="st0" width="2.51" height="2.63"/>
	<rect x="150.91" y="0.29" class="st0" width="8.73" height="2.63"/>
	<rect x="89.8" y="0.29" class="st0" width="8.73" height="2.63"/>
	<rect x="81.07" y="0.29" class="st0" width="8.73" height="2.63"/>
	<rect x="72.34" y="0.29" class="st0" width="8.73" height="2.63"/>
	<rect x="63.62" y="0.29" class="st0" width="8.73" height="2.63"/>
	<rect x="19.97" y="39.9" class="st0" width="8.73" height="6.16"/>
	<rect x="255.65" y="21.41" class="st0" width="2.54" height="6.16"/>
	<rect x="246.92" y="21.41" class="st0" width="8.73" height="6.16"/>
	<rect x="229.47" y="15.25" class="st0" width="8.73" height="6.16"/>
	<rect x="229.47" y="21.41" class="st0" width="8.73" height="6.16"/>
	<rect x="238.2" y="21.41" class="st0" width="8.73" height="6.16"/>
	<rect y="0.29" class="st0" width="2.51" height="2.63"/>
	<rect y="2.92" class="st0" width="2.51" height="6.16"/>
	<rect x="2.51" y="0.29" class="st0" width="8.73" height="2.63"/>
	<rect x="220.74" y="15.25" class="st0" width="8.73" height="6.16"/>
	<rect x="255.65" y="101.53" class="st0" width="2.54" height="6.16"/>
	<rect x="37.43" y="0.29" class="st0" width="8.73" height="2.63"/>
	<rect x="28.7" y="0.29" class="st0" width="8.73" height="2.63"/>
	<rect x="11.24" y="0.29" class="st0" width="8.73" height="2.63"/>
	<rect x="46.16" y="0.29" class="st0" width="8.73" height="2.63"/>
	<rect x="19.97" y="0.29" class="st0" width="8.73" height="2.63"/>
	<rect x="89.8" y="15.25" class="st0" width="8.73" height="6.16"/>
	<rect x="98.53" y="15.25" class="st0" width="8.73" height="6.16"/>
	<rect x="81.07" y="15.25" class="st0" width="8.73" height="6.16"/>
	<rect x="37.43" y="15.25" class="st0" width="8.73" height="6.16"/>
	<rect x="107.26" y="15.25" class="st0" width="8.73" height="6.16"/>
	<rect x="115.99" y="15.25" class="st0" width="8.73" height="6.16"/>
	<rect x="54.89" y="15.25" class="st0" width="8.73" height="6.16"/>
	<rect x="46.16" y="15.25" class="st0" width="8.73" height="6.16"/>
	<rect x="72.34" y="15.25" class="st0" width="8.73" height="6.16"/>
	<rect x="124.72" y="15.25" class="st0" width="8.73" height="6.16"/>
	<rect x="63.62" y="15.25" class="st0" width="8.73" height="6.16"/>
	<rect x="212.01" y="15.25" class="st0" width="8.73" height="6.16"/>
	<rect x="185.82" y="15.25" class="st0" width="8.73" height="6.16"/>
	<rect x="133.45" y="15.25" class="st0" width="8.73" height="6.16"/>
	<rect x="194.55" y="15.25" class="st0" width="8.73" height="6.16"/>
	<rect x="203.28" y="15.25" class="st0" width="8.73" height="6.16"/>
	<rect x="177.09" y="15.25" class="st0" width="8.73" height="6.16"/>
	<rect x="150.91" y="15.25" class="st0" width="8.73" height="6.16"/>
	<rect x="168.36" y="15.25" class="st0" width="8.73" height="6.16"/>
	<rect x="142.18" y="15.25" class="st0" width="8.73" height="6.16"/>
	<rect x="159.63" y="15.25" class="st0" width="8.73" height="6.16"/>
	<rect x="124.72" y="113.86" class="st0" width="8.73" height="2.63"/>
	<rect x="28.7" y="2.92" class="st0" width="8.73" height="6.16"/>
	<rect x="19.97" y="2.92" class="st0" width="8.73" height="6.16"/>
	<rect x="81.07" y="2.92" class="st0" width="8.73" height="6.16"/>
	<rect x="37.43" y="2.92" class="st0" width="8.73" height="6.16"/>
	<rect x="2.51" y="2.92" class="st0" width="8.73" height="6.16"/>
	<rect x="72.34" y="2.92" class="st0" width="8.73" height="6.16"/>
	<rect x="2.51" y="9.08" class="st0" width="8.73" height="6.16"/>
	<rect x="63.62" y="2.92" class="st0" width="8.73" height="6.16"/>
	<rect x="54.89" y="2.92" class="st0" width="8.73" height="6.16"/>
	<rect x="46.16" y="2.92" class="st0" width="8.73" height="6.16"/>
	<rect x="11.24" y="2.92" class="st0" width="8.73" height="6.16"/>
	<rect y="9.08" class="st0" width="2.51" height="6.16"/>
	<rect x="37.43" y="9.08" class="st0" width="8.73" height="6.16"/>
	<rect x="46.16" y="9.08" class="st0" width="8.73" height="6.16"/>
	<rect x="19.97" y="9.08" class="st0" width="8.73" height="6.16"/>
	<rect x="28.7" y="9.08" class="st0" width="8.73" height="6.16"/>
	<rect y="15.25" class="st0" width="2.51" height="6.16"/>
	<rect x="2.51" y="15.25" class="st0" width="8.73" height="6.16"/>
	<rect x="11.24" y="15.25" class="st0" width="8.73" height="6.16"/>
	<rect x="11.24" y="9.08" class="st0" width="8.73" height="6.16"/>
	<rect x="107.26" y="2.92" class="st0" width="8.73" height="6.16"/>
	<rect x="212.01" y="2.92" class="st0" width="8.73" height="6.16"/>
	<rect x="255.65" y="9.08" class="st0" width="2.54" height="6.16"/>
	<rect x="220.74" y="2.92" class="st0" width="8.73" height="6.16"/>
	<rect x="194.55" y="2.92" class="st0" width="8.73" height="6.16"/>
	<rect x="177.09" y="2.92" class="st0" width="8.73" height="6.16"/>
	<rect x="185.82" y="2.92" class="st0" width="8.73" height="6.16"/>
	<rect x="246.92" y="9.08" class="st0" width="8.73" height="6.16"/>
	<rect x="238.2" y="2.92" class="st0" width="8.73" height="6.16"/>
	<rect x="229.47" y="2.92" class="st0" width="8.73" height="6.16"/>
	<rect x="246.92" y="2.92" class="st0" width="8.73" height="6.16"/>
	<rect x="54.89" y="9.08" class="st0" width="8.73" height="6.16"/>
	<rect x="246.92" y="101.53" class="st0" width="8.73" height="6.16"/>
	<rect x="89.8" y="2.92" class="st0" width="8.73" height="6.16"/>
	<rect x="115.99" y="2.92" class="st0" width="8.73" height="6.16"/>
	<rect x="98.53" y="2.92" class="st0" width="8.73" height="6.16"/>
	<rect x="168.36" y="2.92" class="st0" width="8.73" height="6.16"/>
	<rect x="159.63" y="2.92" class="st0" width="8.73" height="6.16"/>
	<rect x="133.45" y="2.92" class="st0" width="8.73" height="6.16"/>
	<rect x="150.91" y="2.92" class="st0" width="8.73" height="6.16"/>
	<rect x="142.18" y="2.92" class="st0" width="8.73" height="6.16"/>
	<rect x="124.72" y="2.92" class="st0" width="8.73" height="6.16"/>
	<rect x="212.01" y="113.86" class="st0" width="8.73" height="2.63"/>
	<rect x="255.65" y="113.86" class="st0" width="2.54" height="2.63"/>
	<rect x="246.92" y="113.86" class="st0" width="8.73" height="2.63"/>
	<rect x="220.74" y="113.86" class="st0" width="8.73" height="2.63"/>
	<rect x="229.47" y="113.86" class="st0" width="8.73" height="2.63"/>
	<rect x="238.2" y="113.86" class="st0" width="8.73" height="2.63"/>
	<rect x="246.92" y="15.25" class="st0" width="8.73" height="6.16"/>
	<rect x="238.2" y="9.08" class="st0" width="8.73" height="6.16"/>
	<rect x="238.2" y="15.25" class="st0" width="8.73" height="6.16"/>
	<rect x="255.65" y="15.25" class="st0" width="2.54" height="6.16"/>
	<rect x="255.65" y="107.69" class="st0" width="2.54" height="6.16"/>
	<rect x="150.91" y="113.86" class="st0" width="8.73" height="2.63"/>
	<rect x="203.28" y="113.86" class="st0" width="8.73" height="2.63"/>
	<rect x="133.45" y="113.86" class="st0" width="8.73" height="2.63"/>
	<rect x="159.63" y="113.86" class="st0" width="8.73" height="2.63"/>
	<rect x="142.18" y="113.86" class="st0" width="8.73" height="2.63"/>
	<rect x="194.55" y="113.86" class="st0" width="8.73" height="2.63"/>
	<rect x="185.82" y="113.86" class="st0" width="8.73" height="2.63"/>
	<rect x="168.36" y="113.86" class="st0" width="8.73" height="2.63"/>
	<rect x="177.09" y="113.86" class="st0" width="8.73" height="2.63"/>
	<rect x="159.63" y="9.08" class="st0" width="8.73" height="6.16"/>
	<rect x="115.99" y="9.08" class="st0" width="8.73" height="6.16"/>
	<rect x="142.18" y="9.08" class="st0" width="8.73" height="6.16"/>
	<rect x="124.72" y="9.08" class="st0" width="8.73" height="6.16"/>
	<rect x="133.45" y="9.08" class="st0" width="8.73" height="6.16"/>
	<rect x="107.26" y="9.08" class="st0" width="8.73" height="6.16"/>
	<rect x="81.07" y="9.08" class="st0" width="8.73" height="6.16"/>
	<rect x="98.53" y="9.08" class="st0" width="8.73" height="6.16"/>
	<rect x="72.34" y="9.08" class="st0" width="8.73" height="6.16"/>
	<rect x="89.8" y="9.08" class="st0" width="8.73" height="6.16"/>
	<rect x="220.74" y="9.08" class="st0" width="8.73" height="6.16"/>
	<rect x="212.01" y="9.08" class="st0" width="8.73" height="6.16"/>
	<rect x="194.55" y="9.08" class="st0" width="8.73" height="6.16"/>
	<rect x="203.28" y="9.08" class="st0" width="8.73" height="6.16"/>
	<rect x="150.91" y="9.08" class="st0" width="8.73" height="6.16"/>
	<rect x="229.47" y="9.08" class="st0" width="8.73" height="6.16"/>
	<rect x="168.36" y="9.08" class="st0" width="8.73" height="6.16"/>
	<rect x="63.62" y="9.08" class="st0" width="8.73" height="6.16"/>
	<rect x="177.09" y="9.08" class="st0" width="8.73" height="6.16"/>
	<rect x="185.82" y="9.08" class="st0" width="8.73" height="6.16"/>
	<rect x="54.89" y="0.29" class="st0" width="8.73" height="2.63"/>
	<rect x="107.26" y="27.57" class="st0" width="8.73" height="6.16"/>
	<rect x="98.53" y="27.57" class="st0" width="8.73" height="6.16"/>
	<rect x="124.72" y="27.57" class="st0" width="8.73" height="6.16"/>
	<rect x="89.8" y="27.57" class="st0" width="8.73" height="6.16"/>
	<rect x="115.99" y="27.57" class="st0" width="8.73" height="6.16"/>
	<rect x="54.89" y="27.57" class="st0" width="8.73" height="6.16"/>
	<rect x="63.62" y="27.57" class="st0" width="8.73" height="6.16"/>
	<rect x="133.45" y="27.57" class="st0" width="8.73" height="6.16"/>
	<rect x="72.34" y="27.57" class="st0" width="8.73" height="6.16"/>
	<rect x="81.07" y="27.57" class="st0" width="8.73" height="6.16"/>
	<rect x="194.55" y="27.57" class="st0" width="8.73" height="6.16"/>
	<rect x="203.28" y="27.57" class="st0" width="8.73" height="6.16"/>
	<rect x="185.82" y="27.57" class="st0" width="8.73" height="6.16"/>
	<rect x="46.16" y="27.57" class="st0" width="8.73" height="6.16"/>
	<rect x="212.01" y="27.57" class="st0" width="8.73" height="6.16"/>
	<rect x="150.91" y="27.57" class="st0" width="8.73" height="6.16"/>
	<rect x="177.09" y="27.57" class="st0" width="8.73" height="6.16"/>
	<rect x="159.63" y="27.57" class="st0" width="8.73" height="6.16"/>
	<rect x="142.18" y="27.57" class="st0" width="8.73" height="6.16"/>
	<rect x="168.36" y="27.57" class="st0" width="8.73" height="6.16"/>
	<rect x="54.89" y="101.53" class="st0" width="8.73" height="6.16"/>
	<rect x="46.16" y="101.53" class="st0" width="8.73" height="6.16"/>
	<rect x="37.43" y="101.53" class="st0" width="8.73" height="6.16"/>
	<rect x="19.97" y="101.53" class="st0" width="8.73" height="6.16"/>
	<rect x="212.01" y="33.74" class="st0" width="8.73" height="6.16"/>
	<rect x="28.7" y="101.53" class="st0" width="8.73" height="6.16"/>
	<rect x="72.34" y="101.53" class="st0" width="8.73" height="6.16"/>
	<rect x="89.8" y="101.53" class="st0" width="8.73" height="6.16"/>
	<rect x="81.07" y="101.53" class="st0" width="8.73" height="6.16"/>
	<rect x="11.24" y="101.53" class="st0" width="8.73" height="6.16"/>
	<rect x="63.62" y="101.53" class="st0" width="8.73" height="6.16"/>
	<rect x="19.97" y="33.74" class="st0" width="8.73" height="6.16"/>
	<rect x="11.24" y="95.37" class="st0" width="8.73" height="6.16"/>
	<rect x="11.24" y="33.74" class="st0" width="8.73" height="6.16"/>
	<rect x="37.43" y="27.57" class="st0" width="8.73" height="6.16"/>
	<rect x="37.43" y="33.74" class="st0" width="8.73" height="6.16"/>
	<rect x="28.7" y="33.74" class="st0" width="8.73" height="6.16"/>
	<rect y="95.37" class="st0" width="2.51" height="6.16"/>
	<rect x="2.51" y="33.74" class="st0" width="8.73" height="6.16"/>
	<rect x="2.51" y="95.37" class="st0" width="8.73" height="6.16"/>
	<rect y="33.74" class="st0" width="2.51" height="6.16"/>
	<rect x="107.26" y="95.37" class="st0" width="8.73" height="6.16"/>
	<rect x="72.34" y="95.37" class="st0" width="8.73" height="6.16"/>
	<rect x="81.07" y="95.37" class="st0" width="8.73" height="6.16"/>
	<rect x="63.62" y="95.37" class="st0" width="8.73" height="6.16"/>
	<rect x="54.89" y="95.37" class="st0" width="8.73" height="6.16"/>
	<rect x="46.16" y="95.37" class="st0" width="8.73" height="6.16"/>
	<rect x="115.99" y="95.37" class="st0" width="8.73" height="6.16"/>
	<rect x="37.43" y="95.37" class="st0" width="8.73" height="6.16"/>
	<rect x="124.72" y="95.37" class="st0" width="8.73" height="6.16"/>
	<rect x="98.53" y="101.53" class="st0" width="8.73" height="6.16"/>
	<rect x="98.53" y="95.37" class="st0" width="8.73" height="6.16"/>
	<rect x="89.8" y="95.37" class="st0" width="8.73" height="6.16"/>
	<rect x="2.51" y="39.9" class="st0" width="8.73" height="6.16"/>
	<rect y="89.21" class="st0" width="2.51" height="6.16"/>
	<rect y="39.9" class="st0" width="2.51" height="6.16"/>
	<rect x="11.24" y="39.9" class="st0" width="8.73" height="6.16"/>
	<rect x="19.97" y="89.21" class="st0" width="8.73" height="6.16"/>
	<rect x="2.51" y="89.21" class="st0" width="8.73" height="6.16"/>
	<rect x="19.97" y="95.37" class="st0" width="8.73" height="6.16"/>
	<rect x="28.7" y="95.37" class="st0" width="8.73" height="6.16"/>
	<rect x="220.74" y="33.74" class="st0" width="8.73" height="6.16"/>
	<rect x="11.24" y="89.21" class="st0" width="8.73" height="6.16"/>
	<rect x="238.2" y="89.21" class="st0" width="8.73" height="6.16"/>
	<rect x="246.92" y="89.21" class="st0" width="8.73" height="6.16"/>
	<rect x="229.47" y="95.37" class="st0" width="8.73" height="6.16"/>
	<rect x="133.45" y="95.37" class="st0" width="8.73" height="6.16"/>
	<rect x="255.65" y="89.21" class="st0" width="2.54" height="6.16"/>
	<rect x="255.65" y="33.74" class="st0" width="2.54" height="6.16"/>
	<rect x="238.2" y="33.74" class="st0" width="8.73" height="6.16"/>
	<rect x="229.47" y="33.74" class="st0" width="8.73" height="6.16"/>
	<rect x="246.92" y="33.74" class="st0" width="8.73" height="6.16"/>
	<rect x="220.74" y="95.37" class="st0" width="8.73" height="6.16"/>
	<rect x="229.47" y="89.21" class="st0" width="8.73" height="6.16"/>
	<rect x="159.63" y="95.37" class="st0" width="8.73" height="6.16"/>
	<rect x="212.01" y="95.37" class="st0" width="8.73" height="6.16"/>
	<rect x="168.36" y="95.37" class="st0" width="8.73" height="6.16"/>
	<rect x="142.18" y="95.37" class="st0" width="8.73" height="6.16"/>
	<rect x="150.91" y="95.37" class="st0" width="8.73" height="6.16"/>
	<rect x="203.28" y="95.37" class="st0" width="8.73" height="6.16"/>
	<rect x="194.55" y="95.37" class="st0" width="8.73" height="6.16"/>
	<rect x="177.09" y="95.37" class="st0" width="8.73" height="6.16"/>
	<rect x="185.82" y="95.37" class="st0" width="8.73" height="6.16"/>
	<rect x="81.07" y="21.41" class="st0" width="8.73" height="6.16"/>
	<rect x="11.24" y="107.69" class="st0" width="8.73" height="6.16"/>
	<rect y="27.57" class="st0" width="2.51" height="6.16"/>
	<rect x="19.97" y="107.69" class="st0" width="8.73" height="6.16"/>
	<rect x="63.62" y="107.69" class="st0" width="8.73" height="6.16"/>
	<rect y="101.53" class="st0" width="2.51" height="6.16"/>
	<rect x="2.51" y="107.69" class="st0" width="8.73" height="6.16"/>
	<rect x="54.89" y="107.69" class="st0" width="8.73" height="6.16"/>
	<rect x="28.7" y="107.69" class="st0" width="8.73" height="6.16"/>
	<rect x="46.16" y="107.69" class="st0" width="8.73" height="6.16"/>
	<rect x="37.43" y="107.69" class="st0" width="8.73" height="6.16"/>
	<rect x="2.51" y="101.53" class="st0" width="8.73" height="6.16"/>
	<rect x="46.16" y="21.41" class="st0" width="8.73" height="6.16"/>
	<rect x="54.89" y="21.41" class="st0" width="8.73" height="6.16"/>
	<rect x="63.62" y="21.41" class="st0" width="8.73" height="6.16"/>
	<rect x="37.43" y="21.41" class="st0" width="8.73" height="6.16"/>
	<rect x="28.7" y="21.41" class="st0" width="8.73" height="6.16"/>
	<rect x="11.24" y="27.57" class="st0" width="8.73" height="6.16"/>
	<rect x="19.97" y="27.57" class="st0" width="8.73" height="6.16"/>
	<rect x="28.7" y="27.57" class="st0" width="8.73" height="6.16"/>
	<rect x="2.51" y="27.57" class="st0" width="8.73" height="6.16"/>
	<rect x="203.28" y="107.69" class="st0" width="8.73" height="6.16"/>
	<rect x="185.82" y="107.69" class="st0" width="8.73" height="6.16"/>
	<rect x="72.34" y="107.69" class="st0" width="8.73" height="6.16"/>
	<rect x="168.36" y="107.69" class="st0" width="8.73" height="6.16"/>
	<rect x="72.34" y="21.41" class="st0" width="8.73" height="6.16"/>
	<rect x="177.09" y="107.69" class="st0" width="8.73" height="6.16"/>
	<rect x="212.01" y="107.69" class="st0" width="8.73" height="6.16"/>
	<rect x="229.47" y="107.69" class="st0" width="8.73" height="6.16"/>
	<rect x="238.2" y="107.69" class="st0" width="8.73" height="6.16"/>
	<rect x="220.74" y="107.69" class="st0" width="8.73" height="6.16"/>
	<rect x="159.63" y="107.69" class="st0" width="8.73" height="6.16"/>
	<rect x="194.55" y="107.69" class="st0" width="8.73" height="6.16"/>
	<rect x="150.91" y="107.69" class="st0" width="8.73" height="6.16"/>
	<rect x="89.8" y="107.69" class="st0" width="8.73" height="6.16"/>
	<rect x="107.26" y="107.69" class="st0" width="8.73" height="6.16"/>
	<rect x="81.07" y="107.69" class="st0" width="8.73" height="6.16"/>
	<rect x="98.53" y="107.69" class="st0" width="8.73" height="6.16"/>
	<rect x="133.45" y="107.69" class="st0" width="8.73" height="6.16"/>
	<rect x="142.18" y="107.69" class="st0" width="8.73" height="6.16"/>
	<rect x="124.72" y="107.69" class="st0" width="8.73" height="6.16"/>
	<rect x="115.99" y="107.69" class="st0" width="8.73" height="6.16"/>
	<rect x="107.26" y="21.41" class="st0" width="8.73" height="6.16"/>
	<rect x="220.74" y="101.53" class="st0" width="8.73" height="6.16"/>
	<rect x="246.92" y="27.57" class="st0" width="8.73" height="6.16"/>
	<rect x="212.01" y="101.53" class="st0" width="8.73" height="6.16"/>
	<rect x="238.2" y="101.53" class="st0" width="8.73" height="6.16"/>
	<rect x="203.28" y="101.53" class="st0" width="8.73" height="6.16"/>
	<rect x="194.55" y="101.53" class="st0" width="8.73" height="6.16"/>
	<rect x="255.65" y="95.37" class="st0" width="2.54" height="6.16"/>
	<rect x="255.65" y="27.57" class="st0" width="2.54" height="6.16"/>
	<rect x="246.92" y="95.37" class="st0" width="8.73" height="6.16"/>
	<rect x="238.2" y="95.37" class="st0" width="8.73" height="6.16"/>
	<rect x="229.47" y="101.53" class="st0" width="8.73" height="6.16"/>
	<rect x="142.18" y="101.53" class="st0" width="8.73" height="6.16"/>
	<rect x="133.45" y="101.53" class="st0" width="8.73" height="6.16"/>
	<rect x="124.72" y="101.53" class="st0" width="8.73" height="6.16"/>
	<rect x="115.99" y="101.53" class="st0" width="8.73" height="6.16"/>
	<rect x="168.36" y="101.53" class="st0" width="8.73" height="6.16"/>
	<rect x="177.09" y="101.53" class="st0" width="8.73" height="6.16"/>
	<rect x="185.82" y="101.53" class="st0" width="8.73" height="6.16"/>
	<rect x="159.63" y="101.53" class="st0" width="8.73" height="6.16"/>
	<rect x="150.91" y="101.53" class="st0" width="8.73" height="6.16"/>
	<rect x="203.28" y="21.41" class="st0" width="8.73" height="6.16"/>
	<rect x="142.18" y="21.41" class="st0" width="8.73" height="6.16"/>
	<rect x="133.45" y="21.41" class="st0" width="8.73" height="6.16"/>
	<rect x="159.63" y="21.41" class="st0" width="8.73" height="6.16"/>
	<rect x="124.72" y="21.41" class="st0" width="8.73" height="6.16"/>
	<rect x="150.91" y="21.41" class="st0" width="8.73" height="6.16"/>
	<rect x="238.2" y="27.57" class="st0" width="8.73" height="6.16"/>
	<rect x="89.8" y="21.41" class="st0" width="8.73" height="6.16"/>
	<rect x="98.53" y="21.41" class="st0" width="8.73" height="6.16"/>
	<rect x="107.26" y="101.53" class="st0" width="8.73" height="6.16"/>
	<rect x="115.99" y="21.41" class="st0" width="8.73" height="6.16"/>
	<rect x="220.74" y="27.57" class="st0" width="8.73" height="6.16"/>
	<rect x="220.74" y="21.41" class="st0" width="8.73" height="6.16"/>
	<rect x="212.01" y="21.41" class="st0" width="8.73" height="6.16"/>
	<rect x="168.36" y="21.41" class="st0" width="8.73" height="6.16"/>
	<rect x="229.47" y="27.57" class="st0" width="8.73" height="6.16"/>
	<rect x="177.09" y="21.41" class="st0" width="8.73" height="6.16"/>
	<rect x="246.92" y="107.69" class="st0" width="8.73" height="6.16"/>
	<rect x="185.82" y="21.41" class="st0" width="8.73" height="6.16"/>
	<rect x="194.55" y="21.41" class="st0" width="8.73" height="6.16"/>
</g>
<g>
	<circle class="st1" cx="192.07" cy="33.1" r="21.26"/>
	<rect x="182.41" y="13.17" class="st2" width="27.16" height="32.86"/>
	<g class="st3">
		<path d="M201.57,34.16c-0.33,0.43-1.03,0.65-2.09,0.65c-0.21,0-0.71-0.04-1.51-0.12s-1.33-0.12-1.6-0.12h-3.15
			c-0.14,0.55-0.21,1.16-0.21,1.83c0,2.17-0.03,3.37-0.09,3.6c-0.05,0.18-0.07,0.38-0.07,0.6s-0.1,0.43-0.31,0.62
			s-0.62,0.29-1.26,0.29c-0.74,0-1.23-0.12-1.48-0.37s-0.37-0.71-0.37-1.41l0.53-5.19c-1.5-0.08-2.47-0.08-2.92,0l-1.49,0.26
			c-0.5,0-0.94-0.17-1.31-0.51s-0.55-0.72-0.55-1.14c0-0.33,0.15-0.68,0.44-1.05s0.64-0.55,1.04-0.55c0.35,0,1,0.06,1.93,0.19
			l2.55-0.12h0.58c0.05-0.26,0.07-0.53,0.07-0.81c0-0.49-0.05-1.44-0.16-2.85c-0.05-0.52-0.07-0.9-0.07-1.16
			c0-1.93,0.64-2.9,1.92-2.9c0.46,0,0.84,0.24,1.14,0.73s0.46,0.89,0.46,1.2c0,0.52-0.05,1.31-0.14,2.39
			c-0.11,1.08-0.16,1.73-0.16,1.95v0.9c0,0.11,0.01,0.25,0.04,0.42l0.58,0.02l4.64-0.07c1.18,0,2.01,0.15,2.47,0.44
			s0.69,0.95,0.69,1.97L201.57,34.16z"/>
	</g>
</g>
<rect x="15.8" y="9.56" class="st2" width="31.94" height="20.05"/>
<g class="st3">
	<path d="M19.03,18.77c-0.81,0.76-1.39,1.55-1.73,2.37c-0.15,0.34-0.3,0.6-0.46,0.78c-0.4-0.02-0.69-0.1-0.88-0.24
		c-0.19-0.14-0.28-0.37-0.28-0.69c0-0.28,0.12-0.63,0.37-1.05c0.24-0.42,0.85-1.07,1.81-1.96c0.15-0.14,0.27-0.25,0.37-0.36
		c-0.87-1.28-1.31-2.27-1.31-2.99c0-0.75,0.33-1.13,0.99-1.13c0.46,0,0.71,0.34,0.74,1.01c0.03,0.69,0.28,1.41,0.77,2.15
		c0.24-0.21,0.49-0.47,0.76-0.76c0.08-0.08,0.15-0.16,0.22-0.23c0.57-0.61,0.99-1.14,1.24-1.61c0.16-0.3,0.3-0.49,0.41-0.57
		s0.27-0.13,0.48-0.13c0.23,0,0.43,0.08,0.6,0.25s0.25,0.36,0.25,0.6c0,0.5-1.06,1.7-3.18,3.62c0.72,0.88,1.49,1.55,2.3,2
		c0.1,0.06,0.2,0.13,0.29,0.21c0.04,0.09,0.05,0.18,0.05,0.28c0,0.23-0.09,0.44-0.28,0.61c-0.19,0.18-0.41,0.26-0.68,0.26
		C21.2,21.21,20.25,20.4,19.03,18.77z"/>
	<path d="M25.1,18.35c0,0.15,0.02,0.31,0.07,0.47c0.04,0.16,0.07,0.36,0.1,0.57v-0.01l0.15,0.82c0.14,0.64,0.32,1.17,0.55,1.6
		c0.23,0.43,0.53,0.79,0.9,1.1c0.53,0.45,0.79,0.81,0.79,1.09c0,0.18-0.09,0.32-0.26,0.42s-0.39,0.16-0.65,0.16
		c-0.17,0-0.4-0.09-0.67-0.27c-0.27-0.18-0.61-0.53-1.01-1.05c-0.4-0.52-0.67-0.96-0.81-1.32s-0.28-0.94-0.43-1.76
		s-0.22-1.51-0.22-2.06c0-0.67,0.03-1.16,0.08-1.48s0.17-0.72,0.36-1.21c0.18-0.49,0.46-1.1,0.84-1.83c0.38-0.73,0.6-1.14,0.68-1.23
		c0.08-0.09,0.36-0.36,0.85-0.81L27,11.03c0.26-0.24,0.48-0.41,0.66-0.5s0.42-0.14,0.71-0.14c0.36,0,0.55,0.18,0.55,0.54
		c0,0.16-0.15,0.38-0.46,0.66c-0.54,0.51-1.02,1-1.44,1.48s-0.86,1.18-1.31,2.11s-0.68,1.78-0.68,2.54
		C25.03,17.85,25.06,18.06,25.1,18.35z"/>
	<path d="M35.43,20.12c-0.22-0.41-0.38-1.18-0.48-2.3c-0.1-1.17-0.32-1.75-0.67-1.75c-0.33,0-0.9,0.61-1.7,1.82
		c-0.81,1.21-1.3,2.11-1.49,2.69c-0.04,0.17-0.12,0.32-0.23,0.43s-0.22,0.17-0.33,0.17c-0.69,0-1.04-0.32-1.04-0.95
		c0-0.21,0.07-0.7,0.21-1.46c0.18-0.98,0.27-2.19,0.27-3.61c0-0.21,0.09-0.44,0.28-0.69c0.19-0.24,0.39-0.37,0.59-0.37
		c0.26,0,0.47,0.07,0.61,0.2s0.21,0.48,0.21,1.05c0,0.43-0.13,1.27-0.39,2.52c0.99-2.32,2.09-3.47,3.31-3.47
		c1.06,0,1.68,0.83,1.86,2.5c0.18,1.7,0.39,2.54,0.63,2.54c0.1,0,0.23-0.02,0.36-0.07c0.16-0.05,0.29-0.08,0.39-0.08
		c0.22,0,0.33,0.13,0.33,0.38c0,0.23-0.15,0.48-0.45,0.74c-0.3,0.26-0.68,0.39-1.13,0.39C36.02,20.81,35.65,20.58,35.43,20.12
		L35.43,20.12z"/>
	<path d="M39.56,24.59c-0.23,0-0.43-0.07-0.6-0.21s-0.25-0.28-0.25-0.43c0-0.21,0.28-0.66,0.84-1.36c0.37-0.44,0.73-1.12,1.09-2.04
		s0.54-1.49,0.54-1.71c0-0.77-0.06-1.5-0.18-2.19s-0.35-1.43-0.68-2.22c-0.33-0.79-0.61-1.37-0.84-1.74
		c-0.23-0.37-0.63-0.83-1.23-1.37c-0.11-0.1-0.16-0.24-0.16-0.41c0-0.12,0.09-0.25,0.27-0.4c0.18-0.15,0.37-0.22,0.57-0.22
		c0.43,0,0.98,0.48,1.63,1.45c0.66,0.97,1.05,1.69,1.19,2.16c0.05,0.16,0.1,0.33,0.16,0.51c0.28,0.84,0.48,1.52,0.58,2.03
		c0.1,0.51,0.15,1.15,0.15,1.9c0,0.86-0.15,1.66-0.44,2.42c-0.29,0.76-0.63,1.39-0.99,1.88c-0.39,0.52-0.62,0.85-0.7,0.98
		c-0.19,0.38-0.35,0.64-0.48,0.77S39.74,24.59,39.56,24.59z"/>
</g>
<g>
	<g>
		<line class="st4" x1="92.14" y1="33.1" x2="161.82" y2="33.1"/>
		<g>
			<polygon points="159.84,36.01 170.68,33.1 159.84,30.2 			"/>
		</g>
	</g>
</g>
<g>
	<g>
		<line class="st4" x1="213.33" y1="33.1" x2="237.35" y2="33.1"/>
		<g>
			<polygon points="235.37,36.01 246.21,33.1 235.37,30.2 			"/>
		</g>
	</g>
</g>
<rect x="219.69" y="7.23" class="st2" width="31.94" height="20.05"/>
<g class="st3">
	<path d="M227.06,14.76c-0.07,1.11-0.2,2.18-0.39,3.22c-0.18,1.04-0.46,1.99-0.81,2.83c-0.36,0.85-0.74,1.42-1.16,1.73
		c-0.41,0.31-0.9,0.46-1.47,0.46c-0.61,0-1.2-0.12-1.76-0.35h0.01c-0.48-0.2-0.9-0.47-1.26-0.81c-0.36-0.34-0.54-0.62-0.54-0.85
		c0-0.21,0.05-0.38,0.16-0.51c0.11-0.13,0.25-0.19,0.42-0.19c0.15,0,0.28,0.06,0.38,0.19c0.58,0.75,1.43,1.13,2.54,1.13
		c0.45,0,0.89-0.47,1.31-1.42c0.42-0.94,0.68-2.08,0.79-3.4c-1.41,1.11-2.49,1.67-3.25,1.67c-0.49,0-0.88-0.2-1.17-0.59
		s-0.43-0.86-0.43-1.42s0.13-1.35,0.39-2.4c0.26-1.05,0.48-1.7,0.66-1.96c0.18-0.25,0.47-0.38,0.88-0.38c0.22,0,0.39,0.09,0.51,0.28
		c0.12,0.19,0.18,0.4,0.18,0.63c0,0.07-0.16,0.45-0.49,1.16c-0.4,0.86-0.6,1.59-0.6,2.21c0,0.32,0.04,0.56,0.13,0.73
		c0.09,0.17,0.18,0.25,0.28,0.25c0.22,0,0.48-0.07,0.8-0.2c0.31-0.13,0.68-0.36,1.1-0.69c0.42-0.33,0.69-0.57,0.82-0.74
		s0.22-0.39,0.29-0.65c0.07-0.27,0.13-0.85,0.17-1.76c0.02-0.53,0.05-0.86,0.08-1c0.03-0.14,0.11-0.26,0.24-0.38
		c0.13-0.11,0.31-0.17,0.53-0.17c0.3,0,0.51,0.06,0.64,0.19c0.13,0.13,0.19,0.43,0.19,0.9L227.06,14.76z"/>
	<path d="M229.72,16.03c0,0.15,0.02,0.31,0.07,0.47c0.04,0.16,0.07,0.36,0.1,0.57v-0.01l0.15,0.82c0.14,0.64,0.32,1.17,0.55,1.6
		c0.23,0.43,0.53,0.79,0.9,1.1c0.53,0.45,0.79,0.81,0.79,1.09c0,0.18-0.09,0.32-0.26,0.42c-0.17,0.1-0.39,0.16-0.65,0.16
		c-0.17,0-0.4-0.09-0.67-0.27c-0.27-0.18-0.61-0.53-1.01-1.05c-0.4-0.52-0.67-0.96-0.81-1.32c-0.14-0.36-0.28-0.94-0.43-1.76
		c-0.15-0.82-0.22-1.51-0.22-2.06c0-0.67,0.03-1.16,0.08-1.48s0.17-0.72,0.36-1.21c0.18-0.49,0.46-1.1,0.84-1.83
		c0.38-0.73,0.6-1.14,0.68-1.23c0.08-0.09,0.36-0.36,0.85-0.81l0.58-0.55c0.25-0.24,0.48-0.41,0.66-0.5
		c0.19-0.09,0.42-0.14,0.71-0.14c0.36,0,0.55,0.18,0.55,0.54c0,0.16-0.15,0.38-0.46,0.66c-0.54,0.51-1.02,1-1.44,1.48
		c-0.42,0.47-0.86,1.18-1.31,2.11c-0.45,0.93-0.68,1.78-0.68,2.54C229.66,15.52,229.68,15.73,229.72,16.03z"/>
	<path d="M240.05,17.79c-0.22-0.41-0.38-1.18-0.48-2.3c-0.1-1.17-0.32-1.75-0.67-1.75c-0.33,0-0.9,0.61-1.7,1.82
		c-0.81,1.21-1.3,2.11-1.49,2.69c-0.04,0.17-0.12,0.32-0.23,0.43c-0.11,0.11-0.22,0.17-0.33,0.17c-0.69,0-1.04-0.32-1.04-0.95
		c0-0.21,0.07-0.7,0.21-1.46c0.18-0.98,0.27-2.19,0.27-3.61c0-0.21,0.09-0.44,0.28-0.69c0.19-0.24,0.38-0.37,0.59-0.37
		c0.26,0,0.47,0.07,0.61,0.2c0.14,0.13,0.21,0.48,0.21,1.05c0,0.43-0.13,1.27-0.39,2.52c0.99-2.32,2.09-3.47,3.31-3.47
		c1.06,0,1.68,0.83,1.86,2.5c0.18,1.7,0.39,2.54,0.63,2.54c0.1,0,0.23-0.02,0.36-0.07c0.16-0.05,0.29-0.08,0.39-0.08
		c0.22,0,0.33,0.13,0.33,0.38c0,0.23-0.15,0.48-0.45,0.74c-0.3,0.26-0.68,0.39-1.13,0.39C240.65,18.48,240.27,18.25,240.05,17.79
		L240.05,17.79z"/>
	<path d="M244.18,22.26c-0.23,0-0.43-0.07-0.6-0.21c-0.17-0.14-0.25-0.28-0.25-0.43c0-0.21,0.28-0.66,0.84-1.36
		c0.37-0.44,0.73-1.12,1.09-2.04c0.36-0.92,0.54-1.49,0.54-1.71c0-0.77-0.06-1.5-0.18-2.19c-0.12-0.69-0.35-1.43-0.68-2.22
		c-0.33-0.79-0.61-1.37-0.84-1.74c-0.23-0.37-0.63-0.83-1.23-1.37c-0.11-0.1-0.16-0.24-0.16-0.41c0-0.12,0.09-0.25,0.27-0.4
		c0.18-0.15,0.37-0.22,0.57-0.22c0.43,0,0.98,0.48,1.63,1.45c0.66,0.97,1.05,1.69,1.19,2.16c0.04,0.16,0.1,0.33,0.16,0.51
		c0.28,0.84,0.47,1.52,0.58,2.03c0.1,0.51,0.15,1.15,0.15,1.9c0,0.86-0.15,1.66-0.44,2.42c-0.29,0.76-0.63,1.39-0.99,1.88
		c-0.39,0.52-0.63,0.85-0.7,0.98c-0.19,0.38-0.35,0.64-0.48,0.77C244.52,22.2,244.36,22.26,244.18,22.26z"/>
</g>
<g>
	<path d="M128.56,33.1c0-0.79,0.28-1.46,0.84-2.01c0.56-0.55,1.23-0.83,2-0.83c0.79,0,1.46,0.28,2.02,0.83s0.84,1.22,0.84,2.01
		s-0.28,1.46-0.84,2.02s-1.23,0.84-2.02,0.84c-0.78,0-1.45-0.28-2-0.84C128.84,34.55,128.56,33.88,128.56,33.1z"/>
</g>
<rect x="198.1" y="47.91" class="st2" width="20.03" height="20.35"/>
<g class="st3">
	<path d="M204.17,59.73c1.8,0,3.1-0.05,3.88-0.15c0.33-0.05,0.68-0.07,1.04-0.07c0.18,0,0.54,0.1,1.09,0.29s0.88,0.4,0.98,0.62
		s0.16,0.41,0.16,0.59c0,0.73-0.45,1.09-1.36,1.09c-0.1,0-0.49-0.08-1.16-0.25c-0.13-0.03-0.23-0.05-0.28-0.05l-1.07,0.07
		c-0.16,0-0.76-0.04-1.79-0.12c-0.32-0.02-1.29,0.01-2.92,0.09c-0.92,0.05-1.54,0-1.86-0.15s-0.47-0.42-0.47-0.82
		c0-0.42,0.28-0.74,0.85-0.96s1.25-0.32,2.04-0.32C203.5,59.6,203.78,59.65,204.17,59.73z"/>
</g>
<g>
	<circle class="st1" cx="71.36" cy="34.43" r="21.26"/>
	<rect x="61.7" y="14.5" class="st2" width="27.16" height="32.86"/>
	<g class="st3">
		<path d="M80.86,35.49c-0.33,0.43-1.03,0.65-2.09,0.65c-0.21,0-0.71-0.04-1.51-0.12s-1.33-0.12-1.6-0.12h-3.15
			c-0.14,0.55-0.21,1.16-0.21,1.83c0,2.17-0.03,3.37-0.09,3.6c-0.05,0.18-0.07,0.38-0.07,0.6s-0.1,0.43-0.31,0.62
			s-0.62,0.29-1.26,0.29c-0.74,0-1.23-0.12-1.48-0.37s-0.37-0.71-0.37-1.41l0.53-5.19c-1.5-0.08-2.47-0.08-2.92,0l-1.49,0.26
			c-0.5,0-0.94-0.17-1.31-0.51s-0.55-0.72-0.55-1.14c0-0.33,0.15-0.68,0.44-1.05s0.64-0.55,1.04-0.55c0.35,0,1,0.06,1.93,0.19
			l2.55-0.12h0.58c0.05-0.26,0.07-0.53,0.07-0.81c0-0.49-0.05-1.44-0.16-2.85c-0.05-0.52-0.07-0.9-0.07-1.16
			c0-1.93,0.64-2.9,1.92-2.9c0.46,0,0.84,0.24,1.14,0.73s0.46,0.89,0.46,1.2c0,0.52-0.05,1.31-0.14,2.39
			c-0.11,1.08-0.16,1.73-0.16,1.95v0.9c0,0.11,0.01,0.25,0.04,0.42l0.58,0.02l4.64-0.07c1.18,0,2.01,0.15,2.47,0.44
			s0.69,0.95,0.69,1.97L80.86,35.49z"/>
	</g>
</g>
<g>
	<g>
		<line class="st4" x1="27.18" y1="33.1" x2="41.24" y2="33.1"/>
		<g>
			<polygon points="39.26,36.01 50.1,33.1 39.26,30.2 			"/>
		</g>
	</g>
</g>
<g>
	<g>
		<path class="st4" d="M71.15,64.79c0,10.65,0,27.09,0,27.09h12.17"/>
		<g>
			<polygon points="68.24,66.77 71.14,55.92 74.05,66.77 			"/>
		</g>
	</g>
</g>
<g>
	<path d="M128.59,90.87c0-0.79,0.28-1.46,0.84-2.01s1.23-0.83,2-0.83c0.79,0,1.46,0.28,2.02,0.83s0.84,1.22,0.84,2.01
		s-0.28,1.46-0.84,2.02s-1.23,0.84-2.02,0.84c-0.78,0-1.45-0.28-2-0.84C128.87,92.33,128.59,91.66,128.59,90.87z"/>
</g>
<g>
	<g>
		<rect x="84.14" y="74.16" class="st1" width="35.43" height="35.43"/>
	</g>
	<g>
		<rect x="91.13" y="84.46" class="st2" width="24.76" height="19.72"/>
		<g class="st3">
			<path d="M101.33,87.32c-0.01,0.03-0.05,0.07-0.11,0.11c-0.14,0.09-0.27,0.19-0.41,0.3s-0.47,0.48-1,1.12
				c-0.68,0.81-1.3,1.51-1.86,2.09s-1.51,1.53-2.86,2.83l-0.71,0.69c0.43-0.04,0.98-0.09,1.65-0.16c0.96-0.1,1.49-0.16,1.6-0.16
				c0.33,0,0.6-0.01,0.81-0.03c0.21-0.01,0.4-0.02,0.57-0.02c1.32,0,1.98,0.32,1.98,0.96c0,0.26-0.07,0.46-0.2,0.61
				c-0.13,0.15-0.32,0.22-0.54,0.22c-0.18,0-0.4-0.03-0.64-0.1c-0.39-0.1-0.89-0.16-1.49-0.16c-0.23,0-0.9,0.04-2,0.11h0.01
				c-1.13,0.06-1.87,0.12-2.22,0.16s-0.76,0.12-1.22,0.25c-0.36,0.1-0.58,0.15-0.68,0.15c-0.46,0-0.68-0.23-0.68-0.68
				c0-0.36,0.12-0.64,0.37-0.82c0.61-0.45,1.39-1.14,2.37-2.05c0.97-0.92,1.88-1.83,2.74-2.72c0.14-0.15,0.3-0.31,0.49-0.5
				c0.76-0.76,1.31-1.35,1.65-1.78c-0.07,0-0.9,0.09-2.48,0.27c-1,0.12-1.75,0.18-2.26,0.18c-0.31,0-0.63-0.04-0.96-0.12
				c-0.48-0.21-0.72-0.48-0.72-0.81c0-0.15,0.09-0.32,0.28-0.52s0.34-0.29,0.46-0.29c0.09,0,0.2,0.03,0.34,0.08
				c0.14,0.05,0.25,0.08,0.32,0.08l1.26,0.01c0.35,0,0.73-0.01,1.14-0.05c0.31-0.03,0.79-0.06,1.46-0.09
				c0.75-0.04,1.27-0.08,1.54-0.13c0.84-0.14,1.37-0.21,1.59-0.21c0.38,0,0.57,0.2,0.57,0.61
				C101.48,86.98,101.43,87.17,101.33,87.32z"/>
		</g>
		<g class="st3">
			<path d="M104.16,88.64c0.61,0,1.05-0.02,1.32-0.05c0.11-0.02,0.23-0.02,0.35-0.02c0.06,0,0.18,0.03,0.37,0.1s0.3,0.14,0.33,0.21
				c0.04,0.07,0.06,0.14,0.06,0.2c0,0.25-0.15,0.37-0.46,0.37c-0.03,0-0.17-0.03-0.39-0.08c-0.05-0.01-0.08-0.02-0.1-0.02
				l-0.36,0.02c-0.06,0-0.26-0.01-0.61-0.04c-0.11-0.01-0.44,0-0.99,0.03c-0.31,0.02-0.52,0-0.63-0.05
				c-0.11-0.05-0.16-0.14-0.16-0.28c0-0.14,0.1-0.25,0.29-0.33c0.19-0.07,0.42-0.11,0.7-0.11
				C103.93,88.59,104.03,88.61,104.16,88.64z"/>
			<path d="M110.91,90.83l0.01,0.16c0.02,0.21-0.21,0.31-0.67,0.31c-0.09,0-0.18-0.06-0.26-0.19c-0.02-0.02-0.03-0.04-0.04-0.04
				c-0.05,0-0.26,0.06-0.63,0.18c-0.08,0.03-0.13,0.04-0.17,0.05c-0.31,0.1-0.54,0.15-0.69,0.15c-0.16,0-0.29-0.05-0.39-0.14
				c-0.1-0.09-0.15-0.19-0.15-0.28c0-0.13,0.08-0.24,0.23-0.32s0.44-0.16,0.84-0.23c0.43-0.08,0.71-0.15,0.84-0.21
				c0.01-0.14,0.02-0.28,0.03-0.42c0.03-0.46,0.16-1.39,0.41-2.79c-0.02,0-0.25,0.13-0.67,0.38c-0.39,0.23-0.75,0.34-1.08,0.34
				c-0.22,0-0.33-0.09-0.33-0.28c0-0.12,0.04-0.21,0.11-0.27c0.07-0.06,0.21-0.13,0.41-0.22c0.24-0.1,0.54-0.25,0.91-0.46l0.59-0.34
				c0.36-0.23,0.6-0.35,0.7-0.35c0.15,0,0.26,0.07,0.33,0.21c0.08,0.14,0.12,0.26,0.12,0.37c0,0.08-0.04,0.17-0.12,0.26
				c-0.19,0.82-0.32,1.47-0.38,1.96c-0.06,0.49-0.09,0.97-0.09,1.44c0.15-0.02,0.49-0.1,1.03-0.24c0.32-0.08,0.66-0.12,1-0.12
				c0.09,0.19,0.14,0.31,0.14,0.38c0,0.09-0.02,0.17-0.06,0.22s-0.15,0.11-0.31,0.16c-0.16,0.05-0.44,0.11-0.83,0.16
				C111.34,90.71,111.06,90.77,110.91,90.83z"/>
		</g>
	</g>
</g>
<g>
	<g>
		<rect x="144.14" y="74.16" class="st1" width="35.43" height="35.43"/>
	</g>
	<g>
		<rect x="151.13" y="84.46" class="st2" width="24.76" height="19.72"/>
		<g class="st3">
			<path d="M161.33,87.32c-0.01,0.03-0.04,0.07-0.11,0.11c-0.14,0.09-0.27,0.19-0.41,0.3c-0.13,0.11-0.47,0.48-1,1.12
				c-0.68,0.81-1.3,1.51-1.86,2.09s-1.51,1.53-2.86,2.83l-0.71,0.69c0.43-0.04,0.98-0.09,1.65-0.16c0.96-0.1,1.5-0.16,1.6-0.16
				c0.33,0,0.6-0.01,0.81-0.03c0.21-0.01,0.4-0.02,0.57-0.02c1.32,0,1.98,0.32,1.98,0.96c0,0.26-0.07,0.46-0.2,0.61
				c-0.13,0.15-0.32,0.22-0.54,0.22c-0.18,0-0.4-0.03-0.64-0.1c-0.39-0.1-0.89-0.16-1.49-0.16c-0.23,0-0.9,0.04-2,0.11h0.01
				c-1.13,0.06-1.87,0.12-2.22,0.16s-0.76,0.12-1.22,0.25c-0.36,0.1-0.58,0.15-0.68,0.15c-0.46,0-0.68-0.23-0.68-0.68
				c0-0.36,0.12-0.64,0.37-0.82c0.61-0.45,1.39-1.14,2.37-2.05c0.97-0.92,1.88-1.83,2.74-2.72c0.14-0.15,0.3-0.31,0.49-0.5
				c0.76-0.76,1.31-1.35,1.65-1.78c-0.07,0-0.9,0.09-2.48,0.27c-1,0.12-1.75,0.18-2.26,0.18c-0.31,0-0.63-0.04-0.96-0.12
				c-0.48-0.21-0.72-0.48-0.72-0.81c0-0.15,0.09-0.32,0.28-0.52c0.19-0.2,0.34-0.29,0.46-0.29c0.09,0,0.2,0.03,0.34,0.08
				c0.14,0.05,0.25,0.08,0.32,0.08l1.26,0.01c0.35,0,0.73-0.01,1.14-0.05c0.31-0.03,0.79-0.06,1.46-0.09
				c0.75-0.04,1.27-0.08,1.54-0.13c0.84-0.14,1.37-0.21,1.59-0.21c0.38,0,0.57,0.2,0.57,0.61
				C161.48,86.98,161.43,87.17,161.33,87.32z"/>
		</g>
		<g class="st3">
			<path d="M164.16,88.64c0.61,0,1.05-0.02,1.32-0.05c0.11-0.02,0.23-0.02,0.35-0.02c0.06,0,0.18,0.03,0.37,0.1
				c0.19,0.07,0.3,0.14,0.33,0.21c0.04,0.07,0.06,0.14,0.06,0.2c0,0.25-0.15,0.37-0.46,0.37c-0.04,0-0.17-0.03-0.39-0.08
				c-0.04-0.01-0.08-0.02-0.1-0.02l-0.36,0.02c-0.05,0-0.26-0.01-0.61-0.04c-0.11-0.01-0.44,0-0.99,0.03
				c-0.31,0.02-0.52,0-0.63-0.05c-0.11-0.05-0.16-0.14-0.16-0.28c0-0.14,0.1-0.25,0.29-0.33c0.19-0.07,0.42-0.11,0.7-0.11
				C163.93,88.59,164.03,88.61,164.16,88.64z"/>
			<path d="M173.49,86.97l-1.33,1.79c-0.61,0.86-1.09,1.29-1.42,1.29c-0.15,0-0.29-0.09-0.41-0.26c-0.12-0.18-0.24-0.45-0.37-0.81
				s-0.21-0.63-0.26-0.82c-0.11-0.43-0.19-0.67-0.23-0.73l-0.2,1.04c-0.06,0.33-0.13,0.64-0.2,0.92s-0.14,0.62-0.22,1.01
				c-0.08,0.39-0.13,0.69-0.15,0.89c0,0.07-0.07,0.14-0.19,0.21c-0.12,0.08-0.21,0.12-0.28,0.12c-0.13,0-0.25-0.06-0.36-0.18
				c-0.11-0.12-0.17-0.23-0.17-0.34c0-0.26,0.05-0.58,0.16-0.97c0.44-1.61,0.69-2.62,0.75-3.04c0.06-0.42,0.09-0.76,0.09-1.04
				c0-0.14,0.06-0.25,0.19-0.33c0.13-0.08,0.29-0.12,0.49-0.12c0.11,0,0.22,0.07,0.33,0.21c0.11,0.14,0.18,0.28,0.22,0.4l0-0.01
				l0.55,1.55c0.22,0.62,0.37,1.01,0.44,1.18c0.29-0.31,0.71-0.85,1.28-1.62c0.56-0.77,0.95-1.26,1.16-1.48
				c0.21-0.22,0.35-0.33,0.44-0.33c0.13,0,0.28,0.05,0.43,0.16c0.16,0.11,0.24,0.2,0.24,0.28c0,0.06-0.05,0.46-0.16,1.2
				c-0.07,0.52-0.14,1.11-0.2,1.76c-0.06,0.65-0.09,1.03-0.09,1.15c0,0.14,0.02,0.29,0.06,0.44c0.03,0.12,0.04,0.23,0.04,0.33
				c0,0.26-0.05,0.44-0.14,0.54s-0.23,0.14-0.42,0.14c-0.35,0-0.52-0.26-0.52-0.79c0-0.49,0.04-1.1,0.14-1.81
				c0.09-0.71,0.17-1.26,0.25-1.64C173.46,87.12,173.48,87.02,173.49,86.97z"/>
		</g>
	</g>
</g>
<line class="st4" x1="131.44" y1="90.88" x2="131.44" y2="32.82"/>
<line class="st4" x1="118.74" y1="90.88" x2="144.14" y2="90.88"/>
<g>
	<g>
		<path class="st4" d="M192.15,63.79c0,10.65,0,27.09,0,27.09h-12.17"/>
		<g>
			<polygon points="189.24,65.77 192.14,54.92 195.05,65.77 			"/>
		</g>
	</g>
</g>
</svg>
