<?xml version="1.0" encoding="utf-8"?>
<!-- Generator: Adobe Illustrator 23.0.3, SVG Export Plug-In . SVG Version: 6.00 Build 0)  -->
<svg version="1.1" id="Слой_1" xmlns="http://www.w3.org/2000/svg" xmlns:xlink="http://www.w3.org/1999/xlink" x="0px" y="0px"
	 viewBox="0 0 352.56 186.19" style="enable-background:new 0 0 352.56 186.19;" xml:space="preserve">
<style type="text/css">
	.st0{fill:none;stroke:#EBEBED;stroke-miterlimit:10;}
	.st1{fill:none;}
	.st2{enable-background:new    ;}
	.st3{fill:#FFFFFF;stroke:#000000;stroke-width:2;stroke-miterlimit:10;}
	.st4{fill:none;stroke:#000000;stroke-width:2;stroke-miterlimit:10;}
	.st5{fill:none;stroke:#000000;stroke-miterlimit:10;}
</style>
<g>
	<rect x="265.66" y="63.47" class="st0" width="11.92" height="9.88"/>
	<rect x="241.82" y="63.47" class="st0" width="11.92" height="9.88"/>
	<rect x="229.9" y="63.47" class="st0" width="11.92" height="9.88"/>
	<rect x="217.98" y="63.47" class="st0" width="11.92" height="9.88"/>
	<rect x="265.66" y="73.34" class="st0" width="11.92" height="9.88"/>
	<rect x="253.74" y="63.47" class="st0" width="11.92" height="9.88"/>
	<rect x="301.42" y="73.34" class="st0" width="11.92" height="9.88"/>
	<rect x="313.34" y="73.34" class="st0" width="11.92" height="9.88"/>
	<rect x="206.06" y="63.47" class="st0" width="11.92" height="9.88"/>
	<rect x="289.5" y="73.34" class="st0" width="11.92" height="9.88"/>
	<rect x="325.26" y="73.34" class="st0" width="11.92" height="9.88"/>
	<rect x="277.58" y="73.34" class="st0" width="11.92" height="9.88"/>
	<rect x="337.18" y="73.34" class="st0" width="11.92" height="9.88"/>
	<rect x="194.14" y="53.59" class="st0" width="11.92" height="9.88"/>
	<rect x="349.1" y="63.47" class="st0" width="3.46" height="9.88"/>
	<rect x="337.18" y="63.47" class="st0" width="11.92" height="9.88"/>
	<rect x="337.18" y="132.6" class="st0" width="11.92" height="9.88"/>
	<rect x="349.1" y="132.6" class="st0" width="3.46" height="9.88"/>
	<rect x="325.26" y="132.6" class="st0" width="11.92" height="9.88"/>
	<rect x="325.26" y="63.47" class="st0" width="11.92" height="9.88"/>
	<rect x="277.58" y="63.47" class="st0" width="11.92" height="9.88"/>
	<rect x="206.06" y="142.48" class="st0" width="11.92" height="9.88"/>
	<rect x="289.5" y="63.47" class="st0" width="11.92" height="9.88"/>
	<rect x="301.42" y="63.47" class="st0" width="11.92" height="9.88"/>
	<rect x="217.98" y="142.48" class="st0" width="11.92" height="9.88"/>
	<rect x="241.82" y="142.48" class="st0" width="11.92" height="9.88"/>
	<rect x="313.34" y="132.6" class="st0" width="11.92" height="9.88"/>
	<rect x="265.66" y="142.48" class="st0" width="11.92" height="9.88"/>
	<rect x="229.9" y="142.48" class="st0" width="11.92" height="9.88"/>
	<rect x="277.58" y="53.59" class="st0" width="11.92" height="9.88"/>
	<rect x="253.74" y="142.48" class="st0" width="11.92" height="9.88"/>
	<rect x="301.42" y="132.6" class="st0" width="11.92" height="9.88"/>
	<rect x="277.58" y="142.48" class="st0" width="11.92" height="9.88"/>
	<rect x="301.42" y="142.48" class="st0" width="11.92" height="9.88"/>
	<rect x="289.5" y="142.48" class="st0" width="11.92" height="9.88"/>
	<rect x="313.34" y="63.47" class="st0" width="11.92" height="9.88"/>
	<rect x="98.79" y="53.59" class="st0" width="11.92" height="9.88"/>
	<rect x="110.71" y="53.59" class="st0" width="11.92" height="9.88"/>
	<rect x="146.46" y="53.59" class="st0" width="11.92" height="9.88"/>
	<rect x="134.55" y="53.59" class="st0" width="11.92" height="9.88"/>
	<rect x="86.87" y="53.59" class="st0" width="11.92" height="9.88"/>
	<rect x="122.63" y="53.59" class="st0" width="11.92" height="9.88"/>
	<rect x="51.11" y="63.47" class="st0" width="11.92" height="9.88"/>
	<rect x="74.95" y="53.59" class="st0" width="11.92" height="9.88"/>
	<rect x="63.03" y="63.47" class="st0" width="11.92" height="9.88"/>
	<rect x="63.03" y="53.59" class="st0" width="11.92" height="9.88"/>
	<rect x="229.9" y="53.59" class="st0" width="11.92" height="9.88"/>
	<rect x="217.98" y="53.59" class="st0" width="11.92" height="9.88"/>
	<rect x="241.82" y="53.59" class="st0" width="11.92" height="9.88"/>
	<rect x="265.66" y="53.59" class="st0" width="11.92" height="9.88"/>
	<rect x="158.38" y="53.59" class="st0" width="11.92" height="9.88"/>
	<rect x="253.74" y="53.59" class="st0" width="11.92" height="9.88"/>
	<rect x="182.22" y="53.59" class="st0" width="11.92" height="9.88"/>
	<rect x="206.06" y="53.59" class="st0" width="11.92" height="9.88"/>
	<rect x="170.3" y="53.59" class="st0" width="11.92" height="9.88"/>
	<rect x="349.1" y="73.34" class="st0" width="3.46" height="9.88"/>
	<rect x="98.79" y="142.48" class="st0" width="11.92" height="9.88"/>
	<rect x="39.19" y="73.34" class="st0" width="11.92" height="9.88"/>
	<rect x="27.27" y="73.34" class="st0" width="11.92" height="9.88"/>
	<rect x="51.11" y="73.34" class="st0" width="11.92" height="9.88"/>
	<rect y="102.97" class="st0" width="3.43" height="9.88"/>
	<rect x="15.35" y="73.34" class="st0" width="11.92" height="9.88"/>
	<rect y="83.22" class="st0" width="3.43" height="9.88"/>
	<rect y="93.1" class="st0" width="3.43" height="9.88"/>
	<rect x="74.95" y="73.34" class="st0" width="11.92" height="9.88"/>
	<rect x="3.43" y="73.34" class="st0" width="11.92" height="9.88"/>
	<rect y="73.34" class="st0" width="3.43" height="9.88"/>
	<rect x="63.03" y="73.34" class="st0" width="11.92" height="9.88"/>
	<rect x="158.38" y="63.47" class="st0" width="11.92" height="9.88"/>
	<rect x="74.95" y="63.47" class="st0" width="11.92" height="9.88"/>
	<rect x="194.14" y="142.48" class="st0" width="11.92" height="9.88"/>
	<rect x="170.3" y="63.47" class="st0" width="11.92" height="9.88"/>
	<rect x="182.22" y="63.47" class="st0" width="11.92" height="9.88"/>
	<rect x="134.55" y="63.47" class="st0" width="11.92" height="9.88"/>
	<rect x="98.79" y="63.47" class="st0" width="11.92" height="9.88"/>
	<rect x="86.87" y="63.47" class="st0" width="11.92" height="9.88"/>
	<rect x="122.63" y="63.47" class="st0" width="11.92" height="9.88"/>
	<rect x="110.71" y="63.47" class="st0" width="11.92" height="9.88"/>
	<rect x="146.46" y="63.47" class="st0" width="11.92" height="9.88"/>
	<rect x="74.95" y="142.48" class="st0" width="11.92" height="9.88"/>
	<rect x="134.55" y="142.48" class="st0" width="11.92" height="9.88"/>
	<rect x="122.63" y="142.48" class="st0" width="11.92" height="9.88"/>
	<rect x="86.87" y="142.48" class="st0" width="11.92" height="9.88"/>
	<rect x="194.14" y="63.47" class="st0" width="11.92" height="9.88"/>
	<rect x="110.71" y="142.48" class="st0" width="11.92" height="9.88"/>
	<rect x="146.46" y="142.48" class="st0" width="11.92" height="9.88"/>
	<rect x="170.3" y="142.48" class="st0" width="11.92" height="9.88"/>
	<rect x="182.22" y="142.48" class="st0" width="11.92" height="9.88"/>
	<rect x="158.38" y="142.48" class="st0" width="11.92" height="9.88"/>
	<rect y="112.85" class="st0" width="3.43" height="9.88"/>
	<rect y="132.6" class="st0" width="3.43" height="9.88"/>
	<rect x="3.43" y="132.6" class="st0" width="11.92" height="9.88"/>
	<rect y="122.73" class="st0" width="3.43" height="9.88"/>
	<rect x="15.35" y="132.6" class="st0" width="11.92" height="9.88"/>
	<rect x="39.19" y="142.48" class="st0" width="11.92" height="9.88"/>
	<rect x="27.27" y="132.6" class="st0" width="11.92" height="9.88"/>
	<rect x="63.03" y="142.48" class="st0" width="11.92" height="9.88"/>
	<rect x="51.11" y="142.48" class="st0" width="11.92" height="9.88"/>
	<rect x="39.19" y="132.6" class="st0" width="11.92" height="9.88"/>
	<rect x="217.98" y="73.34" class="st0" width="11.92" height="9.88"/>
	<rect x="265.66" y="93.1" class="st0" width="11.92" height="9.88"/>
	<rect x="325.26" y="93.1" class="st0" width="11.92" height="9.88"/>
	<rect x="277.58" y="93.1" class="st0" width="11.92" height="9.88"/>
	<rect x="301.42" y="93.1" class="st0" width="11.92" height="9.88"/>
	<rect x="313.34" y="93.1" class="st0" width="11.92" height="9.88"/>
	<rect x="349.1" y="122.73" class="st0" width="3.46" height="9.88"/>
	<rect x="217.98" y="83.22" class="st0" width="11.92" height="9.88"/>
	<rect x="229.9" y="83.22" class="st0" width="11.92" height="9.88"/>
	<rect x="241.82" y="93.1" class="st0" width="11.92" height="9.88"/>
	<rect x="241.82" y="83.22" class="st0" width="11.92" height="9.88"/>
	<rect x="253.74" y="93.1" class="st0" width="11.92" height="9.88"/>
	<rect x="277.58" y="102.97" class="st0" width="11.92" height="9.88"/>
	<rect x="301.42" y="102.97" class="st0" width="11.92" height="9.88"/>
	<rect x="63.03" y="112.85" class="st0" width="11.92" height="9.88"/>
	<rect x="289.5" y="102.97" class="st0" width="11.92" height="9.88"/>
	<rect x="265.66" y="102.97" class="st0" width="11.92" height="9.88"/>
	<rect x="265.66" y="112.85" class="st0" width="11.92" height="9.88"/>
	<rect x="337.18" y="93.1" class="st0" width="11.92" height="9.88"/>
	<rect x="313.34" y="102.97" class="st0" width="11.92" height="9.88"/>
	<rect x="349.1" y="102.97" class="st0" width="3.46" height="9.88"/>
	<rect x="349.1" y="93.1" class="st0" width="3.46" height="9.88"/>
	<rect x="337.18" y="102.97" class="st0" width="11.92" height="9.88"/>
	<rect x="325.26" y="102.97" class="st0" width="11.92" height="9.88"/>
	<rect x="158.38" y="83.22" class="st0" width="11.92" height="9.88"/>
	<rect x="74.95" y="93.1" class="st0" width="11.92" height="9.88"/>
	<rect x="39.19" y="93.1" class="st0" width="11.92" height="9.88"/>
	<rect x="63.03" y="93.1" class="st0" width="11.92" height="9.88"/>
	<rect x="51.11" y="93.1" class="st0" width="11.92" height="9.88"/>
	<rect x="15.35" y="93.1" class="st0" width="11.92" height="9.88"/>
	<rect x="27.27" y="93.1" class="st0" width="11.92" height="9.88"/>
	<rect x="39.19" y="112.85" class="st0" width="11.92" height="9.88"/>
	<rect x="194.14" y="83.22" class="st0" width="11.92" height="9.88"/>
	<rect x="15.35" y="112.85" class="st0" width="11.92" height="9.88"/>
	<rect x="27.27" y="112.85" class="st0" width="11.92" height="9.88"/>
	<rect x="15.35" y="102.97" class="st0" width="11.92" height="9.88"/>
	<rect x="51.11" y="112.85" class="st0" width="11.92" height="9.88"/>
	<rect x="146.46" y="83.22" class="st0" width="11.92" height="9.88"/>
	<rect x="134.55" y="83.22" class="st0" width="11.92" height="9.88"/>
	<rect x="253.74" y="112.85" class="st0" width="11.92" height="9.88"/>
	<rect x="86.87" y="93.1" class="st0" width="11.92" height="9.88"/>
	<rect x="182.22" y="83.22" class="st0" width="11.92" height="9.88"/>
	<rect x="170.3" y="83.22" class="st0" width="11.92" height="9.88"/>
	<rect x="98.79" y="93.1" class="st0" width="11.92" height="9.88"/>
	<rect x="98.79" y="83.22" class="st0" width="11.92" height="9.88"/>
	<rect x="122.63" y="83.22" class="st0" width="11.92" height="9.88"/>
	<rect x="110.71" y="83.22" class="st0" width="11.92" height="9.88"/>
	<rect x="206.06" y="83.22" class="st0" width="11.92" height="9.88"/>
	<rect x="229.9" y="93.1" class="st0" width="11.92" height="9.88"/>
	<rect x="229.9" y="102.97" class="st0" width="11.92" height="9.88"/>
	<rect x="182.22" y="102.97" class="st0" width="11.92" height="9.88"/>
	<rect x="206.06" y="102.97" class="st0" width="11.92" height="9.88"/>
	<rect x="194.14" y="102.97" class="st0" width="11.92" height="9.88"/>
	<rect x="217.98" y="102.97" class="st0" width="11.92" height="9.88"/>
	<rect x="182.22" y="93.1" class="st0" width="11.92" height="9.88"/>
	<rect x="217.98" y="93.1" class="st0" width="11.92" height="9.88"/>
	<rect x="170.3" y="93.1" class="st0" width="11.92" height="9.88"/>
	<rect x="194.14" y="93.1" class="st0" width="11.92" height="9.88"/>
	<rect x="206.06" y="93.1" class="st0" width="11.92" height="9.88"/>
	<rect x="63.03" y="102.97" class="st0" width="11.92" height="9.88"/>
	<rect x="158.38" y="93.1" class="st0" width="11.92" height="9.88"/>
	<rect x="51.11" y="102.97" class="st0" width="11.92" height="9.88"/>
	<rect x="39.19" y="102.97" class="st0" width="11.92" height="9.88"/>
	<rect x="170.3" y="102.97" class="st0" width="11.92" height="9.88"/>
	<rect x="253.74" y="102.97" class="st0" width="11.92" height="9.88"/>
	<rect x="27.27" y="102.97" class="st0" width="11.92" height="9.88"/>
	<rect x="158.38" y="102.97" class="st0" width="11.92" height="9.88"/>
	<rect x="146.46" y="102.97" class="st0" width="11.92" height="9.88"/>
	<rect x="134.55" y="102.97" class="st0" width="11.92" height="9.88"/>
	<rect x="122.63" y="102.97" class="st0" width="11.92" height="9.88"/>
	<rect x="241.82" y="102.97" class="st0" width="11.92" height="9.88"/>
	<rect x="170.3" y="112.85" class="st0" width="11.92" height="9.88"/>
	<rect x="146.46" y="112.85" class="st0" width="11.92" height="9.88"/>
	<rect x="158.38" y="112.85" class="st0" width="11.92" height="9.88"/>
	<rect x="146.46" y="93.1" class="st0" width="11.92" height="9.88"/>
	<rect x="110.71" y="112.85" class="st0" width="11.92" height="9.88"/>
	<rect x="122.63" y="112.85" class="st0" width="11.92" height="9.88"/>
	<rect x="241.82" y="112.85" class="st0" width="11.92" height="9.88"/>
	<rect x="217.98" y="112.85" class="st0" width="11.92" height="9.88"/>
	<rect x="229.9" y="112.85" class="st0" width="11.92" height="9.88"/>
	<rect x="182.22" y="112.85" class="st0" width="11.92" height="9.88"/>
	<rect x="194.14" y="112.85" class="st0" width="11.92" height="9.88"/>
	<rect x="206.06" y="112.85" class="st0" width="11.92" height="9.88"/>
	<rect x="134.55" y="112.85" class="st0" width="11.92" height="9.88"/>
	<rect x="110.71" y="102.97" class="st0" width="11.92" height="9.88"/>
	<rect x="98.79" y="102.97" class="st0" width="11.92" height="9.88"/>
	<rect x="110.71" y="93.1" class="st0" width="11.92" height="9.88"/>
	<rect x="122.63" y="93.1" class="st0" width="11.92" height="9.88"/>
	<rect x="134.55" y="93.1" class="st0" width="11.92" height="9.88"/>
	<rect x="86.87" y="112.85" class="st0" width="11.92" height="9.88"/>
	<rect x="86.87" y="102.97" class="st0" width="11.92" height="9.88"/>
	<rect x="74.95" y="112.85" class="st0" width="11.92" height="9.88"/>
	<rect x="98.79" y="112.85" class="st0" width="11.92" height="9.88"/>
	<rect x="74.95" y="102.97" class="st0" width="11.92" height="9.88"/>
	<rect x="289.5" y="93.1" class="st0" width="11.92" height="9.88"/>
	<rect x="3.43" y="122.73" class="st0" width="11.92" height="9.88"/>
	<rect x="86.87" y="132.6" class="st0" width="11.92" height="9.88"/>
	<rect x="122.63" y="73.34" class="st0" width="11.92" height="9.88"/>
	<rect x="3.43" y="102.97" class="st0" width="11.92" height="9.88"/>
	<rect x="3.43" y="93.1" class="st0" width="11.92" height="9.88"/>
	<rect x="27.27" y="122.73" class="st0" width="11.92" height="9.88"/>
	<rect x="63.03" y="132.6" class="st0" width="11.92" height="9.88"/>
	<rect x="74.95" y="132.6" class="st0" width="11.92" height="9.88"/>
	<rect x="39.19" y="122.73" class="st0" width="11.92" height="9.88"/>
	<rect x="51.11" y="122.73" class="st0" width="11.92" height="9.88"/>
	<rect x="51.11" y="132.6" class="st0" width="11.92" height="9.88"/>
	<rect x="15.35" y="122.73" class="st0" width="11.92" height="9.88"/>
	<rect x="86.87" y="83.22" class="st0" width="11.92" height="9.88"/>
	<rect x="86.87" y="73.34" class="st0" width="11.92" height="9.88"/>
	<rect x="74.95" y="83.22" class="st0" width="11.92" height="9.88"/>
	<rect x="98.79" y="73.34" class="st0" width="11.92" height="9.88"/>
	<rect x="110.71" y="73.34" class="st0" width="11.92" height="9.88"/>
	<rect x="39.19" y="83.22" class="st0" width="11.92" height="9.88"/>
	<rect x="15.35" y="83.22" class="st0" width="11.92" height="9.88"/>
	<rect x="27.27" y="83.22" class="st0" width="11.92" height="9.88"/>
	<rect x="3.43" y="83.22" class="st0" width="11.92" height="9.88"/>
	<rect x="51.11" y="83.22" class="st0" width="11.92" height="9.88"/>
	<rect x="63.03" y="83.22" class="st0" width="11.92" height="9.88"/>
	<rect x="3.43" y="112.85" class="st0" width="11.92" height="9.88"/>
	<rect x="277.58" y="132.6" class="st0" width="11.92" height="9.88"/>
	<rect x="289.5" y="132.6" class="st0" width="11.92" height="9.88"/>
	<rect x="265.66" y="132.6" class="st0" width="11.92" height="9.88"/>
	<rect x="229.9" y="132.6" class="st0" width="11.92" height="9.88"/>
	<rect x="98.79" y="132.6" class="st0" width="11.92" height="9.88"/>
	<rect x="253.74" y="132.6" class="st0" width="11.92" height="9.88"/>
	<rect x="337.18" y="122.73" class="st0" width="11.92" height="9.88"/>
	<rect x="289.5" y="122.73" class="st0" width="11.92" height="9.88"/>
	<rect x="325.26" y="122.73" class="st0" width="11.92" height="9.88"/>
	<rect x="313.34" y="122.73" class="st0" width="11.92" height="9.88"/>
	<rect x="301.42" y="122.73" class="st0" width="11.92" height="9.88"/>
	<rect x="241.82" y="132.6" class="st0" width="11.92" height="9.88"/>
	<rect x="146.46" y="132.6" class="st0" width="11.92" height="9.88"/>
	<rect x="158.38" y="132.6" class="st0" width="11.92" height="9.88"/>
	<rect x="134.55" y="132.6" class="st0" width="11.92" height="9.88"/>
	<rect x="110.71" y="132.6" class="st0" width="11.92" height="9.88"/>
	<rect x="122.63" y="132.6" class="st0" width="11.92" height="9.88"/>
	<rect x="217.98" y="132.6" class="st0" width="11.92" height="9.88"/>
	<rect x="194.14" y="132.6" class="st0" width="11.92" height="9.88"/>
	<rect x="206.06" y="132.6" class="st0" width="11.92" height="9.88"/>
	<rect x="170.3" y="132.6" class="st0" width="11.92" height="9.88"/>
	<rect x="182.22" y="132.6" class="st0" width="11.92" height="9.88"/>
	<rect x="158.38" y="73.34" class="st0" width="11.92" height="9.88"/>
	<rect x="229.9" y="122.73" class="st0" width="11.92" height="9.88"/>
	<rect x="253.74" y="122.73" class="st0" width="11.92" height="9.88"/>
	<rect x="241.82" y="122.73" class="st0" width="11.92" height="9.88"/>
	<rect x="217.98" y="122.73" class="st0" width="11.92" height="9.88"/>
	<rect x="206.06" y="122.73" class="st0" width="11.92" height="9.88"/>
	<rect x="194.14" y="122.73" class="st0" width="11.92" height="9.88"/>
	<rect x="301.42" y="112.85" class="st0" width="11.92" height="9.88"/>
	<rect x="265.66" y="122.73" class="st0" width="11.92" height="9.88"/>
	<rect x="289.5" y="112.85" class="st0" width="11.92" height="9.88"/>
	<rect x="277.58" y="112.85" class="st0" width="11.92" height="9.88"/>
	<rect x="277.58" y="122.73" class="st0" width="11.92" height="9.88"/>
	<rect x="170.3" y="122.73" class="st0" width="11.92" height="9.88"/>
	<rect x="110.71" y="122.73" class="st0" width="11.92" height="9.88"/>
	<rect x="98.79" y="122.73" class="st0" width="11.92" height="9.88"/>
	<rect x="74.95" y="122.73" class="st0" width="11.92" height="9.88"/>
	<rect x="86.87" y="122.73" class="st0" width="11.92" height="9.88"/>
	<rect x="122.63" y="122.73" class="st0" width="11.92" height="9.88"/>
	<rect x="146.46" y="122.73" class="st0" width="11.92" height="9.88"/>
	<rect x="134.55" y="122.73" class="st0" width="11.92" height="9.88"/>
	<rect x="313.34" y="112.85" class="st0" width="11.92" height="9.88"/>
	<rect x="158.38" y="122.73" class="st0" width="11.92" height="9.88"/>
	<rect x="182.22" y="122.73" class="st0" width="11.92" height="9.88"/>
	<rect x="241.82" y="73.34" class="st0" width="11.92" height="9.88"/>
	<rect x="39.19" y="63.47" class="st0" width="11.92" height="9.88"/>
	<rect x="206.06" y="73.34" class="st0" width="11.92" height="9.88"/>
	<rect x="229.9" y="73.34" class="st0" width="11.92" height="9.88"/>
	<rect x="325.26" y="112.85" class="st0" width="11.92" height="9.88"/>
	<rect x="134.55" y="73.34" class="st0" width="11.92" height="9.88"/>
	<rect x="182.22" y="73.34" class="st0" width="11.92" height="9.88"/>
	<rect x="63.03" y="122.73" class="st0" width="11.92" height="9.88"/>
	<rect x="146.46" y="73.34" class="st0" width="11.92" height="9.88"/>
	<rect x="253.74" y="83.22" class="st0" width="11.92" height="9.88"/>
	<rect x="194.14" y="73.34" class="st0" width="11.92" height="9.88"/>
	<rect x="170.3" y="73.34" class="st0" width="11.92" height="9.88"/>
	<rect x="253.74" y="73.34" class="st0" width="11.92" height="9.88"/>
	<rect x="325.26" y="83.22" class="st0" width="11.92" height="9.88"/>
	<rect x="265.66" y="83.22" class="st0" width="11.92" height="9.88"/>
	<rect x="349.1" y="83.22" class="st0" width="3.46" height="9.88"/>
	<rect x="337.18" y="112.85" class="st0" width="11.92" height="9.88"/>
	<rect x="349.1" y="112.85" class="st0" width="3.46" height="9.88"/>
	<rect x="337.18" y="83.22" class="st0" width="11.92" height="9.88"/>
	<rect x="313.34" y="83.22" class="st0" width="11.92" height="9.88"/>
	<rect x="289.5" y="83.22" class="st0" width="11.92" height="9.88"/>
	<rect x="277.58" y="83.22" class="st0" width="11.92" height="9.88"/>
	<rect x="301.42" y="83.22" class="st0" width="11.92" height="9.88"/>
	<rect x="277.58" y="4.21" class="st0" width="11.92" height="9.88"/>
	<rect x="229.9" class="st0" width="11.92" height="4.21"/>
	<rect x="217.98" class="st0" width="11.92" height="4.21"/>
	<rect x="39.19" y="23.96" class="st0" width="11.92" height="9.88"/>
	<rect x="158.38" y="181.98" class="st0" width="11.92" height="4.21"/>
	<rect x="194.14" class="st0" width="11.92" height="4.21"/>
	<rect x="253.74" class="st0" width="11.92" height="4.21"/>
	<rect x="301.42" class="st0" width="11.92" height="4.21"/>
	<rect x="289.5" class="st0" width="11.92" height="4.21"/>
	<rect x="277.58" class="st0" width="11.92" height="4.21"/>
	<rect x="265.66" class="st0" width="11.92" height="4.21"/>
	<rect x="182.22" class="st0" width="11.92" height="4.21"/>
	<rect x="27.27" y="33.84" class="st0" width="11.92" height="9.88"/>
	<rect x="3.43" y="33.84" class="st0" width="11.92" height="9.88"/>
	<rect x="15.35" y="33.84" class="st0" width="11.92" height="9.88"/>
	<rect x="170.3" class="st0" width="11.92" height="4.21"/>
	<rect x="27.27" y="23.96" class="st0" width="11.92" height="9.88"/>
	<rect y="33.84" class="st0" width="3.43" height="9.88"/>
	<rect x="146.46" class="st0" width="11.92" height="4.21"/>
	<rect x="158.38" class="st0" width="11.92" height="4.21"/>
	<rect x="134.55" class="st0" width="11.92" height="4.21"/>
	<rect x="241.82" class="st0" width="11.92" height="4.21"/>
	<rect x="74.95" y="181.98" class="st0" width="11.92" height="4.21"/>
	<rect x="39.19" y="181.98" class="st0" width="11.92" height="4.21"/>
	<rect x="63.03" y="181.98" class="st0" width="11.92" height="4.21"/>
	<rect x="98.79" y="181.98" class="st0" width="11.92" height="4.21"/>
	<rect x="51.11" y="181.98" class="st0" width="11.92" height="4.21"/>
	<rect x="86.87" y="181.98" class="st0" width="11.92" height="4.21"/>
	<rect x="134.55" y="181.98" class="st0" width="11.92" height="4.21"/>
	<rect x="146.46" y="181.98" class="st0" width="11.92" height="4.21"/>
	<rect x="110.71" y="181.98" class="st0" width="11.92" height="4.21"/>
	<rect x="122.63" y="181.98" class="st0" width="11.92" height="4.21"/>
	<rect y="172.11" class="st0" width="3.43" height="9.88"/>
	<rect x="349.1" y="4.21" class="st0" width="3.46" height="9.88"/>
	<rect x="337.18" class="st0" width="11.92" height="4.21"/>
	<rect x="349.1" class="st0" width="3.46" height="4.21"/>
	<rect x="27.27" y="181.98" class="st0" width="11.92" height="4.21"/>
	<rect x="325.26" class="st0" width="11.92" height="4.21"/>
	<rect x="313.34" class="st0" width="11.92" height="4.21"/>
	<rect x="15.35" y="181.98" class="st0" width="11.92" height="4.21"/>
	<rect x="3.43" y="181.98" class="st0" width="11.92" height="4.21"/>
	<rect y="181.98" class="st0" width="3.43" height="4.21"/>
	<rect x="206.06" class="st0" width="11.92" height="4.21"/>
	<rect x="122.63" class="st0" width="11.92" height="4.21"/>
	<rect x="110.71" class="st0" width="11.92" height="4.21"/>
	<rect x="98.79" class="st0" width="11.92" height="4.21"/>
	<rect x="86.87" class="st0" width="11.92" height="4.21"/>
	<rect x="27.27" y="63.47" class="st0" width="11.92" height="9.88"/>
	<rect x="349.1" y="33.84" class="st0" width="3.46" height="9.88"/>
	<rect x="337.18" y="33.84" class="st0" width="11.92" height="9.88"/>
	<rect x="313.34" y="23.96" class="st0" width="11.92" height="9.88"/>
	<rect x="313.34" y="33.84" class="st0" width="11.92" height="9.88"/>
	<rect x="325.26" y="33.84" class="st0" width="11.92" height="9.88"/>
	<rect class="st0" width="3.43" height="4.21"/>
	<rect y="4.21" class="st0" width="3.43" height="9.88"/>
	<rect x="3.43" class="st0" width="11.92" height="4.21"/>
	<rect x="301.42" y="23.96" class="st0" width="11.92" height="9.88"/>
	<rect x="349.1" y="162.23" class="st0" width="3.46" height="9.88"/>
	<rect x="51.11" class="st0" width="11.92" height="4.21"/>
	<rect x="39.19" class="st0" width="11.92" height="4.21"/>
	<rect x="15.35" class="st0" width="11.92" height="4.21"/>
	<rect x="63.03" class="st0" width="11.92" height="4.21"/>
	<rect x="27.27" class="st0" width="11.92" height="4.21"/>
	<rect x="122.63" y="23.96" class="st0" width="11.92" height="9.88"/>
	<rect x="134.55" y="23.96" class="st0" width="11.92" height="9.88"/>
	<rect x="110.71" y="23.96" class="st0" width="11.92" height="9.88"/>
	<rect x="51.11" y="23.96" class="st0" width="11.92" height="9.88"/>
	<rect x="146.46" y="23.96" class="st0" width="11.92" height="9.88"/>
	<rect x="158.38" y="23.96" class="st0" width="11.92" height="9.88"/>
	<rect x="74.95" y="23.96" class="st0" width="11.92" height="9.88"/>
	<rect x="63.03" y="23.96" class="st0" width="11.92" height="9.88"/>
	<rect x="98.79" y="23.96" class="st0" width="11.92" height="9.88"/>
	<rect x="170.3" y="23.96" class="st0" width="11.92" height="9.88"/>
	<rect x="86.87" y="23.96" class="st0" width="11.92" height="9.88"/>
	<rect x="289.5" y="23.96" class="st0" width="11.92" height="9.88"/>
	<rect x="253.74" y="23.96" class="st0" width="11.92" height="9.88"/>
	<rect x="182.22" y="23.96" class="st0" width="11.92" height="9.88"/>
	<rect x="265.66" y="23.96" class="st0" width="11.92" height="9.88"/>
	<rect x="277.58" y="23.96" class="st0" width="11.92" height="9.88"/>
	<rect x="241.82" y="23.96" class="st0" width="11.92" height="9.88"/>
	<rect x="206.06" y="23.96" class="st0" width="11.92" height="9.88"/>
	<rect x="229.9" y="23.96" class="st0" width="11.92" height="9.88"/>
	<rect x="194.14" y="23.96" class="st0" width="11.92" height="9.88"/>
	<rect x="217.98" y="23.96" class="st0" width="11.92" height="9.88"/>
	<rect x="170.3" y="181.98" class="st0" width="11.92" height="4.21"/>
	<rect x="39.19" y="4.21" class="st0" width="11.92" height="9.88"/>
	<rect x="27.27" y="4.21" class="st0" width="11.92" height="9.88"/>
	<rect x="110.71" y="4.21" class="st0" width="11.92" height="9.88"/>
	<rect x="51.11" y="4.21" class="st0" width="11.92" height="9.88"/>
	<rect x="3.43" y="4.21" class="st0" width="11.92" height="9.88"/>
	<rect x="98.79" y="4.21" class="st0" width="11.92" height="9.88"/>
	<rect x="3.43" y="14.09" class="st0" width="11.92" height="9.88"/>
	<rect x="86.87" y="4.21" class="st0" width="11.92" height="9.88"/>
	<rect x="74.95" y="4.21" class="st0" width="11.92" height="9.88"/>
	<rect x="63.03" y="4.21" class="st0" width="11.92" height="9.88"/>
	<rect x="15.35" y="4.21" class="st0" width="11.92" height="9.88"/>
	<rect y="14.09" class="st0" width="3.43" height="9.88"/>
	<rect x="51.11" y="14.09" class="st0" width="11.92" height="9.88"/>
	<rect x="63.03" y="14.09" class="st0" width="11.92" height="9.88"/>
	<rect x="27.27" y="14.09" class="st0" width="11.92" height="9.88"/>
	<rect x="39.19" y="14.09" class="st0" width="11.92" height="9.88"/>
	<rect y="23.96" class="st0" width="3.43" height="9.88"/>
	<rect x="3.43" y="23.96" class="st0" width="11.92" height="9.88"/>
	<rect x="15.35" y="23.96" class="st0" width="11.92" height="9.88"/>
	<rect x="15.35" y="14.09" class="st0" width="11.92" height="9.88"/>
	<rect x="146.46" y="4.21" class="st0" width="11.92" height="9.88"/>
	<rect x="289.5" y="4.21" class="st0" width="11.92" height="9.88"/>
	<rect x="349.1" y="14.09" class="st0" width="3.46" height="9.88"/>
	<rect x="301.42" y="4.21" class="st0" width="11.92" height="9.88"/>
	<rect x="265.66" y="4.21" class="st0" width="11.92" height="9.88"/>
	<rect x="241.82" y="4.21" class="st0" width="11.92" height="9.88"/>
	<rect x="253.74" y="4.21" class="st0" width="11.92" height="9.88"/>
	<rect x="337.18" y="14.09" class="st0" width="11.92" height="9.88"/>
	<rect x="325.26" y="4.21" class="st0" width="11.92" height="9.88"/>
	<rect x="313.34" y="4.21" class="st0" width="11.92" height="9.88"/>
	<rect x="337.18" y="4.21" class="st0" width="11.92" height="9.88"/>
	<rect x="74.95" y="14.09" class="st0" width="11.92" height="9.88"/>
	<rect x="337.18" y="162.23" class="st0" width="11.92" height="9.88"/>
	<rect x="122.63" y="4.21" class="st0" width="11.92" height="9.88"/>
	<rect x="158.38" y="4.21" class="st0" width="11.92" height="9.88"/>
	<rect x="134.55" y="4.21" class="st0" width="11.92" height="9.88"/>
	<rect x="229.9" y="4.21" class="st0" width="11.92" height="9.88"/>
	<rect x="217.98" y="4.21" class="st0" width="11.92" height="9.88"/>
	<rect x="182.22" y="4.21" class="st0" width="11.92" height="9.88"/>
	<rect x="206.06" y="4.21" class="st0" width="11.92" height="9.88"/>
	<rect x="194.14" y="4.21" class="st0" width="11.92" height="9.88"/>
	<rect x="170.3" y="4.21" class="st0" width="11.92" height="9.88"/>
	<rect x="289.5" y="181.98" class="st0" width="11.92" height="4.21"/>
	<rect x="349.1" y="181.98" class="st0" width="3.46" height="4.21"/>
	<rect x="337.18" y="181.98" class="st0" width="11.92" height="4.21"/>
	<rect x="301.42" y="181.98" class="st0" width="11.92" height="4.21"/>
	<rect x="313.34" y="181.98" class="st0" width="11.92" height="4.21"/>
	<rect x="325.26" y="181.98" class="st0" width="11.92" height="4.21"/>
	<rect x="337.18" y="23.96" class="st0" width="11.92" height="9.88"/>
	<rect x="325.26" y="14.09" class="st0" width="11.92" height="9.88"/>
	<rect x="325.26" y="23.96" class="st0" width="11.92" height="9.88"/>
	<rect x="349.1" y="23.96" class="st0" width="3.46" height="9.88"/>
	<rect x="349.1" y="172.11" class="st0" width="3.46" height="9.88"/>
	<rect x="206.06" y="181.98" class="st0" width="11.92" height="4.21"/>
	<rect x="277.58" y="181.98" class="st0" width="11.92" height="4.21"/>
	<rect x="182.22" y="181.98" class="st0" width="11.92" height="4.21"/>
	<rect x="217.98" y="181.98" class="st0" width="11.92" height="4.21"/>
	<rect x="194.14" y="181.98" class="st0" width="11.92" height="4.21"/>
	<rect x="265.66" y="181.98" class="st0" width="11.92" height="4.21"/>
	<rect x="253.74" y="181.98" class="st0" width="11.92" height="4.21"/>
	<rect x="229.9" y="181.98" class="st0" width="11.92" height="4.21"/>
	<rect x="241.82" y="181.98" class="st0" width="11.92" height="4.21"/>
	<rect x="217.98" y="14.09" class="st0" width="11.92" height="9.88"/>
	<rect x="158.38" y="14.09" class="st0" width="11.92" height="9.88"/>
	<rect x="194.14" y="14.09" class="st0" width="11.92" height="9.88"/>
	<rect x="170.3" y="14.09" class="st0" width="11.92" height="9.88"/>
	<rect x="182.22" y="14.09" class="st0" width="11.92" height="9.88"/>
	<rect x="146.46" y="14.09" class="st0" width="11.92" height="9.88"/>
	<rect x="110.71" y="14.09" class="st0" width="11.92" height="9.88"/>
	<rect x="134.55" y="14.09" class="st0" width="11.92" height="9.88"/>
	<rect x="98.79" y="14.09" class="st0" width="11.92" height="9.88"/>
	<rect x="122.63" y="14.09" class="st0" width="11.92" height="9.88"/>
	<rect x="301.42" y="14.09" class="st0" width="11.92" height="9.88"/>
	<rect x="289.5" y="14.09" class="st0" width="11.92" height="9.88"/>
	<rect x="265.66" y="14.09" class="st0" width="11.92" height="9.88"/>
	<rect x="277.58" y="14.09" class="st0" width="11.92" height="9.88"/>
	<rect x="206.06" y="14.09" class="st0" width="11.92" height="9.88"/>
	<rect x="313.34" y="14.09" class="st0" width="11.92" height="9.88"/>
	<rect x="229.9" y="14.09" class="st0" width="11.92" height="9.88"/>
	<rect x="86.87" y="14.09" class="st0" width="11.92" height="9.88"/>
	<rect x="241.82" y="14.09" class="st0" width="11.92" height="9.88"/>
	<rect x="253.74" y="14.09" class="st0" width="11.92" height="9.88"/>
	<rect x="74.95" class="st0" width="11.92" height="4.21"/>
	<rect x="146.46" y="43.71" class="st0" width="11.92" height="9.88"/>
	<rect x="134.55" y="43.71" class="st0" width="11.92" height="9.88"/>
	<rect x="170.3" y="43.71" class="st0" width="11.92" height="9.88"/>
	<rect x="122.63" y="43.71" class="st0" width="11.92" height="9.88"/>
	<rect x="158.38" y="43.71" class="st0" width="11.92" height="9.88"/>
	<rect x="74.95" y="43.71" class="st0" width="11.92" height="9.88"/>
	<rect x="86.87" y="43.71" class="st0" width="11.92" height="9.88"/>
	<rect x="182.22" y="43.71" class="st0" width="11.92" height="9.88"/>
	<rect x="98.79" y="43.71" class="st0" width="11.92" height="9.88"/>
	<rect x="110.71" y="43.71" class="st0" width="11.92" height="9.88"/>
	<rect x="265.66" y="43.71" class="st0" width="11.92" height="9.88"/>
	<rect x="277.58" y="43.71" class="st0" width="11.92" height="9.88"/>
	<rect x="253.74" y="43.71" class="st0" width="11.92" height="9.88"/>
	<rect x="63.03" y="43.71" class="st0" width="11.92" height="9.88"/>
	<rect x="289.5" y="43.71" class="st0" width="11.92" height="9.88"/>
	<rect x="206.06" y="43.71" class="st0" width="11.92" height="9.88"/>
	<rect x="241.82" y="43.71" class="st0" width="11.92" height="9.88"/>
	<rect x="217.98" y="43.71" class="st0" width="11.92" height="9.88"/>
	<rect x="194.14" y="43.71" class="st0" width="11.92" height="9.88"/>
	<rect x="229.9" y="43.71" class="st0" width="11.92" height="9.88"/>
	<rect x="74.95" y="162.23" class="st0" width="11.92" height="9.88"/>
	<rect x="63.03" y="162.23" class="st0" width="11.92" height="9.88"/>
	<rect x="51.11" y="162.23" class="st0" width="11.92" height="9.88"/>
	<rect x="27.27" y="162.23" class="st0" width="11.92" height="9.88"/>
	<rect x="289.5" y="53.59" class="st0" width="11.92" height="9.88"/>
	<rect x="39.19" y="162.23" class="st0" width="11.92" height="9.88"/>
	<rect x="98.79" y="162.23" class="st0" width="11.92" height="9.88"/>
	<rect x="122.63" y="162.23" class="st0" width="11.92" height="9.88"/>
	<rect x="110.71" y="162.23" class="st0" width="11.92" height="9.88"/>
	<rect x="15.35" y="162.23" class="st0" width="11.92" height="9.88"/>
	<rect x="86.87" y="162.23" class="st0" width="11.92" height="9.88"/>
	<rect x="27.27" y="53.59" class="st0" width="11.92" height="9.88"/>
	<rect x="15.35" y="152.35" class="st0" width="11.92" height="9.88"/>
	<rect x="15.35" y="53.59" class="st0" width="11.92" height="9.88"/>
	<rect x="51.11" y="43.71" class="st0" width="11.92" height="9.88"/>
	<rect x="51.11" y="53.59" class="st0" width="11.92" height="9.88"/>
	<rect x="39.19" y="53.59" class="st0" width="11.92" height="9.88"/>
	<rect y="152.35" class="st0" width="3.43" height="9.88"/>
	<rect x="3.43" y="53.59" class="st0" width="11.92" height="9.88"/>
	<rect x="3.43" y="152.35" class="st0" width="11.92" height="9.88"/>
	<rect y="53.59" class="st0" width="3.43" height="9.88"/>
	<rect x="146.46" y="152.35" class="st0" width="11.92" height="9.88"/>
	<rect x="98.79" y="152.35" class="st0" width="11.92" height="9.88"/>
	<rect x="110.71" y="152.35" class="st0" width="11.92" height="9.88"/>
	<rect x="86.87" y="152.35" class="st0" width="11.92" height="9.88"/>
	<rect x="74.95" y="152.35" class="st0" width="11.92" height="9.88"/>
	<rect x="63.03" y="152.35" class="st0" width="11.92" height="9.88"/>
	<rect x="158.38" y="152.35" class="st0" width="11.92" height="9.88"/>
	<rect x="51.11" y="152.35" class="st0" width="11.92" height="9.88"/>
	<rect x="170.3" y="152.35" class="st0" width="11.92" height="9.88"/>
	<rect x="134.55" y="162.23" class="st0" width="11.92" height="9.88"/>
	<rect x="134.55" y="152.35" class="st0" width="11.92" height="9.88"/>
	<rect x="122.63" y="152.35" class="st0" width="11.92" height="9.88"/>
	<rect x="3.43" y="63.47" class="st0" width="11.92" height="9.88"/>
	<rect y="142.48" class="st0" width="3.43" height="9.88"/>
	<rect y="63.47" class="st0" width="3.43" height="9.88"/>
	<rect x="15.35" y="63.47" class="st0" width="11.92" height="9.88"/>
	<rect x="27.27" y="142.48" class="st0" width="11.92" height="9.88"/>
	<rect x="3.43" y="142.48" class="st0" width="11.92" height="9.88"/>
	<rect x="27.27" y="152.35" class="st0" width="11.92" height="9.88"/>
	<rect x="39.19" y="152.35" class="st0" width="11.92" height="9.88"/>
	<rect x="301.42" y="53.59" class="st0" width="11.92" height="9.88"/>
	<rect x="15.35" y="142.48" class="st0" width="11.92" height="9.88"/>
	<rect x="325.26" y="142.48" class="st0" width="11.92" height="9.88"/>
	<rect x="337.18" y="142.48" class="st0" width="11.92" height="9.88"/>
	<rect x="313.34" y="152.35" class="st0" width="11.92" height="9.88"/>
	<rect x="182.22" y="152.35" class="st0" width="11.92" height="9.88"/>
	<rect x="349.1" y="142.48" class="st0" width="3.46" height="9.88"/>
	<rect x="349.1" y="53.59" class="st0" width="3.46" height="9.88"/>
	<rect x="325.26" y="53.59" class="st0" width="11.92" height="9.88"/>
	<rect x="313.34" y="53.59" class="st0" width="11.92" height="9.88"/>
	<rect x="337.18" y="53.59" class="st0" width="11.92" height="9.88"/>
	<rect x="301.42" y="152.35" class="st0" width="11.92" height="9.88"/>
	<rect x="313.34" y="142.48" class="st0" width="11.92" height="9.88"/>
	<rect x="217.98" y="152.35" class="st0" width="11.92" height="9.88"/>
	<rect x="289.5" y="152.35" class="st0" width="11.92" height="9.88"/>
	<rect x="229.9" y="152.35" class="st0" width="11.92" height="9.88"/>
	<rect x="194.14" y="152.35" class="st0" width="11.92" height="9.88"/>
	<rect x="206.06" y="152.35" class="st0" width="11.92" height="9.88"/>
	<rect x="277.58" y="152.35" class="st0" width="11.92" height="9.88"/>
	<rect x="265.66" y="152.35" class="st0" width="11.92" height="9.88"/>
	<rect x="241.82" y="152.35" class="st0" width="11.92" height="9.88"/>
	<rect x="253.74" y="152.35" class="st0" width="11.92" height="9.88"/>
	<rect x="110.71" y="33.84" class="st0" width="11.92" height="9.88"/>
	<rect x="15.35" y="172.11" class="st0" width="11.92" height="9.88"/>
	<rect y="43.71" class="st0" width="3.43" height="9.88"/>
	<rect x="27.27" y="172.11" class="st0" width="11.92" height="9.88"/>
	<rect x="86.87" y="172.11" class="st0" width="11.92" height="9.88"/>
	<rect y="162.23" class="st0" width="3.43" height="9.88"/>
	<rect x="3.43" y="172.11" class="st0" width="11.92" height="9.88"/>
	<rect x="74.95" y="172.11" class="st0" width="11.92" height="9.88"/>
	<rect x="39.19" y="172.11" class="st0" width="11.92" height="9.88"/>
	<rect x="63.03" y="172.11" class="st0" width="11.92" height="9.88"/>
	<rect x="51.11" y="172.11" class="st0" width="11.92" height="9.88"/>
	<rect x="3.43" y="162.23" class="st0" width="11.92" height="9.88"/>
	<rect x="63.03" y="33.84" class="st0" width="11.92" height="9.88"/>
	<rect x="74.95" y="33.84" class="st0" width="11.92" height="9.88"/>
	<rect x="86.87" y="33.84" class="st0" width="11.92" height="9.88"/>
	<rect x="51.11" y="33.84" class="st0" width="11.92" height="9.88"/>
	<rect x="39.19" y="33.84" class="st0" width="11.92" height="9.88"/>
	<rect x="15.35" y="43.71" class="st0" width="11.92" height="9.88"/>
	<rect x="27.27" y="43.71" class="st0" width="11.92" height="9.88"/>
	<rect x="39.19" y="43.71" class="st0" width="11.92" height="9.88"/>
	<rect x="3.43" y="43.71" class="st0" width="11.92" height="9.88"/>
	<rect x="277.58" y="172.11" class="st0" width="11.92" height="9.88"/>
	<rect x="253.74" y="172.11" class="st0" width="11.92" height="9.88"/>
	<rect x="98.79" y="172.11" class="st0" width="11.92" height="9.88"/>
	<rect x="229.9" y="172.11" class="st0" width="11.92" height="9.88"/>
	<rect x="98.79" y="33.84" class="st0" width="11.92" height="9.88"/>
	<rect x="241.82" y="172.11" class="st0" width="11.92" height="9.88"/>
	<rect x="289.5" y="172.11" class="st0" width="11.92" height="9.88"/>
	<rect x="313.34" y="172.11" class="st0" width="11.92" height="9.88"/>
	<rect x="325.26" y="172.11" class="st0" width="11.92" height="9.88"/>
	<rect x="301.42" y="172.11" class="st0" width="11.92" height="9.88"/>
	<rect x="217.98" y="172.11" class="st0" width="11.92" height="9.88"/>
	<rect x="265.66" y="172.11" class="st0" width="11.92" height="9.88"/>
	<rect x="206.06" y="172.11" class="st0" width="11.92" height="9.88"/>
	<rect x="122.63" y="172.11" class="st0" width="11.92" height="9.88"/>
	<rect x="146.46" y="172.11" class="st0" width="11.92" height="9.88"/>
	<rect x="110.71" y="172.11" class="st0" width="11.92" height="9.88"/>
	<rect x="134.55" y="172.11" class="st0" width="11.92" height="9.88"/>
	<rect x="182.22" y="172.11" class="st0" width="11.92" height="9.88"/>
	<rect x="194.14" y="172.11" class="st0" width="11.92" height="9.88"/>
	<rect x="170.3" y="172.11" class="st0" width="11.92" height="9.88"/>
	<rect x="158.38" y="172.11" class="st0" width="11.92" height="9.88"/>
	<rect x="146.46" y="33.84" class="st0" width="11.92" height="9.88"/>
	<rect x="301.42" y="162.23" class="st0" width="11.92" height="9.88"/>
	<rect x="337.18" y="43.71" class="st0" width="11.92" height="9.88"/>
	<rect x="289.5" y="162.23" class="st0" width="11.92" height="9.88"/>
	<rect x="325.26" y="162.23" class="st0" width="11.92" height="9.88"/>
	<rect x="277.58" y="162.23" class="st0" width="11.92" height="9.88"/>
	<rect x="265.66" y="162.23" class="st0" width="11.92" height="9.88"/>
	<rect x="349.1" y="152.35" class="st0" width="3.46" height="9.88"/>
	<rect x="349.1" y="43.71" class="st0" width="3.46" height="9.88"/>
	<rect x="337.18" y="152.35" class="st0" width="11.92" height="9.88"/>
	<rect x="325.26" y="152.35" class="st0" width="11.92" height="9.88"/>
	<rect x="313.34" y="162.23" class="st0" width="11.92" height="9.88"/>
	<rect x="194.14" y="162.23" class="st0" width="11.92" height="9.88"/>
	<rect x="182.22" y="162.23" class="st0" width="11.92" height="9.88"/>
	<rect x="170.3" y="162.23" class="st0" width="11.92" height="9.88"/>
	<rect x="158.38" y="162.23" class="st0" width="11.92" height="9.88"/>
	<rect x="229.9" y="162.23" class="st0" width="11.92" height="9.88"/>
	<rect x="241.82" y="162.23" class="st0" width="11.92" height="9.88"/>
	<rect x="253.74" y="162.23" class="st0" width="11.92" height="9.88"/>
	<rect x="217.98" y="162.23" class="st0" width="11.92" height="9.88"/>
	<rect x="206.06" y="162.23" class="st0" width="11.92" height="9.88"/>
	<rect x="277.58" y="33.84" class="st0" width="11.92" height="9.88"/>
	<rect x="194.14" y="33.84" class="st0" width="11.92" height="9.88"/>
	<rect x="182.22" y="33.84" class="st0" width="11.92" height="9.88"/>
	<rect x="217.98" y="33.84" class="st0" width="11.92" height="9.88"/>
	<rect x="170.3" y="33.84" class="st0" width="11.92" height="9.88"/>
	<rect x="206.06" y="33.84" class="st0" width="11.92" height="9.88"/>
	<rect x="325.26" y="43.71" class="st0" width="11.92" height="9.88"/>
	<rect x="122.63" y="33.84" class="st0" width="11.92" height="9.88"/>
	<rect x="134.55" y="33.84" class="st0" width="11.92" height="9.88"/>
	<rect x="146.46" y="162.23" class="st0" width="11.92" height="9.88"/>
	<rect x="158.38" y="33.84" class="st0" width="11.92" height="9.88"/>
	<rect x="301.42" y="43.71" class="st0" width="11.92" height="9.88"/>
	<rect x="301.42" y="33.84" class="st0" width="11.92" height="9.88"/>
	<rect x="289.5" y="33.84" class="st0" width="11.92" height="9.88"/>
	<rect x="229.9" y="33.84" class="st0" width="11.92" height="9.88"/>
	<rect x="313.34" y="43.71" class="st0" width="11.92" height="9.88"/>
	<rect x="241.82" y="33.84" class="st0" width="11.92" height="9.88"/>
	<rect x="337.18" y="172.11" class="st0" width="11.92" height="9.88"/>
	<rect x="253.74" y="33.84" class="st0" width="11.92" height="9.88"/>
	<rect x="265.66" y="33.84" class="st0" width="11.92" height="9.88"/>
</g>
<rect x="11.76" y="4.45" class="st1" width="31.94" height="20.05"/>
<g class="st2">
	<path d="M14.98,13.66c-0.81,0.76-1.39,1.55-1.73,2.37c-0.15,0.34-0.3,0.6-0.46,0.78c-0.4-0.02-0.69-0.1-0.88-0.24
		c-0.19-0.14-0.28-0.37-0.28-0.69c0-0.28,0.12-0.63,0.37-1.05c0.24-0.42,0.85-1.07,1.81-1.96c0.15-0.14,0.27-0.25,0.37-0.36
		c-0.87-1.28-1.31-2.27-1.31-2.99c0-0.75,0.33-1.13,0.99-1.13c0.46,0,0.71,0.34,0.74,1.01c0.03,0.69,0.28,1.41,0.77,2.15
		c0.24-0.21,0.49-0.47,0.76-0.76c0.08-0.08,0.15-0.16,0.22-0.23c0.57-0.61,0.99-1.14,1.24-1.61c0.16-0.3,0.3-0.49,0.41-0.57
		s0.27-0.13,0.48-0.13c0.23,0,0.43,0.08,0.6,0.25s0.25,0.36,0.25,0.6c0,0.5-1.06,1.7-3.18,3.62c0.72,0.88,1.49,1.55,2.3,2
		c0.1,0.06,0.2,0.13,0.29,0.21c0.04,0.09,0.05,0.18,0.05,0.28c0,0.23-0.09,0.44-0.28,0.61c-0.19,0.18-0.41,0.26-0.68,0.26
		C17.15,16.1,16.21,15.29,14.98,13.66z"/>
	<path d="M21.06,13.25c0,0.15,0.02,0.31,0.07,0.47c0.04,0.16,0.07,0.36,0.1,0.57v-0.01l0.15,0.82c0.14,0.64,0.32,1.17,0.55,1.6
		c0.23,0.43,0.53,0.79,0.9,1.1c0.53,0.45,0.79,0.81,0.79,1.09c0,0.18-0.09,0.32-0.26,0.42s-0.39,0.16-0.65,0.16
		c-0.17,0-0.4-0.09-0.67-0.27c-0.27-0.18-0.61-0.53-1.01-1.05c-0.4-0.52-0.67-0.96-0.81-1.32s-0.28-0.94-0.43-1.76
		s-0.22-1.51-0.22-2.06c0-0.67,0.03-1.16,0.08-1.48s0.17-0.72,0.36-1.21c0.18-0.49,0.46-1.1,0.84-1.83c0.38-0.73,0.6-1.14,0.68-1.23
		c0.08-0.09,0.36-0.36,0.85-0.81l0.58-0.55c0.26-0.24,0.48-0.41,0.66-0.5s0.42-0.14,0.71-0.14c0.36,0,0.55,0.18,0.55,0.54
		c0,0.16-0.15,0.38-0.46,0.66c-0.54,0.51-1.02,1-1.44,1.48s-0.86,1.18-1.31,2.11s-0.68,1.78-0.68,2.54
		C20.99,12.74,21.01,12.95,21.06,13.25z"/>
	<path d="M31.38,15.01c-0.22-0.41-0.38-1.18-0.48-2.3c-0.1-1.17-0.32-1.75-0.67-1.75c-0.33,0-0.9,0.61-1.7,1.82
		c-0.81,1.21-1.3,2.11-1.49,2.69c-0.04,0.17-0.12,0.32-0.23,0.43s-0.22,0.17-0.33,0.17c-0.69,0-1.04-0.32-1.04-0.95
		c0-0.21,0.07-0.7,0.21-1.46c0.18-0.98,0.27-2.19,0.27-3.61c0-0.21,0.09-0.44,0.28-0.69C26.38,9.12,26.58,9,26.79,9
		c0.26,0,0.47,0.07,0.61,0.2s0.21,0.48,0.21,1.05c0,0.43-0.13,1.27-0.39,2.52c0.99-2.32,2.09-3.47,3.31-3.47
		c1.06,0,1.68,0.83,1.86,2.5c0.18,1.7,0.39,2.54,0.63,2.54c0.1,0,0.23-0.02,0.36-0.07c0.16-0.05,0.29-0.08,0.39-0.08
		c0.22,0,0.33,0.13,0.33,0.38c0,0.23-0.15,0.48-0.45,0.74c-0.3,0.26-0.68,0.39-1.13,0.39C31.98,15.7,31.61,15.47,31.38,15.01
		L31.38,15.01z"/>
	<path d="M35.52,19.48c-0.23,0-0.43-0.07-0.6-0.21s-0.25-0.28-0.25-0.43c0-0.21,0.28-0.66,0.84-1.36c0.37-0.44,0.73-1.12,1.09-2.04
		s0.54-1.49,0.54-1.71c0-0.77-0.06-1.5-0.18-2.19s-0.35-1.43-0.68-2.22c-0.33-0.79-0.61-1.37-0.84-1.74
		C35.21,7.2,34.8,6.74,34.21,6.2c-0.11-0.1-0.16-0.24-0.16-0.41c0-0.12,0.09-0.25,0.27-0.4c0.18-0.15,0.37-0.22,0.57-0.22
		c0.43,0,0.98,0.48,1.63,1.45c0.66,0.97,1.05,1.69,1.19,2.16c0.05,0.16,0.1,0.33,0.16,0.51c0.28,0.84,0.48,1.52,0.58,2.03
		c0.1,0.51,0.15,1.15,0.15,1.9c0,0.86-0.15,1.66-0.44,2.42c-0.29,0.76-0.63,1.39-0.99,1.88c-0.39,0.52-0.62,0.85-0.7,0.98
		c-0.19,0.38-0.35,0.64-0.48,0.77S35.7,19.48,35.52,19.48z"/>
</g>
<rect x="207.56" y="22.59" class="st1" width="24.76" height="19.72"/>
<g class="st2">
	<path d="M209.42,37.23c-0.35,0-0.61-0.07-0.78-0.21c-0.17-0.14-0.25-0.5-0.25-1.08c0-0.33,0.01-0.58,0.04-0.75s0.17-0.31,0.43-0.41
		s0.62-0.15,1.1-0.15c0.36,0,0.63,0.08,0.82,0.25c0.19,0.17,0.28,0.35,0.28,0.55c0,0.33-0.05,0.58-0.15,0.76s-0.33,0.39-0.67,0.66
		S209.62,37.23,209.42,37.23z"/>
	<path d="M213.9,37.23c-0.35,0-0.61-0.07-0.78-0.21c-0.17-0.14-0.25-0.5-0.25-1.08c0-0.33,0.01-0.58,0.04-0.75s0.17-0.31,0.43-0.41
		s0.62-0.15,1.1-0.15c0.36,0,0.63,0.08,0.82,0.25c0.19,0.17,0.28,0.35,0.28,0.55c0,0.33-0.05,0.58-0.15,0.76s-0.33,0.39-0.67,0.66
		S214.11,37.23,213.9,37.23z"/>
	<path d="M218.38,37.23c-0.35,0-0.61-0.07-0.78-0.21c-0.17-0.14-0.25-0.5-0.25-1.08c0-0.33,0.01-0.58,0.04-0.75s0.17-0.31,0.43-0.41
		s0.62-0.15,1.1-0.15c0.36,0,0.63,0.08,0.82,0.25c0.19,0.17,0.28,0.35,0.28,0.55c0,0.33-0.05,0.58-0.15,0.76s-0.33,0.39-0.67,0.66
		S218.59,37.23,218.38,37.23z"/>
</g>
<rect x="320.62" y="131.29" class="st1" width="31.94" height="20.05"/>
<g class="st2">
	<path d="M327.99,138.82c-0.07,1.11-0.2,2.18-0.39,3.22c-0.18,1.04-0.46,1.99-0.81,2.83c-0.36,0.85-0.74,1.42-1.16,1.73
		c-0.41,0.31-0.9,0.46-1.47,0.46c-0.61,0-1.2-0.12-1.76-0.35h0.01c-0.48-0.2-0.9-0.47-1.26-0.81c-0.36-0.34-0.54-0.62-0.54-0.85
		c0-0.21,0.05-0.38,0.16-0.51c0.11-0.13,0.25-0.19,0.42-0.19c0.15,0,0.28,0.06,0.38,0.19c0.58,0.75,1.43,1.13,2.54,1.13
		c0.45,0,0.89-0.47,1.31-1.42c0.42-0.94,0.68-2.08,0.79-3.4c-1.41,1.11-2.49,1.67-3.25,1.67c-0.49,0-0.88-0.2-1.17-0.59
		s-0.43-0.86-0.43-1.42s0.13-1.35,0.39-2.4c0.26-1.05,0.48-1.7,0.66-1.96c0.18-0.25,0.47-0.38,0.88-0.38c0.22,0,0.39,0.09,0.51,0.28
		c0.12,0.19,0.18,0.4,0.18,0.63c0,0.07-0.16,0.45-0.49,1.16c-0.4,0.86-0.6,1.59-0.6,2.21c0,0.32,0.04,0.56,0.13,0.73
		c0.09,0.17,0.18,0.25,0.28,0.25c0.22,0,0.48-0.07,0.8-0.2c0.31-0.13,0.68-0.36,1.1-0.69c0.42-0.33,0.69-0.57,0.82-0.74
		s0.22-0.39,0.29-0.65c0.07-0.27,0.13-0.85,0.17-1.76c0.02-0.53,0.05-0.86,0.08-1c0.03-0.14,0.11-0.26,0.24-0.38
		c0.13-0.11,0.31-0.17,0.53-0.17c0.3,0,0.51,0.06,0.64,0.19c0.13,0.13,0.19,0.43,0.19,0.9L327.99,138.82z"/>
	<path d="M330.65,140.09c0,0.15,0.02,0.31,0.07,0.47c0.04,0.16,0.07,0.36,0.1,0.57v-0.01l0.15,0.82c0.14,0.64,0.32,1.17,0.55,1.6
		c0.23,0.43,0.53,0.79,0.9,1.1c0.53,0.45,0.79,0.81,0.79,1.09c0,0.18-0.09,0.32-0.26,0.42c-0.17,0.1-0.39,0.16-0.65,0.16
		c-0.17,0-0.4-0.09-0.67-0.27c-0.27-0.18-0.61-0.53-1.01-1.05c-0.4-0.52-0.67-0.96-0.81-1.32c-0.14-0.36-0.28-0.94-0.43-1.76
		c-0.15-0.82-0.22-1.51-0.22-2.06c0-0.67,0.03-1.16,0.08-1.48s0.17-0.72,0.36-1.21c0.18-0.49,0.46-1.1,0.84-1.83
		c0.38-0.73,0.6-1.14,0.68-1.23c0.08-0.09,0.36-0.36,0.85-0.81l0.58-0.55c0.26-0.24,0.48-0.41,0.66-0.5
		c0.19-0.09,0.42-0.14,0.71-0.14c0.37,0,0.55,0.18,0.55,0.54c0,0.16-0.15,0.38-0.46,0.66c-0.54,0.51-1.02,1-1.44,1.48
		c-0.42,0.47-0.86,1.18-1.31,2.11c-0.45,0.93-0.68,1.78-0.68,2.54C330.59,139.58,330.61,139.79,330.65,140.09z"/>
	<path d="M340.98,141.85c-0.22-0.41-0.38-1.18-0.48-2.3c-0.1-1.17-0.32-1.75-0.67-1.75c-0.33,0-0.9,0.61-1.7,1.82
		c-0.81,1.21-1.3,2.11-1.49,2.69c-0.04,0.17-0.12,0.32-0.23,0.43c-0.11,0.11-0.22,0.17-0.33,0.17c-0.69,0-1.04-0.32-1.04-0.95
		c0-0.21,0.07-0.7,0.21-1.46c0.18-0.98,0.27-2.19,0.27-3.61c0-0.21,0.09-0.44,0.28-0.69c0.19-0.24,0.39-0.37,0.59-0.37
		c0.26,0,0.47,0.07,0.61,0.2c0.14,0.13,0.21,0.48,0.21,1.05c0,0.43-0.13,1.27-0.39,2.52c0.99-2.32,2.09-3.47,3.31-3.47
		c1.06,0,1.68,0.83,1.86,2.5c0.18,1.7,0.39,2.54,0.63,2.54c0.11,0,0.23-0.02,0.36-0.07c0.16-0.05,0.29-0.08,0.39-0.08
		c0.22,0,0.33,0.13,0.33,0.38c0,0.23-0.15,0.48-0.45,0.74c-0.3,0.26-0.68,0.39-1.13,0.39C341.58,142.54,341.2,142.31,340.98,141.85
		L340.98,141.85z"/>
	<path d="M345.12,146.32c-0.23,0-0.43-0.07-0.6-0.21c-0.17-0.14-0.25-0.28-0.25-0.43c0-0.21,0.28-0.66,0.84-1.36
		c0.37-0.44,0.73-1.12,1.09-2.04c0.36-0.92,0.54-1.49,0.54-1.71c0-0.77-0.06-1.5-0.18-2.19c-0.12-0.69-0.35-1.43-0.68-2.22
		c-0.33-0.79-0.61-1.37-0.84-1.74c-0.23-0.37-0.63-0.83-1.23-1.37c-0.11-0.1-0.16-0.24-0.16-0.41c0-0.12,0.09-0.25,0.27-0.4
		c0.18-0.15,0.37-0.22,0.57-0.22c0.43,0,0.98,0.48,1.63,1.45c0.66,0.97,1.05,1.69,1.19,2.16c0.05,0.16,0.1,0.33,0.16,0.51
		c0.28,0.84,0.48,1.52,0.58,2.03c0.1,0.51,0.15,1.15,0.15,1.9c0,0.86-0.15,1.66-0.44,2.42c-0.29,0.76-0.63,1.39-1,1.88
		c-0.39,0.52-0.62,0.85-0.7,0.98c-0.19,0.38-0.35,0.64-0.48,0.77C345.45,146.26,345.29,146.32,345.12,146.32z"/>
</g>
<rect x="95.16" y="54.19" class="st1" width="17.44" height="15.22"/>
<g class="st2">
	<path d="M96.41,58.41c0.38-2.25,0.65-3.58,0.82-3.99s0.46-0.62,0.87-0.62c0.32,0,0.48,0.28,0.48,0.85c0,0.39-0.16,1.19-0.48,2.41
		c-0.17,0.6-0.37,1.51-0.61,2.73c0.48-0.64,1.01-1.17,1.58-1.56s1.08-0.6,1.53-0.6c0.37,0,0.67,0.16,0.92,0.47s0.37,0.68,0.37,1.11
		c0,1.2-0.46,2.33-1.39,3.39s-1.91,1.59-2.94,1.59c-0.31,0-0.6-0.08-0.87-0.25s-0.42-0.39-0.46-0.65c-0.02-0.14-0.04-0.24-0.09-0.29
		s-0.09-0.1-0.13-0.15c-0.11-0.12-0.17-0.28-0.17-0.49c0-0.24,0.06-0.75,0.18-1.51L96.41,58.41z M97.1,62.57
		c0.16,0.27,0.35,0.41,0.55,0.41c0.37,0,0.77-0.17,1.22-0.51s0.84-0.81,1.17-1.43s0.5-1.12,0.5-1.53c0-0.39-0.06-0.58-0.18-0.58
		c-0.62,0-1.32,0.45-2.09,1.36S97.1,61.97,97.1,62.57z"/>
</g>
<g class="st2">
	<path d="M105.21,67.64l0.01,0.13c0.01,0.18-0.18,0.27-0.58,0.27c-0.08,0-0.15-0.05-0.23-0.16c-0.01-0.02-0.02-0.03-0.03-0.03
		c-0.04,0-0.22,0.05-0.54,0.15c-0.07,0.02-0.12,0.04-0.15,0.04c-0.26,0.08-0.46,0.13-0.59,0.13c-0.14,0-0.25-0.04-0.34-0.12
		s-0.13-0.16-0.13-0.24c0-0.11,0.07-0.2,0.2-0.27c0.13-0.07,0.37-0.14,0.72-0.2c0.37-0.07,0.61-0.13,0.72-0.18
		c0.01-0.12,0.02-0.24,0.03-0.36c0.02-0.39,0.14-1.19,0.36-2.4c-0.02,0-0.21,0.11-0.58,0.32c-0.33,0.19-0.64,0.29-0.93,0.29
		c-0.19,0-0.28-0.08-0.28-0.24c0-0.1,0.03-0.18,0.09-0.23c0.06-0.05,0.18-0.12,0.35-0.19c0.2-0.08,0.47-0.21,0.78-0.39l0.51-0.29
		c0.31-0.2,0.51-0.3,0.6-0.3c0.13,0,0.22,0.06,0.29,0.18c0.07,0.12,0.1,0.23,0.1,0.31c0,0.07-0.03,0.15-0.1,0.22
		c-0.16,0.7-0.27,1.26-0.32,1.68s-0.08,0.83-0.08,1.23c0.13-0.02,0.42-0.08,0.88-0.2c0.28-0.07,0.56-0.11,0.85-0.11
		c0.08,0.16,0.12,0.27,0.12,0.32c0,0.08-0.02,0.14-0.05,0.19c-0.04,0.05-0.13,0.09-0.27,0.14c-0.14,0.05-0.38,0.09-0.71,0.14
		C105.58,67.54,105.34,67.59,105.21,67.64z"/>
</g>
<rect x="26.26" y="54.19" class="st1" width="17.44" height="15.22"/>
<g class="st2">
	<path d="M27.5,58.41c0.38-2.25,0.65-3.58,0.82-3.99s0.46-0.62,0.87-0.62c0.32,0,0.48,0.28,0.48,0.85c0,0.39-0.16,1.19-0.48,2.41
		c-0.17,0.6-0.37,1.51-0.61,2.73c0.48-0.64,1.01-1.17,1.58-1.56s1.08-0.6,1.53-0.6c0.37,0,0.67,0.16,0.92,0.47s0.37,0.68,0.37,1.11
		c0,1.2-0.46,2.33-1.39,3.39s-1.91,1.59-2.94,1.59c-0.31,0-0.6-0.08-0.87-0.25s-0.42-0.39-0.46-0.65c-0.02-0.14-0.04-0.24-0.09-0.29
		s-0.09-0.1-0.13-0.15c-0.11-0.12-0.17-0.28-0.17-0.49c0-0.24,0.06-0.75,0.18-1.51L27.5,58.41z M28.19,62.57
		c0.16,0.27,0.35,0.41,0.55,0.41c0.37,0,0.77-0.17,1.22-0.51s0.84-0.81,1.17-1.43s0.5-1.12,0.5-1.53c0-0.39-0.06-0.58-0.18-0.58
		c-0.62,0-1.32,0.45-2.09,1.36S28.19,61.97,28.19,62.57z"/>
</g>
<g class="st2">
	<path d="M34.47,68.18c-0.38,0-0.67-0.13-0.89-0.38c-0.22-0.25-0.33-0.57-0.33-0.97c0-0.45,0.13-0.94,0.4-1.47
		c0.27-0.53,0.67-0.98,1.2-1.33s1.01-0.53,1.43-0.53c0.32,0,0.66,0.11,1.02,0.33c0.36,0.22,0.61,0.45,0.73,0.69
		c0.12,0.24,0.18,0.55,0.18,0.93c0,0.6-0.39,1.21-1.17,1.82C36.27,67.87,35.41,68.18,34.47,68.18z M36.8,64.37
		c-0.06,0.04-0.15,0.06-0.25,0.06c-0.03,0-0.08-0.02-0.16-0.08c-0.08-0.05-0.13-0.07-0.16-0.07c-0.23,0-0.43,0.04-0.58,0.13
		c-0.15,0.08-0.35,0.24-0.59,0.48c-0.24,0.23-0.46,0.51-0.64,0.82c-0.18,0.31-0.27,0.63-0.27,0.97c0,0.13,0.02,0.26,0.05,0.38
		c0.03,0.12,0.07,0.2,0.11,0.23c0.04,0.04,0.12,0.07,0.22,0.11s0.22,0.06,0.35,0.06c0.25,0,0.58-0.12,0.99-0.35
		c0.41-0.23,0.77-0.5,1.08-0.81s0.46-0.55,0.46-0.74c0-0.1-0.02-0.24-0.06-0.39c-0.04-0.16-0.07-0.26-0.1-0.31
		c-0.03-0.05-0.1-0.13-0.21-0.24C36.93,64.49,36.85,64.41,36.8,64.37z"/>
</g>
<rect x="164.9" y="54.19" class="st1" width="17.44" height="15.22"/>
<g class="st2">
	<path d="M166.15,58.41c0.38-2.25,0.65-3.58,0.82-3.99s0.46-0.62,0.87-0.62c0.32,0,0.48,0.28,0.48,0.85c0,0.39-0.16,1.19-0.48,2.41
		c-0.17,0.6-0.37,1.51-0.61,2.73c0.48-0.64,1.01-1.17,1.58-1.56s1.08-0.6,1.53-0.6c0.37,0,0.67,0.16,0.92,0.47s0.37,0.68,0.37,1.11
		c0,1.2-0.46,2.33-1.39,3.39s-1.91,1.59-2.94,1.59c-0.31,0-0.6-0.08-0.87-0.25s-0.42-0.39-0.46-0.65c-0.02-0.14-0.04-0.24-0.09-0.29
		s-0.09-0.1-0.13-0.15c-0.11-0.12-0.17-0.28-0.17-0.49c0-0.24,0.06-0.75,0.18-1.51L166.15,58.41z M166.84,62.57
		c0.16,0.27,0.35,0.41,0.55,0.41c0.37,0,0.77-0.17,1.22-0.51s0.84-0.81,1.17-1.43s0.5-1.12,0.5-1.53c0-0.39-0.06-0.58-0.18-0.58
		c-0.62,0-1.32,0.45-2.09,1.36S166.84,61.97,166.84,62.57z"/>
</g>
<g class="st2">
	<path d="M173.7,67.29c0.27-0.07,0.69-0.1,1.26-0.1c0.1,0,0.28,0.02,0.54,0.05c0.25,0.03,0.42,0.05,0.51,0.05
		c0.08,0,0.17-0.02,0.26-0.06c0.1-0.04,0.2-0.06,0.3-0.06c0.08,0,0.15,0.04,0.23,0.12c0.07,0.08,0.11,0.15,0.11,0.21
		c0,0.18-0.1,0.32-0.3,0.41c-0.2,0.09-0.39,0.14-0.58,0.14c-0.24,0-0.41-0.01-0.5-0.04c-0.32-0.09-0.75-0.14-1.27-0.14
		c-0.25,0-0.48,0.02-0.69,0.06c-0.21,0.04-0.37,0.08-0.46,0.13s-0.19,0.12-0.27,0.22c-0.1,0.12-0.24,0.18-0.4,0.18
		c-0.26,0-0.39-0.11-0.39-0.32c0-0.19,0.07-0.37,0.2-0.54c0.13-0.17,0.39-0.37,0.78-0.6c0.52-0.3,0.92-0.57,1.21-0.8
		c0.29-0.24,0.52-0.49,0.71-0.76s0.27-0.47,0.27-0.62c0-0.17-0.06-0.31-0.19-0.43c-0.13-0.12-0.29-0.18-0.49-0.18
		c-0.09,0-0.26,0.07-0.5,0.22s-0.44,0.31-0.6,0.49c-0.1,0.12-0.27,0.18-0.49,0.18c-0.09,0-0.16-0.06-0.23-0.17
		c-0.07-0.11-0.1-0.21-0.1-0.3c0-0.1,0.09-0.21,0.27-0.32c0.06-0.04,0.12-0.08,0.2-0.14c0.38-0.27,0.68-0.46,0.89-0.55
		c0.21-0.09,0.49-0.14,0.84-0.14c0.31,0,0.6,0.13,0.88,0.4c0.28,0.27,0.42,0.55,0.42,0.84c0,0.39-0.22,0.83-0.67,1.33
		C174.97,66.53,174.4,66.95,173.7,67.29z"/>
</g>
<rect x="259.03" y="54.19" class="st1" width="17.44" height="15.22"/>
<g class="st2">
	<path d="M260.28,58.41c0.38-2.25,0.65-3.58,0.82-3.99s0.46-0.62,0.87-0.62c0.32,0,0.48,0.28,0.48,0.85c0,0.39-0.16,1.19-0.48,2.41
		c-0.17,0.6-0.37,1.51-0.61,2.73c0.48-0.64,1.01-1.17,1.58-1.56s1.08-0.6,1.53-0.6c0.37,0,0.67,0.16,0.92,0.47s0.37,0.68,0.37,1.11
		c0,1.2-0.46,2.33-1.39,3.39s-1.91,1.59-2.94,1.59c-0.31,0-0.6-0.08-0.87-0.25s-0.42-0.39-0.46-0.65c-0.02-0.14-0.04-0.24-0.09-0.29
		s-0.09-0.1-0.13-0.15c-0.11-0.12-0.17-0.28-0.17-0.49c0-0.24,0.06-0.75,0.18-1.51L260.28,58.41z M260.97,62.57
		c0.16,0.27,0.35,0.41,0.55,0.41c0.37,0,0.77-0.17,1.22-0.51s0.84-0.81,1.17-1.43s0.5-1.12,0.5-1.53c0-0.39-0.06-0.58-0.18-0.58
		c-0.62,0-1.32,0.45-2.09,1.36S260.97,61.97,260.97,62.57z"/>
</g>
<g class="st2">
	<path d="M271.29,64.34l-1.14,1.54c-0.53,0.74-0.93,1.1-1.21,1.1c-0.13,0-0.25-0.08-0.35-0.23s-0.21-0.38-0.31-0.69
		c-0.11-0.31-0.18-0.54-0.23-0.7c-0.1-0.37-0.16-0.58-0.2-0.63l-0.17,0.89c-0.05,0.29-0.11,0.55-0.17,0.79
		c-0.06,0.24-0.12,0.53-0.19,0.87s-0.11,0.59-0.12,0.76c-0.01,0.06-0.06,0.12-0.16,0.18s-0.18,0.1-0.24,0.1
		c-0.11,0-0.21-0.05-0.31-0.15c-0.09-0.1-0.14-0.2-0.14-0.29c0-0.22,0.04-0.5,0.14-0.83c0.38-1.38,0.59-2.25,0.64-2.61
		c0.05-0.36,0.08-0.65,0.08-0.89c0-0.12,0.05-0.22,0.16-0.28c0.11-0.07,0.25-0.1,0.42-0.1c0.09,0,0.19,0.06,0.28,0.18
		c0.09,0.12,0.16,0.24,0.18,0.34l0-0.01l0.47,1.33c0.19,0.53,0.32,0.87,0.38,1.01c0.25-0.27,0.61-0.73,1.09-1.39
		c0.48-0.66,0.81-1.08,0.99-1.27c0.18-0.19,0.3-0.28,0.38-0.28c0.11,0,0.24,0.05,0.37,0.14s0.21,0.17,0.21,0.24
		c0,0.05-0.04,0.39-0.13,1.03c-0.06,0.45-0.12,0.95-0.17,1.51c-0.05,0.56-0.07,0.88-0.07,0.98c0,0.12,0.02,0.25,0.05,0.38
		c0.02,0.1,0.04,0.19,0.04,0.28c0,0.23-0.04,0.38-0.12,0.46s-0.2,0.12-0.36,0.12c-0.3,0-0.45-0.22-0.45-0.67
		c0-0.42,0.04-0.94,0.12-1.55s0.15-1.08,0.21-1.41C271.27,64.46,271.29,64.38,271.29,64.34z"/>
</g>
<g>
	<g>
		<rect x="68.45" y="6.88" class="st3" width="35.43" height="35.43"/>
		<rect x="78.44" y="17.18" class="st1" width="24.76" height="19.72"/>
		<g class="st2">
			<path d="M88.64,20.04c-0.01,0.03-0.05,0.07-0.11,0.11c-0.14,0.09-0.27,0.19-0.41,0.3s-0.47,0.48-1,1.12
				c-0.68,0.81-1.3,1.51-1.86,2.09s-1.51,1.53-2.86,2.83l-0.71,0.69c0.43-0.04,0.98-0.09,1.65-0.16c0.96-0.1,1.49-0.16,1.6-0.16
				c0.33,0,0.6-0.01,0.81-0.03c0.21-0.01,0.4-0.02,0.57-0.02c1.32,0,1.98,0.32,1.98,0.96c0,0.26-0.07,0.46-0.2,0.61
				c-0.13,0.15-0.32,0.22-0.54,0.22c-0.18,0-0.4-0.03-0.64-0.1c-0.39-0.1-0.89-0.16-1.49-0.16c-0.23,0-0.9,0.04-2,0.11h0.01
				c-1.13,0.06-1.87,0.12-2.22,0.16s-0.76,0.12-1.22,0.25c-0.36,0.1-0.58,0.15-0.68,0.15c-0.46,0-0.68-0.23-0.68-0.68
				c0-0.36,0.12-0.64,0.37-0.82c0.61-0.45,1.39-1.14,2.37-2.05c0.97-0.92,1.88-1.83,2.74-2.72c0.14-0.15,0.3-0.31,0.49-0.5
				c0.76-0.76,1.31-1.35,1.65-1.78c-0.07,0-0.9,0.09-2.48,0.27c-1,0.12-1.75,0.18-2.26,0.18c-0.31,0-0.63-0.04-0.96-0.12
				c-0.48-0.21-0.72-0.48-0.72-0.81c0-0.15,0.09-0.32,0.28-0.52s0.34-0.29,0.46-0.29c0.09,0,0.2,0.03,0.34,0.08
				c0.14,0.05,0.25,0.08,0.32,0.08l1.26,0.01c0.35,0,0.73-0.01,1.14-0.05c0.31-0.03,0.79-0.06,1.46-0.09
				c0.75-0.04,1.27-0.08,1.54-0.13c0.84-0.14,1.37-0.21,1.59-0.21c0.38,0,0.57,0.2,0.57,0.61C88.79,19.7,88.74,19.89,88.64,20.04z"
				/>
		</g>
		<g class="st2">
			<path d="M91.46,21.36c0.61,0,1.05-0.02,1.32-0.05c0.11-0.02,0.23-0.02,0.35-0.02c0.06,0,0.18,0.03,0.37,0.1
				c0.19,0.07,0.3,0.14,0.33,0.21c0.04,0.07,0.06,0.14,0.06,0.2c0,0.25-0.15,0.37-0.46,0.37c-0.03,0-0.17-0.03-0.39-0.08
				c-0.05-0.01-0.08-0.02-0.1-0.02l-0.36,0.02c-0.06,0-0.26-0.01-0.61-0.04c-0.11-0.01-0.44,0-0.99,0.03
				c-0.31,0.02-0.52,0-0.63-0.05c-0.11-0.05-0.16-0.14-0.16-0.28c0-0.14,0.1-0.25,0.29-0.32c0.19-0.07,0.42-0.11,0.7-0.11
				C91.24,21.31,91.33,21.33,91.46,21.36z"/>
			<path d="M98.22,23.55l0.01,0.16c0.02,0.21-0.21,0.31-0.67,0.31c-0.09,0-0.18-0.06-0.26-0.19c-0.02-0.02-0.03-0.04-0.04-0.04
				c-0.05,0-0.26,0.06-0.63,0.18c-0.08,0.03-0.13,0.04-0.17,0.05c-0.31,0.1-0.54,0.15-0.69,0.15c-0.16,0-0.29-0.05-0.39-0.14
				c-0.1-0.09-0.15-0.19-0.15-0.28c0-0.13,0.08-0.24,0.23-0.32c0.15-0.08,0.44-0.16,0.84-0.23c0.43-0.08,0.71-0.15,0.84-0.21
				c0.01-0.14,0.02-0.28,0.03-0.42c0.03-0.46,0.16-1.39,0.41-2.79c-0.02,0.01-0.25,0.13-0.67,0.38c-0.39,0.23-0.75,0.34-1.08,0.34
				c-0.22,0-0.33-0.09-0.33-0.28c0-0.12,0.04-0.21,0.11-0.27c0.07-0.06,0.21-0.13,0.41-0.22c0.24-0.1,0.54-0.25,0.91-0.46l0.59-0.34
				c0.36-0.23,0.6-0.35,0.7-0.35c0.15,0,0.26,0.07,0.33,0.21c0.08,0.14,0.12,0.26,0.12,0.37c0,0.08-0.04,0.17-0.12,0.26
				c-0.19,0.82-0.32,1.47-0.38,1.96c-0.06,0.49-0.09,0.97-0.09,1.44c0.15-0.02,0.49-0.1,1.03-0.23c0.32-0.08,0.66-0.12,1-0.12
				c0.09,0.19,0.14,0.31,0.14,0.37c0,0.09-0.02,0.17-0.06,0.22s-0.15,0.11-0.31,0.16c-0.16,0.05-0.44,0.11-0.83,0.16
				C98.65,23.43,98.37,23.49,98.22,23.55z"/>
		</g>
	</g>
	<g>
		<rect x="144.89" y="6.88" class="st3" width="35.43" height="35.43"/>
		<rect x="154.87" y="17.18" class="st1" width="24.76" height="19.72"/>
		<g class="st2">
			<path d="M165.08,20.04c-0.01,0.03-0.05,0.07-0.11,0.11c-0.14,0.09-0.27,0.19-0.41,0.3s-0.47,0.48-1,1.12
				c-0.68,0.81-1.3,1.51-1.86,2.09s-1.51,1.53-2.86,2.83l-0.71,0.69c0.43-0.04,0.98-0.09,1.65-0.16c0.96-0.1,1.49-0.16,1.6-0.16
				c0.33,0,0.6-0.01,0.81-0.03c0.21-0.01,0.4-0.02,0.57-0.02c1.32,0,1.98,0.32,1.98,0.96c0,0.26-0.07,0.46-0.2,0.61
				c-0.13,0.15-0.32,0.22-0.54,0.22c-0.18,0-0.4-0.03-0.64-0.1c-0.39-0.1-0.89-0.16-1.49-0.16c-0.23,0-0.9,0.04-2,0.11h0.01
				c-1.13,0.06-1.87,0.12-2.22,0.16s-0.76,0.12-1.22,0.25c-0.36,0.1-0.58,0.15-0.68,0.15c-0.46,0-0.68-0.23-0.68-0.68
				c0-0.36,0.12-0.64,0.37-0.82c0.61-0.45,1.39-1.14,2.37-2.05c0.97-0.92,1.88-1.83,2.74-2.72c0.14-0.15,0.3-0.31,0.49-0.5
				c0.76-0.76,1.31-1.35,1.65-1.78c-0.07,0-0.9,0.09-2.48,0.27c-1,0.12-1.75,0.18-2.26,0.18c-0.31,0-0.63-0.04-0.96-0.12
				c-0.48-0.21-0.72-0.48-0.72-0.81c0-0.15,0.09-0.32,0.28-0.52s0.34-0.29,0.46-0.29c0.09,0,0.2,0.03,0.34,0.08
				c0.14,0.05,0.25,0.08,0.32,0.08l1.26,0.01c0.35,0,0.73-0.01,1.14-0.05c0.31-0.03,0.79-0.06,1.46-0.09
				c0.75-0.04,1.27-0.08,1.54-0.13c0.84-0.14,1.37-0.21,1.59-0.21c0.38,0,0.57,0.2,0.57,0.61C165.23,19.7,165.18,19.89,165.08,20.04
				z"/>
		</g>
		<g class="st2">
			<path d="M167.9,21.36c0.61,0,1.05-0.02,1.32-0.05c0.11-0.02,0.23-0.02,0.35-0.02c0.06,0,0.18,0.03,0.37,0.1
				c0.19,0.07,0.3,0.14,0.33,0.21c0.04,0.07,0.06,0.14,0.06,0.2c0,0.25-0.15,0.37-0.46,0.37c-0.03,0-0.17-0.03-0.39-0.08
				c-0.05-0.01-0.08-0.02-0.1-0.02l-0.36,0.02c-0.06,0-0.26-0.01-0.61-0.04c-0.11-0.01-0.44,0-0.99,0.03
				c-0.31,0.02-0.52,0-0.63-0.05c-0.11-0.05-0.16-0.14-0.16-0.28c0-0.14,0.1-0.25,0.29-0.32c0.19-0.07,0.42-0.11,0.7-0.11
				C167.67,21.31,167.77,21.33,167.9,21.36z"/>
			<path d="M174.65,23.55l0.01,0.16c0.02,0.21-0.21,0.31-0.67,0.31c-0.09,0-0.18-0.06-0.26-0.19c-0.02-0.02-0.03-0.04-0.04-0.04
				c-0.05,0-0.26,0.06-0.63,0.18c-0.08,0.03-0.13,0.04-0.17,0.05c-0.31,0.1-0.54,0.15-0.69,0.15c-0.16,0-0.29-0.05-0.39-0.14
				c-0.1-0.09-0.15-0.19-0.15-0.28c0-0.13,0.08-0.24,0.23-0.32c0.15-0.08,0.44-0.16,0.84-0.23c0.43-0.08,0.71-0.15,0.84-0.21
				c0.01-0.14,0.02-0.28,0.03-0.42c0.03-0.46,0.16-1.39,0.41-2.79c-0.02,0.01-0.25,0.13-0.67,0.38c-0.39,0.23-0.75,0.34-1.08,0.34
				c-0.22,0-0.33-0.09-0.33-0.28c0-0.12,0.04-0.21,0.11-0.27c0.07-0.06,0.21-0.13,0.41-0.22c0.24-0.1,0.54-0.25,0.91-0.46l0.59-0.34
				c0.36-0.23,0.6-0.35,0.7-0.35c0.15,0,0.26,0.07,0.33,0.21c0.08,0.14,0.12,0.26,0.12,0.37c0,0.08-0.04,0.17-0.12,0.26
				c-0.19,0.82-0.32,1.47-0.38,1.96c-0.06,0.49-0.09,0.97-0.09,1.44c0.15-0.02,0.49-0.1,1.03-0.23c0.32-0.08,0.66-0.12,1-0.12
				c0.09,0.19,0.14,0.31,0.14,0.37c0,0.09-0.02,0.17-0.06,0.22s-0.15,0.11-0.31,0.16c-0.16,0.05-0.44,0.11-0.83,0.16
				C175.08,23.43,174.8,23.49,174.65,23.55z"/>
		</g>
	</g>
	<g>
		<rect x="232.32" y="6.88" class="st3" width="35.43" height="35.43"/>
		<rect x="242.3" y="17.18" class="st1" width="24.76" height="19.72"/>
		<g class="st2">
			<path d="M252.51,20.04c-0.01,0.03-0.05,0.07-0.11,0.11c-0.14,0.09-0.27,0.19-0.41,0.3c-0.13,0.11-0.47,0.48-1,1.12
				c-0.68,0.81-1.3,1.51-1.86,2.09s-1.51,1.53-2.86,2.83l-0.71,0.69c0.43-0.04,0.98-0.09,1.65-0.16c0.96-0.1,1.49-0.16,1.6-0.16
				c0.33,0,0.6-0.01,0.81-0.03c0.21-0.01,0.4-0.02,0.57-0.02c1.32,0,1.98,0.32,1.98,0.96c0,0.26-0.07,0.46-0.2,0.61
				c-0.13,0.15-0.32,0.22-0.54,0.22c-0.18,0-0.4-0.03-0.64-0.1c-0.39-0.1-0.89-0.16-1.49-0.16c-0.23,0-0.9,0.04-2,0.11h0.01
				c-1.13,0.06-1.87,0.12-2.22,0.16s-0.76,0.12-1.22,0.25c-0.36,0.1-0.58,0.15-0.68,0.15c-0.46,0-0.68-0.23-0.68-0.68
				c0-0.36,0.12-0.64,0.37-0.82c0.61-0.45,1.39-1.14,2.37-2.05c0.97-0.92,1.88-1.83,2.74-2.72c0.14-0.15,0.3-0.31,0.49-0.5
				c0.76-0.76,1.31-1.35,1.65-1.78c-0.07,0-0.9,0.09-2.48,0.27c-1,0.12-1.75,0.18-2.26,0.18c-0.31,0-0.63-0.04-0.96-0.12
				c-0.48-0.21-0.72-0.48-0.72-0.81c0-0.15,0.09-0.32,0.28-0.52c0.19-0.2,0.34-0.29,0.46-0.29c0.09,0,0.2,0.03,0.34,0.08
				c0.14,0.05,0.25,0.08,0.32,0.08l1.26,0.01c0.35,0,0.73-0.01,1.14-0.05c0.3-0.03,0.79-0.06,1.46-0.09
				c0.75-0.04,1.27-0.08,1.54-0.13c0.84-0.14,1.37-0.21,1.59-0.21c0.38,0,0.57,0.2,0.57,0.61C252.66,19.7,252.61,19.89,252.51,20.04
				z"/>
		</g>
		<g class="st2">
			<path d="M255.33,21.36c0.61,0,1.05-0.02,1.32-0.05c0.11-0.02,0.23-0.02,0.36-0.02c0.06,0,0.18,0.03,0.37,0.1
				c0.19,0.07,0.3,0.14,0.33,0.21s0.06,0.14,0.06,0.2c0,0.25-0.15,0.37-0.46,0.37c-0.04,0-0.17-0.03-0.39-0.08
				c-0.05-0.01-0.08-0.02-0.1-0.02l-0.36,0.02c-0.06,0-0.26-0.01-0.61-0.04c-0.11-0.01-0.44,0-0.99,0.03
				c-0.31,0.02-0.52,0-0.63-0.05c-0.11-0.05-0.16-0.14-0.16-0.28c0-0.14,0.1-0.25,0.29-0.32c0.19-0.07,0.42-0.11,0.7-0.11
				C255.11,21.31,255.2,21.33,255.33,21.36z"/>
			<path d="M262.08,23.55l0.01,0.16c0.02,0.21-0.21,0.31-0.67,0.31c-0.09,0-0.18-0.06-0.26-0.19c-0.02-0.02-0.03-0.04-0.04-0.04
				c-0.05,0-0.26,0.06-0.63,0.18c-0.08,0.03-0.13,0.04-0.17,0.05c-0.31,0.1-0.54,0.15-0.69,0.15c-0.16,0-0.29-0.05-0.39-0.14
				c-0.1-0.09-0.15-0.19-0.15-0.28c0-0.13,0.08-0.24,0.23-0.32c0.15-0.08,0.44-0.16,0.85-0.23c0.43-0.08,0.71-0.15,0.84-0.21
				c0.01-0.14,0.02-0.28,0.03-0.42c0.03-0.46,0.16-1.39,0.41-2.79c-0.02,0.01-0.25,0.13-0.67,0.38c-0.39,0.23-0.75,0.34-1.08,0.34
				c-0.22,0-0.33-0.09-0.33-0.28c0-0.12,0.04-0.21,0.11-0.27c0.07-0.06,0.21-0.13,0.41-0.22c0.24-0.1,0.54-0.25,0.91-0.46l0.59-0.34
				c0.37-0.23,0.6-0.35,0.7-0.35c0.15,0,0.26,0.07,0.33,0.21c0.08,0.14,0.12,0.26,0.12,0.37c0,0.08-0.04,0.17-0.12,0.26
				c-0.19,0.82-0.32,1.47-0.38,1.96c-0.06,0.49-0.09,0.97-0.09,1.44c0.15-0.02,0.49-0.1,1.03-0.23c0.32-0.08,0.66-0.12,1-0.12
				c0.09,0.19,0.14,0.31,0.14,0.37c0,0.09-0.02,0.17-0.06,0.22s-0.15,0.11-0.31,0.16c-0.16,0.05-0.44,0.11-0.83,0.16
				C262.52,23.43,262.24,23.49,262.08,23.55z"/>
		</g>
	</g>
</g>
<g>
	<g>
		<line class="st4" x1="99.34" y1="74.63" x2="141.86" y2="74.63"/>
		<polyline class="st4" points="100.05,74.92 120.6,95.49 141.15,74.93 		"/>
	</g>
	<g>
		<line class="st4" x1="30.17" y1="74.77" x2="72.69" y2="74.77"/>
		<polyline class="st4" points="30.89,75.06 51.43,95.63 71.99,75.08 		"/>
	</g>
	<g>
		<line class="st4" x1="168.5" y1="74.77" x2="211.02" y2="74.77"/>
		<polyline class="st4" points="169.22,75.06 189.76,95.63 210.32,75.08 		"/>
	</g>
	<g>
		<line class="st4" x1="264.18" y1="74.2" x2="306.7" y2="74.2"/>
		<polyline class="st4" points="264.9,74.48 285.44,95.06 306,74.5 		"/>
	</g>
</g>
<g>
	<g>
		<line class="st5" x1="11.76" y1="24.6" x2="59.59" y2="24.6"/>
		<g>
			<polygon points="57.61,27.5 68.45,24.6 57.61,21.69 			"/>
		</g>
	</g>
</g>
<g>
	<g>
		<line class="st5" x1="103.2" y1="24.6" x2="136.03" y2="24.6"/>
		<g>
			<polygon points="134.05,27.5 144.89,24.6 134.05,21.69 			"/>
		</g>
	</g>
</g>
<g>
	<g>
		<line class="st5" x1="180.32" y1="24.49" x2="201.46" y2="24.49"/>
		<g>
			<polygon points="199.48,27.4 210.32,24.49 199.48,21.59 			"/>
		</g>
	</g>
</g>
<g>
	<path d="M117.75,24.59c0-0.79,0.28-1.46,0.84-2.01c0.56-0.55,1.23-0.83,2-0.83c0.79,0,1.46,0.28,2.02,0.83s0.84,1.22,0.84,2.01
		s-0.28,1.46-0.84,2.02c-0.56,0.56-1.23,0.84-2.02,0.84c-0.78,0-1.45-0.28-2-0.84C118.03,26.05,117.75,25.38,117.75,24.59z"/>
</g>
<g>
	<g>
		<polyline class="st5" points="285.56,65.34 285.56,24.49 285.56,24.42 267.75,24.42 		"/>
		<g>
			<polygon points="288.46,63.36 285.56,74.2 282.65,63.36 			"/>
		</g>
	</g>
</g>
<g>
	<g>
		<line class="st5" x1="51.17" y1="24.49" x2="51.17" y2="66.2"/>
		<g>
			<polygon points="48.26,64.22 51.17,75.06 54.08,64.22 			"/>
		</g>
	</g>
</g>
<g>
	<g>
		<line class="st5" x1="120.6" y1="24.49" x2="120.6" y2="66.2"/>
		<g>
			<polygon points="117.69,64.22 120.59,75.06 123.5,64.22 			"/>
		</g>
	</g>
</g>
<g>
	<g>
		<line class="st5" x1="189.76" y1="24.49" x2="189.76" y2="66.2"/>
		<g>
			<polygon points="186.86,64.22 189.76,75.06 192.67,64.22 			"/>
		</g>
	</g>
</g>
<g>
	<path d="M48.32,24.59c0-0.79,0.28-1.46,0.84-2.01c0.56-0.55,1.23-0.83,2-0.83c0.79,0,1.46,0.28,2.02,0.83s0.84,1.22,0.84,2.01
		s-0.28,1.46-0.84,2.02c-0.56,0.56-1.23,0.84-2.02,0.84c-0.78,0-1.45-0.28-2-0.84C48.6,26.05,48.32,25.38,48.32,24.59z"/>
</g>
<g>
	<path d="M186.92,24.49c0-0.79,0.28-1.46,0.84-2.01s1.23-0.83,2-0.83c0.79,0,1.46,0.28,2.02,0.83s0.84,1.22,0.84,2.01
		s-0.28,1.46-0.84,2.02s-1.23,0.84-2.02,0.84c-0.78,0-1.45-0.28-2-0.84C187.2,25.94,186.92,25.27,186.92,24.49z"/>
</g>
<g>
	<circle class="st3" cx="285.56" cy="158.1" r="21.26"/>
	<rect x="275.9" y="138.16" class="st1" width="27.16" height="32.86"/>
	<g class="st2">
		<path d="M295.06,159.15c-0.33,0.43-1.03,0.65-2.09,0.65c-0.21,0-0.71-0.04-1.51-0.12s-1.33-0.12-1.6-0.12h-3.15
			c-0.14,0.55-0.21,1.16-0.21,1.83c0,2.17-0.03,3.37-0.09,3.6c-0.05,0.18-0.07,0.38-0.07,0.6s-0.1,0.43-0.31,0.62
			s-0.62,0.29-1.26,0.29c-0.74,0-1.23-0.12-1.48-0.37s-0.37-0.71-0.37-1.41l0.53-5.19c-1.5-0.08-2.47-0.08-2.92,0l-1.49,0.26
			c-0.5,0-0.94-0.17-1.31-0.51s-0.55-0.72-0.55-1.14c0-0.33,0.15-0.68,0.44-1.05s0.64-0.55,1.04-0.55c0.35,0,1,0.06,1.93,0.19
			l2.55-0.12h0.58c0.05-0.26,0.07-0.53,0.07-0.81c0-0.49-0.05-1.44-0.16-2.85c-0.05-0.52-0.07-0.9-0.07-1.16
			c0-1.93,0.64-2.9,1.92-2.9c0.46,0,0.84,0.24,1.14,0.73s0.46,0.89,0.46,1.2c0,0.52-0.05,1.31-0.14,2.39
			c-0.11,1.08-0.16,1.73-0.16,1.95v0.9c0,0.11,0.01,0.25,0.04,0.42l0.58,0.02l4.64-0.07c1.18,0,2.01,0.15,2.47,0.44
			s0.69,0.95,0.69,1.97L295.06,159.15z"/>
	</g>
</g>
<g>
	<g>
		<line class="st5" x1="307.7" y1="158.1" x2="335.66" y2="158.1"/>
		<g>
			<polygon points="333.67,161 344.52,158.1 333.67,155.19 			"/>
		</g>
	</g>
</g>
<g>
	<g>
		<line class="st5" x1="285.45" y1="95.42" x2="285.45" y2="127.96"/>
		<g>
			<polygon points="282.54,125.97 285.45,136.82 288.35,125.97 			"/>
		</g>
	</g>
</g>
<g>
	<line class="st5" x1="51.63" y1="95.63" x2="51.63" y2="157.54"/>
	<g>
		<g>
			<line class="st5" x1="51.17" y1="157.54" x2="255.96" y2="157.54"/>
			<g>
				<polygon points="253.98,160.45 264.82,157.55 253.98,154.64 				"/>
			</g>
		</g>
	</g>
</g>
<g>
	<g>
		<path class="st5" d="M255.89,150.43c-31.02-7.52-135.24-32.79-135.24-32.79l-0.04-22.66"/>
		<g>
			<polygon points="254.65,147.14 264.5,152.51 253.28,152.79 			"/>
		</g>
	</g>
</g>
<g>
	<g>
		<path class="st5" d="M258.38,143.43c-19.51-10.14-68.61-35.66-68.61-35.66V95.06"/>
		<g>
			<polygon points="257.96,139.94 266.24,147.51 255.28,145.09 			"/>
		</g>
	</g>
</g>
</svg>
