<?xml version="1.0" encoding="utf-8"?>
<!-- Generator: Adobe Illustrator 23.0.3, SVG Export Plug-In . SVG Version: 6.00 Build 0)  -->
<svg version="1.1" id="Слой_1" xmlns="http://www.w3.org/2000/svg" xmlns:xlink="http://www.w3.org/1999/xlink" x="0px" y="0px"
	 viewBox="0 0 417.69 281" style="enable-background:new 0 0 417.69 281;" xml:space="preserve">
<style type="text/css">
	.st0{fill:none;stroke:#EBEBED;stroke-miterlimit:10;}
	.st1{fill:#FFFFFF;stroke:#000000;stroke-width:2;stroke-miterlimit:10;}
	.st2{fill:none;stroke:#000000;stroke-miterlimit:10;}
	.st3{fill:none;stroke:#000000;stroke-width:2;stroke-miterlimit:10;}
</style>
<g>
	<rect x="314.74" y="95.78" class="st0" width="14.12" height="14.9"/>
	<rect x="286.5" y="95.78" class="st0" width="14.12" height="14.9"/>
	<rect x="272.37" y="95.78" class="st0" width="14.12" height="14.9"/>
	<rect x="258.25" y="95.78" class="st0" width="14.12" height="14.9"/>
	<rect x="314.74" y="110.69" class="st0" width="14.12" height="14.91"/>
	<rect x="300.62" y="95.78" class="st0" width="14.12" height="14.9"/>
	<rect x="357.1" y="110.69" class="st0" width="14.12" height="14.91"/>
	<rect x="371.23" y="110.69" class="st0" width="14.12" height="14.91"/>
	<rect x="244.13" y="95.78" class="st0" width="14.12" height="14.9"/>
	<rect x="342.98" y="110.69" class="st0" width="14.12" height="14.91"/>
	<rect x="385.35" y="110.69" class="st0" width="14.12" height="14.91"/>
	<rect x="328.86" y="110.69" class="st0" width="14.12" height="14.91"/>
	<rect x="399.47" y="110.69" class="st0" width="14.12" height="14.91"/>
	<rect x="230.01" y="80.88" class="st0" width="14.12" height="14.91"/>
	<rect x="413.59" y="95.78" class="st0" width="4.1" height="14.9"/>
	<rect x="399.47" y="95.78" class="st0" width="14.12" height="14.9"/>
	<rect x="399.47" y="200.12" class="st0" width="14.12" height="14.9"/>
	<rect x="413.59" y="200.12" class="st0" width="4.1" height="14.9"/>
	<rect x="385.35" y="200.12" class="st0" width="14.12" height="14.9"/>
	<rect x="385.35" y="95.78" class="st0" width="14.12" height="14.9"/>
	<rect x="328.86" y="95.78" class="st0" width="14.12" height="14.9"/>
	<rect x="244.13" y="215.03" class="st0" width="14.12" height="14.9"/>
	<rect x="342.98" y="95.78" class="st0" width="14.12" height="14.9"/>
	<rect x="357.1" y="95.78" class="st0" width="14.12" height="14.9"/>
	<rect x="258.25" y="215.03" class="st0" width="14.12" height="14.9"/>
	<rect x="286.5" y="215.03" class="st0" width="14.12" height="14.9"/>
	<rect x="371.23" y="200.12" class="st0" width="14.12" height="14.9"/>
	<rect x="314.74" y="215.03" class="st0" width="14.12" height="14.9"/>
	<rect x="272.37" y="215.03" class="st0" width="14.12" height="14.9"/>
	<rect x="328.86" y="80.88" class="st0" width="14.12" height="14.91"/>
	<rect x="300.62" y="215.03" class="st0" width="14.12" height="14.9"/>
	<rect x="357.1" y="200.12" class="st0" width="14.12" height="14.9"/>
	<rect x="328.86" y="215.03" class="st0" width="14.12" height="14.9"/>
	<rect x="357.1" y="215.03" class="st0" width="14.12" height="14.9"/>
	<rect x="342.98" y="215.03" class="st0" width="14.12" height="14.9"/>
	<rect x="371.23" y="95.78" class="st0" width="14.12" height="14.9"/>
	<rect x="117.04" y="80.88" class="st0" width="14.12" height="14.91"/>
	<rect x="131.16" y="80.88" class="st0" width="14.12" height="14.91"/>
	<rect x="173.52" y="80.88" class="st0" width="14.12" height="14.91"/>
	<rect x="159.4" y="80.88" class="st0" width="14.12" height="14.91"/>
	<rect x="102.91" y="80.88" class="st0" width="14.12" height="14.91"/>
	<rect x="145.28" y="80.88" class="st0" width="14.12" height="14.91"/>
	<rect x="60.55" y="95.78" class="st0" width="14.12" height="14.9"/>
	<rect x="88.79" y="80.88" class="st0" width="14.12" height="14.91"/>
	<rect x="74.67" y="95.78" class="st0" width="14.12" height="14.9"/>
	<rect x="74.67" y="80.88" class="st0" width="14.12" height="14.91"/>
	<rect x="272.37" y="80.88" class="st0" width="14.12" height="14.91"/>
	<rect x="258.25" y="80.88" class="st0" width="14.12" height="14.91"/>
	<rect x="286.5" y="80.88" class="st0" width="14.12" height="14.91"/>
	<rect x="314.74" y="80.88" class="st0" width="14.12" height="14.91"/>
	<rect x="187.64" y="80.88" class="st0" width="14.12" height="14.91"/>
	<rect x="300.62" y="80.88" class="st0" width="14.12" height="14.91"/>
	<rect x="215.89" y="80.88" class="st0" width="14.12" height="14.91"/>
	<rect x="244.13" y="80.88" class="st0" width="14.12" height="14.91"/>
	<rect x="201.77" y="80.88" class="st0" width="14.12" height="14.91"/>
	<rect x="413.59" y="110.69" class="st0" width="4.1" height="14.91"/>
	<rect x="117.04" y="215.03" class="st0" width="14.12" height="14.9"/>
	<rect x="46.43" y="110.69" class="st0" width="14.12" height="14.91"/>
	<rect x="32.31" y="110.69" class="st0" width="14.12" height="14.91"/>
	<rect x="60.55" y="110.69" class="st0" width="14.12" height="14.91"/>
	<rect y="155.4" class="st0" width="4.06" height="14.9"/>
	<rect x="18.19" y="110.69" class="st0" width="14.12" height="14.91"/>
	<rect y="125.6" class="st0" width="4.06" height="14.9"/>
	<rect y="140.5" class="st0" width="4.06" height="14.9"/>
	<rect x="88.79" y="110.69" class="st0" width="14.12" height="14.91"/>
	<rect x="4.06" y="110.69" class="st0" width="14.12" height="14.91"/>
	<rect y="110.69" class="st0" width="4.06" height="14.91"/>
	<rect x="74.67" y="110.69" class="st0" width="14.12" height="14.91"/>
	<rect x="187.64" y="95.78" class="st0" width="14.12" height="14.9"/>
	<rect x="88.79" y="95.78" class="st0" width="14.12" height="14.9"/>
	<rect x="230.01" y="215.03" class="st0" width="14.12" height="14.9"/>
	<rect x="201.77" y="95.78" class="st0" width="14.12" height="14.9"/>
	<rect x="215.89" y="95.78" class="st0" width="14.12" height="14.9"/>
	<rect x="159.4" y="95.78" class="st0" width="14.12" height="14.9"/>
	<rect x="117.04" y="95.78" class="st0" width="14.12" height="14.9"/>
	<rect x="102.91" y="95.78" class="st0" width="14.12" height="14.9"/>
	<rect x="145.28" y="95.78" class="st0" width="14.12" height="14.9"/>
	<rect x="131.16" y="95.78" class="st0" width="14.12" height="14.9"/>
	<rect x="173.52" y="95.78" class="st0" width="14.12" height="14.9"/>
	<rect x="88.79" y="215.03" class="st0" width="14.12" height="14.9"/>
	<rect x="159.4" y="215.03" class="st0" width="14.12" height="14.9"/>
	<rect x="145.28" y="215.03" class="st0" width="14.12" height="14.9"/>
	<rect x="102.91" y="215.03" class="st0" width="14.12" height="14.9"/>
	<rect x="230.01" y="95.78" class="st0" width="14.12" height="14.9"/>
	<rect x="131.16" y="215.03" class="st0" width="14.12" height="14.9"/>
	<rect x="173.52" y="215.03" class="st0" width="14.12" height="14.9"/>
	<rect x="201.77" y="215.03" class="st0" width="14.12" height="14.9"/>
	<rect x="215.89" y="215.03" class="st0" width="14.12" height="14.9"/>
	<rect x="187.64" y="215.03" class="st0" width="14.12" height="14.9"/>
	<rect y="170.31" class="st0" width="4.06" height="14.91"/>
	<rect y="200.12" class="st0" width="4.06" height="14.9"/>
	<rect x="4.06" y="200.12" class="st0" width="14.12" height="14.9"/>
	<rect y="185.22" class="st0" width="4.06" height="14.9"/>
	<rect x="18.19" y="200.12" class="st0" width="14.12" height="14.9"/>
	<rect x="46.43" y="215.03" class="st0" width="14.12" height="14.9"/>
	<rect x="32.31" y="200.12" class="st0" width="14.12" height="14.9"/>
	<rect x="74.67" y="215.03" class="st0" width="14.12" height="14.9"/>
	<rect x="60.55" y="215.03" class="st0" width="14.12" height="14.9"/>
	<rect x="46.43" y="200.12" class="st0" width="14.12" height="14.9"/>
	<rect x="258.25" y="110.69" class="st0" width="14.12" height="14.91"/>
	<rect x="314.74" y="140.5" class="st0" width="14.12" height="14.9"/>
	<rect x="385.35" y="140.5" class="st0" width="14.12" height="14.9"/>
	<rect x="328.86" y="140.5" class="st0" width="14.12" height="14.9"/>
	<rect x="357.1" y="140.5" class="st0" width="14.12" height="14.9"/>
	<rect x="371.23" y="140.5" class="st0" width="14.12" height="14.9"/>
	<rect x="413.59" y="185.22" class="st0" width="4.1" height="14.9"/>
	<rect x="258.25" y="125.6" class="st0" width="14.12" height="14.9"/>
	<rect x="272.37" y="125.6" class="st0" width="14.12" height="14.9"/>
	<rect x="286.5" y="140.5" class="st0" width="14.12" height="14.9"/>
	<rect x="286.5" y="125.6" class="st0" width="14.12" height="14.9"/>
	<rect x="300.62" y="140.5" class="st0" width="14.12" height="14.9"/>
	<rect x="328.86" y="155.4" class="st0" width="14.12" height="14.9"/>
	<rect x="357.1" y="155.4" class="st0" width="14.12" height="14.9"/>
	<rect x="74.67" y="170.31" class="st0" width="14.12" height="14.91"/>
	<rect x="342.98" y="155.4" class="st0" width="14.12" height="14.9"/>
	<rect x="314.74" y="155.4" class="st0" width="14.12" height="14.9"/>
	<rect x="314.74" y="170.31" class="st0" width="14.12" height="14.91"/>
	<rect x="399.47" y="140.5" class="st0" width="14.12" height="14.9"/>
	<rect x="371.23" y="155.4" class="st0" width="14.12" height="14.9"/>
	<rect x="413.59" y="155.4" class="st0" width="4.1" height="14.9"/>
	<rect x="413.59" y="140.5" class="st0" width="4.1" height="14.9"/>
	<rect x="399.47" y="155.4" class="st0" width="14.12" height="14.9"/>
	<rect x="385.35" y="155.4" class="st0" width="14.12" height="14.9"/>
	<rect x="187.64" y="125.6" class="st0" width="14.12" height="14.9"/>
	<rect x="88.79" y="140.5" class="st0" width="14.12" height="14.9"/>
	<rect x="46.43" y="140.5" class="st0" width="14.12" height="14.9"/>
	<rect x="74.67" y="140.5" class="st0" width="14.12" height="14.9"/>
	<rect x="60.55" y="140.5" class="st0" width="14.12" height="14.9"/>
	<rect x="18.19" y="140.5" class="st0" width="14.12" height="14.9"/>
	<rect x="32.31" y="140.5" class="st0" width="14.12" height="14.9"/>
	<rect x="46.43" y="170.31" class="st0" width="14.12" height="14.91"/>
	<rect x="230.01" y="125.6" class="st0" width="14.12" height="14.9"/>
	<rect x="18.19" y="170.31" class="st0" width="14.12" height="14.91"/>
	<rect x="32.31" y="170.31" class="st0" width="14.12" height="14.91"/>
	<rect x="18.19" y="155.4" class="st0" width="14.12" height="14.9"/>
	<rect x="60.55" y="170.31" class="st0" width="14.12" height="14.91"/>
	<rect x="173.52" y="125.6" class="st0" width="14.12" height="14.9"/>
	<rect x="159.4" y="125.6" class="st0" width="14.12" height="14.9"/>
	<rect x="300.62" y="170.31" class="st0" width="14.12" height="14.91"/>
	<rect x="102.91" y="140.5" class="st0" width="14.12" height="14.9"/>
	<rect x="215.89" y="125.6" class="st0" width="14.12" height="14.9"/>
	<rect x="201.77" y="125.6" class="st0" width="14.12" height="14.9"/>
	<rect x="117.04" y="140.5" class="st0" width="14.12" height="14.9"/>
	<rect x="117.04" y="125.6" class="st0" width="14.12" height="14.9"/>
	<rect x="145.28" y="125.6" class="st0" width="14.12" height="14.9"/>
	<rect x="131.16" y="125.6" class="st0" width="14.12" height="14.9"/>
	<rect x="244.13" y="125.6" class="st0" width="14.12" height="14.9"/>
	<rect x="272.37" y="140.5" class="st0" width="14.12" height="14.9"/>
	<rect x="272.37" y="155.4" class="st0" width="14.12" height="14.9"/>
	<rect x="215.89" y="155.4" class="st0" width="14.12" height="14.9"/>
	<rect x="244.13" y="155.4" class="st0" width="14.12" height="14.9"/>
	<rect x="230.01" y="155.4" class="st0" width="14.12" height="14.9"/>
	<rect x="258.25" y="155.4" class="st0" width="14.12" height="14.9"/>
	<rect x="215.89" y="140.5" class="st0" width="14.12" height="14.9"/>
	<rect x="258.25" y="140.5" class="st0" width="14.12" height="14.9"/>
	<rect x="201.77" y="140.5" class="st0" width="14.12" height="14.9"/>
	<rect x="230.01" y="140.5" class="st0" width="14.12" height="14.9"/>
	<rect x="244.13" y="140.5" class="st0" width="14.12" height="14.9"/>
	<rect x="74.67" y="155.4" class="st0" width="14.12" height="14.9"/>
	<rect x="187.64" y="140.5" class="st0" width="14.12" height="14.9"/>
	<rect x="60.55" y="155.4" class="st0" width="14.12" height="14.9"/>
	<rect x="46.43" y="155.4" class="st0" width="14.12" height="14.9"/>
	<rect x="201.77" y="155.4" class="st0" width="14.12" height="14.9"/>
	<rect x="300.62" y="155.4" class="st0" width="14.12" height="14.9"/>
	<rect x="32.31" y="155.4" class="st0" width="14.12" height="14.9"/>
	<rect x="187.64" y="155.4" class="st0" width="14.12" height="14.9"/>
	<rect x="173.52" y="155.4" class="st0" width="14.12" height="14.9"/>
	<rect x="159.4" y="155.4" class="st0" width="14.12" height="14.9"/>
	<rect x="145.28" y="155.4" class="st0" width="14.12" height="14.9"/>
	<rect x="286.5" y="155.4" class="st0" width="14.12" height="14.9"/>
	<rect x="201.77" y="170.31" class="st0" width="14.12" height="14.91"/>
	<rect x="173.52" y="170.31" class="st0" width="14.12" height="14.91"/>
	<rect x="187.64" y="170.31" class="st0" width="14.12" height="14.91"/>
	<rect x="173.52" y="140.5" class="st0" width="14.12" height="14.9"/>
	<rect x="131.16" y="170.31" class="st0" width="14.12" height="14.91"/>
	<rect x="145.28" y="170.31" class="st0" width="14.12" height="14.91"/>
	<rect x="286.5" y="170.31" class="st0" width="14.12" height="14.91"/>
	<rect x="258.25" y="170.31" class="st0" width="14.12" height="14.91"/>
	<rect x="272.37" y="170.31" class="st0" width="14.12" height="14.91"/>
	<rect x="215.89" y="170.31" class="st0" width="14.12" height="14.91"/>
	<rect x="230.01" y="170.31" class="st0" width="14.12" height="14.91"/>
	<rect x="244.13" y="170.31" class="st0" width="14.12" height="14.91"/>
	<rect x="159.4" y="170.31" class="st0" width="14.12" height="14.91"/>
	<rect x="131.16" y="155.4" class="st0" width="14.12" height="14.9"/>
	<rect x="117.04" y="155.4" class="st0" width="14.12" height="14.9"/>
	<rect x="131.16" y="140.5" class="st0" width="14.12" height="14.9"/>
	<rect x="145.28" y="140.5" class="st0" width="14.12" height="14.9"/>
	<rect x="159.4" y="140.5" class="st0" width="14.12" height="14.9"/>
	<rect x="102.91" y="170.31" class="st0" width="14.12" height="14.91"/>
	<rect x="102.91" y="155.4" class="st0" width="14.12" height="14.9"/>
	<rect x="88.79" y="170.31" class="st0" width="14.12" height="14.91"/>
	<rect x="117.04" y="170.31" class="st0" width="14.12" height="14.91"/>
	<rect x="88.79" y="155.4" class="st0" width="14.12" height="14.9"/>
	<rect x="342.98" y="140.5" class="st0" width="14.12" height="14.9"/>
	<rect x="4.06" y="185.22" class="st0" width="14.12" height="14.9"/>
	<rect x="102.91" y="200.12" class="st0" width="14.12" height="14.9"/>
	<rect x="145.28" y="110.69" class="st0" width="14.12" height="14.91"/>
	<rect x="4.06" y="155.4" class="st0" width="14.12" height="14.9"/>
	<rect x="4.06" y="140.5" class="st0" width="14.12" height="14.9"/>
	<rect x="32.31" y="185.22" class="st0" width="14.12" height="14.9"/>
	<rect x="74.67" y="200.12" class="st0" width="14.12" height="14.9"/>
	<rect x="88.79" y="200.12" class="st0" width="14.12" height="14.9"/>
	<rect x="46.43" y="185.22" class="st0" width="14.12" height="14.9"/>
	<rect x="60.55" y="185.22" class="st0" width="14.12" height="14.9"/>
	<rect x="60.55" y="200.12" class="st0" width="14.12" height="14.9"/>
	<rect x="18.19" y="185.22" class="st0" width="14.12" height="14.9"/>
	<rect x="102.91" y="125.6" class="st0" width="14.12" height="14.9"/>
	<rect x="102.91" y="110.69" class="st0" width="14.12" height="14.91"/>
	<rect x="88.79" y="125.6" class="st0" width="14.12" height="14.9"/>
	<rect x="117.04" y="110.69" class="st0" width="14.12" height="14.91"/>
	<rect x="131.16" y="110.69" class="st0" width="14.12" height="14.91"/>
	<rect x="46.43" y="125.6" class="st0" width="14.12" height="14.9"/>
	<rect x="18.19" y="125.6" class="st0" width="14.12" height="14.9"/>
	<rect x="32.31" y="125.6" class="st0" width="14.12" height="14.9"/>
	<rect x="4.06" y="125.6" class="st0" width="14.12" height="14.9"/>
	<rect x="60.55" y="125.6" class="st0" width="14.12" height="14.9"/>
	<rect x="74.67" y="125.6" class="st0" width="14.12" height="14.9"/>
	<rect x="4.06" y="170.31" class="st0" width="14.12" height="14.91"/>
	<rect x="328.86" y="200.12" class="st0" width="14.12" height="14.9"/>
	<rect x="342.98" y="200.12" class="st0" width="14.12" height="14.9"/>
	<rect x="314.74" y="200.12" class="st0" width="14.12" height="14.9"/>
	<rect x="272.37" y="200.12" class="st0" width="14.12" height="14.9"/>
	<rect x="117.04" y="200.12" class="st0" width="14.12" height="14.9"/>
	<rect x="300.62" y="200.12" class="st0" width="14.12" height="14.9"/>
	<rect x="399.47" y="185.22" class="st0" width="14.12" height="14.9"/>
	<rect x="342.98" y="185.22" class="st0" width="14.12" height="14.9"/>
	<rect x="385.35" y="185.22" class="st0" width="14.12" height="14.9"/>
	<rect x="371.23" y="185.22" class="st0" width="14.12" height="14.9"/>
	<rect x="357.1" y="185.22" class="st0" width="14.12" height="14.9"/>
	<rect x="286.5" y="200.12" class="st0" width="14.12" height="14.9"/>
	<rect x="173.52" y="200.12" class="st0" width="14.12" height="14.9"/>
	<rect x="187.64" y="200.12" class="st0" width="14.12" height="14.9"/>
	<rect x="159.4" y="200.12" class="st0" width="14.12" height="14.9"/>
	<rect x="131.16" y="200.12" class="st0" width="14.12" height="14.9"/>
	<rect x="145.28" y="200.12" class="st0" width="14.12" height="14.9"/>
	<rect x="258.25" y="200.12" class="st0" width="14.12" height="14.9"/>
	<rect x="230.01" y="200.12" class="st0" width="14.12" height="14.9"/>
	<rect x="244.13" y="200.12" class="st0" width="14.12" height="14.9"/>
	<rect x="201.77" y="200.12" class="st0" width="14.12" height="14.9"/>
	<rect x="215.89" y="200.12" class="st0" width="14.12" height="14.9"/>
	<rect x="187.64" y="110.69" class="st0" width="14.12" height="14.91"/>
	<rect x="272.37" y="185.22" class="st0" width="14.12" height="14.9"/>
	<rect x="300.62" y="185.22" class="st0" width="14.12" height="14.9"/>
	<rect x="286.5" y="185.22" class="st0" width="14.12" height="14.9"/>
	<rect x="258.25" y="185.22" class="st0" width="14.12" height="14.9"/>
	<rect x="244.13" y="185.22" class="st0" width="14.12" height="14.9"/>
	<rect x="230.01" y="185.22" class="st0" width="14.12" height="14.9"/>
	<rect x="357.1" y="170.31" class="st0" width="14.12" height="14.91"/>
	<rect x="314.74" y="185.22" class="st0" width="14.12" height="14.9"/>
	<rect x="342.98" y="170.31" class="st0" width="14.12" height="14.91"/>
	<rect x="328.86" y="170.31" class="st0" width="14.12" height="14.91"/>
	<rect x="328.86" y="185.22" class="st0" width="14.12" height="14.9"/>
	<rect x="201.77" y="185.22" class="st0" width="14.12" height="14.9"/>
	<rect x="131.16" y="185.22" class="st0" width="14.12" height="14.9"/>
	<rect x="117.04" y="185.22" class="st0" width="14.12" height="14.9"/>
	<rect x="88.79" y="185.22" class="st0" width="14.12" height="14.9"/>
	<rect x="102.91" y="185.22" class="st0" width="14.12" height="14.9"/>
	<rect x="145.28" y="185.22" class="st0" width="14.12" height="14.9"/>
	<rect x="173.52" y="185.22" class="st0" width="14.12" height="14.9"/>
	<rect x="159.4" y="185.22" class="st0" width="14.12" height="14.9"/>
	<rect x="371.23" y="170.31" class="st0" width="14.12" height="14.91"/>
	<rect x="187.64" y="185.22" class="st0" width="14.12" height="14.9"/>
	<rect x="215.89" y="185.22" class="st0" width="14.12" height="14.9"/>
	<rect x="286.5" y="110.69" class="st0" width="14.12" height="14.91"/>
	<rect x="46.43" y="95.78" class="st0" width="14.12" height="14.9"/>
	<rect x="244.13" y="110.69" class="st0" width="14.12" height="14.91"/>
	<rect x="272.37" y="110.69" class="st0" width="14.12" height="14.91"/>
	<rect x="385.35" y="170.31" class="st0" width="14.12" height="14.91"/>
	<rect x="159.4" y="110.69" class="st0" width="14.12" height="14.91"/>
	<rect x="215.89" y="110.69" class="st0" width="14.12" height="14.91"/>
	<rect x="74.67" y="185.22" class="st0" width="14.12" height="14.9"/>
	<rect x="173.52" y="110.69" class="st0" width="14.12" height="14.91"/>
	<rect x="300.62" y="125.6" class="st0" width="14.12" height="14.9"/>
	<rect x="230.01" y="110.69" class="st0" width="14.12" height="14.91"/>
	<rect x="201.77" y="110.69" class="st0" width="14.12" height="14.91"/>
	<rect x="300.62" y="110.69" class="st0" width="14.12" height="14.91"/>
	<rect x="385.35" y="125.6" class="st0" width="14.12" height="14.9"/>
	<rect x="314.74" y="125.6" class="st0" width="14.12" height="14.9"/>
	<rect x="413.59" y="125.6" class="st0" width="4.1" height="14.9"/>
	<rect x="399.47" y="170.31" class="st0" width="14.12" height="14.91"/>
	<rect x="413.59" y="170.31" class="st0" width="4.1" height="14.91"/>
	<rect x="399.47" y="125.6" class="st0" width="14.12" height="14.9"/>
	<rect x="371.23" y="125.6" class="st0" width="14.12" height="14.9"/>
	<rect x="342.98" y="125.6" class="st0" width="14.12" height="14.9"/>
	<rect x="328.86" y="125.6" class="st0" width="14.12" height="14.9"/>
	<rect x="357.1" y="125.6" class="st0" width="14.12" height="14.9"/>
	<rect x="328.86" y="6.35" class="st0" width="14.12" height="14.9"/>
	<rect x="272.37" class="st0" width="14.12" height="6.35"/>
	<rect x="258.25" class="st0" width="14.12" height="6.35"/>
	<rect x="46.43" y="36.16" class="st0" width="14.12" height="14.91"/>
	<rect x="187.64" y="274.65" class="st0" width="14.12" height="6.35"/>
	<rect x="230.01" class="st0" width="14.12" height="6.35"/>
	<rect x="300.62" class="st0" width="14.12" height="6.35"/>
	<rect x="357.1" class="st0" width="14.12" height="6.35"/>
	<rect x="342.98" class="st0" width="14.12" height="6.35"/>
	<rect x="328.86" class="st0" width="14.12" height="6.35"/>
	<rect x="314.74" class="st0" width="14.12" height="6.35"/>
	<rect x="215.89" class="st0" width="14.12" height="6.35"/>
	<rect x="32.31" y="51.07" class="st0" width="14.12" height="14.91"/>
	<rect x="4.06" y="51.07" class="st0" width="14.12" height="14.91"/>
	<rect x="18.19" y="51.07" class="st0" width="14.12" height="14.91"/>
	<rect x="201.77" class="st0" width="14.12" height="6.35"/>
	<rect x="32.31" y="36.16" class="st0" width="14.12" height="14.91"/>
	<rect y="51.07" class="st0" width="4.06" height="14.91"/>
	<rect x="173.52" class="st0" width="14.12" height="6.35"/>
	<rect x="187.64" class="st0" width="14.12" height="6.35"/>
	<rect x="159.4" class="st0" width="14.12" height="6.35"/>
	<rect x="286.5" class="st0" width="14.12" height="6.35"/>
	<rect x="88.79" y="274.65" class="st0" width="14.12" height="6.35"/>
	<rect x="46.43" y="274.65" class="st0" width="14.12" height="6.35"/>
	<rect x="74.67" y="274.65" class="st0" width="14.12" height="6.35"/>
	<rect x="117.04" y="274.65" class="st0" width="14.12" height="6.35"/>
	<rect x="60.55" y="274.65" class="st0" width="14.12" height="6.35"/>
	<rect x="102.91" y="274.65" class="st0" width="14.12" height="6.35"/>
	<rect x="159.4" y="274.65" class="st0" width="14.12" height="6.35"/>
	<rect x="173.52" y="274.65" class="st0" width="14.12" height="6.35"/>
	<rect x="131.16" y="274.65" class="st0" width="14.12" height="6.35"/>
	<rect x="145.28" y="274.65" class="st0" width="14.12" height="6.35"/>
	<rect y="259.74" class="st0" width="4.06" height="14.91"/>
	<rect x="413.59" y="6.35" class="st0" width="4.1" height="14.9"/>
	<rect x="399.47" class="st0" width="14.12" height="6.35"/>
	<rect x="413.59" class="st0" width="4.1" height="6.35"/>
	<rect x="32.31" y="274.65" class="st0" width="14.12" height="6.35"/>
	<rect x="385.35" class="st0" width="14.12" height="6.35"/>
	<rect x="371.23" class="st0" width="14.12" height="6.35"/>
	<rect x="18.19" y="274.65" class="st0" width="14.12" height="6.35"/>
	<rect x="4.06" y="274.65" class="st0" width="14.12" height="6.35"/>
	<rect y="274.65" class="st0" width="4.06" height="6.35"/>
	<rect x="244.13" class="st0" width="14.12" height="6.35"/>
	<rect x="145.28" class="st0" width="14.12" height="6.35"/>
	<rect x="131.16" class="st0" width="14.12" height="6.35"/>
	<rect x="117.04" class="st0" width="14.12" height="6.35"/>
	<rect x="102.91" class="st0" width="14.12" height="6.35"/>
	<rect x="32.31" y="95.78" class="st0" width="14.12" height="14.9"/>
	<rect x="413.59" y="51.07" class="st0" width="4.1" height="14.91"/>
	<rect x="399.47" y="51.07" class="st0" width="14.12" height="14.91"/>
	<rect x="371.23" y="36.16" class="st0" width="14.12" height="14.91"/>
	<rect x="371.23" y="51.07" class="st0" width="14.12" height="14.91"/>
	<rect x="385.35" y="51.07" class="st0" width="14.12" height="14.91"/>
	<rect class="st0" width="4.06" height="6.35"/>
	<rect y="6.35" class="st0" width="4.06" height="14.9"/>
	<rect x="4.06" class="st0" width="14.12" height="6.35"/>
	<rect x="357.1" y="36.16" class="st0" width="14.12" height="14.91"/>
	<rect x="413.59" y="244.84" class="st0" width="4.1" height="14.9"/>
	<rect x="60.55" class="st0" width="14.12" height="6.35"/>
	<rect x="46.43" class="st0" width="14.12" height="6.35"/>
	<rect x="18.19" class="st0" width="14.12" height="6.35"/>
	<rect x="74.67" class="st0" width="14.12" height="6.35"/>
	<rect x="32.31" class="st0" width="14.12" height="6.35"/>
	<rect x="145.28" y="36.16" class="st0" width="14.12" height="14.91"/>
	<rect x="159.4" y="36.16" class="st0" width="14.12" height="14.91"/>
	<rect x="131.16" y="36.16" class="st0" width="14.12" height="14.91"/>
	<rect x="60.55" y="36.16" class="st0" width="14.12" height="14.91"/>
	<rect x="173.52" y="36.16" class="st0" width="14.12" height="14.91"/>
	<rect x="187.64" y="36.16" class="st0" width="14.12" height="14.91"/>
	<rect x="88.79" y="36.16" class="st0" width="14.12" height="14.91"/>
	<rect x="74.67" y="36.16" class="st0" width="14.12" height="14.91"/>
	<rect x="117.04" y="36.16" class="st0" width="14.12" height="14.91"/>
	<rect x="201.77" y="36.16" class="st0" width="14.12" height="14.91"/>
	<rect x="102.91" y="36.16" class="st0" width="14.12" height="14.91"/>
	<rect x="342.98" y="36.16" class="st0" width="14.12" height="14.91"/>
	<rect x="300.62" y="36.16" class="st0" width="14.12" height="14.91"/>
	<rect x="215.89" y="36.16" class="st0" width="14.12" height="14.91"/>
	<rect x="314.74" y="36.16" class="st0" width="14.12" height="14.91"/>
	<rect x="328.86" y="36.16" class="st0" width="14.12" height="14.91"/>
	<rect x="286.5" y="36.16" class="st0" width="14.12" height="14.91"/>
	<rect x="244.13" y="36.16" class="st0" width="14.12" height="14.91"/>
	<rect x="272.37" y="36.16" class="st0" width="14.12" height="14.91"/>
	<rect x="230.01" y="36.16" class="st0" width="14.12" height="14.91"/>
	<rect x="258.25" y="36.16" class="st0" width="14.12" height="14.91"/>
	<rect x="201.77" y="274.65" class="st0" width="14.12" height="6.35"/>
	<rect x="46.43" y="6.35" class="st0" width="14.12" height="14.9"/>
	<rect x="32.31" y="6.35" class="st0" width="14.12" height="14.9"/>
	<rect x="131.16" y="6.35" class="st0" width="14.12" height="14.9"/>
	<rect x="60.55" y="6.35" class="st0" width="14.12" height="14.9"/>
	<rect x="4.06" y="6.35" class="st0" width="14.12" height="14.9"/>
	<rect x="117.04" y="6.35" class="st0" width="14.12" height="14.9"/>
	<rect x="4.06" y="21.26" class="st0" width="14.12" height="14.9"/>
	<rect x="102.91" y="6.35" class="st0" width="14.12" height="14.9"/>
	<rect x="88.79" y="6.35" class="st0" width="14.12" height="14.9"/>
	<rect x="74.67" y="6.35" class="st0" width="14.12" height="14.9"/>
	<rect x="18.19" y="6.35" class="st0" width="14.12" height="14.9"/>
	<rect y="21.26" class="st0" width="4.06" height="14.9"/>
	<rect x="60.55" y="21.26" class="st0" width="14.12" height="14.9"/>
	<rect x="74.67" y="21.26" class="st0" width="14.12" height="14.9"/>
	<rect x="32.31" y="21.26" class="st0" width="14.12" height="14.9"/>
	<rect x="46.43" y="21.26" class="st0" width="14.12" height="14.9"/>
	<rect y="36.16" class="st0" width="4.06" height="14.91"/>
	<rect x="4.06" y="36.16" class="st0" width="14.12" height="14.91"/>
	<rect x="18.19" y="36.16" class="st0" width="14.12" height="14.91"/>
	<rect x="18.19" y="21.26" class="st0" width="14.12" height="14.9"/>
	<rect x="173.52" y="6.35" class="st0" width="14.12" height="14.9"/>
	<rect x="342.98" y="6.35" class="st0" width="14.12" height="14.9"/>
	<rect x="413.59" y="21.26" class="st0" width="4.1" height="14.9"/>
	<rect x="357.1" y="6.35" class="st0" width="14.12" height="14.9"/>
	<rect x="314.74" y="6.35" class="st0" width="14.12" height="14.9"/>
	<rect x="286.5" y="6.35" class="st0" width="14.12" height="14.9"/>
	<rect x="300.62" y="6.35" class="st0" width="14.12" height="14.9"/>
	<rect x="399.47" y="21.26" class="st0" width="14.12" height="14.9"/>
	<rect x="385.35" y="6.35" class="st0" width="14.12" height="14.9"/>
	<rect x="371.23" y="6.35" class="st0" width="14.12" height="14.9"/>
	<rect x="399.47" y="6.35" class="st0" width="14.12" height="14.9"/>
	<rect x="88.79" y="21.26" class="st0" width="14.12" height="14.9"/>
	<rect x="399.47" y="244.84" class="st0" width="14.12" height="14.9"/>
	<rect x="145.28" y="6.35" class="st0" width="14.12" height="14.9"/>
	<rect x="187.64" y="6.35" class="st0" width="14.12" height="14.9"/>
	<rect x="159.4" y="6.35" class="st0" width="14.12" height="14.9"/>
	<rect x="272.37" y="6.35" class="st0" width="14.12" height="14.9"/>
	<rect x="258.25" y="6.35" class="st0" width="14.12" height="14.9"/>
	<rect x="215.89" y="6.35" class="st0" width="14.12" height="14.9"/>
	<rect x="244.13" y="6.35" class="st0" width="14.12" height="14.9"/>
	<rect x="230.01" y="6.35" class="st0" width="14.12" height="14.9"/>
	<rect x="201.77" y="6.35" class="st0" width="14.12" height="14.9"/>
	<rect x="342.98" y="274.65" class="st0" width="14.12" height="6.35"/>
	<rect x="413.59" y="274.65" class="st0" width="4.1" height="6.35"/>
	<rect x="399.47" y="274.65" class="st0" width="14.12" height="6.35"/>
	<rect x="357.1" y="274.65" class="st0" width="14.12" height="6.35"/>
	<rect x="371.23" y="274.65" class="st0" width="14.12" height="6.35"/>
	<rect x="385.35" y="274.65" class="st0" width="14.12" height="6.35"/>
	<rect x="399.47" y="36.16" class="st0" width="14.12" height="14.91"/>
	<rect x="385.35" y="21.26" class="st0" width="14.12" height="14.9"/>
	<rect x="385.35" y="36.16" class="st0" width="14.12" height="14.91"/>
	<rect x="413.59" y="36.16" class="st0" width="4.1" height="14.91"/>
	<rect x="413.59" y="259.74" class="st0" width="4.1" height="14.91"/>
	<rect x="244.13" y="274.65" class="st0" width="14.12" height="6.35"/>
	<rect x="328.86" y="274.65" class="st0" width="14.12" height="6.35"/>
	<rect x="215.89" y="274.65" class="st0" width="14.12" height="6.35"/>
	<rect x="258.25" y="274.65" class="st0" width="14.12" height="6.35"/>
	<rect x="230.01" y="274.65" class="st0" width="14.12" height="6.35"/>
	<rect x="314.74" y="274.65" class="st0" width="14.12" height="6.35"/>
	<rect x="300.62" y="274.65" class="st0" width="14.12" height="6.35"/>
	<rect x="272.37" y="274.65" class="st0" width="14.12" height="6.35"/>
	<rect x="286.5" y="274.65" class="st0" width="14.12" height="6.35"/>
	<rect x="258.25" y="21.26" class="st0" width="14.12" height="14.9"/>
	<rect x="187.64" y="21.26" class="st0" width="14.12" height="14.9"/>
	<rect x="230.01" y="21.26" class="st0" width="14.12" height="14.9"/>
	<rect x="201.77" y="21.26" class="st0" width="14.12" height="14.9"/>
	<rect x="215.89" y="21.26" class="st0" width="14.12" height="14.9"/>
	<rect x="173.52" y="21.26" class="st0" width="14.12" height="14.9"/>
	<rect x="131.16" y="21.26" class="st0" width="14.12" height="14.9"/>
	<rect x="159.4" y="21.26" class="st0" width="14.12" height="14.9"/>
	<rect x="117.04" y="21.26" class="st0" width="14.12" height="14.9"/>
	<rect x="145.28" y="21.26" class="st0" width="14.12" height="14.9"/>
	<rect x="357.1" y="21.26" class="st0" width="14.12" height="14.9"/>
	<rect x="342.98" y="21.26" class="st0" width="14.12" height="14.9"/>
	<rect x="314.74" y="21.26" class="st0" width="14.12" height="14.9"/>
	<rect x="328.86" y="21.26" class="st0" width="14.12" height="14.9"/>
	<rect x="244.13" y="21.26" class="st0" width="14.12" height="14.9"/>
	<rect x="371.23" y="21.26" class="st0" width="14.12" height="14.9"/>
	<rect x="272.37" y="21.26" class="st0" width="14.12" height="14.9"/>
	<rect x="102.91" y="21.26" class="st0" width="14.12" height="14.9"/>
	<rect x="286.5" y="21.26" class="st0" width="14.12" height="14.9"/>
	<rect x="300.62" y="21.26" class="st0" width="14.12" height="14.9"/>
	<rect x="88.79" class="st0" width="14.12" height="6.35"/>
	<rect x="173.52" y="65.97" class="st0" width="14.12" height="14.9"/>
	<rect x="159.4" y="65.97" class="st0" width="14.12" height="14.9"/>
	<rect x="201.77" y="65.97" class="st0" width="14.12" height="14.9"/>
	<rect x="145.28" y="65.97" class="st0" width="14.12" height="14.9"/>
	<rect x="187.64" y="65.97" class="st0" width="14.12" height="14.9"/>
	<rect x="88.79" y="65.97" class="st0" width="14.12" height="14.9"/>
	<rect x="102.91" y="65.97" class="st0" width="14.12" height="14.9"/>
	<rect x="215.89" y="65.97" class="st0" width="14.12" height="14.9"/>
	<rect x="117.04" y="65.97" class="st0" width="14.12" height="14.9"/>
	<rect x="131.16" y="65.97" class="st0" width="14.12" height="14.9"/>
	<rect x="314.74" y="65.97" class="st0" width="14.12" height="14.9"/>
	<rect x="328.86" y="65.97" class="st0" width="14.12" height="14.9"/>
	<rect x="300.62" y="65.97" class="st0" width="14.12" height="14.9"/>
	<rect x="74.67" y="65.97" class="st0" width="14.12" height="14.9"/>
	<rect x="342.98" y="65.97" class="st0" width="14.12" height="14.9"/>
	<rect x="244.13" y="65.97" class="st0" width="14.12" height="14.9"/>
	<rect x="286.5" y="65.97" class="st0" width="14.12" height="14.9"/>
	<rect x="258.25" y="65.97" class="st0" width="14.12" height="14.9"/>
	<rect x="230.01" y="65.97" class="st0" width="14.12" height="14.9"/>
	<rect x="272.37" y="65.97" class="st0" width="14.12" height="14.9"/>
	<rect x="88.79" y="244.84" class="st0" width="14.12" height="14.9"/>
	<rect x="74.67" y="244.84" class="st0" width="14.12" height="14.9"/>
	<rect x="60.55" y="244.84" class="st0" width="14.12" height="14.9"/>
	<rect x="32.31" y="244.84" class="st0" width="14.12" height="14.9"/>
	<rect x="342.98" y="80.88" class="st0" width="14.12" height="14.91"/>
	<rect x="46.43" y="244.84" class="st0" width="14.12" height="14.9"/>
	<rect x="117.04" y="244.84" class="st0" width="14.12" height="14.9"/>
	<rect x="145.28" y="244.84" class="st0" width="14.12" height="14.9"/>
	<rect x="131.16" y="244.84" class="st0" width="14.12" height="14.9"/>
	<rect x="18.19" y="244.84" class="st0" width="14.12" height="14.9"/>
	<rect x="102.91" y="244.84" class="st0" width="14.12" height="14.9"/>
	<rect x="32.31" y="80.88" class="st0" width="14.12" height="14.91"/>
	<rect x="18.19" y="229.93" class="st0" width="14.12" height="14.9"/>
	<rect x="18.19" y="80.88" class="st0" width="14.12" height="14.91"/>
	<rect x="60.55" y="65.97" class="st0" width="14.12" height="14.9"/>
	<rect x="60.55" y="80.88" class="st0" width="14.12" height="14.91"/>
	<rect x="46.43" y="80.88" class="st0" width="14.12" height="14.91"/>
	<rect y="229.93" class="st0" width="4.06" height="14.9"/>
	<rect x="4.06" y="80.88" class="st0" width="14.12" height="14.91"/>
	<rect x="4.06" y="229.93" class="st0" width="14.12" height="14.9"/>
	<rect y="80.88" class="st0" width="4.06" height="14.91"/>
	<rect x="173.52" y="229.93" class="st0" width="14.12" height="14.9"/>
	<rect x="117.04" y="229.93" class="st0" width="14.12" height="14.9"/>
	<rect x="131.16" y="229.93" class="st0" width="14.12" height="14.9"/>
	<rect x="102.91" y="229.93" class="st0" width="14.12" height="14.9"/>
	<rect x="88.79" y="229.93" class="st0" width="14.12" height="14.9"/>
	<rect x="74.67" y="229.93" class="st0" width="14.12" height="14.9"/>
	<rect x="187.64" y="229.93" class="st0" width="14.12" height="14.9"/>
	<rect x="60.55" y="229.93" class="st0" width="14.12" height="14.9"/>
	<rect x="201.77" y="229.93" class="st0" width="14.12" height="14.9"/>
	<rect x="159.4" y="244.84" class="st0" width="14.12" height="14.9"/>
	<rect x="159.4" y="229.93" class="st0" width="14.12" height="14.9"/>
	<rect x="145.28" y="229.93" class="st0" width="14.12" height="14.9"/>
	<rect x="4.06" y="95.78" class="st0" width="14.12" height="14.9"/>
	<rect y="215.03" class="st0" width="4.06" height="14.9"/>
	<rect y="95.78" class="st0" width="4.06" height="14.9"/>
	<rect x="18.19" y="95.78" class="st0" width="14.12" height="14.9"/>
	<rect x="32.31" y="215.03" class="st0" width="14.12" height="14.9"/>
	<rect x="4.06" y="215.03" class="st0" width="14.12" height="14.9"/>
	<rect x="32.31" y="229.93" class="st0" width="14.12" height="14.9"/>
	<rect x="46.43" y="229.93" class="st0" width="14.12" height="14.9"/>
	<rect x="357.1" y="80.88" class="st0" width="14.12" height="14.91"/>
	<rect x="18.19" y="215.03" class="st0" width="14.12" height="14.9"/>
	<rect x="385.35" y="215.03" class="st0" width="14.12" height="14.9"/>
	<rect x="399.47" y="215.03" class="st0" width="14.12" height="14.9"/>
	<rect x="371.23" y="229.93" class="st0" width="14.12" height="14.9"/>
	<rect x="215.89" y="229.93" class="st0" width="14.12" height="14.9"/>
	<rect x="413.59" y="215.03" class="st0" width="4.1" height="14.9"/>
	<rect x="413.59" y="80.88" class="st0" width="4.1" height="14.91"/>
	<rect x="385.35" y="80.88" class="st0" width="14.12" height="14.91"/>
	<rect x="371.23" y="80.88" class="st0" width="14.12" height="14.91"/>
	<rect x="399.47" y="80.88" class="st0" width="14.12" height="14.91"/>
	<rect x="357.1" y="229.93" class="st0" width="14.12" height="14.9"/>
	<rect x="371.23" y="215.03" class="st0" width="14.12" height="14.9"/>
	<rect x="258.25" y="229.93" class="st0" width="14.12" height="14.9"/>
	<rect x="342.98" y="229.93" class="st0" width="14.12" height="14.9"/>
	<rect x="272.37" y="229.93" class="st0" width="14.12" height="14.9"/>
	<rect x="230.01" y="229.93" class="st0" width="14.12" height="14.9"/>
	<rect x="244.13" y="229.93" class="st0" width="14.12" height="14.9"/>
	<rect x="328.86" y="229.93" class="st0" width="14.12" height="14.9"/>
	<rect x="314.74" y="229.93" class="st0" width="14.12" height="14.9"/>
	<rect x="286.5" y="229.93" class="st0" width="14.12" height="14.9"/>
	<rect x="300.62" y="229.93" class="st0" width="14.12" height="14.9"/>
	<rect x="131.16" y="51.07" class="st0" width="14.12" height="14.91"/>
	<rect x="18.19" y="259.74" class="st0" width="14.12" height="14.91"/>
	<rect y="65.97" class="st0" width="4.06" height="14.9"/>
	<rect x="32.31" y="259.74" class="st0" width="14.12" height="14.91"/>
	<rect x="102.91" y="259.74" class="st0" width="14.12" height="14.91"/>
	<rect y="244.84" class="st0" width="4.06" height="14.9"/>
	<rect x="4.06" y="259.74" class="st0" width="14.12" height="14.91"/>
	<rect x="88.79" y="259.74" class="st0" width="14.12" height="14.91"/>
	<rect x="46.43" y="259.74" class="st0" width="14.12" height="14.91"/>
	<rect x="74.67" y="259.74" class="st0" width="14.12" height="14.91"/>
	<rect x="60.55" y="259.74" class="st0" width="14.12" height="14.91"/>
	<rect x="4.06" y="244.84" class="st0" width="14.12" height="14.9"/>
	<rect x="74.67" y="51.07" class="st0" width="14.12" height="14.91"/>
	<rect x="88.79" y="51.07" class="st0" width="14.12" height="14.91"/>
	<rect x="102.91" y="51.07" class="st0" width="14.12" height="14.91"/>
	<rect x="60.55" y="51.07" class="st0" width="14.12" height="14.91"/>
	<rect x="46.43" y="51.07" class="st0" width="14.12" height="14.91"/>
	<rect x="18.19" y="65.97" class="st0" width="14.12" height="14.9"/>
	<rect x="32.31" y="65.97" class="st0" width="14.12" height="14.9"/>
	<rect x="46.43" y="65.97" class="st0" width="14.12" height="14.9"/>
	<rect x="4.06" y="65.97" class="st0" width="14.12" height="14.9"/>
	<rect x="328.86" y="259.74" class="st0" width="14.12" height="14.91"/>
	<rect x="300.62" y="259.74" class="st0" width="14.12" height="14.91"/>
	<rect x="117.04" y="259.74" class="st0" width="14.12" height="14.91"/>
	<rect x="272.37" y="259.74" class="st0" width="14.12" height="14.91"/>
	<rect x="117.04" y="51.07" class="st0" width="14.12" height="14.91"/>
	<rect x="286.5" y="259.74" class="st0" width="14.12" height="14.91"/>
	<rect x="342.98" y="259.74" class="st0" width="14.12" height="14.91"/>
	<rect x="371.23" y="259.74" class="st0" width="14.12" height="14.91"/>
	<rect x="385.35" y="259.74" class="st0" width="14.12" height="14.91"/>
	<rect x="357.1" y="259.74" class="st0" width="14.12" height="14.91"/>
	<rect x="258.25" y="259.74" class="st0" width="14.12" height="14.91"/>
	<rect x="314.74" y="259.74" class="st0" width="14.12" height="14.91"/>
	<rect x="244.13" y="259.74" class="st0" width="14.12" height="14.91"/>
	<rect x="145.28" y="259.74" class="st0" width="14.12" height="14.91"/>
	<rect x="173.52" y="259.74" class="st0" width="14.12" height="14.91"/>
	<rect x="131.16" y="259.74" class="st0" width="14.12" height="14.91"/>
	<rect x="159.4" y="259.74" class="st0" width="14.12" height="14.91"/>
	<rect x="215.89" y="259.74" class="st0" width="14.12" height="14.91"/>
	<rect x="230.01" y="259.74" class="st0" width="14.12" height="14.91"/>
	<rect x="201.77" y="259.74" class="st0" width="14.12" height="14.91"/>
	<rect x="187.64" y="259.74" class="st0" width="14.12" height="14.91"/>
	<rect x="173.52" y="51.07" class="st0" width="14.12" height="14.91"/>
	<rect x="357.1" y="244.84" class="st0" width="14.12" height="14.9"/>
	<rect x="399.47" y="65.97" class="st0" width="14.12" height="14.9"/>
	<rect x="342.98" y="244.84" class="st0" width="14.12" height="14.9"/>
	<rect x="385.35" y="244.84" class="st0" width="14.12" height="14.9"/>
	<rect x="328.86" y="244.84" class="st0" width="14.12" height="14.9"/>
	<rect x="314.74" y="244.84" class="st0" width="14.12" height="14.9"/>
	<rect x="413.59" y="229.93" class="st0" width="4.1" height="14.9"/>
	<rect x="413.59" y="65.97" class="st0" width="4.1" height="14.9"/>
	<rect x="399.47" y="229.93" class="st0" width="14.12" height="14.9"/>
	<rect x="385.35" y="229.93" class="st0" width="14.12" height="14.9"/>
	<rect x="371.23" y="244.84" class="st0" width="14.12" height="14.9"/>
	<rect x="230.01" y="244.84" class="st0" width="14.12" height="14.9"/>
	<rect x="215.89" y="244.84" class="st0" width="14.12" height="14.9"/>
	<rect x="201.77" y="244.84" class="st0" width="14.12" height="14.9"/>
	<rect x="187.64" y="244.84" class="st0" width="14.12" height="14.9"/>
	<rect x="272.37" y="244.84" class="st0" width="14.12" height="14.9"/>
	<rect x="286.5" y="244.84" class="st0" width="14.12" height="14.9"/>
	<rect x="300.62" y="244.84" class="st0" width="14.12" height="14.9"/>
	<rect x="258.25" y="244.84" class="st0" width="14.12" height="14.9"/>
	<rect x="244.13" y="244.84" class="st0" width="14.12" height="14.9"/>
	<rect x="328.86" y="51.07" class="st0" width="14.12" height="14.91"/>
	<rect x="230.01" y="51.07" class="st0" width="14.12" height="14.91"/>
	<rect x="215.89" y="51.07" class="st0" width="14.12" height="14.91"/>
	<rect x="258.25" y="51.07" class="st0" width="14.12" height="14.91"/>
	<rect x="201.77" y="51.07" class="st0" width="14.12" height="14.91"/>
	<rect x="244.13" y="51.07" class="st0" width="14.12" height="14.91"/>
	<rect x="385.35" y="65.97" class="st0" width="14.12" height="14.9"/>
	<rect x="145.28" y="51.07" class="st0" width="14.12" height="14.91"/>
	<rect x="159.4" y="51.07" class="st0" width="14.12" height="14.91"/>
	<rect x="173.52" y="244.84" class="st0" width="14.12" height="14.9"/>
	<rect x="187.64" y="51.07" class="st0" width="14.12" height="14.91"/>
	<rect x="357.1" y="65.97" class="st0" width="14.12" height="14.9"/>
	<rect x="357.1" y="51.07" class="st0" width="14.12" height="14.91"/>
	<rect x="342.98" y="51.07" class="st0" width="14.12" height="14.91"/>
	<rect x="272.37" y="51.07" class="st0" width="14.12" height="14.91"/>
	<rect x="371.23" y="65.97" class="st0" width="14.12" height="14.9"/>
	<rect x="286.5" y="51.07" class="st0" width="14.12" height="14.91"/>
	<rect x="399.47" y="259.74" class="st0" width="14.12" height="14.91"/>
	<rect x="300.62" y="51.07" class="st0" width="14.12" height="14.91"/>
	<rect x="314.74" y="51.07" class="st0" width="14.12" height="14.91"/>
</g>
<g>
	<circle class="st1" cx="348.14" cy="29.95" r="21.26"/>
	<g>
		<path d="M357.64,31.01c-0.33,0.43-1.03,0.65-2.09,0.65c-0.21,0-0.71-0.04-1.51-0.12s-1.33-0.12-1.6-0.12h-3.15
			c-0.14,0.55-0.21,1.16-0.21,1.83c0,2.17-0.03,3.37-0.09,3.6c-0.05,0.18-0.07,0.38-0.07,0.6s-0.1,0.43-0.31,0.62
			s-0.62,0.29-1.26,0.29c-0.74,0-1.23-0.12-1.48-0.37s-0.37-0.71-0.37-1.41l0.53-5.19c-1.5-0.08-2.47-0.08-2.92,0l-1.49,0.26
			c-0.5,0-0.94-0.17-1.31-0.51s-0.55-0.72-0.55-1.14c0-0.33,0.15-0.68,0.44-1.05s0.64-0.55,1.04-0.55c0.35,0,1,0.06,1.93,0.19
			l2.55-0.12h0.58c0.05-0.26,0.07-0.53,0.07-0.81c0-0.49-0.05-1.44-0.16-2.85c-0.05-0.52-0.07-0.9-0.07-1.16
			c0-1.93,0.64-2.9,1.92-2.9c0.46,0,0.84,0.24,1.14,0.73s0.46,0.89,0.46,1.2c0,0.52-0.05,1.31-0.14,2.39
			c-0.11,1.08-0.16,1.73-0.16,1.95v0.9c0,0.11,0.01,0.25,0.04,0.42l0.58,0.02l4.64-0.07c1.18,0,2.01,0.15,2.47,0.44
			s0.69,0.95,0.69,1.97L357.64,31.01z"/>
	</g>
</g>
<g>
	<path d="M17.93,43.62c-0.81,0.76-1.39,1.55-1.73,2.37c-0.15,0.34-0.3,0.6-0.46,0.78c-0.4-0.02-0.69-0.1-0.88-0.24
		s-0.28-0.37-0.28-0.69c0-0.28,0.12-0.63,0.37-1.05s0.85-1.07,1.81-1.96c0.15-0.14,0.27-0.26,0.37-0.36
		c-0.87-1.28-1.31-2.27-1.31-2.99c0-0.75,0.33-1.13,0.99-1.13c0.46,0,0.71,0.34,0.74,1.01c0.03,0.69,0.28,1.41,0.77,2.15
		c0.24-0.21,0.49-0.47,0.76-0.76c0.08-0.08,0.15-0.16,0.22-0.23c0.57-0.61,0.99-1.14,1.24-1.61c0.16-0.3,0.3-0.49,0.41-0.57
		s0.27-0.13,0.48-0.13c0.23,0,0.43,0.08,0.6,0.25s0.25,0.36,0.25,0.6c0,0.5-1.06,1.7-3.18,3.62c0.72,0.88,1.49,1.55,2.3,2
		c0.1,0.06,0.2,0.13,0.29,0.21c0.04,0.09,0.05,0.18,0.05,0.28c0,0.23-0.09,0.44-0.28,0.61s-0.41,0.26-0.68,0.26
		C20.1,46.06,19.15,45.24,17.93,43.62z"/>
	<path d="M24,43.2c0,0.15,0.02,0.31,0.07,0.47c0.04,0.16,0.07,0.36,0.1,0.57v-0.01l0.15,0.82c0.14,0.64,0.32,1.17,0.55,1.6
		s0.53,0.79,0.9,1.1c0.53,0.45,0.79,0.81,0.79,1.09c0,0.18-0.09,0.32-0.26,0.42s-0.39,0.16-0.65,0.16c-0.17,0-0.4-0.09-0.67-0.27
		s-0.61-0.53-1.01-1.05s-0.67-0.96-0.81-1.32s-0.28-0.94-0.43-1.76s-0.22-1.51-0.22-2.06c0-0.67,0.03-1.16,0.08-1.48
		s0.17-0.72,0.36-1.21s0.46-1.1,0.84-1.83s0.6-1.14,0.68-1.23s0.36-0.36,0.85-0.81l0.58-0.55c0.26-0.24,0.48-0.41,0.66-0.5
		s0.42-0.14,0.71-0.14c0.36,0,0.55,0.18,0.55,0.54c0,0.15-0.15,0.38-0.46,0.66c-0.54,0.51-1.02,1-1.44,1.48s-0.86,1.18-1.31,2.11
		s-0.68,1.78-0.68,2.54C23.94,42.69,23.96,42.9,24,43.2z"/>
	<path d="M34.33,44.96c-0.22-0.41-0.38-1.18-0.48-2.3c-0.1-1.17-0.32-1.75-0.67-1.75c-0.33,0-0.9,0.61-1.7,1.82s-1.3,2.11-1.49,2.69
		c-0.04,0.17-0.12,0.32-0.23,0.43s-0.22,0.17-0.33,0.17c-0.69,0-1.04-0.32-1.04-0.95c0-0.21,0.07-0.7,0.21-1.46
		c0.18-0.98,0.27-2.19,0.27-3.61c0-0.21,0.09-0.44,0.28-0.69s0.39-0.37,0.59-0.37c0.26,0,0.47,0.07,0.61,0.2s0.21,0.48,0.21,1.05
		c0,0.43-0.13,1.27-0.39,2.52c0.99-2.31,2.09-3.47,3.31-3.47c1.06,0,1.68,0.83,1.86,2.5c0.18,1.7,0.39,2.54,0.63,2.54
		c0.1,0,0.23-0.02,0.36-0.07c0.16-0.05,0.29-0.08,0.39-0.08c0.22,0,0.33,0.13,0.33,0.38c0,0.23-0.15,0.48-0.45,0.74
		s-0.68,0.39-1.13,0.39C34.93,45.65,34.55,45.42,34.33,44.96L34.33,44.96z"/>
	<path d="M38.46,49.43c-0.23,0-0.43-0.07-0.6-0.21s-0.25-0.28-0.25-0.43c0-0.21,0.28-0.66,0.84-1.36c0.37-0.44,0.73-1.12,1.09-2.04
		s0.54-1.49,0.54-1.71c0-0.77-0.06-1.5-0.18-2.19s-0.35-1.43-0.68-2.23s-0.61-1.37-0.84-1.74s-0.63-0.83-1.23-1.37
		c-0.11-0.1-0.16-0.24-0.16-0.41c0-0.12,0.09-0.25,0.27-0.4s0.37-0.22,0.57-0.22c0.43,0,0.98,0.48,1.63,1.45s1.05,1.69,1.19,2.16
		c0.05,0.16,0.1,0.33,0.16,0.51c0.28,0.84,0.48,1.52,0.58,2.03s0.15,1.15,0.15,1.9c0,0.86-0.15,1.66-0.44,2.42s-0.63,1.39-0.99,1.88
		c-0.39,0.52-0.62,0.85-0.7,0.98c-0.19,0.38-0.35,0.64-0.48,0.77S38.64,49.43,38.46,49.43z"/>
</g>
<g>
	<g>
		<line class="st2" x1="97.22" y1="30.83" x2="260.34" y2="30.83"/>
		<g>
			<polygon points="258.36,33.74 269.2,30.84 258.36,27.93 			"/>
		</g>
	</g>
</g>
<g>
	<g>
		<line class="st2" x1="212.51" y1="82.96" x2="260.34" y2="82.96"/>
		<g>
			<polygon points="258.36,85.87 269.2,82.97 258.36,80.06 			"/>
		</g>
	</g>
</g>
<g>
	<rect x="194.96" y="39.06" class="st1" width="35.43" height="35.43"/>
	<g>
		<path d="M215.15,52.21c-0.01,0.03-0.05,0.07-0.11,0.11c-0.14,0.09-0.27,0.19-0.41,0.3s-0.47,0.48-1,1.12
			c-0.68,0.81-1.3,1.51-1.86,2.09s-1.51,1.53-2.86,2.83l-0.71,0.69c0.43-0.04,0.98-0.09,1.65-0.16c0.96-0.1,1.49-0.16,1.6-0.16
			c0.33,0,0.6-0.01,0.81-0.03c0.21-0.01,0.4-0.02,0.57-0.02c1.32,0,1.98,0.32,1.98,0.96c0,0.26-0.07,0.46-0.2,0.61
			s-0.32,0.22-0.54,0.22c-0.18,0-0.4-0.03-0.64-0.1c-0.39-0.1-0.89-0.16-1.49-0.16c-0.23,0-0.9,0.04-2,0.11h0.01
			c-1.13,0.06-1.87,0.12-2.22,0.16s-0.76,0.12-1.22,0.25c-0.36,0.1-0.58,0.15-0.68,0.15c-0.46,0-0.68-0.23-0.68-0.68
			c0-0.36,0.12-0.64,0.37-0.82c0.61-0.45,1.39-1.14,2.37-2.05s1.88-1.83,2.74-2.72c0.14-0.15,0.3-0.31,0.49-0.5
			c0.76-0.76,1.31-1.35,1.65-1.78c-0.07,0-0.9,0.09-2.48,0.27c-1,0.12-1.75,0.18-2.26,0.18c-0.31,0-0.63-0.04-0.96-0.12
			c-0.48-0.21-0.72-0.48-0.72-0.81c0-0.15,0.09-0.32,0.28-0.52s0.34-0.29,0.46-0.29c0.09,0,0.2,0.02,0.34,0.08
			c0.14,0.05,0.25,0.08,0.32,0.08l1.26,0.01c0.35,0,0.73-0.01,1.14-0.05c0.31-0.03,0.79-0.06,1.46-0.09
			c0.75-0.04,1.27-0.08,1.54-0.13c0.84-0.14,1.37-0.21,1.59-0.21c0.38,0,0.57,0.2,0.57,0.61C215.31,51.88,215.25,52.07,215.15,52.21
			z"/>
		<path d="M217.98,53.54c0.61,0,1.05-0.02,1.32-0.05c0.11-0.02,0.23-0.02,0.35-0.02c0.06,0,0.18,0.03,0.37,0.1
			c0.19,0.07,0.3,0.14,0.33,0.21c0.04,0.07,0.06,0.14,0.06,0.2c0,0.25-0.15,0.37-0.46,0.37c-0.03,0-0.17-0.03-0.39-0.08
			c-0.05-0.01-0.08-0.02-0.1-0.02l-0.36,0.02c-0.06,0-0.26-0.01-0.61-0.04c-0.11-0.01-0.44,0-0.99,0.03c-0.31,0.02-0.52,0-0.63-0.05
			c-0.11-0.05-0.16-0.14-0.16-0.28c0-0.14,0.1-0.25,0.29-0.32c0.19-0.07,0.42-0.11,0.7-0.11C217.75,53.49,217.85,53.51,217.98,53.54
			z"/>
		<path d="M224.73,55.72l0.01,0.16c0.02,0.21-0.21,0.31-0.67,0.31c-0.09,0-0.18-0.06-0.26-0.19c-0.02-0.02-0.03-0.04-0.04-0.04
			c-0.05,0-0.26,0.06-0.63,0.18c-0.08,0.03-0.13,0.04-0.17,0.05c-0.31,0.1-0.54,0.15-0.69,0.15c-0.16,0-0.29-0.05-0.39-0.14
			c-0.1-0.09-0.15-0.19-0.15-0.28c0-0.13,0.08-0.24,0.23-0.32c0.15-0.08,0.44-0.16,0.84-0.23c0.43-0.08,0.71-0.15,0.84-0.21
			c0.01-0.14,0.02-0.28,0.03-0.42c0.03-0.46,0.16-1.39,0.41-2.79c-0.02,0.01-0.25,0.13-0.67,0.38c-0.39,0.23-0.75,0.34-1.08,0.34
			c-0.22,0-0.33-0.09-0.33-0.28c0-0.12,0.04-0.21,0.11-0.27c0.07-0.06,0.21-0.13,0.41-0.22c0.24-0.1,0.54-0.25,0.91-0.46l0.59-0.34
			c0.36-0.23,0.6-0.35,0.7-0.35c0.15,0,0.26,0.07,0.33,0.21c0.08,0.14,0.12,0.26,0.12,0.37c0,0.08-0.04,0.17-0.12,0.26
			c-0.19,0.82-0.32,1.47-0.38,1.96c-0.06,0.49-0.09,0.97-0.09,1.44c0.15-0.02,0.49-0.1,1.03-0.23c0.32-0.08,0.66-0.12,1-0.12
			c0.09,0.19,0.14,0.31,0.14,0.37c0,0.09-0.02,0.17-0.06,0.22s-0.15,0.11-0.31,0.16c-0.16,0.05-0.44,0.11-0.83,0.16
			C225.16,55.61,224.88,55.67,224.73,55.72z"/>
	</g>
</g>
<rect x="194.96" y="102.84" class="st1" width="35.43" height="35.43"/>
<g>
	<path d="M215.15,115.99c-0.01,0.03-0.05,0.07-0.11,0.11c-0.14,0.09-0.27,0.19-0.41,0.3s-0.47,0.48-1,1.12
		c-0.68,0.81-1.3,1.51-1.86,2.09s-1.51,1.53-2.86,2.83l-0.71,0.69c0.43-0.04,0.98-0.09,1.65-0.16c0.96-0.1,1.49-0.16,1.6-0.16
		c0.33,0,0.6-0.01,0.81-0.03c0.21-0.01,0.4-0.02,0.57-0.02c1.32,0,1.98,0.32,1.98,0.96c0,0.26-0.07,0.46-0.2,0.61
		s-0.32,0.22-0.54,0.22c-0.18,0-0.4-0.03-0.64-0.1c-0.39-0.1-0.89-0.16-1.49-0.16c-0.23,0-0.9,0.04-2,0.11h0.01
		c-1.13,0.06-1.87,0.12-2.22,0.16s-0.76,0.12-1.22,0.25c-0.36,0.1-0.58,0.15-0.68,0.15c-0.46,0-0.68-0.23-0.68-0.68
		c0-0.36,0.12-0.64,0.37-0.82c0.61-0.45,1.39-1.14,2.37-2.05s1.88-1.83,2.74-2.72c0.14-0.15,0.3-0.31,0.49-0.5
		c0.76-0.76,1.31-1.35,1.65-1.78c-0.07,0-0.9,0.09-2.48,0.27c-1,0.12-1.75,0.18-2.26,0.18c-0.31,0-0.63-0.04-0.96-0.12
		c-0.48-0.21-0.72-0.48-0.72-0.81c0-0.15,0.09-0.32,0.28-0.52s0.34-0.29,0.46-0.29c0.09,0,0.2,0.02,0.34,0.08
		c0.14,0.05,0.25,0.08,0.32,0.08l1.26,0.01c0.35,0,0.73-0.01,1.14-0.05c0.31-0.03,0.79-0.06,1.46-0.09
		c0.75-0.04,1.27-0.08,1.54-0.13c0.84-0.14,1.37-0.21,1.59-0.21c0.38,0,0.57,0.2,0.57,0.61
		C215.31,115.66,215.25,115.85,215.15,115.99z"/>
	<path d="M217.98,117.32c0.61,0,1.05-0.02,1.32-0.05c0.11-0.02,0.23-0.02,0.35-0.02c0.06,0,0.18,0.03,0.37,0.1
		c0.19,0.07,0.3,0.14,0.33,0.21c0.04,0.07,0.06,0.14,0.06,0.2c0,0.25-0.15,0.37-0.46,0.37c-0.03,0-0.17-0.03-0.39-0.08
		c-0.05-0.01-0.08-0.02-0.1-0.02l-0.36,0.02c-0.06,0-0.26-0.01-0.61-0.04c-0.11-0.01-0.44,0-0.99,0.03c-0.31,0.02-0.52,0-0.63-0.05
		c-0.11-0.05-0.16-0.14-0.16-0.28c0-0.14,0.1-0.25,0.29-0.32c0.19-0.07,0.42-0.11,0.7-0.11
		C217.75,117.27,217.85,117.29,217.98,117.32z"/>
	<path d="M224.73,119.5l0.01,0.16c0.02,0.21-0.21,0.31-0.67,0.31c-0.09,0-0.18-0.06-0.26-0.19c-0.02-0.02-0.03-0.04-0.04-0.04
		c-0.05,0-0.26,0.06-0.63,0.18c-0.08,0.03-0.13,0.04-0.17,0.05c-0.31,0.1-0.54,0.15-0.69,0.15c-0.16,0-0.29-0.05-0.39-0.14
		c-0.1-0.09-0.15-0.19-0.15-0.28c0-0.13,0.08-0.24,0.23-0.32c0.15-0.08,0.44-0.16,0.84-0.23c0.43-0.08,0.71-0.15,0.84-0.21
		c0.01-0.14,0.02-0.28,0.03-0.42c0.03-0.46,0.16-1.39,0.41-2.79c-0.02,0.01-0.25,0.13-0.67,0.38c-0.39,0.23-0.75,0.34-1.08,0.34
		c-0.22,0-0.33-0.09-0.33-0.28c0-0.12,0.04-0.21,0.11-0.27c0.07-0.06,0.21-0.13,0.41-0.22c0.24-0.1,0.54-0.25,0.91-0.46l0.59-0.34
		c0.36-0.23,0.6-0.35,0.7-0.35c0.15,0,0.26,0.07,0.33,0.21c0.08,0.14,0.12,0.26,0.12,0.37c0,0.08-0.04,0.17-0.12,0.26
		c-0.19,0.82-0.32,1.47-0.38,1.96c-0.06,0.49-0.09,0.97-0.09,1.44c0.15-0.02,0.49-0.1,1.03-0.23c0.32-0.08,0.66-0.12,1-0.12
		c0.09,0.19,0.14,0.31,0.14,0.37c0,0.09-0.02,0.17-0.06,0.22s-0.15,0.11-0.31,0.16c-0.16,0.05-0.44,0.11-0.83,0.16
		C225.16,119.39,224.88,119.45,224.73,119.5z"/>
</g>
<rect x="194.96" y="198.08" class="st1" width="35.43" height="35.43"/>
<g>
	<g>
		<path d="M209.83,82.96c0-0.79,0.28-1.46,0.84-2.01c0.56-0.55,1.23-0.83,2-0.83c0.79,0,1.46,0.28,2.02,0.83
			c0.56,0.55,0.84,1.22,0.84,2.01c0,0.79-0.28,1.46-0.84,2.02c-0.56,0.56-1.23,0.84-2.02,0.84c-0.78,0-1.45-0.28-2-0.84
			C210.11,84.42,209.83,83.75,209.83,82.96z"/>
	</g>
	<g>
		<g>
			<line class="st2" x1="212.68" y1="74.49" x2="212.68" y2="93.98"/>
			<g>
				<polygon points="209.78,92 212.68,102.84 215.59,92 				"/>
			</g>
		</g>
	</g>
</g>
<g>
	<g>
		<line class="st2" x1="212.68" y1="178.98" x2="212.68" y2="189.97"/>
		<g>
			<polygon points="209.78,187.99 212.68,198.83 215.59,187.99 			"/>
		</g>
	</g>
</g>
<g>
	<g>
		<path d="M209.83,147.16c0-0.79,0.28-1.46,0.84-2.01c0.56-0.55,1.23-0.83,2-0.83c0.79,0,1.46,0.28,2.02,0.83
			c0.56,0.55,0.84,1.22,0.84,2.01c0,0.79-0.28,1.46-0.84,2.02c-0.56,0.56-1.23,0.84-2.02,0.84c-0.78,0-1.45-0.28-2-0.84
			C210.11,148.62,209.83,147.95,209.83,147.16z"/>
	</g>
	<g>
		<g>
			<line class="st2" x1="212.68" y1="138.69" x2="212.68" y2="158.17"/>
			<g>
				<polygon points="209.78,156.19 212.68,167.03 215.59,156.19 				"/>
			</g>
		</g>
	</g>
</g>
<g>
	<g>
		<line class="st2" x1="212.68" y1="147.17" x2="260.51" y2="147.17"/>
		<g>
			<polygon points="258.53,150.07 269.37,147.17 258.53,144.26 			"/>
		</g>
	</g>
</g>
<g>
	<g>
		<polyline class="st2" points="260.51,247.68 212.68,247.68 212.68,233.51 		"/>
		<g>
			<polygon points="258.53,244.78 269.37,247.68 258.53,250.59 			"/>
		</g>
	</g>
</g>
<g>
	<path d="M209.03,173.5c-0.35,0-0.61-0.07-0.78-0.21s-0.25-0.5-0.25-1.09c0-0.33,0.01-0.58,0.04-0.75s0.17-0.31,0.43-0.41
		s0.62-0.15,1.1-0.15c0.36,0,0.63,0.08,0.82,0.25s0.28,0.35,0.28,0.55c0,0.33-0.05,0.58-0.15,0.76s-0.33,0.39-0.67,0.65
		S209.23,173.5,209.03,173.5z"/>
	<path d="M213.51,173.5c-0.35,0-0.61-0.07-0.78-0.21s-0.25-0.5-0.25-1.09c0-0.33,0.01-0.58,0.04-0.75s0.17-0.31,0.43-0.41
		s0.62-0.15,1.1-0.15c0.36,0,0.63,0.08,0.82,0.25s0.28,0.35,0.28,0.55c0,0.33-0.05,0.58-0.15,0.76s-0.33,0.39-0.67,0.65
		S213.72,173.5,213.51,173.5z"/>
	<path d="M217.99,173.5c-0.35,0-0.61-0.07-0.78-0.21s-0.25-0.5-0.25-1.09c0-0.33,0.01-0.58,0.04-0.75s0.17-0.31,0.43-0.41
		s0.62-0.15,1.1-0.15c0.36,0,0.63,0.08,0.82,0.25s0.28,0.35,0.28,0.55c0,0.33-0.05,0.58-0.15,0.76s-0.33,0.39-0.67,0.65
		S218.2,173.5,217.99,173.5z"/>
</g>
<g>
	<line class="st3" x1="269.2" y1="104.23" x2="269.2" y2="61.71"/>
	<polyline class="st3" points="269.49,103.51 290.06,82.97 269.51,62.41 	"/>
</g>
<g>
	<line class="st3" x1="269.34" y1="168.43" x2="269.34" y2="125.91"/>
	<polyline class="st3" points="269.63,167.71 290.21,147.17 269.65,126.61 	"/>
</g>
<g>
	<line class="st3" x1="269.49" y1="268.94" x2="269.49" y2="226.42"/>
	<polyline class="st3" points="269.78,268.23 290.35,247.68 269.79,227.13 	"/>
</g>
<g>
	<g>
		<line class="st2" x1="120.8" y1="83.11" x2="94.34" y2="54.67"/>
		<g>
			<polygon points="97.82,54.14 88.31,48.18 93.56,58.1 			"/>
		</g>
	</g>
</g>
<line class="st2" x1="290.6" y1="82.96" x2="304.64" y2="82.96"/>
<g>
	<g>
		<line class="st2" x1="120.68" y1="147.46" x2="87.57" y2="57.97"/>
		<g>
			<polygon points="90.98,58.82 84.5,49.66 85.53,60.84 			"/>
		</g>
	</g>
</g>
<line class="st2" x1="290.78" y1="147.17" x2="304.84" y2="147.17"/>
<line class="st2" x1="291.15" y1="247.68" x2="305.22" y2="247.68"/>
<g>
	<g>
		<line class="st2" x1="120.39" y1="247.76" x2="80.43" y2="59.96"/>
		<g>
			<polygon points="83.68,61.29 78.58,51.29 78,62.5 			"/>
		</g>
	</g>
</g>
<line class="st2" x1="212.68" y1="30.68" x2="212.68" y2="39.06"/>
<path d="M209.83,30.67c0-0.79,0.28-1.46,0.84-2.01c0.56-0.55,1.23-0.83,2-0.83c0.79,0,1.46,0.28,2.02,0.83
	c0.56,0.55,0.84,1.22,0.84,2.01c0,0.79-0.28,1.46-0.84,2.02c-0.56,0.56-1.23,0.84-2.02,0.84c-0.78,0-1.45-0.28-2-0.84
	C210.11,32.13,209.83,31.46,209.83,30.67z"/>
<g>
	<path d="M380.48,12.92c-0.07,1.11-0.2,2.18-0.39,3.22s-0.46,1.99-0.81,2.83s-0.74,1.43-1.16,1.73s-0.9,0.46-1.47,0.46
		c-0.61,0-1.2-0.12-1.76-0.35h0.01c-0.48-0.2-0.9-0.47-1.26-0.81s-0.54-0.62-0.54-0.85c0-0.21,0.05-0.39,0.16-0.51
		s0.25-0.19,0.42-0.19c0.15,0,0.28,0.06,0.38,0.19c0.58,0.75,1.43,1.13,2.54,1.13c0.45,0,0.89-0.47,1.31-1.42
		c0.42-0.94,0.68-2.08,0.79-3.4c-1.41,1.11-2.49,1.67-3.25,1.67c-0.49,0-0.88-0.2-1.17-0.59s-0.43-0.86-0.43-1.42
		s0.13-1.35,0.39-2.4s0.48-1.7,0.66-1.96s0.47-0.38,0.88-0.38c0.22,0,0.39,0.09,0.51,0.28c0.12,0.19,0.18,0.4,0.18,0.63
		c0,0.07-0.16,0.45-0.49,1.16c-0.4,0.86-0.6,1.6-0.6,2.21c0,0.32,0.04,0.56,0.13,0.73s0.18,0.25,0.28,0.25c0.22,0,0.48-0.07,0.8-0.2
		s0.68-0.36,1.1-0.69s0.69-0.57,0.82-0.74s0.22-0.39,0.29-0.65c0.07-0.27,0.13-0.85,0.17-1.76c0.02-0.53,0.05-0.86,0.08-1
		s0.11-0.26,0.24-0.38c0.13-0.11,0.31-0.17,0.53-0.17c0.3,0,0.51,0.06,0.64,0.19s0.19,0.43,0.19,0.9L380.48,12.92z"/>
	<path d="M383.14,14.19c0,0.15,0.02,0.31,0.07,0.47c0.04,0.16,0.07,0.36,0.1,0.57v-0.01l0.15,0.82c0.14,0.64,0.32,1.17,0.55,1.6
		s0.53,0.79,0.9,1.1c0.53,0.45,0.79,0.81,0.79,1.09c0,0.18-0.09,0.32-0.26,0.42c-0.17,0.1-0.39,0.16-0.65,0.16
		c-0.17,0-0.39-0.09-0.67-0.27s-0.61-0.53-1.01-1.05c-0.4-0.52-0.67-0.96-0.81-1.32s-0.28-0.94-0.43-1.76s-0.22-1.51-0.22-2.06
		c0-0.67,0.03-1.16,0.08-1.48s0.17-0.72,0.36-1.21s0.46-1.1,0.84-1.83s0.6-1.14,0.68-1.23c0.08-0.09,0.36-0.36,0.85-0.81l0.58-0.55
		c0.25-0.24,0.48-0.41,0.66-0.5c0.19-0.09,0.42-0.14,0.71-0.14c0.37,0,0.55,0.18,0.55,0.54c0,0.15-0.15,0.38-0.46,0.66
		c-0.54,0.51-1.02,1-1.44,1.48c-0.42,0.47-0.86,1.18-1.31,2.11s-0.68,1.78-0.68,2.54C383.08,13.68,383.1,13.89,383.14,14.19z"/>
	<path d="M393.47,15.95c-0.22-0.41-0.38-1.18-0.48-2.3c-0.1-1.17-0.32-1.75-0.67-1.75c-0.33,0-0.9,0.61-1.7,1.82
		s-1.3,2.11-1.49,2.69c-0.04,0.17-0.12,0.32-0.23,0.43s-0.22,0.17-0.33,0.17c-0.69,0-1.04-0.32-1.04-0.95c0-0.21,0.07-0.7,0.21-1.46
		c0.18-0.98,0.27-2.19,0.27-3.61c0-0.21,0.09-0.44,0.28-0.69c0.19-0.24,0.39-0.37,0.6-0.37c0.26,0,0.47,0.07,0.61,0.2
		c0.14,0.13,0.21,0.48,0.21,1.05c0,0.43-0.13,1.27-0.39,2.52c0.99-2.31,2.09-3.47,3.31-3.47c1.06,0,1.68,0.83,1.86,2.5
		c0.18,1.7,0.39,2.54,0.63,2.54c0.11,0,0.23-0.02,0.36-0.07c0.16-0.05,0.29-0.08,0.39-0.08c0.22,0,0.33,0.13,0.33,0.38
		c0,0.23-0.15,0.48-0.45,0.74s-0.68,0.39-1.13,0.39C394.07,16.64,393.69,16.41,393.47,15.95L393.47,15.95z"/>
	<path d="M397.6,20.42c-0.23,0-0.43-0.07-0.6-0.21c-0.17-0.14-0.25-0.28-0.25-0.43c0-0.21,0.28-0.66,0.84-1.36
		c0.37-0.44,0.73-1.12,1.09-2.04s0.54-1.49,0.54-1.71c0-0.77-0.06-1.5-0.18-2.19s-0.35-1.43-0.68-2.23
		c-0.33-0.79-0.61-1.37-0.84-1.74s-0.63-0.83-1.23-1.37c-0.11-0.1-0.16-0.24-0.16-0.41c0-0.12,0.09-0.25,0.27-0.4
		s0.37-0.22,0.57-0.22c0.43,0,0.98,0.48,1.63,1.45s1.05,1.69,1.19,2.16c0.05,0.16,0.1,0.33,0.16,0.51c0.28,0.84,0.48,1.52,0.58,2.03
		s0.15,1.15,0.15,1.9c0,0.86-0.15,1.66-0.44,2.42s-0.63,1.39-0.99,1.88c-0.39,0.52-0.63,0.85-0.7,0.98
		c-0.19,0.38-0.35,0.64-0.48,0.77S397.78,20.42,397.6,20.42z"/>
</g>
<g>
	<path d="M283.3,59.02c0.38-2.25,0.65-3.58,0.82-3.99s0.46-0.62,0.87-0.62c0.32,0,0.48,0.28,0.48,0.85c0,0.39-0.16,1.19-0.48,2.41
		c-0.17,0.6-0.37,1.51-0.61,2.73c0.48-0.64,1.01-1.17,1.58-1.56s1.08-0.6,1.53-0.6c0.37,0,0.67,0.16,0.92,0.47s0.37,0.68,0.37,1.11
		c0,1.2-0.46,2.33-1.39,3.39s-1.91,1.59-2.94,1.59c-0.31,0-0.6-0.08-0.87-0.25s-0.42-0.39-0.46-0.65c-0.02-0.14-0.04-0.24-0.09-0.29
		s-0.09-0.1-0.13-0.15c-0.11-0.12-0.17-0.28-0.17-0.49c0-0.24,0.06-0.75,0.18-1.51L283.3,59.02z M284,63.18
		c0.16,0.27,0.35,0.41,0.55,0.41c0.37,0,0.77-0.17,1.22-0.51s0.84-0.81,1.17-1.43s0.5-1.12,0.5-1.53c0-0.39-0.06-0.58-0.18-0.58
		c-0.62,0-1.32,0.45-2.09,1.36S284,62.58,284,63.18z"/>
	<path d="M292.1,68.25l0.01,0.13c0.01,0.18-0.18,0.27-0.58,0.27c-0.08,0-0.15-0.05-0.23-0.16c-0.01-0.02-0.02-0.03-0.03-0.03
		c-0.04,0-0.22,0.05-0.54,0.15c-0.07,0.02-0.12,0.04-0.15,0.04c-0.26,0.08-0.46,0.13-0.59,0.13c-0.14,0-0.25-0.04-0.34-0.12
		c-0.09-0.08-0.13-0.16-0.13-0.24c0-0.11,0.07-0.2,0.2-0.27c0.13-0.07,0.37-0.14,0.72-0.2c0.37-0.07,0.61-0.13,0.72-0.18
		c0.01-0.12,0.02-0.24,0.03-0.36c0.02-0.39,0.14-1.19,0.36-2.4c-0.02,0-0.21,0.11-0.58,0.32c-0.33,0.19-0.64,0.29-0.93,0.29
		c-0.19,0-0.28-0.08-0.28-0.24c0-0.1,0.03-0.18,0.09-0.23c0.06-0.05,0.18-0.12,0.35-0.19c0.2-0.08,0.46-0.21,0.78-0.39l0.51-0.29
		c0.31-0.2,0.51-0.3,0.6-0.3c0.13,0,0.22,0.06,0.29,0.18c0.07,0.12,0.1,0.23,0.1,0.31c0,0.07-0.03,0.15-0.1,0.22
		c-0.16,0.7-0.27,1.26-0.32,1.68c-0.05,0.42-0.08,0.83-0.08,1.23c0.13-0.02,0.42-0.08,0.88-0.2c0.28-0.07,0.56-0.11,0.85-0.11
		c0.08,0.16,0.12,0.27,0.12,0.32c0,0.08-0.02,0.14-0.05,0.19c-0.04,0.05-0.13,0.09-0.27,0.14c-0.14,0.05-0.38,0.09-0.71,0.14
		C292.47,68.15,292.23,68.2,292.1,68.25z"/>
</g>
<g>
	<path d="M283.3,9.61c0.38-2.25,0.65-3.58,0.82-3.99S284.58,5,284.99,5c0.32,0,0.48,0.28,0.48,0.85c0,0.39-0.16,1.19-0.48,2.41
		c-0.17,0.6-0.37,1.51-0.61,2.73c0.48-0.64,1.01-1.17,1.58-1.56s1.08-0.6,1.53-0.6c0.37,0,0.67,0.16,0.92,0.47s0.37,0.68,0.37,1.11
		c0,1.2-0.46,2.33-1.39,3.39s-1.91,1.59-2.94,1.59c-0.31,0-0.6-0.08-0.87-0.25s-0.42-0.39-0.46-0.65c-0.02-0.14-0.04-0.24-0.09-0.29
		s-0.09-0.1-0.13-0.15c-0.11-0.12-0.17-0.28-0.17-0.49c0-0.24,0.06-0.75,0.18-1.51L283.3,9.61z M284,13.77
		c0.16,0.27,0.35,0.41,0.55,0.41c0.37,0,0.77-0.17,1.22-0.51s0.84-0.81,1.17-1.43s0.5-1.12,0.5-1.53c0-0.39-0.06-0.58-0.18-0.58
		c-0.62,0-1.32,0.45-2.09,1.36S284,13.16,284,13.77z"/>
	<path d="M290.27,19.38c-0.38,0-0.67-0.13-0.89-0.38c-0.22-0.25-0.33-0.57-0.33-0.97c0-0.45,0.13-0.94,0.41-1.47
		c0.27-0.53,0.67-0.98,1.2-1.33c0.53-0.36,1.01-0.53,1.43-0.53c0.32,0,0.66,0.11,1.02,0.33c0.36,0.22,0.61,0.45,0.73,0.69
		c0.12,0.24,0.18,0.55,0.18,0.93c0,0.6-0.39,1.21-1.17,1.82C292.08,19.07,291.21,19.38,290.27,19.38z M292.6,15.56
		c-0.06,0.04-0.15,0.06-0.25,0.06c-0.03,0-0.08-0.02-0.16-0.08c-0.08-0.05-0.13-0.07-0.16-0.07c-0.23,0-0.43,0.04-0.58,0.13
		s-0.35,0.24-0.59,0.48c-0.24,0.23-0.46,0.51-0.64,0.82c-0.18,0.31-0.27,0.63-0.27,0.97c0,0.13,0.02,0.26,0.05,0.38
		c0.03,0.12,0.07,0.2,0.12,0.23c0.04,0.04,0.12,0.07,0.22,0.11c0.11,0.04,0.22,0.06,0.35,0.06c0.25,0,0.58-0.12,0.99-0.35
		s0.77-0.5,1.08-0.81c0.31-0.31,0.46-0.55,0.46-0.74c0-0.1-0.02-0.24-0.06-0.39c-0.04-0.16-0.07-0.26-0.1-0.31
		c-0.03-0.05-0.1-0.13-0.21-0.24C292.73,15.69,292.65,15.61,292.6,15.56z"/>
</g>
<g>
	<path d="M282.59,123.22c0.38-2.25,0.65-3.58,0.82-3.99s0.46-0.62,0.87-0.62c0.32,0,0.48,0.28,0.48,0.85c0,0.39-0.16,1.19-0.48,2.41
		c-0.17,0.6-0.37,1.51-0.61,2.73c0.48-0.64,1.01-1.17,1.58-1.56s1.08-0.6,1.53-0.6c0.37,0,0.67,0.16,0.92,0.47s0.37,0.68,0.37,1.11
		c0,1.2-0.46,2.33-1.39,3.39s-1.91,1.59-2.94,1.59c-0.31,0-0.6-0.08-0.87-0.25s-0.42-0.39-0.46-0.65c-0.02-0.14-0.04-0.24-0.09-0.29
		s-0.09-0.1-0.13-0.15c-0.11-0.12-0.17-0.28-0.17-0.49c0-0.24,0.06-0.75,0.18-1.51L282.59,123.22z M283.28,127.38
		c0.16,0.27,0.35,0.41,0.55,0.41c0.37,0,0.77-0.17,1.22-0.51s0.84-0.81,1.17-1.43s0.5-1.12,0.5-1.53c0-0.39-0.06-0.58-0.18-0.58
		c-0.62,0-1.32,0.45-2.09,1.36S283.28,126.78,283.28,127.38z"/>
	<path d="M290.14,132.1c0.27-0.07,0.69-0.1,1.26-0.1c0.11,0,0.29,0.02,0.54,0.05s0.42,0.05,0.51,0.05c0.08,0,0.17-0.02,0.26-0.06
		c0.1-0.04,0.2-0.06,0.3-0.06c0.08,0,0.15,0.04,0.23,0.12c0.07,0.08,0.11,0.15,0.11,0.21c0,0.18-0.1,0.32-0.29,0.41
		c-0.2,0.09-0.39,0.14-0.58,0.14c-0.24,0-0.41-0.01-0.5-0.04c-0.32-0.09-0.75-0.14-1.27-0.14c-0.25,0-0.48,0.02-0.7,0.06
		c-0.21,0.04-0.37,0.08-0.46,0.13s-0.19,0.12-0.27,0.22c-0.1,0.12-0.24,0.18-0.4,0.18c-0.26,0-0.39-0.11-0.39-0.32
		c0-0.19,0.07-0.37,0.2-0.54c0.13-0.17,0.39-0.37,0.78-0.6c0.52-0.3,0.92-0.57,1.21-0.8c0.29-0.24,0.52-0.49,0.71-0.76
		c0.18-0.27,0.27-0.47,0.27-0.62c0-0.17-0.06-0.31-0.19-0.43s-0.29-0.18-0.49-0.18c-0.09,0-0.26,0.07-0.5,0.22
		c-0.25,0.14-0.45,0.31-0.6,0.49c-0.1,0.12-0.27,0.18-0.49,0.18c-0.09,0-0.16-0.06-0.23-0.17c-0.07-0.11-0.1-0.21-0.1-0.3
		c0-0.1,0.09-0.21,0.27-0.32c0.06-0.04,0.12-0.08,0.2-0.14c0.38-0.27,0.68-0.46,0.89-0.55c0.21-0.09,0.49-0.14,0.84-0.14
		c0.31,0,0.6,0.13,0.88,0.4c0.28,0.27,0.42,0.55,0.42,0.84c0,0.39-0.22,0.83-0.67,1.33C291.41,131.34,290.84,131.76,290.14,132.1z"
		/>
</g>
<g>
	<path d="M281.02,223.04c0.38-2.25,0.65-3.58,0.82-3.99s0.46-0.62,0.87-0.62c0.32,0,0.48,0.28,0.48,0.85c0,0.39-0.16,1.19-0.48,2.41
		c-0.17,0.6-0.37,1.51-0.61,2.73c0.48-0.64,1.01-1.17,1.58-1.56s1.08-0.6,1.53-0.6c0.37,0,0.67,0.16,0.92,0.47s0.37,0.68,0.37,1.11
		c0,1.2-0.46,2.33-1.39,3.39s-1.91,1.59-2.94,1.59c-0.31,0-0.6-0.08-0.87-0.25s-0.42-0.39-0.46-0.65c-0.02-0.14-0.04-0.24-0.09-0.29
		s-0.09-0.1-0.13-0.15c-0.11-0.12-0.17-0.28-0.17-0.49c0-0.24,0.06-0.75,0.18-1.51L281.02,223.04z M281.71,227.2
		c0.16,0.27,0.35,0.41,0.55,0.41c0.37,0,0.77-0.17,1.22-0.51s0.84-0.81,1.17-1.43s0.5-1.12,0.5-1.53c0-0.39-0.06-0.58-0.18-0.58
		c-0.62,0-1.32,0.45-2.09,1.36S281.71,226.59,281.71,227.2z"/>
	<path d="M292.03,228.96l-1.14,1.54c-0.53,0.74-0.93,1.1-1.22,1.1c-0.13,0-0.25-0.08-0.35-0.23s-0.21-0.38-0.31-0.69
		c-0.11-0.31-0.18-0.54-0.23-0.7c-0.1-0.37-0.16-0.58-0.2-0.63l-0.17,0.89c-0.05,0.29-0.11,0.55-0.17,0.79
		c-0.06,0.24-0.12,0.53-0.19,0.87c-0.07,0.34-0.11,0.59-0.13,0.76c0,0.06-0.06,0.12-0.16,0.18c-0.1,0.07-0.18,0.1-0.24,0.1
		c-0.11,0-0.21-0.05-0.31-0.15c-0.09-0.1-0.14-0.2-0.14-0.29c0-0.22,0.04-0.5,0.14-0.83c0.38-1.38,0.59-2.25,0.64-2.61
		c0.05-0.36,0.08-0.65,0.08-0.89c0-0.12,0.05-0.22,0.16-0.28c0.11-0.07,0.25-0.1,0.42-0.1c0.09,0,0.19,0.06,0.28,0.18
		c0.09,0.12,0.15,0.24,0.18,0.34l0-0.01l0.47,1.33c0.19,0.53,0.32,0.87,0.38,1.01c0.25-0.27,0.61-0.73,1.09-1.39
		c0.48-0.66,0.81-1.08,0.99-1.27c0.18-0.19,0.3-0.28,0.38-0.28c0.11,0,0.24,0.05,0.37,0.14c0.14,0.09,0.21,0.17,0.21,0.24
		c0,0.05-0.04,0.39-0.13,1.03c-0.06,0.45-0.12,0.95-0.17,1.51c-0.05,0.56-0.08,0.88-0.08,0.98c0,0.12,0.02,0.25,0.05,0.38
		c0.02,0.1,0.03,0.19,0.03,0.28c0,0.23-0.04,0.38-0.12,0.46c-0.08,0.08-0.2,0.12-0.36,0.12c-0.3,0-0.45-0.22-0.45-0.67
		c0-0.42,0.04-0.94,0.12-1.55c0.08-0.61,0.15-1.08,0.21-1.41C292.01,229.09,292.03,229,292.03,228.96z"/>
</g>
<g>
	<g>
		<line class="st2" x1="212.51" y1="82.91" x2="164.68" y2="82.91"/>
		<g>
			<polygon points="166.66,80.01 155.82,82.91 166.66,85.82 			"/>
		</g>
	</g>
</g>
<g>
	<g>
		<line class="st2" x1="212.34" y1="147.12" x2="164.51" y2="147.12"/>
		<g>
			<polygon points="166.49,144.21 155.65,147.11 166.49,150.02 			"/>
		</g>
	</g>
</g>
<g>
	<g>
		<polyline class="st2" points="164.51,247.68 212.34,247.68 212.34,233.51 		"/>
		<g>
			<polygon points="166.49,250.59 155.65,247.69 166.49,244.78 			"/>
		</g>
	</g>
</g>
<g>
	<line class="st3" x1="155.82" y1="104.18" x2="155.82" y2="61.66"/>
	<polyline class="st3" points="155.53,103.46 134.96,82.92 155.51,62.36 	"/>
</g>
<g>
	<line class="st3" x1="155.67" y1="168.38" x2="155.67" y2="125.86"/>
	<polyline class="st3" points="155.39,167.66 134.81,147.12 155.37,126.56 	"/>
</g>
<g>
	<line class="st3" x1="155.53" y1="268.89" x2="155.53" y2="226.37"/>
	<polyline class="st3" points="155.24,268.18 134.67,247.63 155.23,227.08 	"/>
</g>
<line class="st2" x1="134.42" y1="82.91" x2="120.38" y2="82.91"/>
<line class="st2" x1="134.24" y1="147.12" x2="120.18" y2="147.12"/>
<line class="st2" x1="133.87" y1="247.63" x2="119.8" y2="247.63"/>
<g>
	<path d="M131.89,62.75c-1.03,1.36-2.02,2.03-2.98,2.03c-0.35,0-0.65-0.14-0.91-0.42s-0.38-0.63-0.38-1.06
		c0-1.04,0.46-2.14,1.38-3.31s1.85-1.75,2.79-1.75c0.48,0,0.79,0.24,0.94,0.72c0.45,0,0.67,0.17,0.67,0.52
		c0,0.16-0.04,0.46-0.13,0.89c-0.16,0.8-0.23,1.45-0.23,1.93c0,0.5,0.03,0.85,0.1,1.05s0.12,0.34,0.15,0.4s0.13,0.13,0.28,0.2
		c0.16,0.07,0.23,0.18,0.23,0.31c0,0.2-0.1,0.37-0.3,0.5s-0.41,0.2-0.63,0.2C132.14,64.96,131.81,64.22,131.89,62.75z M131.54,59.5
		c-0.39,0-0.91,0.44-1.54,1.31s-0.95,1.61-0.95,2.22c0,0.32,0.07,0.48,0.2,0.48c0.46,0,1.03-0.41,1.7-1.23s1.01-1.53,1.01-2.15
		c0-0.2-0.04-0.35-0.13-0.47S131.64,59.5,131.54,59.5z"/>
	<path d="M135.48,68.79c-0.38,0-0.67-0.13-0.89-0.38c-0.22-0.25-0.33-0.57-0.33-0.97c0-0.45,0.13-0.94,0.4-1.47
		c0.27-0.53,0.67-0.98,1.2-1.33s1.01-0.53,1.43-0.53c0.32,0,0.66,0.11,1.02,0.33c0.36,0.22,0.61,0.45,0.73,0.69
		c0.12,0.24,0.18,0.55,0.18,0.93c0,0.6-0.39,1.21-1.17,1.82C137.29,68.49,136.43,68.79,135.48,68.79z M137.81,64.98
		c-0.06,0.04-0.15,0.06-0.25,0.06c-0.03,0-0.08-0.02-0.16-0.08c-0.08-0.05-0.13-0.07-0.16-0.07c-0.23,0-0.43,0.04-0.58,0.13
		c-0.15,0.08-0.35,0.24-0.59,0.48c-0.24,0.23-0.46,0.51-0.64,0.82c-0.18,0.31-0.27,0.63-0.27,0.97c0,0.13,0.02,0.26,0.05,0.38
		c0.03,0.12,0.07,0.2,0.11,0.23c0.04,0.04,0.12,0.07,0.22,0.11s0.22,0.06,0.35,0.06c0.25,0,0.58-0.12,0.99-0.35
		c0.41-0.23,0.77-0.5,1.08-0.81s0.46-0.55,0.46-0.74c0-0.1-0.02-0.24-0.06-0.39c-0.04-0.16-0.07-0.26-0.1-0.31
		c-0.03-0.05-0.1-0.13-0.21-0.24C137.95,65.1,137.87,65.02,137.81,64.98z"/>
</g>
<g>
	<path d="M131.89,126.95c-1.03,1.36-2.02,2.03-2.98,2.03c-0.35,0-0.65-0.14-0.91-0.42s-0.38-0.63-0.38-1.06
		c0-1.04,0.46-2.14,1.38-3.31s1.85-1.75,2.79-1.75c0.48,0,0.79,0.24,0.94,0.72c0.45,0,0.67,0.17,0.67,0.52
		c0,0.16-0.04,0.46-0.13,0.89c-0.16,0.8-0.23,1.45-0.23,1.93c0,0.5,0.03,0.85,0.1,1.05s0.12,0.34,0.15,0.4s0.13,0.13,0.28,0.2
		c0.16,0.07,0.23,0.18,0.23,0.31c0,0.2-0.1,0.37-0.3,0.5s-0.41,0.2-0.63,0.2C132.14,129.16,131.81,128.42,131.89,126.95z
		 M131.54,123.7c-0.39,0-0.91,0.44-1.54,1.31s-0.95,1.61-0.95,2.22c0,0.32,0.07,0.48,0.2,0.48c0.46,0,1.03-0.41,1.7-1.23
		s1.01-1.53,1.01-2.15c0-0.2-0.04-0.35-0.13-0.47S131.64,123.7,131.54,123.7z"/>
	<path d="M137.31,132.45l0.01,0.13c0.01,0.18-0.18,0.27-0.58,0.27c-0.08,0-0.15-0.05-0.23-0.16c-0.01-0.02-0.02-0.03-0.03-0.03
		c-0.04,0-0.22,0.05-0.54,0.15c-0.07,0.02-0.12,0.04-0.15,0.04c-0.26,0.08-0.46,0.13-0.59,0.13c-0.14,0-0.25-0.04-0.34-0.12
		s-0.13-0.16-0.13-0.24c0-0.11,0.07-0.2,0.2-0.27c0.13-0.07,0.37-0.14,0.72-0.2c0.37-0.07,0.61-0.13,0.72-0.18
		c0.01-0.12,0.02-0.24,0.03-0.36c0.02-0.39,0.14-1.19,0.36-2.4c-0.02,0-0.21,0.11-0.58,0.32c-0.33,0.19-0.64,0.29-0.93,0.29
		c-0.19,0-0.28-0.08-0.28-0.24c0-0.1,0.03-0.18,0.09-0.23c0.06-0.05,0.18-0.12,0.35-0.19c0.2-0.08,0.47-0.21,0.78-0.39l0.51-0.29
		c0.31-0.2,0.51-0.3,0.6-0.3c0.13,0,0.22,0.06,0.29,0.18c0.07,0.12,0.1,0.23,0.1,0.31c0,0.07-0.03,0.15-0.1,0.22
		c-0.16,0.7-0.27,1.26-0.32,1.68s-0.08,0.83-0.08,1.23c0.13-0.02,0.42-0.08,0.88-0.2c0.28-0.07,0.56-0.11,0.85-0.11
		c0.08,0.16,0.12,0.27,0.12,0.32c0,0.08-0.02,0.14-0.05,0.19c-0.04,0.05-0.13,0.09-0.27,0.14c-0.14,0.05-0.38,0.09-0.71,0.14
		C137.69,132.35,137.44,132.4,137.31,132.45z"/>
</g>
<g>
	<path d="M131.89,227.46c-1.03,1.36-2.02,2.03-2.98,2.03c-0.35,0-0.65-0.14-0.91-0.42s-0.38-0.63-0.38-1.06
		c0-1.04,0.46-2.14,1.38-3.31s1.85-1.75,2.79-1.75c0.48,0,0.79,0.24,0.94,0.72c0.45,0,0.67,0.17,0.67,0.52
		c0,0.16-0.04,0.46-0.13,0.89c-0.16,0.8-0.23,1.45-0.23,1.93c0,0.5,0.03,0.85,0.1,1.05s0.12,0.34,0.15,0.4s0.13,0.13,0.28,0.2
		c0.16,0.07,0.23,0.18,0.23,0.31c0,0.2-0.1,0.37-0.3,0.5s-0.41,0.2-0.63,0.2C132.14,229.67,131.81,228.94,131.89,227.46z
		 M131.54,224.21c-0.39,0-0.91,0.44-1.54,1.31s-0.95,1.61-0.95,2.22c0,0.32,0.07,0.48,0.2,0.48c0.46,0,1.03-0.41,1.7-1.23
		s1.01-1.53,1.01-2.15c0-0.2-0.04-0.35-0.13-0.47S131.64,224.21,131.54,224.21z"/>
	<path d="M134.83,232.3l0.25-1.15c0.19-0.91,0.29-1.55,0.3-1.91c0.01-0.17,0.02-0.29,0.04-0.35s0.07-0.12,0.16-0.18
		c0.09-0.06,0.18-0.09,0.29-0.09c0.07,0,0.15,0.02,0.24,0.07c0.09,0.04,0.17,0.19,0.23,0.43c0.1,0.39,0.34,0.92,0.74,1.57
		c0.4,0.65,0.76,1.18,1.08,1.57c0.09-0.39,0.18-0.9,0.28-1.53c0.07-0.45,0.14-0.83,0.21-1.16c0.05-0.27,0.08-0.52,0.1-0.73
		c0.01-0.2,0.07-0.33,0.18-0.4c0.11-0.07,0.22-0.1,0.33-0.1c0.09,0,0.17,0.05,0.24,0.16c0.07,0.1,0.1,0.23,0.1,0.39
		c0,0.12-0.03,0.3-0.1,0.52c-0.14,0.52-0.28,1.19-0.42,2.02s-0.2,1.29-0.2,1.41v0.12c0,0.13-0.01,0.23-0.03,0.29
		c-0.02,0.06-0.08,0.12-0.17,0.18c-0.09,0.06-0.2,0.08-0.34,0.08c-0.08,0-0.15-0.01-0.18-0.02s-0.09-0.06-0.15-0.14
		c-0.06-0.08-0.13-0.18-0.2-0.3c-0.11-0.19-0.19-0.32-0.24-0.39c-0.54-0.69-1.07-1.5-1.57-2.42c-0.07,0.28-0.17,0.94-0.31,1.98
		l-0.04,0.31c-0.02,0.11-0.03,0.26-0.05,0.46c-0.02,0.24-0.07,0.42-0.18,0.53c-0.1,0.11-0.2,0.16-0.29,0.16
		c-0.15,0-0.25-0.04-0.32-0.11s-0.09-0.23-0.09-0.46c0-0.18,0.05-0.44,0.14-0.79L134.83,232.3z"/>
</g>
<path d="M209.64,247.57c0-0.79,0.28-1.46,0.84-2.01c0.56-0.55,1.23-0.83,2-0.83c0.79,0,1.46,0.28,2.02,0.83
	c0.56,0.55,0.84,1.22,0.84,2.01c0,0.79-0.28,1.46-0.84,2.02c-0.56,0.56-1.23,0.84-2.02,0.84c-0.78,0-1.45-0.28-2-0.84
	C209.92,249.03,209.64,248.36,209.64,247.57z"/>
<g>
	<circle class="st1" cx="76.54" cy="29.95" r="21.26"/>
	<g>
		<path d="M86.04,31.01c-0.33,0.43-1.03,0.65-2.09,0.65c-0.21,0-0.71-0.04-1.51-0.12s-1.33-0.12-1.6-0.12H77.7
			c-0.14,0.55-0.21,1.16-0.21,1.83c0,2.17-0.03,3.37-0.09,3.6c-0.05,0.18-0.07,0.38-0.07,0.6s-0.1,0.43-0.31,0.62
			s-0.62,0.29-1.26,0.29c-0.74,0-1.23-0.12-1.48-0.37s-0.37-0.71-0.37-1.41l0.53-5.19c-1.5-0.08-2.47-0.08-2.92,0l-1.49,0.26
			c-0.5,0-0.94-0.17-1.31-0.51s-0.55-0.72-0.55-1.14c0-0.33,0.15-0.68,0.44-1.05s0.64-0.55,1.04-0.55c0.35,0,1,0.06,1.93,0.19
			l2.55-0.12h0.58c0.05-0.26,0.07-0.53,0.07-0.81c0-0.49-0.05-1.44-0.16-2.85c-0.05-0.52-0.07-0.9-0.07-1.16
			c0-1.93,0.64-2.9,1.92-2.9c0.46,0,0.84,0.24,1.14,0.73s0.46,0.89,0.46,1.2c0,0.52-0.05,1.31-0.14,2.39
			c-0.11,1.08-0.16,1.73-0.16,1.95v0.9c0,0.11,0.01,0.25,0.04,0.42l0.58,0.02l4.64-0.07c1.18,0,2.01,0.15,2.47,0.44
			s0.69,0.95,0.69,1.97L86.04,31.01z"/>
	</g>
</g>
<g>
	<g>
		<line class="st2" x1="304.23" y1="83.12" x2="330.68" y2="54.69"/>
		<g>
			<polygon points="331.46,58.11 336.72,48.2 327.21,54.16 			"/>
		</g>
	</g>
</g>
<g>
	<g>
		<line class="st2" x1="304.34" y1="147.47" x2="337.45" y2="57.99"/>
		<g>
			<polygon points="339.49,60.85 340.53,49.68 334.04,58.84 			"/>
		</g>
	</g>
</g>
<g>
	<g>
		<line class="st2" x1="304.63" y1="247.78" x2="344.6" y2="59.97"/>
		<g>
			<polygon points="347.03,62.52 346.44,51.31 341.34,61.31 			"/>
		</g>
	</g>
</g>
<g>
	<path d="M215.15,211.81c-0.01,0.03-0.05,0.07-0.11,0.11c-0.14,0.09-0.27,0.19-0.41,0.3s-0.47,0.48-1,1.12
		c-0.68,0.81-1.3,1.51-1.86,2.09c-0.55,0.58-1.51,1.53-2.86,2.83l-0.71,0.69c0.43-0.04,0.98-0.09,1.65-0.16
		c0.96-0.11,1.49-0.16,1.6-0.16c0.33,0,0.6-0.01,0.81-0.03c0.21-0.01,0.4-0.02,0.57-0.02c1.32,0,1.98,0.32,1.98,0.96
		c0,0.26-0.07,0.46-0.2,0.61c-0.13,0.15-0.32,0.22-0.54,0.22c-0.18,0-0.4-0.03-0.64-0.1c-0.39-0.11-0.89-0.16-1.49-0.16
		c-0.23,0-0.9,0.04-2,0.11h0.01c-1.13,0.06-1.87,0.12-2.22,0.16s-0.76,0.12-1.22,0.25c-0.36,0.1-0.58,0.15-0.68,0.15
		c-0.46,0-0.68-0.23-0.68-0.68c0-0.37,0.12-0.64,0.37-0.82c0.61-0.45,1.39-1.14,2.37-2.05c0.97-0.92,1.88-1.83,2.74-2.72
		c0.14-0.15,0.3-0.31,0.49-0.5c0.76-0.76,1.31-1.35,1.65-1.78c-0.07,0-0.9,0.09-2.48,0.27c-1,0.12-1.75,0.18-2.26,0.18
		c-0.31,0-0.63-0.04-0.96-0.12c-0.48-0.21-0.72-0.48-0.72-0.81c0-0.15,0.09-0.32,0.28-0.52c0.19-0.2,0.34-0.29,0.46-0.29
		c0.09,0,0.2,0.02,0.34,0.08c0.14,0.05,0.25,0.08,0.32,0.08l1.26,0.01c0.35,0,0.73-0.01,1.14-0.05c0.31-0.03,0.79-0.06,1.46-0.09
		c0.75-0.04,1.27-0.08,1.54-0.13c0.84-0.14,1.37-0.21,1.59-0.21c0.38,0,0.57,0.2,0.57,0.61
		C215.31,211.48,215.25,211.67,215.15,211.81z"/>
	<path d="M217.98,213.14c0.61,0,1.05-0.02,1.32-0.05c0.11-0.02,0.23-0.02,0.35-0.02c0.06,0,0.18,0.03,0.37,0.1s0.3,0.14,0.33,0.21
		c0.04,0.07,0.06,0.14,0.06,0.2c0,0.25-0.15,0.37-0.46,0.37c-0.03,0-0.17-0.03-0.39-0.08c-0.05-0.01-0.08-0.02-0.1-0.02l-0.36,0.02
		c-0.06,0-0.26-0.01-0.61-0.04c-0.11-0.01-0.44,0-0.99,0.03c-0.31,0.02-0.52,0-0.63-0.05c-0.11-0.05-0.16-0.14-0.16-0.28
		c0-0.14,0.1-0.25,0.29-0.32c0.19-0.07,0.42-0.11,0.7-0.11C217.75,213.09,217.85,213.11,217.98,213.14z"/>
	<path d="M224.73,215.32l0.01,0.16c0.02,0.21-0.21,0.32-0.67,0.32c-0.09,0-0.18-0.06-0.26-0.19c-0.02-0.02-0.03-0.04-0.04-0.04
		c-0.05,0-0.26,0.06-0.63,0.18c-0.08,0.03-0.13,0.04-0.17,0.05c-0.31,0.1-0.54,0.15-0.69,0.15c-0.16,0-0.29-0.05-0.39-0.14
		c-0.1-0.09-0.15-0.19-0.15-0.28c0-0.13,0.08-0.24,0.23-0.32c0.15-0.08,0.44-0.16,0.84-0.23c0.43-0.08,0.71-0.15,0.84-0.21
		c0.01-0.14,0.02-0.28,0.03-0.42c0.03-0.46,0.16-1.39,0.41-2.79c-0.02,0.01-0.25,0.13-0.67,0.38c-0.39,0.23-0.75,0.34-1.08,0.34
		c-0.22,0-0.33-0.09-0.33-0.28c0-0.12,0.04-0.21,0.11-0.27c0.07-0.06,0.21-0.13,0.41-0.22c0.24-0.1,0.54-0.25,0.91-0.46l0.59-0.34
		c0.36-0.23,0.6-0.35,0.7-0.35c0.15,0,0.26,0.07,0.33,0.21c0.08,0.14,0.12,0.26,0.12,0.37c0,0.08-0.04,0.17-0.12,0.26
		c-0.19,0.82-0.32,1.47-0.38,1.96c-0.06,0.49-0.09,0.97-0.09,1.44c0.15-0.02,0.49-0.1,1.03-0.24c0.32-0.08,0.66-0.12,1-0.12
		c0.09,0.19,0.14,0.31,0.14,0.37c0,0.09-0.02,0.17-0.06,0.22c-0.04,0.05-0.15,0.11-0.31,0.16c-0.16,0.05-0.44,0.11-0.83,0.16
		C225.16,215.21,224.88,215.26,224.73,215.32z"/>
</g>
<g>
	<line class="st3" x1="269.34" y1="52.09" x2="269.34" y2="9.57"/>
	<polyline class="st3" points="269.63,51.38 290.21,30.83 269.65,10.28 	"/>
</g>
<g>
	<g>
		<line class="st2" x1="290.06" y1="30.85" x2="318.02" y2="30.85"/>
		<g>
			<polygon points="316.04,33.76 326.88,30.85 316.04,27.95 			"/>
		</g>
	</g>
</g>
<g>
	<g>
		<line class="st2" x1="369.4" y1="29.95" x2="397.35" y2="29.95"/>
		<g>
			<polygon points="395.37,32.85 406.21,29.95 395.37,27.04 			"/>
		</g>
	</g>
</g>
<g>
	<g>
		<line class="st2" x1="18.47" y1="30.83" x2="46.42" y2="30.83"/>
		<g>
			<polygon points="44.44,33.74 55.28,30.84 44.44,27.93 			"/>
		</g>
	</g>
</g>
</svg>
